<?xml version="1.0" encoding="UTF-8"?>
<svg id="Layer_1" data-name="Layer 1" xmlns="http://www.w3.org/2000/svg" xmlns:xlink="http://www.w3.org/1999/xlink" viewBox="0 0 1133.86 737.01">
  <defs>
    <style>
      .cls-1 {
        fill: #fff;
        filter: url(#drop-shadow-1);
      }

      .cls-2 {
        fill: #0c0c0c;
      }
    </style>
    <filter id="drop-shadow-1" x="299.86" y="44.52" width="533" height="654" filterUnits="userSpaceOnUse">
      <feOffset dx="-1.42" dy="2.83"/>
      <feGaussianBlur result="blur" stdDeviation=".85"/>
      <feFlood flood-color="#000" flood-opacity=".6"/>
      <feComposite in2="blur" operator="in"/>
      <feComposite in="SourceGraphic"/>
    </filter>
  </defs>
  <path class="cls-1" d="M813.02,480.85c-10.93-4.83-21.06-11.84-30.1-20.8-20.04-19.91-29.93-43.97-30.24-73.54,0-.06,0-.11,0-.17-.63-38.34,14.97-66.28,49.09-87.9,6.51-4.12,11.05-10.72,12.6-18.26s-.05-15.4-4.41-21.74c-28.7-41.74-71.17-65.52-126.21-70.67-3.22-.3-6.57-.46-9.97-.46-.39,0-.79.01-1.19.02.36-.44.73-.87,1.09-1.32.06-.08.13-.16.19-.23,24.37-30.64,36.73-64.42,36.73-100.4v-5.9c0-3.73-.36-7.52-1.08-11.26-2.57-13.41-14.31-23-27.82-23-.52,0-1.05.01-1.58.04-18.15,1-37.24,6.63-56.78,16.74-19.2,9.98-35.43,22.89-48.23,38.37-25,29.96-37.67,62.9-37.67,97.91v4.78c-23.44-9.56-43.62-14.23-61.59-14.23-.15,0-.31,0-.46,0-29.72.48-57.7,8.79-83.17,24.69-25.1,15.68-45.42,37.29-60.4,64.22-18.48,32.53-27.85,71.4-27.85,115.55,0,38.35,6.49,77.16,19.3,115.33,11.86,36.07,27.33,68.37,45.99,96.02,16.47,24.92,30.96,43.1,44.26,55.52,21.12,20.97,44.01,31.61,68.02,31.61,1.18,0,2.38-.03,3.56-.08,14.87-.56,32.54-5.4,54.06-14.82,13.22-5.83,26.44-8.78,39.31-8.78,11.72,0,24.36,2.95,37.56,8.78.15.07.31.13.47.2,22.5,9.45,41.17,14.04,57.09,14.04.42,0,.83,0,1.25-.03,24.45-1.08,47.16-11.32,67.5-30.44,6.66-5.96,13.69-13.75,20.92-23.18,6.61-8.63,14.03-19.04,22.05-30.93.1-.14.19-.29.28-.43,5.72-8.82,11.41-18.36,16.92-28.37,5.67-10.32,10.87-21.39,15.45-32.89,2.14-4.92,4.1-9.97,5.83-15.01.01-.04.02-.07.04-.11,1.8-5.33,3.3-9.84,4.72-14.21,4.48-13.82-2.21-28.8-15.5-34.67Z"/>
  <path class="cls-2" d="M724.33,386.81c-.79-48.09,19.98-85.51,62.25-112.3-23.84-34.67-59-54.16-105.5-58.51-16.54-1.55-37.69,2.36-63.4,11.83-27.67,10.26-43.25,15.36-46.7,15.36-7.31,0-21.33-4.31-42.11-13-20.74-8.67-38.43-13-53.03-13-24.6.4-47.48,7.19-68.61,20.39-21.14,13.2-38.04,31.24-50.71,54.07-16.16,28.38-24.22,62.27-24.22,101.66,0,35.46,5.94,70.91,17.86,106.39,11.14,33.89,25.39,63.63,42.66,89.21,15.36,23.26,28.86,40.19,40.35,50.85,16.55,16.54,33.43,24.43,50.75,23.63,11.14-.4,25.73-4.53,43.8-12.44,16.9-7.45,33.82-11.19,50.74-11.19,15.75,0,32.07,3.72,49.01,11.19,18.82,7.9,34.2,11.83,46.12,11.83,17.69-.78,34.2-8.46,49.59-23.02,5.36-4.75,11.23-11.24,17.56-19.51,6.35-8.29,13.36-18.14,21.05-29.55,5.36-8.27,10.65-17.13,15.86-26.6,5.19-9.45,9.9-19.49,14.12-30.15,1.9-4.33,3.63-8.75,5.18-13.29,1.53-4.53,3.07-9.14,4.61-13.88-14.22-6.28-27.1-15.19-38.62-26.62-25.34-25.18-38.21-56.32-38.6-93.35Z"/>
  <path class="cls-2" d="M651.68,168.14c20.38-25.62,30.57-53.19,30.57-82.75v-5.9c0-1.99-.2-3.95-.57-5.92-14.23.79-29.31,5.32-45.27,13.58-15.94,8.29-29.1,18.75-39.5,31.33-20.74,24.84-31.13,51.42-31.13,79.79v5.6c0,1.79.2,3.65.57,5.64,31.91,3.14,60.35-10.65,85.33-41.37Z"/>
</svg>