<?xml version="1.0" encoding="UTF-8"?>
<svg id="Layer_1" data-name="Layer 1" xmlns="http://www.w3.org/2000/svg" xmlns:xlink="http://www.w3.org/1999/xlink" viewBox="0 0 1133.86 737.01">
  <defs>
    <style>
      .cls-1 {
        fill: #fff;
        filter: url(#drop-shadow-1);
      }
    </style>
    <filter id="drop-shadow-1" x="299.86" y="44.52" width="533" height="654" filterUnits="userSpaceOnUse">
      <feOffset dx="-1.42" dy="2.83"/>
      <feGaussianBlur result="blur" stdDeviation=".85"/>
      <feFlood flood-color="#000" flood-opacity=".6"/>
      <feComposite in2="blur" operator="in"/>
      <feComposite in="SourceGraphic"/>
    </filter>
  </defs>
  <path class="cls-1" d="M813.02,480.85c-10.93-4.83-21.06-11.84-30.1-20.8-20.04-19.91-29.93-43.97-30.24-73.54,0-.06,0-.11,0-.17-.63-38.34,14.97-66.28,49.09-87.9,6.51-4.12,11.05-10.72,12.6-18.26s-.05-15.4-4.41-21.74c-28.7-41.74-71.17-65.52-126.21-70.67-3.22-.3-6.57-.46-9.97-.46-.39,0-.79.01-1.19.02.36-.44.73-.87,1.09-1.32.06-.08.13-.16.19-.23,24.37-30.64,36.73-64.42,36.73-100.4v-5.9c0-3.73-.36-7.52-1.08-11.26-2.57-13.41-14.31-23-27.82-23-.52,0-1.05.01-1.58.04-18.15,1-37.24,6.63-56.78,16.74-19.2,9.98-35.43,22.89-48.23,38.37-25,29.96-37.67,62.9-37.67,97.91v4.78c-23.44-9.56-43.62-14.23-61.59-14.23-.15,0-.31,0-.46,0-29.72.48-57.7,8.79-83.17,24.69-25.1,15.68-45.42,37.29-60.4,64.22-18.48,32.53-27.85,71.4-27.85,115.55,0,38.35,6.49,77.16,19.3,115.33,11.86,36.07,27.33,68.37,45.99,96.02,16.47,24.92,30.96,43.1,44.26,55.52,21.12,20.97,44.01,31.61,68.02,31.61,1.18,0,2.38-.03,3.56-.08,14.87-.56,32.54-5.4,54.06-14.82,13.22-5.83,26.44-8.78,39.31-8.78,11.72,0,24.36,2.95,37.56,8.78.15.07.31.13.47.2,22.5,9.45,41.17,14.04,57.09,14.04.42,0,.83,0,1.25-.03,24.45-1.08,47.16-11.32,67.5-30.44,6.66-5.96,13.69-13.75,20.92-23.18,6.61-8.63,14.03-19.04,22.05-30.93.1-.14.19-.29.28-.43,5.72-8.82,11.41-18.36,16.92-28.37,5.67-10.32,10.87-21.39,15.45-32.89,2.14-4.92,4.1-9.97,5.83-15.01.01-.04.02-.07.04-.11,1.8-5.33,3.3-9.84,4.72-14.21,4.48-13.82-2.21-28.8-15.5-34.67Z"/>
  <g>
    <path d="M329.33,349.67h7.2v-7.2h7.2v-6.72c-1.17-.16-7.2.51-7.2-.72v-6.96h7.2v-7.2h7.2v-6.72c-1.17-.16-7.2.51-7.2-.72v-6.96h7.2v-7.2h7.2v-6.72c-1.17-.16-7.2.51-7.2-.72v-6.96h7.2v-7.2h7.2v-7.2h7.2v-7.2h7.2v-7.2h7.2v-7.2h7.68v7.2h6.72v-7.2h7.2v-6.72c-1.17-.16-7.2.51-7.2-.72v-6.96h7.2v-7.2h7.68v7.2h6.72v-7.2h7.2v-7.2h7.68v7.2h6.72v-7.2h7.2v-7.2h7.68v7.2h7.2v7.2h6.72v-7.2h7.2v-7.2h7.68v7.2h7.2v7.2h6.72v-7.2h7.68v7.2h6.72v-7.2h7.68v7.2h7.2v7.2h6.72v-7.2h7.68v7.2h7.2v7.2h6.72v-7.2h7.68v7.2h6.72v-7.2h21.6v-7.2h7.68v7.2h6.72v-7.2h7.2v-7.2h7.68v7.2h6.72v-7.2h7.2v-7.2h7.68v7.2h6.72v-7.2h7.68v7.2h6.72v-7.2h7.68v7.2h6.72v-7.2h7.68v7.2h6.72v-7.2h7.68v7.2h21.6v7.2h7.2v7.2h6.72v-7.2h7.68v7.2h14.4v14.4h7.2v7.2h7.2v7.2h14.4v22.08h-14.4v7.2h-7.2v7.2h-7.2v7.2h-7.2v7.2h-7.2v14.4h-14.4v6.72h7.2v7.68h-7.2v85.92h7.2v14.4h7.2v14.4h7.2v7.2h7.2v14.4h14.4v7.2h7.2v7.2h14.4v7.2h6.72v29.28h-6.72v14.4h-7.2v14.4h-7.2v14.4h-7.2v14.4h-7.2v7.2h-7.2v14.4h-7.2v7.2h-7.2v7.2h-7.2v14.4h-7.2v7.2h-7.2v7.2h-14.4v7.2h-14.4v6.72h-50.88v-6.72h-20.88c-1.23,0-.56-6.03-.72-7.2h-13.68c-1.23,0-.56-6.03-.72-7.2h-57.12v7.2h-21.6v7.2h-21.6v6.72h-50.88v-6.72h-13.68c-1.23,0-.56-6.03-.72-7.2-1.42-.24-6.31.53-6.99-.45s.07-5.28-.21-6.75c-1.42-.24-6.31.53-6.99-.45s.07-5.28-.21-6.75c-1.42-.24-6.31.53-6.99-.45s.07-5.28-.21-6.75c-1.42-.24-6.31.53-6.99-.45s.07-5.28-.21-6.75c-1.42-.24-6.31.53-6.99-.45s.07-5.28-.21-6.75c-1.17-.16-7.2.51-7.2-.72v-6.96h7.2v-6.72h-13.68c-.05,0-.72-.67-.72-.72v-13.68c-1.47-.28-5.76.48-6.75-.21s-.21-5.58-.45-6.99c-1.17-.16-7.2.51-7.2-.72v-20.88h-13.68c-.05,0-.72-.67-.72-.72v-28.08c-1.47-.28-5.76.48-6.75-.21s-.21-5.58-.45-6.99c-1.17-.16-7.2.51-7.2-.72v-6.96h7.2v-6.72c-1.47-.28-5.76.48-6.75-.21s-.21-5.58-.45-6.99c-1.17-.16-7.2.51-7.2-.72v-6.96h7.2v-6.72c-1.47-.28-5.76.48-6.75-.21s-.21-5.58-.45-6.99c-1.17-.16-7.2.51-7.2-.72v-6.96h7.2v-6.72c-1.17-.16-7.2.51-7.2-.72v-20.88h-7.2v-7.68h7.2v-6.72h-7.2v-7.68h7.2v-6.72h-7.2v-7.68h7.2v-6.72h-7.2v-7.68h7.2v-6.72h-7.2v-7.68h7.2v-6.72h-7.2v-7.68h7.2v-6.72h-7.2v-7.68ZM458.93,220.55h-6.72v6.72h6.72v-6.72ZM487.73,220.55h-6.72v6.72h6.72v-6.72ZM646.13,220.55h-6.72v6.72h6.72v-6.72ZM660.53,220.55h-6.72v6.72h6.72v-6.72ZM674.93,220.55h-6.72v6.72h6.72v-6.72ZM689.33,220.55h-6.72v6.72h6.72v-6.72ZM703.73,220.55h-6.72v6.72h6.72v-6.72ZM437.33,227.75h-6.72v6.72h6.72v-6.72ZM451.73,227.75h-6.72v6.72h6.72v-6.72ZM466.13,227.75h-6.72v6.72h6.72v-6.72ZM480.53,227.75h-6.72v6.72h6.72v-6.72ZM494.93,227.75h-6.72v6.72h6.72v-6.72ZM509.33,227.75h-6.72v6.72h6.72v-6.72ZM523.73,227.75h-6.72v6.72h6.72v-6.72ZM624.53,227.75h-6.72v6.72h6.72v-6.72ZM638.93,227.75h-6.72v6.72h6.72v-6.72ZM653.33,227.75h-6.72v6.72h6.72v-6.72ZM667.73,227.75h-6.72v6.72h6.72v-6.72ZM682.13,227.75h-6.72v6.72h6.72v-6.72ZM696.53,227.75h-6.72v6.72h6.72v-6.72ZM710.93,227.75h-6.72v6.72h6.72v-6.72ZM725.33,227.75h-6.72v6.72h6.72v-6.72ZM415.73,234.95h-6.72v6.72h6.72v-6.72ZM430.13,234.95h-6.72v7.2h-7.2v6.72h7.2v7.2h6.72v-7.2h7.2v-6.72c-1.42-.24-6.31.53-6.99-.45s.07-5.28-.21-6.75ZM444.53,234.95h-6.72v6.72h6.72v-6.72ZM458.93,234.95h-6.72v6.72h6.72v-6.72ZM473.33,234.95h-6.72v6.72h6.72v-6.72ZM487.73,234.95h-6.72v6.72h6.72v-6.72ZM502.13,234.95h-6.72v6.72h6.72v-6.72ZM516.53,234.95h-6.72v6.72h6.72v-6.72ZM530.93,234.95h-6.72v6.72h6.72v-6.72ZM545.33,234.95h-6.72v6.72h6.72v-6.72ZM602.93,234.95h-6.72v6.72h6.72v-6.72ZM631.73,234.95h-6.72v6.72h6.72v-6.72ZM660.53,234.95h-6.72v6.72h6.72v-6.72ZM689.33,234.95h-6.72v6.72h6.72v-6.72ZM718.13,234.95h-6.72v6.72h6.72v-6.72ZM746.93,234.95h-6.72v6.72h6.72v-6.72ZM451.73,242.15h-6.72v6.72h6.72v-6.72ZM466.13,242.15h-6.72v6.72h6.72v-6.72ZM480.53,242.15h-6.72v6.72h6.72v-6.72ZM494.93,242.15h-6.72v6.72h6.72v-6.72ZM509.33,242.15h-6.72v6.72h6.72v-6.72ZM523.73,242.15h-6.72v6.72h6.72v-6.72ZM538.13,242.15h-6.72v6.72h6.72v-6.72ZM552.53,242.15h-6.72v6.72h6.72v-6.72ZM566.93,242.15h-6.72v6.72h6.72v-6.72ZM581.33,242.15h-6.72v6.72h6.72v-6.72ZM595.73,242.15h-6.72v6.72h6.72v-6.72ZM610.13,242.15h-6.72v6.72h6.72v-6.72ZM624.53,242.15h-6.72v6.72h6.72v-6.72ZM638.93,242.15h-6.72v6.72h6.72v-6.72ZM653.33,242.15h-6.72v6.72h6.72v-6.72ZM667.73,242.15h-6.72v6.72h6.72v-6.72ZM682.13,242.15h-6.72v6.72h6.72v-6.72ZM696.53,242.15h-6.72v6.72h6.72v-6.72ZM710.93,242.15h-6.72v6.72h6.72v-6.72ZM725.33,242.15h-6.72v6.72h6.72v-6.72ZM739.73,242.15h-6.72v6.72h6.72v-6.72ZM754.13,242.15h-6.72v6.72h6.72v-6.72ZM415.73,249.35h-6.72v6.72h6.72v-6.72ZM444.53,249.35h-6.72v6.72h6.72v-6.72ZM458.93,249.35h-6.72v6.72h6.72v-6.72ZM473.33,249.35h-6.72v6.72h6.72v-6.72ZM487.73,249.35h-6.72v6.72h6.72v-6.72ZM502.13,249.35h-6.72v6.72h6.72v-6.72ZM516.53,249.35h-6.72v6.72h6.72v-6.72ZM530.93,249.35h-6.72v6.72h6.72v-6.72ZM545.33,249.35h-6.72v6.72h6.72v-6.72ZM559.73,249.35h-6.72v6.72h6.72v-6.72ZM574.13,249.35h-6.72v6.72h6.72v-6.72ZM588.53,249.35h-6.72v6.72h6.72v-6.72ZM602.93,249.35h-6.72v6.72h6.72v-6.72ZM631.73,249.35h-6.72v6.72h6.72v-6.72ZM660.53,249.35h-6.72v6.72h6.72v-6.72ZM689.33,249.35h-6.72v6.72h6.72v-6.72ZM718.13,249.35h-6.72v6.72h6.72v-6.72ZM746.93,249.35h-6.72v6.72h6.72v-6.72ZM387.41,256.55v6.72h6.72v-6.72h-6.72ZM408.53,256.55h-6.72v6.72h6.72v-6.72ZM422.93,256.55h-6.72v6.72h6.72v-6.72ZM437.33,256.55h-6.72v6.72h6.72v-6.72ZM451.73,256.55h-6.72v6.72h6.72v-6.72ZM466.13,256.55h-6.72v6.72h6.72v-6.72ZM480.53,256.55h-6.72v6.72h6.72v-6.72ZM494.93,256.55h-6.72v6.72h6.72v-6.72ZM509.33,256.55h-6.72v6.72h6.72v-6.72ZM523.73,256.55h-6.72v6.72h6.72v-6.72ZM538.13,256.55h-6.72v6.72h6.72v-6.72ZM552.53,256.55h-6.72v6.72h6.72v-6.72ZM566.93,256.55h-6.72v6.72h6.72v-6.72ZM581.33,256.55h-6.72v6.72h6.72v-6.72ZM595.73,256.55h-6.72v6.72h6.72v-6.72ZM610.13,256.55h-6.72v6.72h6.72v-6.72ZM624.53,256.55h-6.72v6.72h6.72v-6.72ZM638.93,256.55h-6.72v6.72h6.72v-6.72ZM653.33,256.55h-6.72v6.72h6.72v-6.72ZM667.73,256.55h-6.72v6.72h6.72v-6.72ZM682.13,256.55h-6.72v6.72h6.72v-6.72ZM696.53,256.55h-6.72v6.72h6.72v-6.72ZM710.93,256.55h-6.72v6.72h6.72v-6.72ZM725.33,256.55h-6.72v6.72h6.72v-6.72ZM739.73,256.55h-6.72v6.72h6.72v-6.72ZM754.13,256.55h-6.72v6.72h6.72v-6.72ZM768.53,256.55h-6.72v6.72h6.72v-6.72ZM386.93,263.75h-6.72v7.2h-7.2v6.72h7.2v7.2h6.72v-7.2h7.2v-6.72c-1.42-.24-6.31.53-6.99-.45s.07-5.28-.21-6.75ZM401.33,263.75h-6.72v6.72h6.72v-6.72ZM415.73,263.75h-6.72v7.2h-7.2v6.72h7.2v7.2h6.72v-7.2h7.2v-6.72c-1.42-.24-6.31.53-6.99-.45s.07-5.28-.21-6.75ZM430.13,263.75h-6.72v6.72h6.72v-6.72ZM444.53,263.75h-6.72v6.72h6.72v-6.72ZM458.93,263.75h-6.72v6.72h6.72v-6.72ZM473.33,263.75h-6.72v6.72h6.72v-6.72ZM487.73,263.75h-6.72v6.72h6.72v-6.72ZM502.13,263.75h-6.72v6.72h6.72v-6.72ZM530.93,263.75h-6.72v6.72h6.72v-6.72ZM559.73,263.75h-6.72v6.72h6.72v-6.72ZM588.53,263.75h-6.72v6.72h6.72v-6.72ZM617.33,263.75h-6.72v6.72h6.72v-6.72ZM646.13,263.75h-6.72v6.72h6.72v-6.72ZM437.33,270.95h-6.72v6.72h6.72v-6.72ZM451.73,270.95h-6.72v6.72h6.72v-6.72ZM466.13,270.95h-6.72v6.72h6.72v-6.72ZM480.53,270.95h-6.72v6.72h6.72v-6.72ZM494.93,270.95h-6.72v6.72h6.72v-6.72ZM509.33,270.95h-6.72v6.72h6.72v-6.72ZM523.73,270.95h-6.72v6.72h6.72v-6.72ZM538.13,270.95h-6.72v6.72h6.72v-6.72ZM552.53,270.95h-6.72v6.72h6.72v-6.72ZM566.93,270.95h-6.72v6.72h6.72v-6.72ZM581.33,270.95h-6.72v6.72h6.72v-6.72ZM595.73,270.95h-6.72v6.72h6.72v-6.72ZM610.13,270.95h-6.72v6.72h6.72v-6.72ZM624.53,270.95h-6.72v6.72h6.72v-6.72ZM638.93,270.95h-6.72v6.72h6.72v-6.72ZM653.33,270.95h-6.72v6.72h6.72v-6.72ZM667.73,270.95h-6.72v6.72h6.72v-6.72ZM682.13,270.95h-6.72v6.72h6.72v-6.72ZM696.53,270.95h-6.72v6.72h6.72v-6.72ZM710.93,270.95h-6.72v6.72h6.72v-6.72ZM725.33,270.95h-6.72v6.72h6.72v-6.72ZM739.73,270.95h-6.72v6.72h6.72v-6.72ZM754.13,270.95h-6.72v6.72h6.72v-6.72ZM768.53,270.95h-6.72v6.72h6.72v-6.72ZM782.93,270.95h-6.72v6.72h6.72v-6.72ZM372.53,278.15h-6.72v6.72h6.72v-6.72ZM401.33,278.15h-6.72v6.72h6.72v-6.72ZM430.13,278.15h-6.72v6.72h6.72v-6.72ZM444.53,278.15h-6.72v6.72h6.72v-6.72ZM458.93,278.15h-6.72v6.72h6.72v-6.72ZM473.33,278.15h-6.72v6.72h6.72v-6.72ZM487.73,278.15h-6.72v6.72h6.72v-6.72ZM502.13,278.15h-6.72v6.72h6.72v-6.72ZM516.53,278.15h-6.72v6.72h6.72v-6.72ZM530.93,278.15h-6.72v6.72h6.72v-6.72ZM545.33,278.15h-6.72v6.72h6.72v-6.72ZM559.73,278.15h-6.72v6.72h6.72v-6.72ZM574.13,278.15h-6.72v6.72h6.72v-6.72ZM588.53,278.15h-6.72v6.72h6.72v-6.72ZM602.93,278.15h-6.72v6.72h6.72v-6.72ZM617.33,278.15h-6.72v6.72h6.72v-6.72ZM646.13,278.15h-6.72v6.72h6.72v-6.72ZM674.93,278.15h-6.72v6.72h6.72v-6.72ZM703.73,278.15h-6.72v6.72h6.72v-6.72ZM732.53,278.15h-6.72v6.72h6.72v-6.72ZM761.33,278.15h-6.72v6.72h6.72v-6.72ZM365.33,285.35h-6.72v6.72h6.72v-6.72ZM379.73,285.35h-6.72v6.72h6.72v-6.72ZM387.41,285.35v6.72h6.72v-6.72h-6.72ZM408.53,285.35h-6.72v6.72h6.72v-6.72ZM422.93,285.35h-6.72v6.72h6.72v-6.72ZM437.33,285.35h-6.72v6.72h6.72v-6.72ZM451.73,285.35h-6.72v6.72h6.72v-6.72ZM466.13,285.35h-6.72v6.72h6.72v-6.72ZM480.53,285.35h-6.72v6.72h6.72v-6.72ZM494.93,285.35h-6.72v6.72h6.72v-6.72ZM509.33,285.35h-6.72v6.72h6.72v-6.72ZM523.73,285.35h-6.72v6.72h6.72v-6.72ZM538.13,285.35h-6.72v6.72h6.72v-6.72ZM552.53,285.35h-6.72v6.72h6.72v-6.72ZM566.93,285.35h-6.72v6.72h6.72v-6.72ZM581.33,285.35h-6.72v6.72h6.72v-6.72ZM595.73,285.35h-6.72v6.72h6.72v-6.72ZM610.13,285.35h-6.72v6.72h6.72v-6.72ZM624.53,285.35h-6.72v6.72h6.72v-6.72ZM638.93,285.35h-6.72v6.72h6.72v-6.72ZM653.33,285.35h-6.72v6.72h6.72v-6.72ZM667.73,285.35h-6.72v6.72h6.72v-6.72ZM682.13,285.35h-6.72v6.72h6.72v-6.72ZM696.53,285.35h-6.72v6.72h6.72v-6.72ZM710.93,285.35h-6.72v6.72h6.72v-6.72ZM725.33,285.35h-6.72v6.72h6.72v-6.72ZM739.73,285.35h-6.72v6.72h6.72v-6.72ZM754.13,285.35h-6.72v6.72h6.72v-6.72ZM768.53,285.35h-6.72v6.72h6.72v-6.72ZM372.53,292.55h-6.72v6.72h6.72v-6.72ZM386.93,292.55h-6.72v6.72h6.72v-6.72ZM401.33,292.55h-6.72v6.72h6.72v-6.72ZM415.73,292.55h-6.72v6.72h6.72v-6.72ZM430.13,292.55h-6.72v6.72h6.72v-6.72ZM444.53,292.55h-6.72v6.72h6.72v-6.72ZM458.93,292.55h-6.72v6.72h6.72v-6.72ZM473.33,292.55h-6.72v6.72h6.72v-6.72ZM487.73,292.55h-6.72v6.72h6.72v-6.72ZM516.53,292.55h-6.72v6.72h6.72v-6.72ZM545.33,292.55h-6.72v6.72h6.72v-6.72ZM574.13,292.55h-6.72v6.72h6.72v-6.72ZM602.93,292.55h-6.72v6.72h6.72v-6.72ZM631.73,292.55h-6.72v6.72h6.72v-6.72ZM660.53,292.55h-6.72v6.72h6.72v-6.72ZM365.33,299.75h-6.72v6.72h6.72v-6.72ZM379.73,299.75h-6.72v6.72h6.72v-6.72ZM387.41,299.75v6.72h6.72v-6.72h-6.72ZM408.53,299.75h-6.72v6.72h6.72v-6.72ZM422.93,299.75h-6.72v6.72h6.72v-6.72ZM437.33,299.75h-6.72v6.72h6.72v-6.72ZM451.73,299.75h-6.72v6.72h6.72v-6.72ZM466.13,299.75h-6.72v6.72h6.72v-6.72ZM480.53,299.75h-6.72v6.72h6.72v-6.72ZM494.93,299.75h-6.72v6.72h6.72v-6.72ZM509.33,299.75h-6.72v6.72h6.72v-6.72ZM523.73,299.75h-6.72v6.72h6.72v-6.72ZM538.13,299.75h-6.72v6.72h6.72v-6.72ZM552.53,299.75h-6.72v6.72h6.72v-6.72ZM566.93,299.75h-6.72v6.72h6.72v-6.72ZM581.33,299.75h-6.72v6.72h6.72v-6.72ZM595.73,299.75h-6.72v6.72h6.72v-6.72ZM610.13,299.75h-6.72v6.72h6.72v-6.72ZM624.53,299.75h-6.72v6.72h6.72v-6.72ZM638.93,299.75h-6.72v6.72h6.72v-6.72ZM653.33,299.75h-6.72v6.72h6.72v-6.72ZM667.73,299.75h-6.72v6.72h6.72v-6.72ZM682.13,299.75h-6.72v6.72h6.72v-6.72ZM696.53,299.75h-6.72v6.72h6.72v-6.72ZM710.93,299.75h-6.72v6.72h6.72v-6.72ZM725.33,299.75h-6.72v6.72h6.72v-6.72ZM739.73,299.75h-6.72v6.72h6.72v-6.72ZM754.13,299.75h-6.72v6.72h6.72v-6.72ZM358.13,306.95h-6.72v6.72h6.72v-6.72ZM372.53,306.95h-6.72v6.72h6.72v-6.72ZM386.93,306.95h-6.72v6.72h6.72v-6.72ZM401.33,306.95h-6.72v6.72h6.72v-6.72ZM415.73,306.95h-6.72v6.72h6.72v-6.72ZM430.13,306.95h-6.72v6.72h6.72v-6.72ZM444.53,306.95h-6.72v6.72h6.72v-6.72ZM458.93,306.95h-6.72v6.72h6.72v-6.72ZM473.33,306.95h-6.72v6.72h6.72v-6.72ZM487.73,306.95h-6.72v6.72h6.72v-6.72ZM502.13,306.95h-6.72v6.72h6.72v-6.72ZM516.53,306.95h-6.72v6.72h6.72v-6.72ZM545.33,306.95h-6.72v6.72h6.72v-6.72ZM574.13,306.95h-6.72v6.72h6.72v-6.72ZM602.93,306.95h-6.72v6.72h6.72v-6.72ZM631.73,306.95h-6.72v6.72h6.72v-6.72ZM660.53,306.95h-6.72v6.72h6.72v-6.72ZM365.33,314.15h-6.72v6.72h6.72v-6.72ZM379.73,314.15h-6.72v6.72h6.72v-6.72ZM394.13,314.15h-6.72v6.72h6.72v-6.72ZM408.53,314.15h-6.72v6.72h6.72v-6.72ZM422.93,314.15h-6.72v6.72h6.72v-6.72ZM437.33,314.15h-6.72v6.72h6.72v-6.72ZM451.73,314.15h-6.72v6.72h6.72v-6.72ZM459.41,314.15v6.72h6.72v-6.72h-6.72ZM473.81,314.15v6.72h6.72v-6.72h-6.72ZM488.21,314.15v6.72h6.72v-6.72h-6.72ZM502.61,314.15v6.72h6.72v-6.72h-6.72ZM517.01,314.15v6.72h6.72v-6.72h-6.72ZM531.41,314.15v6.72h6.72v-6.72h-6.72ZM545.81,314.15v6.72h6.72v-6.72h-6.72ZM560.21,314.15v6.72h6.72v-6.72h-6.72ZM581.33,314.15h-6.72v6.72h6.72v-6.72ZM595.73,314.15h-6.72v6.72h6.72v-6.72ZM610.13,314.15h-6.72v6.72h6.72v-6.72ZM624.53,314.15h-6.72v6.72h6.72v-6.72ZM638.93,314.15h-6.72v6.72h6.72v-6.72ZM653.33,314.15h-6.72v6.72h6.72v-6.72ZM667.73,314.15h-6.72v6.72h6.72v-6.72ZM682.13,314.15h-6.72v6.72h6.72v-6.72ZM696.53,314.15h-6.72v6.72h6.72v-6.72ZM710.93,314.15h-6.72v6.72h6.72v-6.72ZM725.33,314.15h-6.72v6.72h6.72v-6.72ZM739.73,314.15h-6.72v6.72h6.72v-6.72ZM358.13,321.35h-6.72v6.72h6.72v-6.72ZM372.53,321.35h-6.72v6.72h6.72v-6.72ZM386.93,321.35h-6.72v6.72h6.72v-6.72ZM401.33,321.35h-6.72v6.72h6.72v-6.72ZM415.73,321.35h-6.72v6.72h6.72v-6.72ZM444.53,321.35h-6.72v6.72h6.72v-6.72ZM473.33,321.35h-6.72v6.72h6.72v-6.72ZM502.13,321.35h-6.72v6.72h6.72v-6.72ZM530.93,321.35h-6.72v6.72h6.72v-6.72ZM559.73,321.35h-6.72v6.72h6.72v-6.72ZM344.21,328.55v6.72h6.72v-6.72h-6.72ZM365.33,328.55h-6.72v6.72h6.72v-6.72ZM379.73,328.55h-6.72v6.72h6.72v-6.72ZM394.13,328.55h-6.72v6.72h6.72v-6.72ZM408.53,328.55h-6.72v6.72h6.72v-6.72ZM422.93,328.55h-6.72v6.72h6.72v-6.72ZM437.33,328.55h-6.72v6.72h6.72v-6.72ZM451.73,328.55h-6.72v6.72h6.72v-6.72ZM466.13,328.55h-6.72v6.72h6.72v-6.72ZM480.53,328.55h-6.72v6.72h6.72v-6.72ZM494.93,328.55h-6.72v6.72h6.72v-6.72ZM509.33,328.55h-6.72v6.72h6.72v-6.72ZM523.73,328.55h-6.72v6.72h6.72v-6.72ZM538.13,328.55h-6.72v6.72h6.72v-6.72ZM552.53,328.55h-6.72v6.72h6.72v-6.72ZM566.93,328.55h-6.72v6.72h6.72v-6.72ZM581.33,328.55h-6.72v6.72h6.72v-6.72ZM595.73,328.55h-6.72v6.72h6.72v-6.72ZM610.13,328.55h-6.72v6.72h6.72v-6.72ZM624.53,328.55h-6.72v6.72h6.72v-6.72ZM638.93,328.55h-6.72v6.72h6.72v-6.72ZM653.33,328.55h-6.72v6.72h6.72v-6.72ZM667.73,328.55h-6.72v6.72h6.72v-6.72ZM682.13,328.55h-6.72v6.72h6.72v-6.72ZM696.53,328.55h-6.72v6.72h6.72v-6.72ZM710.93,328.55h-6.72v6.72h6.72v-6.72ZM725.33,328.55h-6.72v6.72h6.72v-6.72ZM358.13,335.75h-6.72v6.72h6.72v-6.72ZM372.53,335.75h-6.72v6.72h6.72v-6.72ZM386.93,335.75h-6.72v6.72h6.72v-6.72ZM401.33,335.75h-6.72v6.72h6.72v-6.72ZM415.73,335.75h-6.72v6.72h6.72v-6.72ZM430.13,335.75h-6.72v6.72h6.72v-6.72ZM444.53,335.75h-6.72v6.72h6.72v-6.72ZM458.93,335.75h-6.72v6.72h6.72v-6.72ZM473.33,335.75h-6.72v6.72h6.72v-6.72ZM487.73,335.75h-6.72v6.72h6.72v-6.72ZM502.13,335.75h-6.72v6.72h6.72v-6.72ZM530.93,335.75h-6.72v6.72h6.72v-6.72ZM559.73,335.75h-6.72v6.72h6.72v-6.72ZM588.53,335.75h-6.72v6.72h6.72v-6.72ZM617.33,335.75h-6.72v6.72h6.72v-6.72ZM646.13,335.75h-6.72v6.72h6.72v-6.72ZM674.93,335.75h-6.72v6.72h6.72v-6.72ZM344.21,342.95v6.72h6.72v-6.72h-6.72ZM365.33,342.95h-6.72v6.72h6.72v-6.72ZM379.73,342.95h-6.72v6.72h6.72v-6.72ZM394.13,342.95h-6.72v6.72h6.72v-6.72ZM408.53,342.95h-6.72v6.72h6.72v-6.72ZM422.93,342.95h-6.72v6.72h6.72v-6.72ZM437.33,342.95h-6.72v6.72h6.72v-6.72ZM451.73,342.95h-6.72v6.72h6.72v-6.72ZM466.13,342.95h-6.72v6.72h6.72v-6.72ZM480.53,342.95h-6.72v6.72h6.72v-6.72ZM494.93,342.95h-6.72v6.72h6.72v-6.72ZM509.33,342.95h-6.72v6.72h6.72v-6.72ZM523.73,342.95h-6.72v6.72h6.72v-6.72ZM538.13,342.95h-6.72v6.72h6.72v-6.72ZM552.53,342.95h-6.72v6.72h6.72v-6.72ZM566.93,342.95h-6.72v6.72h6.72v-6.72ZM581.33,342.95h-6.72v6.72h6.72v-6.72ZM595.73,342.95h-6.72v6.72h6.72v-6.72ZM610.13,342.95h-6.72v6.72h6.72v-6.72ZM624.53,342.95h-6.72v6.72h6.72v-6.72ZM638.93,342.95h-6.72v6.72h6.72v-6.72ZM653.33,342.95h-6.72v6.72h6.72v-6.72ZM667.73,342.95h-6.72v6.72h6.72v-6.72ZM682.13,342.95h-6.72v6.72h6.72v-6.72ZM696.53,342.95h-6.72v6.72h6.72v-6.72ZM710.93,342.95h-6.72v6.72h6.72v-6.72ZM725.33,342.95h-6.72v6.72h6.72v-6.72ZM337.01,350.15v6.72h6.72v-6.72h-6.72ZM358.13,350.15h-6.72v6.72h6.72v-6.72ZM372.53,350.15h-6.72v6.72h6.72v-6.72ZM386.93,350.15h-6.72v6.72h6.72v-6.72ZM401.33,350.15h-6.72v6.72h6.72v-6.72ZM430.13,350.15h-6.72v6.72h6.72v-6.72ZM458.93,350.15h-6.72v6.72h6.72v-6.72ZM487.73,350.15h-6.72v6.72h6.72v-6.72ZM516.53,350.15h-6.72v6.72h6.72v-6.72ZM545.33,350.15h-6.72v6.72h6.72v-6.72ZM574.13,350.15h-6.72v6.72h6.72v-6.72ZM344.21,357.35v6.72h6.72v-6.72h-6.72ZM365.33,357.35h-6.72v6.72h6.72v-6.72ZM379.73,357.35h-6.72v6.72h6.72v-6.72ZM394.13,357.35h-6.72v6.72h6.72v-6.72ZM408.53,357.35h-6.72v6.72h6.72v-6.72ZM422.93,357.35h-6.72v6.72h6.72v-6.72ZM437.33,357.35h-6.72v6.72h6.72v-6.72ZM451.73,357.35h-6.72v6.72h6.72v-6.72ZM466.13,357.35h-6.72v6.72h6.72v-6.72ZM480.53,357.35h-6.72v6.72h6.72v-6.72ZM494.93,357.35h-6.72v6.72h6.72v-6.72ZM509.33,357.35h-6.72v6.72h6.72v-6.72ZM523.73,357.35h-6.72v6.72h6.72v-6.72ZM538.13,357.35h-6.72v6.72h6.72v-6.72ZM552.53,357.35h-6.72v6.72h6.72v-6.72ZM566.93,357.35h-6.72v6.72h6.72v-6.72ZM581.33,357.35h-6.72v6.72h6.72v-6.72ZM595.73,357.35h-6.72v6.72h6.72v-6.72ZM610.13,357.35h-6.72v6.72h6.72v-6.72ZM624.53,357.35h-6.72v6.72h6.72v-6.72ZM638.93,357.35h-6.72v6.72h6.72v-6.72ZM653.33,357.35h-6.72v6.72h6.72v-6.72ZM667.73,357.35h-6.72v6.72h6.72v-6.72ZM682.13,357.35h-6.72v6.72h6.72v-6.72ZM696.53,357.35h-6.72v6.72h6.72v-6.72ZM710.93,357.35h-6.72v6.72h6.72v-6.72ZM725.33,357.35h-6.72v6.72h6.72v-6.72ZM337.01,364.55v6.72h6.72v-6.72h-6.72ZM358.13,364.55h-6.72v6.72h6.72v-6.72ZM372.53,364.55h-6.72v6.72h6.72v-6.72ZM386.93,364.55h-6.72v6.72h6.72v-6.72ZM401.33,364.55h-6.72v6.72h6.72v-6.72ZM415.73,364.55h-6.72v6.72h6.72v-6.72ZM430.13,364.55h-6.72v6.72h6.72v-6.72ZM458.93,364.55h-6.72v6.72h6.72v-6.72ZM487.73,364.55h-6.72v6.72h6.72v-6.72ZM516.53,364.55h-6.72v6.72h6.72v-6.72ZM545.33,364.55h-6.72v6.72h6.72v-6.72ZM574.13,364.55h-6.72v6.72h6.72v-6.72ZM344.21,371.75v6.72h6.72v-6.72h-6.72ZM365.33,371.75h-6.72v6.72h6.72v-6.72ZM379.73,371.75h-6.72v6.72h6.72v-6.72ZM394.13,371.75h-6.72v6.72h6.72v-6.72ZM408.53,371.75h-6.72v6.72h6.72v-6.72ZM422.93,371.75h-6.72v6.72h6.72v-6.72ZM437.33,371.75h-6.72v6.72h6.72v-6.72ZM451.73,371.75h-6.72v6.72h6.72v-6.72ZM466.13,371.75h-6.72v6.72h6.72v-6.72ZM480.53,371.75h-6.72v6.72h6.72v-6.72ZM494.93,371.75h-6.72v6.72h6.72v-6.72ZM509.33,371.75h-6.72v6.72h6.72v-6.72ZM523.73,371.75h-6.72v6.72h6.72v-6.72ZM538.13,371.75h-6.72v6.72h6.72v-6.72ZM552.53,371.75h-6.72v6.72h6.72v-6.72ZM566.93,371.75h-6.72v6.72h6.72v-6.72ZM581.33,371.75h-6.72v6.72h6.72v-6.72ZM595.73,371.75h-6.72v6.72h6.72v-6.72ZM610.13,371.75h-6.72v6.72h6.72v-6.72ZM624.53,371.75h-6.72v6.72h6.72v-6.72ZM638.93,371.75h-6.72v6.72h6.72v-6.72ZM653.33,371.75h-6.72v6.72h6.72v-6.72ZM667.73,371.75h-6.72v6.72h6.72v-6.72ZM696.53,371.75h-6.72v6.72h6.72v-6.72ZM725.33,371.75h-6.72v6.72h6.72v-6.72ZM358.13,378.95h-6.72v6.72h6.72v-6.72ZM386.93,378.95h-6.72v6.72h6.72v-6.72ZM415.73,378.95h-6.72v6.72h6.72v-6.72ZM444.53,378.95h-6.72v6.72h6.72v-6.72ZM473.33,378.95h-6.72v6.72h6.72v-6.72ZM344.21,386.15v6.72h6.72v-6.72h-6.72ZM365.33,386.15h-6.72v6.72h6.72v-6.72ZM379.73,386.15h-6.72v6.72h6.72v-6.72ZM394.13,386.15h-6.72v6.72h6.72v-6.72ZM408.53,386.15h-6.72v6.72h6.72v-6.72ZM422.93,386.15h-6.72v6.72h6.72v-6.72ZM437.33,386.15h-6.72v6.72h6.72v-6.72ZM451.73,386.15h-6.72v6.72h6.72v-6.72ZM466.13,386.15h-6.72v6.72h6.72v-6.72ZM480.53,386.15h-6.72v6.72h6.72v-6.72ZM494.93,386.15h-6.72v6.72h6.72v-6.72ZM509.33,386.15h-6.72v6.72h6.72v-6.72ZM523.73,386.15h-6.72v6.72h6.72v-6.72ZM538.13,386.15h-6.72v6.72h6.72v-6.72ZM552.53,386.15h-6.72v6.72h6.72v-6.72ZM566.93,386.15h-6.72v6.72h6.72v-6.72ZM581.33,386.15h-6.72v6.72h6.72v-6.72ZM595.73,386.15h-6.72v6.72h6.72v-6.72ZM610.13,386.15h-6.72v6.72h6.72v-6.72ZM624.53,386.15h-6.72v6.72h6.72v-6.72ZM638.93,386.15h-6.72v6.72h6.72v-6.72ZM653.33,386.15h-6.72v6.72h6.72v-6.72ZM667.73,386.15h-6.72v6.72h6.72v-6.72ZM682.13,386.15h-6.72v6.72h6.72v-6.72ZM696.53,386.15h-6.72v6.72h6.72v-6.72ZM710.93,386.15h-6.72v6.72h6.72v-6.72ZM725.33,386.15h-6.72v6.72h6.72v-6.72ZM337.01,393.35v6.72h6.72v-6.72h-6.72ZM358.13,393.35h-6.72v6.72h6.72v-6.72ZM372.53,393.35h-6.72v6.72h6.72v-6.72ZM386.93,393.35h-6.72v6.72h6.72v-6.72ZM401.33,393.35h-6.72v6.72h6.72v-6.72ZM415.73,393.35h-6.72v6.72h6.72v-6.72ZM444.53,393.35h-6.72v6.72h6.72v-6.72ZM473.33,393.35h-6.72v6.72h6.72v-6.72ZM502.13,393.35h-6.72v6.72h6.72v-6.72ZM530.93,393.35h-6.72v6.72h6.72v-6.72ZM559.73,393.35h-6.72v6.72h6.72v-6.72ZM588.53,393.35h-6.72v6.72h6.72v-6.72ZM344.21,400.55v6.72h6.72v-6.72h-6.72ZM365.33,400.55h-6.72v6.72h6.72v-6.72ZM379.73,400.55h-6.72v6.72h6.72v-6.72ZM394.13,400.55h-6.72v6.72h6.72v-6.72ZM408.53,400.55h-6.72v6.72h6.72v-6.72ZM422.93,400.55h-6.72v6.72h6.72v-6.72ZM437.33,400.55h-6.72v6.72h6.72v-6.72ZM451.73,400.55h-6.72v6.72h6.72v-6.72ZM466.13,400.55h-6.72v6.72h6.72v-6.72ZM480.53,400.55h-6.72v6.72h6.72v-6.72ZM494.93,400.55h-6.72v6.72h6.72v-6.72ZM509.33,400.55h-6.72v6.72h6.72v-6.72ZM523.73,400.55h-6.72v6.72h6.72v-6.72ZM538.13,400.55h-6.72v6.72h6.72v-6.72ZM552.53,400.55h-6.72v6.72h6.72v-6.72ZM566.93,400.55h-6.72v6.72h6.72v-6.72ZM581.33,400.55h-6.72v6.72h6.72v-6.72ZM595.73,400.55h-6.72v6.72h6.72v-6.72ZM610.13,400.55h-6.72v6.72h6.72v-6.72ZM624.53,400.55h-6.72v6.72h6.72v-6.72ZM638.93,400.55h-6.72v6.72h6.72v-6.72ZM653.33,400.55h-6.72v6.72h6.72v-6.72ZM667.73,400.55h-6.72v6.72h6.72v-6.72ZM682.13,400.55h-6.72v6.72h6.72v-6.72ZM710.93,400.55h-6.72v6.72h6.72v-6.72ZM337.01,407.75v6.72h6.72v-6.72h-6.72ZM372.53,407.75h-6.72v6.72h6.72v-6.72ZM401.33,407.75h-6.72v6.72h6.72v-6.72ZM430.13,407.75h-6.72v6.72h6.72v-6.72ZM458.93,407.75h-6.72v6.72h6.72v-6.72ZM344.21,414.95v6.72h6.72v-6.72h-6.72ZM365.33,414.95h-6.72v6.72h6.72v-6.72ZM379.73,414.95h-6.72v6.72h6.72v-6.72ZM394.13,414.95h-6.72v6.72h6.72v-6.72ZM408.53,414.95h-6.72v6.72h6.72v-6.72ZM422.93,414.95h-6.72v6.72h6.72v-6.72ZM437.33,414.95h-6.72v6.72h6.72v-6.72ZM451.73,414.95h-6.72v6.72h6.72v-6.72ZM466.13,414.95h-6.72v6.72h6.72v-6.72ZM480.53,414.95h-6.72v6.72h6.72v-6.72ZM494.93,414.95h-6.72v6.72h6.72v-6.72ZM509.33,414.95h-6.72v6.72h6.72v-6.72ZM523.73,414.95h-6.72v6.72h6.72v-6.72ZM538.13,414.95h-6.72v6.72h6.72v-6.72ZM552.53,414.95h-6.72v6.72h6.72v-6.72ZM566.93,414.95h-6.72v6.72h6.72v-6.72ZM581.33,414.95h-6.72v6.72h6.72v-6.72ZM595.73,414.95h-6.72v6.72h6.72v-6.72ZM610.13,414.95h-6.72v6.72h6.72v-6.72ZM624.53,414.95h-6.72v6.72h6.72v-6.72ZM638.93,414.95h-6.72v6.72h6.72v-6.72ZM653.33,414.95h-6.72v6.72h6.72v-6.72ZM667.73,414.95h-6.72v6.72h6.72v-6.72ZM682.13,414.95h-6.72v6.72h6.72v-6.72ZM710.93,414.95h-6.72v6.72h6.72v-6.72ZM337.01,422.15v6.72h6.72v-6.72h-6.72ZM372.53,422.15h-6.72v6.72h6.72v-6.72ZM401.33,422.15h-6.72v6.72h6.72v-6.72ZM430.13,422.15h-6.72v6.72h6.72v-6.72ZM458.93,422.15h-6.72v6.72h6.72v-6.72ZM487.73,422.15h-6.72v6.72h6.72v-6.72ZM344.21,429.35v6.72h6.72v-6.72h-6.72ZM365.33,429.35h-6.72v6.72h6.72v-6.72ZM379.73,429.35h-6.72v6.72h6.72v-6.72ZM394.13,429.35h-6.72v6.72h6.72v-6.72ZM408.53,429.35h-6.72v6.72h6.72v-6.72ZM422.93,429.35h-6.72v6.72h6.72v-6.72ZM437.33,429.35h-6.72v6.72h6.72v-6.72ZM451.73,429.35h-6.72v6.72h6.72v-6.72ZM466.13,429.35h-6.72v6.72h6.72v-6.72ZM480.53,429.35h-6.72v6.72h6.72v-6.72ZM494.93,429.35h-6.72v6.72h6.72v-6.72ZM509.33,429.35h-6.72v6.72h6.72v-6.72ZM523.73,429.35h-6.72v6.72h6.72v-6.72ZM538.13,429.35h-6.72v6.72h6.72v-6.72ZM552.53,429.35h-6.72v6.72h6.72v-6.72ZM566.93,429.35h-6.72v6.72h6.72v-6.72ZM581.33,429.35h-6.72v6.72h6.72v-6.72ZM610.13,429.35h-6.72v6.72h6.72v-6.72ZM638.93,429.35h-6.72v6.72h6.72v-6.72ZM667.73,429.35h-6.72v6.72h6.72v-6.72ZM696.53,429.35h-6.72v6.72h6.72v-6.72ZM725.33,429.35h-6.72v6.72h6.72v-6.72ZM358.13,436.55h-6.72v6.72h6.72v-6.72ZM386.93,436.55h-6.72v6.72h6.72v-6.72ZM344.21,443.75v6.72h6.72v-6.72h-6.72ZM365.33,443.75h-6.72v6.72h6.72v-6.72ZM379.73,443.75h-6.72v6.72h6.72v-6.72ZM394.13,443.75h-6.72v6.72h6.72v-6.72ZM408.53,443.75h-6.72v6.72h6.72v-6.72ZM422.93,443.75h-6.72v6.72h6.72v-6.72ZM437.33,443.75h-6.72v6.72h6.72v-6.72ZM451.73,443.75h-6.72v6.72h6.72v-6.72ZM466.13,443.75h-6.72v6.72h6.72v-6.72ZM480.53,443.75h-6.72v6.72h6.72v-6.72ZM494.93,443.75h-6.72v6.72h6.72v-6.72ZM509.33,443.75h-6.72v6.72h6.72v-6.72ZM523.73,443.75h-6.72v6.72h6.72v-6.72ZM538.13,443.75h-6.72v6.72h6.72v-6.72ZM552.53,443.75h-6.72v6.72h6.72v-6.72ZM566.93,443.75h-6.72v6.72h6.72v-6.72ZM581.33,443.75h-6.72v6.72h6.72v-6.72ZM595.73,443.75h-6.72v6.72h6.72v-6.72ZM610.13,443.75h-6.72v6.72h6.72v-6.72ZM624.53,443.75h-6.72v6.72h6.72v-6.72ZM638.93,443.75h-6.72v6.72h6.72v-6.72ZM653.33,443.75h-6.72v6.72h6.72v-6.72ZM667.73,443.75h-6.72v6.72h6.72v-6.72ZM682.13,443.75h-6.72v6.72h6.72v-6.72ZM696.53,443.75h-6.72v6.72h6.72v-6.72ZM725.33,443.75h-6.72v6.72h6.72v-6.72ZM358.13,450.95h-6.72v6.72h6.72v-6.72ZM386.93,450.95h-6.72v6.72h6.72v-6.72ZM415.73,450.95h-6.72v6.72h6.72v-6.72ZM444.53,450.95h-6.72v6.72h6.72v-6.72ZM473.33,450.95h-6.72v6.72h6.72v-6.72ZM344.21,458.15v6.72h6.72v-6.72h-6.72ZM365.33,458.15h-6.72v6.72h6.72v-6.72ZM379.73,458.15h-6.72v6.72h6.72v-6.72ZM394.13,458.15h-6.72v6.72h6.72v-6.72ZM408.53,458.15h-6.72v6.72h6.72v-6.72ZM422.93,458.15h-6.72v6.72h6.72v-6.72ZM437.33,458.15h-6.72v6.72h6.72v-6.72ZM451.73,458.15h-6.72v6.72h6.72v-6.72ZM466.13,458.15h-6.72v6.72h6.72v-6.72ZM480.53,458.15h-6.72v6.72h6.72v-6.72ZM494.93,458.15h-6.72v6.72h6.72v-6.72ZM509.33,458.15h-6.72v6.72h6.72v-6.72ZM523.73,458.15h-6.72v6.72h6.72v-6.72ZM538.13,458.15h-6.72v6.72h6.72v-6.72ZM552.53,458.15h-6.72v6.72h6.72v-6.72ZM566.93,458.15h-6.72v6.72h6.72v-6.72ZM595.73,458.15h-6.72v6.72h6.72v-6.72ZM624.53,458.15h-6.72v6.72h6.72v-6.72ZM653.33,458.15h-6.72v6.72h6.72v-6.72ZM682.13,458.15h-6.72v6.72h6.72v-6.72ZM710.93,458.15h-6.72v6.72h6.72v-6.72ZM739.73,458.15h-6.72v6.72h6.72v-6.72ZM372.53,465.35h-6.72v6.72h6.72v-6.72ZM344.21,472.55v6.72h6.72v-6.72h-6.72ZM365.33,472.55h-6.72v6.72h6.72v-6.72ZM379.73,472.55h-6.72v6.72h6.72v-6.72ZM394.13,472.55h-6.72v6.72h6.72v-6.72ZM408.53,472.55h-6.72v6.72h6.72v-6.72ZM422.93,472.55h-6.72v6.72h6.72v-6.72ZM437.33,472.55h-6.72v6.72h6.72v-6.72ZM451.73,472.55h-6.72v6.72h6.72v-6.72ZM466.13,472.55h-6.72v6.72h6.72v-6.72ZM480.53,472.55h-6.72v6.72h6.72v-6.72ZM494.93,472.55h-6.72v6.72h6.72v-6.72ZM509.33,472.55h-6.72v6.72h6.72v-6.72ZM523.73,472.55h-6.72v6.72h6.72v-6.72ZM538.13,472.55h-6.72v6.72h6.72v-6.72ZM552.53,472.55h-6.72v6.72h6.72v-6.72ZM566.93,472.55h-6.72v6.72h6.72v-6.72ZM581.33,472.55h-6.72v6.72h6.72v-6.72ZM595.73,472.55h-6.72v6.72h6.72v-6.72ZM624.53,472.55h-6.72v6.72h6.72v-6.72ZM653.33,472.55h-6.72v6.72h6.72v-6.72ZM682.13,472.55h-6.72v6.72h6.72v-6.72ZM710.93,472.55h-6.72v6.72h6.72v-6.72ZM739.73,472.55h-6.72v6.72h6.72v-6.72ZM372.53,479.75h-6.72v6.72h6.72v-6.72ZM401.33,479.75h-6.72v6.72h6.72v-6.72ZM365.33,486.95h-6.72v6.72h6.72v-6.72ZM379.73,486.95h-6.72v6.72h6.72v-6.72ZM394.13,486.95h-6.72v6.72h6.72v-6.72ZM408.53,486.95h-6.72v6.72h6.72v-6.72ZM422.93,486.95h-6.72v6.72h6.72v-6.72ZM437.33,486.95h-6.72v6.72h6.72v-6.72ZM451.73,486.95h-6.72v6.72h6.72v-6.72ZM466.13,486.95h-6.72v6.72h6.72v-6.72ZM480.53,486.95h-6.72v6.72h6.72v-6.72ZM494.93,486.95h-6.72v6.72h6.72v-6.72ZM523.73,486.95h-6.72v6.72h6.72v-6.72ZM552.53,486.95h-6.72v6.72h6.72v-6.72ZM581.33,486.95h-6.72v6.72h6.72v-6.72ZM610.13,486.95h-6.72v6.72h6.72v-6.72ZM638.93,486.95h-6.72v6.72h6.72v-6.72ZM365.33,501.35h-6.72v6.72h6.72v-6.72ZM379.73,501.35h-6.72v6.72h6.72v-6.72ZM394.13,501.35h-6.72v6.72h6.72v-6.72ZM408.53,501.35h-6.72v6.72h6.72v-6.72ZM422.93,501.35h-6.72v6.72h6.72v-6.72ZM437.33,501.35h-6.72v6.72h6.72v-6.72ZM451.73,501.35h-6.72v6.72h6.72v-6.72ZM466.13,501.35h-6.72v6.72h6.72v-6.72ZM480.53,501.35h-6.72v6.72h6.72v-6.72ZM494.93,501.35h-6.72v6.72h6.72v-6.72ZM509.33,501.35h-6.72v6.72h6.72v-6.72ZM523.73,501.35h-6.72v6.72h6.72v-6.72ZM538.13,501.35h-6.72v6.72h6.72v-6.72ZM552.53,501.35h-6.72v6.72h6.72v-6.72ZM566.93,501.35h-6.72v6.72h6.72v-6.72ZM581.33,501.35h-6.72v6.72h6.72v-6.72ZM610.13,501.35h-6.72v6.72h6.72v-6.72ZM638.93,501.35h-6.72v6.72h6.72v-6.72ZM667.73,501.35h-6.72v6.72h6.72v-6.72ZM696.53,501.35h-6.72v6.72h6.72v-6.72ZM725.33,501.35h-6.72v6.72h6.72v-6.72ZM754.13,501.35h-6.72v6.72h6.72v-6.72ZM386.93,508.55h-6.72v6.72h6.72v-6.72ZM365.33,515.75h-6.72v6.72h6.72v-6.72ZM379.73,515.75h-6.72v6.72h6.72v-6.72ZM394.13,515.75h-6.72v6.72h6.72v-6.72ZM408.53,515.75h-6.72v6.72h6.72v-6.72ZM422.93,515.75h-6.72v6.72h6.72v-6.72ZM437.33,515.75h-6.72v6.72h6.72v-6.72ZM451.73,515.75h-6.72v6.72h6.72v-6.72ZM466.13,515.75h-6.72v6.72h6.72v-6.72ZM480.53,515.75h-6.72v6.72h6.72v-6.72ZM509.33,515.75h-6.72v6.72h6.72v-6.72ZM538.13,515.75h-6.72v6.72h6.72v-6.72ZM566.93,515.75h-6.72v6.72h6.72v-6.72ZM595.73,515.75h-6.72v6.72h6.72v-6.72ZM624.53,515.75h-6.72v6.72h6.72v-6.72ZM653.33,515.75h-6.72v6.72h6.72v-6.72ZM379.73,530.15h-6.72v6.72h6.72v-6.72ZM394.13,530.15h-6.72v6.72h6.72v-6.72ZM408.53,530.15h-6.72v6.72h6.72v-6.72ZM422.93,530.15h-6.72v6.72h6.72v-6.72ZM437.33,530.15h-6.72v6.72h6.72v-6.72ZM451.73,530.15h-6.72v6.72h6.72v-6.72ZM466.13,530.15h-6.72v6.72h6.72v-6.72ZM480.53,530.15h-6.72v6.72h6.72v-6.72ZM494.93,530.15h-6.72v6.72h6.72v-6.72ZM509.33,530.15h-6.72v6.72h6.72v-6.72ZM538.13,530.15h-6.72v6.72h6.72v-6.72ZM566.93,530.15h-6.72v6.72h6.72v-6.72ZM595.73,530.15h-6.72v6.72h6.72v-6.72ZM624.53,530.15h-6.72v6.72h6.72v-6.72ZM653.33,530.15h-6.72v6.72h6.72v-6.72ZM379.73,544.55h-6.72v6.72h6.72v-6.72ZM408.53,544.55h-6.72v6.72h6.72v-6.72ZM437.33,544.55h-6.72v6.72h6.72v-6.72ZM466.13,544.55h-6.72v6.72h6.72v-6.72ZM494.93,544.55h-6.72v6.72h6.72v-6.72ZM523.73,544.55h-6.72v6.72h6.72v-6.72ZM552.53,544.55h-6.72v6.72h6.72v-6.72ZM387.41,558.95v6.72h6.72v-6.72h-6.72ZM408.53,558.95h-6.72v6.72h6.72v-6.72ZM422.93,558.95h-6.72v6.72h6.72v-6.72ZM437.33,558.95h-6.72v6.72h6.72v-6.72ZM451.73,558.95h-6.72v6.72h6.72v-6.72ZM466.13,558.95h-6.72v6.72h6.72v-6.72ZM480.53,558.95h-6.72v6.72h6.72v-6.72ZM494.93,558.95h-6.72v6.72h6.72v-6.72ZM523.73,558.95h-6.72v6.72h6.72v-6.72ZM552.53,558.95h-6.72v6.72h6.72v-6.72ZM581.33,558.95h-6.72v6.72h6.72v-6.72ZM610.13,558.95h-6.72v6.72h6.72v-6.72ZM638.93,558.95h-6.72v6.72h6.72v-6.72ZM667.73,558.95h-6.72v6.72h6.72v-6.72ZM387.41,573.35v6.72h6.72v-6.72h-6.72ZM416.21,573.35v6.72h6.72v-6.72h-6.72ZM445.01,573.35v6.72h6.72v-6.72h-6.72ZM473.81,573.35v6.72h6.72v-6.72h-6.72ZM502.61,573.35v6.72h6.72v-6.72h-6.72ZM531.41,573.35v6.72h6.72v-6.72h-6.72ZM401.81,587.75v6.72h6.72v-6.72h-6.72ZM416.21,587.75v6.72h6.72v-6.72h-6.72ZM445.01,587.75v6.72h6.72v-6.72h-6.72ZM473.81,587.75v6.72h6.72v-6.72h-6.72ZM502.61,587.75v6.72h6.72v-6.72h-6.72ZM531.41,587.75v6.72h6.72v-6.72h-6.72ZM560.21,587.75v6.72h6.72v-6.72h-6.72ZM430.61,602.15v6.72h6.72v-6.72h-6.72ZM459.41,602.15v6.72h6.72v-6.72h-6.72ZM430.61,616.55v6.72h6.72v-6.72h-6.72ZM459.41,616.55v6.72h6.72v-6.72h-6.72ZM488.21,616.55v6.72h6.72v-6.72h-6.72ZM517.01,616.55v6.72h6.72v-6.72h-6.72ZM545.81,616.55v6.72h6.72v-6.72h-6.72ZM581.33,616.55h-6.72v6.72h6.72v-6.72ZM445.01,630.95v6.72h6.72v-6.72h-6.72ZM445.01,645.35v6.72h6.72v-6.72h-6.72ZM473.81,645.35v6.72h6.72v-6.72h-6.72Z"/>
    <path d="M675.41,68.87v7.2h7.2v7.2h7.2v7.68h-7.2v6.72h7.2v7.68h-7.2v7.2h-7.2v6.72h7.2v7.68h-7.2v7.2h-7.2v6.72h7.2v7.68h-7.2v7.2h-7.2v7.2h-7.2v7.2h-7.2v7.2h-7.2v7.2h-7.2v7.2h-7.2v7.2h-7.2v7.2h-6.96c-1.23,0-.56-6.03-.72-7.2h-6.72v14.4h-14.16c-1.23,0-.56-6.03-.72-7.2h-6.72v7.2h-6.96c-1.23,0-.56-6.03-.72-7.2-1.17-.16-7.2.51-7.2-.72v-6.96h7.2v-6.72c-1.17-.16-7.2.51-7.2-.72v-6.96h7.2v-6.72c-1.17-.16-7.2.51-7.2-.72v-6.96h7.2v-6.72c-1.17-.16-7.2.51-7.2-.72v-6.96h7.2v-7.2h7.2v-7.2h7.2v-6.72c-1.17-.16-7.2.51-7.2-.72v-6.96h7.2v-7.2h7.68v7.68h-7.2v6.72h7.2v7.2h6.72v-7.2h7.2v-6.72c-1.17-.16-7.2.51-7.2-.72v-6.96h7.2v-6.72c-1.17-.16-7.2.51-7.2-.72v-6.96h7.68v7.2h6.72v-7.2h7.2v-6.72c-1.17-.16-7.2.51-7.2-.72v-6.96h7.2v-7.2h7.68v7.2h6.72v-7.2h7.2v-7.2h7.68v7.2h6.72v-7.2h7.2v-7.2h7.68ZM674.93,76.55h-6.72v6.72h6.72v-6.72ZM653.33,83.75h-6.72v6.72h6.72v-6.72ZM667.73,83.75h-6.72v6.72h6.72v-6.72ZM682.13,83.75h-6.72v6.72h6.72v-6.72ZM631.73,90.95h-6.72v6.72h6.72v-6.72ZM646.13,90.95h-6.72v7.2h-7.2v6.72h7.2v7.2h6.72v-7.2h7.2v-6.72c-1.47-.28-5.76.48-6.75-.21s-.21-5.57-.45-6.99ZM660.53,90.95h-6.72v6.72h6.72v-6.72ZM674.93,90.95h-6.72v7.2h-7.2v6.72h7.2v7.2h6.72v-7.2h7.2v-6.72c-1.47-.28-5.76.48-6.75-.21s-.21-5.57-.45-6.99ZM631.73,105.35h-6.72v6.72h6.72v-6.72ZM660.53,105.35h-6.72v6.72h6.72v-6.72ZM624.53,112.55h-6.72v6.72h6.72v-6.72ZM638.93,112.55h-6.72v6.72h6.72v-6.72ZM653.33,112.55h-6.72v6.72h6.72v-6.72ZM667.73,112.55h-6.72v6.72h6.72v-6.72ZM617.33,119.75h-6.72v6.72h6.72v-6.72ZM631.73,119.75h-6.72v6.72h6.72v-6.72ZM646.13,119.75h-6.72v6.72h6.72v-6.72ZM660.53,119.75h-6.72v6.72h6.72v-6.72ZM674.93,119.75h-6.72v6.72h6.72v-6.72ZM624.53,126.95h-6.72v6.72h6.72v-6.72ZM638.93,126.95h-6.72v6.72h6.72v-6.72ZM653.33,126.95h-6.72v6.72h6.72v-6.72ZM667.73,126.95h-6.72v6.72h6.72v-6.72ZM617.33,134.15h-6.72v6.72h6.72v-6.72ZM631.73,134.15h-6.72v6.72h6.72v-6.72ZM646.13,134.15h-6.72v6.72h6.72v-6.72ZM660.53,134.15h-6.72v6.72h6.72v-6.72ZM595.73,141.35h-6.72v6.72h6.72v-6.72ZM610.13,141.35h-6.72v6.72h6.72v-6.72ZM624.53,141.35h-6.72v6.72h6.72v-6.72ZM638.93,141.35h-6.72v6.72h6.72v-6.72ZM653.33,141.35h-6.72v6.72h6.72v-6.72ZM667.73,141.35h-6.72v6.72h6.72v-6.72ZM588.53,148.55h-6.72v7.2h-7.2v6.72h7.2v7.2h6.72v-7.2h7.2v-6.72c-1.47-.28-5.76.48-6.75-.21s-.21-5.57-.45-6.99ZM602.93,148.55h-6.72v6.72h6.72v-6.72ZM617.33,148.55h-6.72v7.2h-7.2v6.72h7.2v7.2h6.72v-7.2h7.2v-6.72c-1.47-.28-5.76.48-6.75-.21s-.21-5.57-.45-6.99ZM631.73,148.55h-6.72v6.72h6.72v-6.72ZM646.13,148.55h-6.72v6.72h6.72v-6.72ZM660.53,148.55h-6.72v6.72h6.72v-6.72ZM638.93,155.75h-6.72v6.72h6.72v-6.72ZM653.33,155.75h-6.72v6.72h6.72v-6.72ZM602.93,162.95h-6.72v6.72h6.72v-6.72ZM631.73,162.95h-6.72v6.72h6.72v-6.72ZM646.13,162.95h-6.72v6.72h6.72v-6.72ZM581.33,170.15h-6.72v6.72h6.72v-6.72ZM595.73,170.15h-6.72v6.72h6.72v-6.72ZM610.13,170.15h-6.72v6.72h6.72v-6.72ZM624.53,170.15h-6.72v6.72h6.72v-6.72ZM638.93,170.15h-6.72v6.72h6.72v-6.72ZM588.53,177.35h-6.72v6.72h6.72v-6.72ZM602.93,177.35h-6.72v6.72h6.72v-6.72ZM617.33,177.35h-6.72v6.72h6.72v-6.72ZM631.73,177.35h-6.72v6.72h6.72v-6.72ZM581.33,184.55h-6.72v6.72h6.72v-6.72ZM595.73,184.55h-6.72v6.72h6.72v-6.72ZM610.13,184.55h-6.72v6.72h6.72v-6.72ZM624.53,184.55h-6.72v6.72h6.72v-6.72ZM588.53,191.75h-6.72v6.72h6.72v-6.72ZM602.93,191.75h-6.72v6.72h6.72v-6.72ZM617.33,191.75h-6.72v6.72h6.72v-6.72ZM581.33,198.95h-6.72v6.72h6.72v-6.72ZM595.73,198.95h-6.72v6.72h6.72v-6.72Z"/>
  </g>
</svg>