<?xml version="1.0" encoding="UTF-8"?>
<svg id="Layer_1" data-name="Layer 1" xmlns="http://www.w3.org/2000/svg" xmlns:xlink="http://www.w3.org/1999/xlink" viewBox="0 0 1133.86 737.01">
  <defs>
    <style>
      .cls-1 {
        fill: #24af15;
      }

      .cls-2 {
        fill: #fff;
        filter: url(#drop-shadow-1);
      }
    </style>
    <filter id="drop-shadow-1" x="23.86" y="32.52" width="1084" height="679" filterUnits="userSpaceOnUse">
      <feOffset dx="-1.42" dy="2.83"/>
      <feGaussianBlur result="blur" stdDeviation=".85"/>
      <feFlood flood-color="#000" flood-opacity=".6"/>
      <feComposite in2="blur" operator="in"/>
      <feComposite in="SourceGraphic"/>
    </filter>
  </defs>
  <path class="cls-2" d="M1104.17,472.55l-38.9,119.37c-.07.22-.15.44-.23.65-.05.16-.11.31-.17.47-1.59,4.32-3.37,8.58-5.29,12.69-4.54,9.74-10.1,19.1-16.51,27.77-1.37,1.85-2.78,3.68-4.2,5.44-2.56,3.19-5.8,7.09-10.15,11.63-2.68,2.81-5.54,5.58-8.48,8.21-7.55,6.77-15.76,12.73-24.38,17.72-3.58,2.07-7.32,4.02-11.11,5.79-3.12,1.45-6.08,2.7-9.09,3.82-.92.35-1.86.64-2.8.89-.93.42-1.88.79-2.86,1.11-3.35,1.08-6.72,2.03-10.31,2.89-10.63,2.54-21.29,3.89-34.8,5.59-5.16.65-10.37,1.19-15.51,1.59-.74.06-1.49.11-2.24.16-22.01,2.13-78.49,3.96-78.49,3.96h-312.27c-5.11.97-9.2,1.37-11.35,1.57-3.25.31-6.67.47-10.16.47-5.29,0-13.02-.37-21.32-2.04-1.14-.23-2.29-.48-3.44-.76-24.78-6-34.87-19.76-38.97-30.25-.28-.71-.49-1.34-.59-1.64,0,0-.09-.27-.13-.39-1.86-5.57-2.61-11.57-2.26-17.86.29-5.08,1.26-9.13,1.63-10.65,0-.01,0-.05.01-.06,1.45-6.02,3.9-11.72,7.29-16.96.51-.79,1.05-1.56,1.6-2.33h-46.59c-3.04,0-6.01-.52-8.82-1.48-2.79.96-5.77,1.48-8.85,1.48h-191.06c-7.83,2.03-15.85,3.31-23.91,3.81-2.63.16-5.34.24-8.06.24-8.8,0-22.43-.88-37.36-5.07-19.11-5.35-35.68-14.67-49.24-27.69-15.15-14.55-26.18-33.59-31.9-55.06-5.47-20.53-6.02-43.02-1.57-65.04.21-1.03.47-2.04.8-3.04l9.3-28.55c.18-.55.37-1.08.58-1.61.02-.05.07-.16.07-.16,9.42-23.36,28.13-56.48,63.78-81.59,9.74-6.86,39.36-27.73,77.36-32.92,1.22-.17,2.45-.25,3.68-.25h27.43c1.29,0,2.57.09,3.84.27,7.33,1.05,14.64,2.79,21.72,5.19,11.82,4,22.12,9.5,31.04,15.68.37-1.63.9-3.24,1.58-4.8,4.33-9.92,14.12-16.33,24.94-16.33h62.18c8.72,0,16.91,4.18,22.03,11.24.97,1.34,1.8,2.75,2.5,4.22,4.47-9.35,13.96-15.45,24.53-15.45h29.32s9.08-27.94,9.09-27.98l-13.84-10.05c-9.53-6.93-13.53-19.21-9.88-30.41,3.64-11.21,14.09-18.8,25.87-18.8h17.16l5.3-16.32c1.22-3.76,3.21-7.11,5.75-9.9-.04-2.94.38-5.92,1.32-8.82l2.9-8.93-7.6-5.52c-9.53-6.93-13.52-19.21-9.88-30.41,3.64-11.21,14.09-18.79,25.87-18.79h9.39l2.9-8.93c1.21-3.75,3.2-7.08,5.72-9.87-.39-3.7-.02-7.53,1.18-11.24l.97-2.98-2.54-1.85c-9.53-6.92-13.52-19.2-9.88-30.41,3.64-11.21,14.09-18.8,25.87-18.8h3.13l.97-2.98c3.64-11.21,14.09-18.8,25.87-18.8s22.23,7.59,25.87,18.8l.97,2.98h3.14c4.97,0,9.69,1.35,13.78,3.75,4.08-2.4,8.81-3.75,13.78-3.75h3.13l.97-2.98c3.64-11.21,14.09-18.8,25.87-18.8s22.23,7.59,25.87,18.8l.97,2.98h3.13c11.79,0,22.23,7.59,25.87,18.8,3.64,11.21-.35,23.49-9.88,30.41l-2.54,1.85.97,2.98c3.64,11.21-.35,23.49-9.88,30.41-2.29,1.66-4.78,2.93-7.37,3.79,5.28,3.31,9.4,8.42,11.42,14.63,3.64,11.21-.35,23.49-9.88,30.41l-7.6,5.52,2.9,8.93c3.64,11.21-.35,23.49-9.88,30.41-4.65,3.38-10.1,5.11-15.57,5.19,9.45,1.93,17.34,8.8,20.4,18.24,3.64,11.2-.35,23.48-9.88,30.41l-13.89,10.09,5.31,16.32c3.64,11.21-.35,23.49-9.88,30.41-1.1.8-2.24,1.5-3.42,2.11,1.14,4.81.98,9.9-.59,14.73l-19.5,59.84c6.51-1.4,12.59-2.03,17.58-2.56.09,0,.17-.01.26-.02.29-.03.58-.06.87-.09l.21-.02c4.78-.49,9.61-.74,14.39-.74,14.68,0,29.46,2.28,43.95,6.77,2.4-.69,4.92-1.06,7.5-1.06h60.38c5.2,0,10.21,1.48,14.49,4.18,4.26-2.68,9.25-4.18,14.49-4.18h60.38c4.56,0,8.98,1.14,12.88,3.24,1.76-.71,3.57-1.36,5.45-1.96,3.31-1.06,6.76-1.91,10.22-2.53,2.51-.45,5.51-.95,9.17-1.28,2.25-.2,4.52-.31,6.71-.31,9.11,0,17.63,1.77,25.32,5.24,3.13,1.43,6.09,3.11,8.85,5.03,5.27,3.68,9.82,8.19,13.57,13.35,2.14-1.45,4.31-2.85,6.52-4.17,3.99-2.4,8.12-4.63,12.29-6.62,3.51-1.68,9.04-4.21,16.31-6.7,2.35-.81,4.75-1.56,7.11-2.24,12.95-3.72,26.16-5.6,39.28-5.6,3.49,0,7.01.13,10.48.4,3.1.24,6.15.59,9.09,1.02,3.12.45,6.31,1.03,9.45,1.72,3.36.74,6.67,1.6,9.86,2.55,13.5,4.03,26.39,10.17,38.26,18.24,10.02,6.8,14.33,19.41,10.58,30.93Z"/>
  <g>
    <path class="cls-1" d="M613.73,142.25v5.28s4.52,0,4.52,0l.27-5.29h5.76c.29,5.81.54,5.84-5.29,6.04v4.05c5.88-.56,5.55.33,5.29,5.76h-5.28s0,4.8,0,4.8c.86.14,5.09-.2,5.28,0s-.14,3.99,0,4.8h4.05c.72-.1-.02-4.51.27-4.8.2-.2,4.85.15,5.76,0v5.28s-5.28,0-5.28,0c.14.81-.18,4.62,0,4.8,1.1,1.11,5.86-2.73,5.31,3.62-.36,4.12-4.41,1.24-5.31,2.13-.18.18.14,3.99,0,4.8.86.14,5.09-.2,5.28,0,.22.22-.22,4.59,0,4.8,1.09,1.09,6.98-2.97,5.28,5.76h-5.28s0,4.8,0,4.8c.86.14,5.09-.2,5.28,0,.22.22-.22,4.59,0,4.8s4.59-.22,4.8,0c.2.2-.15,4.85,0,5.76h-5.28s0-5.28,0-5.28h-4.53s-.27,5.28-.27,5.28h-5.76c-.29-5.81-.54-5.84,5.29-6.04v-4.05c-5.39.41-5.7.11-5.29-5.28h-4.32c.56,5.88-.33,5.54-5.76,5.28v-5.28s-4.8,0-4.8,0v5.28c-5.43.26-6.31.6-5.76-5.28h-4.32c.41,5.39.11,5.69-5.28,5.28v4.05c5.82.2,5.57.23,5.28,6.04h-5.76s0-5.28,0-5.28h-5.28s0-5.28,0-5.28h5.28s0-5.28,0-5.28h5.28s0-4.8,0-4.8h-5.28s0-5.28,0-5.28l5.29-.27v-4.53s-5.29,0-5.29,0v-5.76h5.28s0-4.52,0-4.52l-5.29-.27v-5.28c.91.15,5.56-.2,5.76,0,.29.29-.44,4.7.27,4.81h4.05c.14-.82-.19-4.62,0-4.81s4.42.15,5.28,0v-4.8s-5.28,0-5.28,0c-.26-5.43-.59-6.32,5.28-5.76v-4.05c-5.82-.2-5.57-.23-5.28-6.04h5.76ZM618.54,152.81h-4.82v4.82h4.82v-4.82ZM618.53,163.37h-4.8c-.14.81.19,4.62,0,4.8s-4.42-.15-5.28,0v4.8h5.28s0,5.76,0,5.76l-5.29.27v4.53c.87.14,5.1-.2,5.29,0s-.14,3.99,0,4.8h4.8c.14-.81-.19-4.62,0-4.8s4.42.15,5.28,0v-4.8h-5.28s0-5.76,0-5.76l5.29-.27v-4.53c-.87-.14-5.1.2-5.29,0s.14-3.99,0-4.8ZM607.98,173.45h-4.34v4.82h4.34v-4.82ZM628.62,173.45h-4.34v4.82h4.34v-4.82ZM607.98,184.01h-4.34v4.34h4.34v-4.34ZM628.62,184.01h-4.34v4.34h4.34v-4.34ZM613.26,188.81h-4.82v4.82h4.82v-4.82ZM623.82,188.81h-4.82v4.82h4.82v-4.82ZM633.9,188.81h-4.82v4.82h4.82v-4.82Z"/>
    <path class="cls-1" d="M521.09,162.89c.19.19-.14,3.99,0,4.8h4.53c.72-.1-.02-4.51.27-4.8.2-.2,4.85.15,5.76,0v5.28s-5.29.27-5.29.27c.15.78-.18,4.34,0,4.53.9.9,4.94-1.98,5.31,2.13.56,6.35-4.2,2.51-5.31,3.62-.18.18.14,3.99,0,4.8.86.14,5.09-.2,5.28,0s-.14,3.99,0,4.8h4.32c.14-.81-.19-4.62,0-4.8s4.42.15,5.28,0c-.14-.81.18-4.62,0-4.8-.9-.9-4.94,1.98-5.31-2.13-.56-6.35,4.2-2.51,5.31-3.62.18-.18-.14-3.99,0-4.8h-5.28s0-5.28,0-5.28c.91.15,5.56-.2,5.76,0,.19.19-.14,3.99,0,4.8h4.53c.72-.1-.02-4.51.27-4.8.2-.2,4.85.15,5.76,0v5.28s-5.29.27-5.29.27c.15.78-.18,4.34,0,4.53.54.54,4.84-1.15,5.28,1.2,1.39,7.3-4.31,3.59-5.28,4.56-1.03,1.03,2.78,6.95-5.28,5.28-.14.81.19,4.62,0,4.8s-4.42-.15-5.28,0v4.8h5.28s0,5.76,0,5.76c-5.81.29-5.84.54-6.04-5.29h-4.05c.56,5.88-.33,5.55-5.76,5.29v-5.76s5.28,0,5.28,0v-4.8c-.86-.14-5.09.2-5.28,0s.14-3.99,0-4.8h-4.8c-.14.81.19,4.62,0,4.8s-3.99-.14-4.8,0v4.53c.1.72,4.51-.02,4.8.27.2.2.2,5.56,0,5.76-.22.22-4.59-.22-4.8,0s.22,4.59,0,4.8c-.2.2-4.42-.15-5.28,0v5.28s-5.76,0-5.76,0c-.29-5.81-.54-5.84,5.29-6.04v-4.05c-1.19-.18-4.44.47-5.08-.45-.38-.54-.38-4.32,0-4.86.7-1.01,4.76-.13,5.07-.45.2-.2-.15-4.42,0-5.28.86-.14,5.09.2,5.28,0,.22-.22-.22-4.59,0-4.8.19-.19,3.99.14,4.8,0v-4.8c-.81-.14-4.62.19-4.8,0-.2-.2-.2-5.56,0-5.76.19-.19,3.99.14,4.8,0v-4.53c-.1-.72-4.51.02-4.8-.27-.19-.19.14-4.43,0-5.28.86.14,5.09-.19,5.28,0ZM525.9,173.45h-4.82v4.82h4.82v-4.82ZM546.54,173.45h-4.82v4.82h4.82v-4.82ZM515.82,194.09h-4.82v4.82h4.82v-4.82Z"/>
    <path class="cls-1" d="M500.45,162.89c.19.19-.14,3.99,0,4.8h4.53c.72-.1-.02-4.51.27-4.8.2-.2,4.85.15,5.76,0v5.28s-5.28,0-5.28,0c.14.81-.18,4.62,0,4.8.32.32,4.37-.57,5.07.45.43.62.43,4.64-.24,5.1-.55.38-4.32.38-4.86,0-1.01-.7-.13-4.76-.45-5.07-.2-.2-4.42.15-5.28,0-.14-.86.2-5.09,0-5.28-.22-.22-4.59.22-4.8,0-.19-.19.14-4.43,0-5.28.86.14,5.09-.19,5.28,0Z"/>
    <path class="cls-1" d="M644.45,162.89c.19.19-.14,3.99,0,4.8h4.53c.72-.1-.02-4.51.27-4.8.2-.2,4.85.15,5.76,0v5.28s-5.28,0-5.28,0v5.28s-5.28,0-5.28,0v5.28s-5.28,0-5.28,0c.15-.91-.2-5.56,0-5.76.19-.19,3.99.14,4.8,0v-4.53c-.1-.72-4.51.02-4.8-.27-.19-.19.14-4.43,0-5.28.86.14,5.09-.19,5.28,0Z"/>
    <path class="cls-1" d="M583.01,162.89c.19.19-.14,3.99,0,4.8h4.53c.72-.1-.02-4.51.27-4.8.19-.19,4.43.14,5.28,0-.14.86.19,5.09,0,5.28-.29.29-4.7-.44-4.81.27v4.53c.82.14,4.62-.19,4.81,0,.2.2-.15,4.85,0,5.76h-5.28s0-5.28,0-5.28h-5.28s0-5.28,0-5.28h-5.28s0-5.28,0-5.28c.91.15,5.56-.2,5.76,0Z"/>
    <path class="cls-1" d="M634.37,106.26c.18.18,3.99-.14,4.8,0v-5.28s5.28,0,5.28,0c-.15.91.2,5.56,0,5.76-.22.22-4.59-.22-4.8,0-1.09,1.09,2.97,6.98-5.76,5.28-.14-.86.2-5.09,0-5.28-.18-.18-3.25.16-4.08,0-1.71-.32-2.25-5.45.46-5.78,6.96-.84,2.99,4.2,4.1,5.3Z"/>
    <path class="cls-1" d="M531.65,142.25c.14.86-.2,5.09,0,5.28.22.22,4.59-.22,4.8,0,.19.19.19,5.1,0,5.28-.22.22-4.59-.22-4.8,0-.2.2.15,4.42,0,5.28h-5.76s0-5.76,0-5.76l5.29-.27v-4.05s-5.29,0-5.29,0v-5.76s5.76,0,5.76,0Z"/>
    <path class="cls-1" d="M655.01,106.26c.2.2,4.42-.15,5.28,0,.14.86-.2,5.09,0,5.28.22.22,4.59-.22,4.8,0,.19.19-.14,4.43,0,5.28-.86-.14-5.09.19-5.28,0-.22-.22.22-4.59,0-4.8-.2-.2-4.42.15-5.28,0-.14-.86.2-5.09,0-5.28-.98-.99-6.64,2.76-5.28-4.56.32-1.7,4.49-1.56,5.31-.99,1.01.7.13,4.76.45,5.07Z"/>
    <path class="cls-1" d="M624.29,86.1h-5.76s0-5.76,0-5.76c5.96-.41,6.18-.2,5.76,5.76Z"/>
    <path class="cls-1" d="M552.29,70.25c.41,5.97.19,6.18-5.76,5.76v-5.76s5.76,0,5.76,0Z"/>
    <path class="cls-1" d="M613.73,80.33v5.76s-5.76,0-5.76,0c-.41-5.97-.19-6.18,5.76-5.76Z"/>
    <path class="cls-1" d="M552.29,209.46h-5.76s0-5.76,0-5.76c5.96-.41,6.18-.2,5.76,5.76Z"/>
    <path class="cls-1" d="M531.65,137.46h-5.76s0-5.76,0-5.76c5.96-.41,6.18-.2,5.76,5.76Z"/>
    <path class="cls-1" d="M531.65,86.1h-5.76s0-5.76,0-5.76c5.97-.41,6.18-.19,5.76,5.76Z"/>
    <path class="cls-1" d="M541.73,80.33v5.76s-5.76,0-5.76,0c-.41-5.96-.2-6.18,5.76-5.76Z"/>
    <path class="cls-1" d="M552.29,86.1h-5.76s0-5.76,0-5.76c5.96-.41,6.18-.2,5.76,5.76Z"/>
    <path class="cls-1" d="M675.65,86.1h-5.76s0-5.76,0-5.76c5.96-.41,6.18-.2,5.76,5.76Z"/>
    <path class="cls-1" d="M546.53,106.74v-5.76c2.26.38,5.42-1.23,5.78,1.66.68,5.38-1.52,4.01-5.78,4.11Z"/>
    <path class="cls-1" d="M562.37,65.46h-5.76c.38-2.26-1.23-5.42,1.66-5.78,5.38-.68,4.01,1.52,4.11,5.78Z"/>
    <path class="cls-1" d="M562.37,70.25c-.1,4.27,1.27,6.46-4.11,5.78-2.89-.37-1.28-3.52-1.66-5.78h5.76Z"/>
    <path class="cls-1" d="M634.37,86.1h-5.76c.38-2.26-1.23-5.42,1.66-5.78,5.38-.68,4.01,1.52,4.11,5.78Z"/>
    <path class="cls-1" d="M546.53,199.38v-5.76c2.26.38,5.42-1.23,5.78,1.66.68,5.38-1.52,4.01-5.78,4.11Z"/>
    <path class="cls-1" d="M541.73,100.97v5.76c-2.26-.38-5.42,1.23-5.78-1.66-.68-5.38,1.52-4.01,5.78-4.11Z"/>
    <path class="cls-1" d="M562.37,86.1h-5.76c.38-2.26-1.23-5.42,1.66-5.78,5.38-.68,4.01,1.52,4.11,5.78Z"/>
    <path class="cls-1" d="M655.01,86.1h-5.76c.38-2.26-1.23-5.42,1.66-5.78,5.38-.68,4.01,1.52,4.11,5.78Z"/>
    <path class="cls-1" d="M583.01,86.1h-5.76c.38-2.26-1.23-5.42,1.66-5.78,5.38-.68,4.01,1.52,4.11,5.78Z"/>
    <path class="cls-1" d="M557.4,101.04c.77-.25,4.31-.27,4.76.38s.43,4.64-.24,5.1c-.62.43-4.64.43-5.1-.24-.51-.74-.53-4.88.58-5.24Z"/>
    <rect class="cls-1" x="535.96" y="90.89" width="5.78" height="5.3"/>
    <rect class="cls-1" x="659.8" y="80.33" width="5.3" height="5.78"/>
    <rect class="cls-1" x="546.52" y="90.89" width="5.78" height="5.3"/>
    <rect class="cls-1" x="556.6" y="90.89" width="5.78" height="5.3"/>
    <rect class="cls-1" x="639.16" y="80.33" width="5.3" height="5.78"/>
    <rect class="cls-1" x="567.16" y="80.33" width="5.3" height="5.78"/>
    <rect class="cls-1" x="556.6" y="162.89" width="5.78" height="5.3"/>
    <rect class="cls-1" x="628.6" y="90.89" width="5.78" height="5.3"/>
    <rect class="cls-1" x="618.52" y="111.53" width="5.78" height="5.3"/>
    <rect class="cls-1" x="535.96" y="111.53" width="5.78" height="5.3"/>
    <rect class="cls-1" x="639.16" y="70.25" width="5.3" height="5.78"/>
    <rect class="cls-1" x="649.24" y="90.89" width="5.78" height="5.3"/>
    <rect class="cls-1" x="639.16" y="59.69" width="5.3" height="5.78"/>
    <rect class="cls-1" x="567.16" y="100.97" width="5.3" height="5.78"/>
    <rect class="cls-1" x="567.16" y="162.89" width="5.3" height="5.3"/>
    <rect class="cls-1" x="567.16" y="90.89" width="5.3" height="5.3"/>
    <rect class="cls-1" x="639.16" y="90.89" width="5.3" height="5.3"/>
    <rect class="cls-1" x="567.16" y="111.53" width="5.3" height="5.3"/>
    <g>
      <path class="cls-1" d="M588.29,234.9c.22.22,4.59-.22,4.8,0,.19.19-.14,4.43,0,5.28-.86-.14-5.09.19-5.28,0-.22-.22.22-4.59,0-4.8-.2-.2-4.42.15-5.28,0v-5.76c8.73-1.69,4.67,4.2,5.76,5.28Z"/>
      <path class="cls-1" d="M433.25,425.46c-.29-5.81-.53-5.84,5.29-6.04v-4.05c-1.19-.18-4.44.47-5.08-.45-.38-.54-.38-4.32,0-4.86.7-1.01,4.76-.13,5.07-.45.2-.2-.15-4.42,0-5.28h5.28s0-4.32,0-4.32h-5.28s0-5.76,0-5.76h5.28c.14-.86-.2-5.08,0-5.28s3.99.14,4.8,0v-4.8c-.81-.14-4.62.19-4.8,0-.22-.22.22-4.59,0-4.8-.2-.2-4.42.15-5.28,0v-5.28s-5.28,0-5.28,0v-5.28c-.86-.14-5.08.2-5.28,0-.22-.22.22-4.59,0-4.8s-4.59.22-4.8,0c-.2-.2.15-4.42,0-5.28h-5.28s0-5.28,0-5.28h-5.28c.31-1.7-.94-5.36,1.2-5.76,7.32-1.37,3.58,4.3,4.56,5.28.18.18,3.99-.14,4.8,0v-5.28s5.28,0,5.28,0v5.28c.81-.14,4.62.18,4.8,0,.98-.98-2.76-6.65,4.56-5.28,2.34.44.66,4.74,1.2,5.28.18.18,3.99-.14,4.8,0v-5.28s5.28,0,5.28,0v5.28s4.8,0,4.8,0v-5.28c.86-.14,5.08.2,5.28,0,.22-.22-.22-4.59,0-4.8.19-.19,3.99.14,4.8,0v-4.8c-.81-.14-4.62.19-4.8,0-.2-.2-.2-5.56,0-5.76.22-.22,4.59.22,4.8,0s-.22-4.59,0-4.8c.3-.3,5.18.45,5.29-.27-.15-.78.18-4.34,0-4.53-.54-.54-4.84,1.15-5.28-1.2-1.39-7.3,4.31-3.59,5.28-4.56,1.03-1.03-2.78-6.95,5.28-5.28v-4.32c-1.19-.18-4.44.47-5.07-.45-.38-.54-.38-4.32,0-4.86.7-1.01,4.76-.13,5.07-.45.2-.2-.15-4.42,0-5.28h5.28s0-4.32,0-4.32h-5.28s0-5.76,0-5.76h5.76s0,5.28,0,5.28h4.32s0-5.28,0-5.28h5.28s0-4.8,0-4.8h-5.28s0-5.28,0-5.28h-4.05s-.27,5.28-.27,5.28h-5.76s0-5.28,0-5.28h-4.53s-.27,5.28-.27,5.28h-5.76c-.14-.86.2-5.09,0-5.28-.22-.22-4.59.22-4.8,0s.22-4.59,0-4.8c-.2-.2-4.42.15-5.28,0v-5.76h5.28s0-5.28,0-5.28h5.01s.27,5.28.27,5.28c.81-.14,4.62.18,4.8,0,1.11-1.1-2.73-5.86,3.62-5.31,4.12.36,1.24,4.41,2.13,5.31.18.18,3.99-.14,4.8,0,.14-.86-.2-5.09,0-5.28.22-.22,4.59.22,4.8,0s-.22-4.59,0-4.8c.2-.2,4.42.15,5.28,0v-5.28s5.28,0,5.28,0v-4.53s-5.28-.27-5.28-.27v-5.76c.86-.14,5.09.2,5.28,0,.22-.22-.22-4.59,0-4.8.19-.19,3.99.14,4.8,0v-4.8c-.81-.14-4.62.19-4.8,0-.2-.2.15-4.85,0-5.76h5.28s0,5.28,0,5.28h5.28s0,5.76,0,5.76c-.86.14-5.09-.2-5.28,0-.22.22.22,4.59,0,4.8-.19.19-3.99-.14-4.8,0v4.8c.81.14,4.62-.19,4.8,0,.3.3-.45,5.18.27,5.29.78-.15,4.34.18,4.53,0s-.16-3.25,0-4.08c.32-1.7,5.44-2.25,5.78.46.87,6.94-4.21,3-5.3,4.1-.18.18.14,3.99,0,4.8.86.14,5.09-.2,5.28,0,.22.22-.22,4.59,0,4.8,1.02,1.03,6.95-2.78,5.28,5.28h4.32c.11-3.9-1.22-5.73,3.62-5.31,4.12.36,1.24,4.41,2.13,5.31.18.18,3.99-.14,4.8,0l.27-5.29h5.01s0,5.29,0,5.29c.81-.14,4.62.18,4.8,0,1.11-1.1-2.73-5.86,3.62-5.31,4.12.36,1.24,4.41,2.13,5.31.18.18,3.99-.14,4.8,0v-5.28s5,0,5,0l.27,5.29h4.8v-5.28c5.43-.26,6.31-.6,5.76,5.28h4.32c-1.67-8.06,4.26-4.25,5.28-5.28.22-.22-.22-4.59,0-4.8.2-.2,4.42.15,5.28,0-.14-.81.18-4.62,0-4.8-.4-.4-4.7.8-5.22-.78-.55-1.68-.6-4.73,1.59-4.99,6.96-.84,2.99,4.2,4.1,5.3.18.18,3.99-.14,4.8,0l.27-5.29h5.01s0,5.29,0,5.29h5.28c.29,5.8.54,5.84-5.29,6.03v4.05c8.06-1.67,4.26,4.26,5.29,5.28.18.18,3.99-.14,4.8,0v-5.28s5.28,0,5.28,0l.27,5.29c.78-.15,4.34.18,4.53,0,.4-.4-.8-4.7.78-5.22.67-.22,4.02-.21,4.52.14,1.09.76-.09,4.96.73,5.08h4.53s0-5.29,0-5.29h5.28l.27,5.29h4.53s0-5.29,0-5.29c5.97-.41,6.18-.19,5.76,5.76h-5.28c1.67,8.06-4.26,4.25-5.28,5.28-.22.22.22,4.59,0,4.8-.19.19-5.1.19-5.28,0s.14-3.99,0-4.8h-4.8c-.14.81.19,4.62,0,4.8s-4.42-.15-5.28,0v5.28s-5.28,0-5.28,0c-.14.86.2,5.09,0,5.28s-3.99-.14-4.8,0v4.8c.81.14,4.62-.19,4.8,0,.22.22-.22,4.59,0,4.8.2.2,4.42-.15,5.28,0v5.76s-5.28,0-5.28,0v4.8c.86.14,5.09-.2,5.28,0,.22.22-.22,4.59,0,4.8.26.26,5.28-.56,5.28.72v9.6c0,1.07-5.76,1.07-5.76,0v-9.84h-4.8s0,5.28,0,5.28h-5.28v-5.28c-.86-.14-5.08.2-5.28,0s.14-3.99,0-4.8c-8.06,1.67-4.25-4.26-5.28-5.28-.22-.22-4.59.22-4.8,0-.2-.2.15-4.42,0-5.28h-4.8v5.28s-5.28,0-5.28,0v5.28c-.86.14-5.08-.2-5.28,0-.22.22.22,4.59,0,4.8s-4.59-.22-4.8,0c-.2.2.15,4.42,0,5.28-.86.14-5.09-.2-5.28,0-.18.18.16,3.25,0,4.08-.32,1.7-5.44,2.25-5.78-.46-.87-6.94,4.21-3,5.3-4.1.18-.18-.14-3.99,0-4.8h-5.28s0-5.28,0-5.28h5.28s0-5.28,0-5.28h5.28s0-4.8,0-4.8l-5.29-.27v-5.01s5.29,0,5.29,0v-4.8h-5.28s0-5.28,0-5.28h-5.28c-.14-.86.2-5.08,0-5.28-.22-.22-4.59.22-4.8,0s.22-4.59,0-4.8c-.2-.2-4.42.15-5.28,0l-.27-5.29h-4.53s0,5.29,0,5.29c-.86.14-5.09-.2-5.28,0-.22.22.22,4.59,0,4.8s-4.59-.22-4.8,0c-.2.2.15,4.42,0,5.28-.86.14-5.09-.2-5.28,0-1.03,1.02,2.78,6.95-5.28,5.28v4.8s5.29.27,5.29.27v5.01s-5.29,0-5.29,0v4.8c8.06-1.67,4.25,4.26,5.28,5.28.2.2,4.42-.15,5.28,0v5.28s-5.28,0-5.28,0c.14.81-.18,4.62,0,4.8,1.09,1.1,6.18-2.83,5.3,4.1-.37,2.89-3.52,1.28-5.78,1.66v-5.28s-5.28,0-5.28,0c-.14-.86.2-5.09,0-5.28-.22-.22-4.59.22-4.8,0s.22-4.59,0-4.8c-.2-.2-4.42.15-5.28,0v-5.28s-4.8,0-4.8,0v5.28c-5.43.26-6.31.6-5.76-5.28h-4.32c1.67,8.06-4.26,4.25-5.28,5.28-.22.22.22,4.59,0,4.8-.2.2-5.56.2-5.76,0-.29-.29.44-4.7-.27-4.81h-4.05c-.14.82.19,4.62,0,4.81s-4.42-.15-5.28,0v4.8c8.06-1.67,4.25,4.26,5.28,5.28.22.22,4.59-.22,4.8,0,.2.2.2,5.56,0,5.76-.19.19-3.99-.14-4.8,0v4.32c.81.14,4.62-.19,4.8,0,.23.23-.23,5.06,0,5.28.32.32,4.37-.57,5.07.45.38.54.38,4.32,0,4.86-.64.91-3.89.27-5.07.45v4.05c5.3.34,5.73-.22,5.28,5.56h4.8s.27-5.29.27-5.29h5.01s0,5.29,0,5.29c.81-.14,4.62.18,4.8,0,1.11-1.1-2.73-5.86,3.62-5.31,4.12.36,1.24,4.41,2.13,5.31.18.18,3.99-.14,4.8,0v-5.28s5,0,5,0l.27,5.29h4.8v-5.28c5.43-.26,6.31-.6,5.76,5.28h4.32c-.56-5.88.33-5.54,5.76-5.28v5.28s4.8,0,4.8,0v-5.28c5.43-.26,6.31-.6,5.76,5.28h4.32c.11-3.9-1.22-5.73,3.62-5.31,4.12.36,1.24,4.41,2.13,5.31.18.18,3.99-.14,4.8,0l.27-5.29h5.01s0,5.29,0,5.29c.81-.14,4.62.18,4.8,0,.26-.26-.56-5.28.72-5.28h15.12v5.28s4.8,0,4.8,0v-5.28c5.95-.41,6.17-.2,5.76,5.76h-5.28s0,4.52,0,4.52l5.29.27c1.7,8.72-4.2,4.67-5.28,5.76-.22.22.22,4.59,0,4.8-.2.2-4.42-.15-5.28,0,.14.81-.18,4.62,0,4.8.54.54,4.84-1.15,5.28,1.2,1.39,7.3-4.31,3.59-5.28,4.56-.22.22.22,4.59,0,4.8-.19.19-3.99-.14-4.8,0v4.8s4.81.27,4.81.27c-.16.88.19,5.29,0,5.49-.18.18-3.99-.14-4.8,0v15.36c-.86.14-5.09-.2-5.28,0-1.03,1.02,2.78,6.95-5.28,5.28v4.32c5.88-.56,5.54.33,5.28,5.76h-5.28s0,5.28,0,5.28h-5.28s0,4.8,0,4.8h5.28s0,10.56,0,10.56h-10.08v4.8s4.81.27,4.81.27c-.16.83.19,4.81,0,5.01s-3.99-.14-4.8,0v20.64h-10.56c.14.81-.19,4.62,0,4.8,1.1,1.11,5.86-2.73,5.31,3.62-.31,3.49-2.47,1.79-5.3,2.14v20.64h-10.08v4.32c1.24.21,4.74-.65,5.21.78.22.67.22,8.8,0,9.47-.52,1.59-4.82.38-5.22.78-.71.72.88,18.63-.21,20.19-.7,1.01-4.76.13-5.07.45-.22.22.22,4.59,0,4.8-.2.2-4.42-.15-5.28,0v4.8h15.36v-10.08h10.08v-5.28s5.48,0,5.48,0l.27,5.29h4.32v-9.84c0-.05.67-.72.72-.72h9.6c.05,0,.72.67.72.72v15.12h-5.28c.14.81-.18,4.62,0,4.8.9.9,4.94-1.98,5.31,2.13.42,4.84-1.4,3.51-5.31,3.62v4.32h9.84c.05,0,.72.67.72.72v9.84h14.88v-25.44c-.86-.14-5.09.19-5.28,0-.22-.22.22-4.59,0-4.8-.26-.26-5.28.56-5.28-.72v-15.12c-.81-.13-4.62.19-4.8,0-.22-.22.22-4.59,0-4.8-.19-.19-4.42.14-5.28,0v-15.36c-5.88.55-5.54-.33-5.28-5.76l5.29-.27v-4.53s-5.29,0-5.29,0c-.26-5.43-.59-6.32,5.28-5.76v-4.05c-4.16-.47-6.31.58-5.28-4.84.45-2.35,4.74-.65,5.28-1.2.19-.19-.14-3.74,0-4.53l-5.29-.27v-5.28s5.28,0,5.28,0v-15.84c.86-.14,5.09.19,5.28,0s-.14-3.99,0-4.8h15.36c.14-.86-.19-5.09,0-5.28.22-.22,4.59.22,4.8,0,.47-.47-1.04-5.24,1.2-5.28h65.28c2.23.04.73,4.82,1.2,5.28.22.22,4.59-.22,4.8,0,.2.2-.15,4.42,0,5.28h5.28s0,5.28,0,5.28h-5.28s0,25.92,0,25.92c-.81.14-4.62-.19-4.8,0-.26.26.56,5.28-.72,5.28h-9.6c-.05,0-.72-.67-.72-.72v-9.84c-.81-.13-4.62.19-4.8,0-.22-.22.22-4.59,0-4.8-.2-.2-4.42.15-5.28,0v-5.28c-8.05,1.67-4.25-4.26-5.28-5.28-.2-.2-4.42.15-5.28,0v-5.28s-4.32,0-4.32,0v9.84c0,.05-.67.72-.72.72h-9.84v4.8s5.28,0,5.28,0v5.01s-5.28.27-5.28.27v4.8c8.06-1.67,4.25,4.26,5.28,5.28.19.19,4.42-.14,5.28,0v15.36c.81.13,4.62-.19,4.8,0,.2.2-.15,4.42,0,5.28h5.28s0,10.08,0,10.08c1.19.18,4.44-.46,5.07.45.78,1.11-.2,9.22.21,9.63.26.26,5.28-.56,5.28.72v41.04h-10.56v10.56c-.86.14-5.09-.19-5.28,0-.22.22.22,4.59,0,4.8s-4.59-.22-4.8,0c-.19.19.14,4.42,0,5.28h-10.56v5.28h-15.36c-.24,0,.24,4.8,0,4.8h-31.2c-.24,0,.24-4.8,0-4.8h-9.84c-1.28,0-.46-5.02-.72-5.28-.18-.18-3.31.14-4.05,0-.2,5.83-.23,5.58-6.04,5.29v-5.28s-5.28,0-5.28,0c-.14-.86.2-5.09,0-5.28-.22-.22-4.59.22-4.8,0s.22-4.59,0-4.8c-.2-.2-4.42.15-5.28,0-.14-.86.2-5.09,0-5.28-.26-.26-5.28.56-5.28-.72v-14.64h-4.8v15.36c-.81.14-4.62-.19-4.8,0-1.03,1.02,2.78,6.95-5.28,5.28v4.32c5.88-.56,5.54.33,5.28,5.76-.86.14-5.09-.2-5.28,0-.26.26.56,5.28-.72,5.28h-15.12l-.28-5.29h-4.53s0,5.29,0,5.29h-15.84l-.28-5.29h-4.53s0,5.29,0,5.29h-15.12c-.05,0-.72-.67-.72-.72v-20.4h10.56v-4.8s-5.29-.27-5.29-.27v-5.49s5.29,0,5.29,0v-20.16h10.08c-.14-.81.19-4.62,0-4.8-1.1-1.11-5.86,2.73-5.31-3.62.31-3.49,2.47-1.79,5.3-2.14v-20.64h10.08v-4.32s-4.81-.27-4.81-.27c.16-.88-.19-5.28,0-5.49.29-.29,4.7.44,4.81-.27v-4.53c-.82-.14-4.62.19-4.81,0-.2-.2-.2-5.56,0-5.76.18-.18,3.99.14,4.8,0v-14.64c0-1.28,5.02-.46,5.28-.72.22-.22-.22-4.59,0-4.8.2-.2,4.42.15,5.28,0-.14-.81.18-4.62,0-4.8-.9-.9-4.94,1.98-5.31-2.13-.42-4.84,1.4-3.51,5.3-3.62v-15.36h5.28c.14-.86-.2-5.09,0-5.28s3.99.14,4.8,0v-4.32c-.81-.14-4.62.19-4.8,0s.15-4.42,0-5.28h-5.28s0-5.28,0-5.28h-4.8v10.56h-10.08v4.32s4.81.27,4.81.27c-.16.88.19,5.29,0,5.49-.18.18-3.99-.14-4.8,0v19.92c0,.05-.67.72-.72.72h-9.84v4.8s5.29.27,5.29.27v5.01s-5.29,0-5.29,0v15.36c-.81.13-4.62-.19-4.8,0-.2.2.15,4.42,0,5.28h-5.28s0,4.8,0,4.8h5.28c.26,5.43.6,6.31-5.28,5.76v20.16h-10.56v4.8s5.29.27,5.29.27v5.49s-5.29,0-5.29,0v20.64h-10.08v4.32c5.88-.56,5.54.33,5.28,5.76h-5.28s0,20.64,0,20.64h-10.08c-.21,1.25.64,4.74-.79,5.21-.95.31-14.46.29-15.08-.14-.91-.64-.27-3.87-.45-5.07-.76.13-4.15-.18-4.32,0-.26.26.56,5.28-.72,5.28h-15.12v-5.28s-4.52,0-4.52,0c-.73.11.34,5.29-1,5.29h-9.6c-.05,0-.72-.67-.72-.72v-20.4h5.28v-15.36h5.28s0-5.28,0-5.28h5.28s0-4.8,0-4.8l-5.29-.27v-5.01s5.29,0,5.29,0v-15.84c.81-.13,4.62.19,4.8,0,.22-.22-.22-4.59,0-4.8.2-.2,4.42.15,5.28,0v-4.8s-5.28,0-5.28,0c-.26-5.43-.6-6.32,5.28-5.76v-15.36h5.28c.14-.86-.2-5.09,0-5.28s3.99.14,4.8,0v-4.32c-.81-.14-4.62.19-4.8,0-.2-.2-.2-5.56,0-5.76.22-.22,4.59.22,4.8,0,1.03-1.02-2.78-6.95,5.28-5.28v-4.05c-.1-.73-5.28.34-5.28-1v-20.4h10.56v-5.28c5.43-.26,6.32-.6,5.76,5.28h4.32v-9.84c0-.05.67-.72.72-.72h9.84c.13-.81-.19-4.62,0-4.8.22-.22,4.59.22,4.8,0,.2-.2-.15-4.42,0-5.28h5.76s.27,5.29.27,5.29h4.53s0-5.29,0-5.29h5.28s0-10.56,0-10.56h10.08v-14.88c-.86-.14-5.09.2-5.28,0-.29-.29.44-4.7-.27-4.81h-4.05s0,4.81,0,4.81h-15.84c-.14.86.19,5.09,0,5.28-.22.22-4.59-.22-4.8,0-.26.26.56,5.28-.72,5.28h-14.64v10.08h-11.04ZM499.98,250.73h-4.34v4.82h4.34v-4.82ZM592.62,250.73h-4.34v4.82h4.34v-4.82ZM495.18,256.01h-4.82v4.34h4.82v-4.34ZM505.26,256.01h-4.82v4.34h4.82v-4.34ZM587.82,256.01h-4.82v4.34h4.82v-4.34ZM489.9,260.81h-4.82v4.82h4.82v-4.82ZM499.98,260.81h-4.34v4.82h4.34v-4.82ZM510.54,260.81h-4.82v4.82h4.82v-4.82ZM582.54,260.81h-4.82v4.82h4.82v-4.82ZM592.62,260.81h-4.34v4.82h4.34v-4.82ZM463.98,266.09h-4.34v4.82h4.34v-4.82ZM474.54,266.09h-4.82v4.82h4.82v-4.82ZM484.62,266.09h-4.34v4.82h4.34v-4.82ZM495.18,266.09h-4.82v4.82h4.82v-4.82ZM505.26,266.09h-4.82v4.82h4.82v-4.82ZM515.82,266.09h-4.82v4.82h4.82v-4.82ZM525.9,266.09h-4.82v4.82h4.82v-4.82ZM535.98,266.09h-4.34v4.82h4.34v-4.82ZM556.62,266.09h-4.34v4.82h4.34v-4.82ZM567.18,266.09h-4.82v4.82h4.82v-4.82ZM577.26,266.09h-4.82v4.82h4.82v-4.82ZM587.82,266.09h-4.82v4.82h4.82v-4.82ZM597.9,266.09h-4.82v4.82h4.82v-4.82ZM607.98,266.09h-4.34v4.82h4.34v-4.82ZM618.54,266.09h-4.82v4.82h4.82v-4.82ZM628.62,266.09h-4.34v4.82h4.34v-4.82ZM469.26,271.37h-4.82v4.34h4.82v-4.34ZM479.82,271.37h-4.82v4.34h4.82v-4.34ZM489.9,271.37h-4.82v4.34h4.82v-4.34ZM499.98,271.37h-4.34v4.34h4.34v-4.34ZM510.54,271.37h-4.82v4.34h4.82v-4.34ZM520.62,271.37h-4.34v4.34h4.34v-4.34ZM531.18,271.37h-4.82v4.34h4.82v-4.34ZM561.9,271.37h-4.82v4.34h4.82v-4.34ZM571.98,271.37h-4.34v4.34h4.34v-4.34ZM582.54,271.37h-4.82v4.34h4.82v-4.34ZM592.62,271.37h-4.34v4.34h4.34v-4.34ZM603.18,271.37h-4.82v4.34h4.82v-4.34ZM613.26,271.37h-4.82v4.34h4.82v-4.34ZM495.18,276.17h-4.82v4.82h4.82v-4.82ZM505.26,276.17h-4.82v4.82h4.82v-4.82ZM515.82,276.17h-4.82v4.82h4.82v-4.82ZM525.9,276.17h-4.82v4.82h4.82v-4.82ZM567.18,276.17h-4.82v4.82h4.82v-4.82ZM577.26,276.17h-4.82v4.82h4.82v-4.82ZM587.82,276.17h-4.82v4.82h4.82v-4.82ZM597.9,276.17h-4.82v4.82h4.82v-4.82ZM607.98,276.17h-4.34v4.82h4.34v-4.82ZM499.98,281.45h-4.34v4.82h4.34v-4.82ZM510.54,281.45h-4.82v4.82h4.82v-4.82ZM520.62,281.45h-4.34v4.82h4.34v-4.82ZM571.98,281.45h-4.34v4.82h4.34v-4.82ZM582.54,281.45h-4.82v4.82h4.82v-4.82ZM592.62,281.45h-4.34v4.82h4.34v-4.82ZM603.18,281.45h-4.82v4.82h4.82v-4.82ZM495.18,286.73h-4.82v4.82h4.82v-4.82ZM505.26,286.73h-4.82v4.82h4.82v-4.82ZM515.82,286.73h-4.82v4.82h4.82v-4.82ZM577.26,286.73h-4.82v4.82h4.82v-4.82ZM587.82,286.73h-4.82v4.82h4.82v-4.82ZM597.9,286.73h-4.82v4.82h4.82v-4.82ZM489.9,292.01h-4.82v4.34h4.82v-4.34ZM499.98,292.01h-4.34v4.34h4.34v-4.34ZM510.54,292.01h-4.82v4.34h4.82v-4.34ZM520.62,292.01h-4.34v4.34h4.34v-4.34ZM571.98,292.01h-4.34v4.34h4.34v-4.34ZM582.54,292.01h-4.82v4.34h4.82v-4.34ZM592.62,292.01h-4.34v4.34h4.34v-4.34ZM603.18,292.01h-4.82v4.34h4.82v-4.34ZM484.62,296.81h-4.34v4.82h4.34v-4.82ZM495.18,296.81h-4.82v4.82h4.82v-4.82ZM505.26,296.81h-4.82v4.82h4.82v-4.82ZM515.82,296.81h-4.82v4.82h4.82v-4.82ZM572.44,296.81v4.82h4.82v-4.82h-4.82ZM593.08,296.81v4.82h4.82v-4.82h-4.82ZM607.98,296.81h-4.34v4.82h4.34v-4.82ZM479.82,302.09h-4.82v4.82h4.82v-4.82ZM489.9,302.09h-4.82v4.82h4.82v-4.82ZM520.62,302.09h-4.34v4.82h4.34v-4.82ZM571.98,302.09h-4.34v4.82h4.34v-4.82ZM603.18,302.09h-4.82v4.82h4.82v-4.82ZM525.9,307.37h-4.82v4.34h4.82v-4.34ZM567.18,307.37h-4.82v4.34h4.82v-4.34ZM607.98,307.37h-4.34v4.34h4.34v-4.34ZM479.82,322.73h-4.82v4.82h4.82v-4.82ZM474.54,328.01h-4.82v4.34h4.82v-4.34ZM469.26,332.81h-4.82v4.82h4.82v-4.82ZM479.82,332.81h-4.82v4.82h4.82v-4.82ZM474.54,338.09h-4.82v4.82h4.82v-4.82ZM469.26,343.37h-4.82v4.34h4.82v-4.34ZM479.82,343.37h-4.82v4.34h4.82v-4.34ZM463.98,348.17h-4.34v4.82h4.34v-4.82ZM474.54,348.17h-4.82v4.82h4.82v-4.82ZM484.62,348.17h-4.34v4.82h4.34v-4.82ZM427.98,353.45h-4.34v4.82h4.34v-4.82ZM438.54,353.45h-4.82v4.82h4.82v-4.82ZM448.62,353.45h-4.34v4.82h4.34v-4.82ZM459.18,353.45h-4.82v4.82h4.82v-4.82ZM469.26,353.45h-4.82v4.82h4.82v-4.82ZM479.82,353.45h-4.82v4.82h4.82v-4.82ZM489.9,353.45h-4.82v4.82h4.82v-4.82ZM499.98,353.45h-4.34v4.82h4.34v-4.82ZM510.54,353.45h-4.82v4.82h4.82v-4.82ZM520.62,353.45h-4.34v4.82h4.34v-4.82ZM531.18,353.45h-4.82v4.82h4.82v-4.82ZM505.73,383.7v15.84h5.28s0,5,0,5l-5.29.27v4.8c8.06-1.67,4.25,4.26,5.28,5.28.2.2,4.42-.15,5.28,0v5.28s-5.28,0-5.28,0c.14.81-.18,4.62,0,4.8,1.02,1.03,6.95-2.78,5.28,5.28h4.32v-15.36h5.28s0-5.28,0-5.28h5.28s0-4.8,0-4.8h-5.28s0-5.28,0-5.28h5.28c.14-.86-.2-5.08,0-5.28s3.99.14,4.8,0v-4.8c-.81-.14-4.62.19-4.8,0-.2-.2-.2-5.56,0-5.76.22-.22,4.59.22,4.8,0s-.22-4.59,0-4.8c.2-.2,4.42.15,5.28,0v-4.8s-5.28,0-5.28,0c-1.7-8.72,4.2-4.67,5.28-5.76.22-.22-.22-4.59,0-4.8.2-.2,4.42.15,5.28,0-.14-.81.18-4.62,0-4.8-1.02-1.03-6.95,2.78-5.28-5.28h-4.8c-.14.86.2,5.09,0,5.28-.22.22-4.59-.22-4.8,0-1.09,1.09,2.97,6.97-5.76,5.28v-5.28s-4.8,0-4.8,0c-.14.86.2,5.09,0,5.28-.22.22-4.59-.22-4.8,0s.22,4.59,0,4.8c-.2.2-4.42-.15-5.28,0v5.28s-5.28,0-5.28,0v5.28s-5.28,0-5.28,0v4.32s5.28,0,5.28,0ZM551.82,353.45h-4.82v4.82h4.82v-4.82ZM561.9,353.45h-4.82v4.82h4.82v-4.82ZM571.98,353.45h-4.34v4.82h4.34v-4.82ZM582.54,353.45h-4.82v4.82h4.82v-4.82ZM592.62,353.45h-4.34v4.82h4.34v-4.82ZM443.82,358.73h-4.82v4.82h4.82v-4.82ZM463.98,358.73h-4.34v4.82h4.34v-4.82ZM484.62,358.73h-4.34v4.82h4.34v-4.82ZM505.26,358.73h-4.82v4.82h4.82v-4.82ZM567.18,358.73h-4.82v4.82h4.82v-4.82ZM587.82,358.73h-4.82v4.82h4.82v-4.82ZM438.54,364.01h-4.82v4.34h4.82v-4.34ZM448.62,364.01h-4.34v4.34h4.34v-4.34ZM459.18,364.01h-4.82v4.34h4.82v-4.34ZM469.26,364.01h-4.82v4.34h4.82v-4.34ZM479.82,364.01h-4.82v4.34h4.82v-4.34ZM489.9,364.01h-4.82v4.34h4.82v-4.34ZM499.98,364.01h-4.34v4.34h4.34v-4.34ZM510.54,364.01h-4.82v4.34h4.82v-4.34ZM551.82,364.01h-4.82v4.34h4.82v-4.34ZM561.9,364.01h-4.82v4.34h4.82v-4.34ZM571.98,364.01h-4.34v4.34h4.34v-4.34ZM582.54,364.01h-4.82v4.34h4.82v-4.34ZM592.62,364.01h-4.34v4.34h4.34v-4.34ZM443.82,368.81h-4.82v4.82h4.82v-4.82ZM453.9,368.81h-4.82v4.82h4.82v-4.82ZM463.98,368.81h-4.34v4.82h4.34v-4.82ZM474.54,368.81h-4.82v4.82h4.82v-4.82ZM484.62,368.81h-4.34v4.82h4.34v-4.82ZM495.18,368.81h-4.82v4.82h4.82v-4.82ZM505.26,368.81h-4.82v4.82h4.82v-4.82ZM546.54,368.81h-4.82v4.82h4.82v-4.82ZM556.62,368.81h-4.34v4.82h4.34v-4.82ZM567.18,368.81h-4.82v4.82h4.82v-4.82ZM577.26,368.81h-4.82v4.82h4.82v-4.82ZM587.82,368.81h-4.82v4.82h4.82v-4.82ZM448.62,374.09h-4.34v4.82h4.34v-4.82ZM459.18,374.09h-4.82v4.82h4.82v-4.82ZM469.26,374.09h-4.82v4.82h4.82v-4.82ZM479.82,374.09h-4.82v4.82h4.82v-4.82ZM489.9,374.09h-4.82v4.82h4.82v-4.82ZM499.98,374.09h-4.34v4.82h4.34v-4.82ZM551.82,374.09h-4.82v4.82h4.82v-4.82ZM561.9,374.09h-4.82v4.82h4.82v-4.82ZM571.98,374.09h-4.34v4.82h4.34v-4.82ZM582.54,374.09h-4.82v4.82h4.82v-4.82ZM592.62,374.09h-4.34v4.82h4.34v-4.82ZM453.9,379.37h-4.82v4.34h4.82v-4.34ZM474.54,379.37h-4.82v4.34h4.82v-4.34ZM495.18,379.37h-4.82v4.34h4.82v-4.34ZM556.62,379.37h-4.34v4.34h4.34v-4.34ZM577.26,379.37h-4.82v4.34h4.82v-4.34ZM459.18,384.17h-4.82v4.82h4.82v-4.82ZM469.26,384.17h-4.82v4.82h4.82v-4.82ZM479.82,384.17h-4.82v4.82h4.82v-4.82ZM489.9,384.17h-4.82v4.82h4.82v-4.82ZM499.98,384.17h-4.34v4.82h4.34v-4.82ZM541.26,384.17h-4.82v4.82h4.82v-4.82ZM551.82,384.17h-4.82v4.82h4.82v-4.82ZM561.9,384.17h-4.82v4.82h4.82v-4.82ZM571.98,384.17h-4.34v4.82h4.34v-4.82ZM582.54,384.17h-4.82v4.82h4.82v-4.82ZM453.9,389.45h-4.82v4.82h4.82v-4.82ZM474.54,389.45h-4.82v4.82h4.82v-4.82ZM495.18,389.45h-4.82v4.82h4.82v-4.82ZM556.62,389.45h-4.34v4.82h4.34v-4.82ZM577.26,389.45h-4.82v4.82h4.82v-4.82ZM448.62,394.73h-4.34v4.82h4.34v-4.82ZM459.18,394.73h-4.82v4.82h4.82v-4.82ZM469.26,394.73h-4.82v4.82h4.82v-4.82ZM479.82,394.73h-4.82v4.82h4.82v-4.82ZM489.9,394.73h-4.82v4.82h4.82v-4.82ZM499.98,394.73h-4.34v4.82h4.34v-4.82ZM541.26,394.73h-4.82v4.82h4.82v-4.82ZM551.82,394.73h-4.82v4.82h4.82v-4.82ZM561.9,394.73h-4.82v4.82h4.82v-4.82ZM571.98,394.73h-4.34v4.82h4.34v-4.82ZM582.54,394.73h-4.82v4.82h4.82v-4.82ZM463.98,400.01h-4.34v4.34h4.34v-4.34ZM505.26,400.01h-4.82v4.34h4.82v-4.34ZM546.54,400.01h-4.82v4.34h4.82v-4.34ZM567.18,400.01h-4.82v4.34h4.82v-4.34ZM448.62,404.81h-4.34v4.82h4.34v-4.82ZM459.18,404.81h-4.82v4.82h4.82v-4.82ZM499.98,404.81h-4.34v4.82h4.34v-4.82ZM541.26,404.81h-4.82v4.82h4.82v-4.82ZM551.82,404.81h-4.82v4.82h4.82v-4.82ZM561.9,404.81h-4.82v4.82h4.82v-4.82ZM571.98,404.81h-4.34v4.82h4.34v-4.82ZM582.54,404.81h-4.82v4.82h4.82v-4.82ZM443.82,410.09h-4.82v4.82h4.82v-4.82ZM505.26,410.09h-4.82v4.82h4.82v-4.82ZM546.54,410.09h-4.82v4.82h4.82v-4.82ZM567.18,410.09h-4.82v4.82h4.82v-4.82ZM499.98,415.37h-4.34v4.34h4.34v-4.34ZM510.54,415.37h-4.82v4.34h4.82v-4.34ZM531.18,415.37h-4.82v4.34h4.82v-4.34ZM541.26,415.37h-4.82v4.34h4.82v-4.34ZM551.82,415.37h-4.82v4.34h4.82v-4.34ZM561.9,415.37h-4.82v4.34h4.82v-4.34ZM571.98,415.37h-4.34v4.34h4.34v-4.34ZM495.18,420.17h-4.82v4.82h4.82v-4.82ZM535.98,420.17h-4.34v4.82h4.34v-4.82ZM556.62,420.17h-4.34v4.82h4.34v-4.82ZM577.26,420.17h-4.82v4.82h4.82v-4.82ZM489.9,425.45h-4.82v4.82h4.82v-4.82ZM499.98,425.45h-4.34v4.82h4.34v-4.82ZM531.18,425.45h-4.82v4.82h4.82v-4.82ZM541.26,425.45h-4.82v4.82h4.82v-4.82ZM551.82,425.45h-4.82v4.82h4.82v-4.82ZM561.9,425.45h-4.82v4.82h4.82v-4.82ZM571.98,425.45h-4.34v4.82h4.34v-4.82ZM495.18,430.73h-4.82v4.82h4.82v-4.82ZM535.98,430.73h-4.34v4.82h4.34v-4.82ZM556.62,430.73h-4.34v4.82h4.34v-4.82ZM469.26,436.01h-4.82v4.34h4.82v-4.34ZM479.82,436.01h-4.82v4.34h4.82v-4.34ZM489.9,436.01h-4.82v4.34h4.82v-4.34ZM531.18,436.01h-4.82v4.34h4.82v-4.34ZM541.26,436.01h-4.82v4.34h4.82v-4.34ZM551.82,436.01h-4.82v4.34h4.82v-4.34ZM561.9,436.01h-4.82v4.34h4.82v-4.34ZM571.98,436.01h-4.34v4.34h4.34v-4.34ZM459.18,446.09h-4.82v4.82h4.82v-4.82ZM469.26,446.09h-4.82v4.82h4.82v-4.82ZM479.82,446.09h-4.82v4.82h4.82v-4.82ZM489.9,446.09h-4.82v4.82h4.82v-4.82ZM520.62,446.09h-4.34v4.82h4.34v-4.82ZM531.18,446.09h-4.82v4.82h4.82v-4.82ZM541.26,446.09h-4.82v4.82h4.82v-4.82ZM551.82,446.09h-4.82v4.82h4.82v-4.82ZM561.9,446.09h-4.82v4.82h4.82v-4.82ZM613.26,446.09h-4.82v4.82h4.82v-4.82ZM623.82,446.09h-4.82v4.82h4.82v-4.82ZM633.9,446.09h-4.82v4.82h4.82v-4.82ZM643.98,446.09h-4.34v4.82h4.34v-4.82ZM654.54,446.09h-4.82v4.82h4.82v-4.82ZM664.62,446.09h-4.34v4.82h4.34v-4.82ZM675.18,446.09h-4.82v4.82h4.82v-4.82ZM443.82,451.37h-4.82v4.34h4.82v-4.34ZM463.98,451.37h-4.34v4.34h4.34v-4.34ZM484.62,451.37h-4.34v4.34h4.34v-4.34ZM525.9,451.37h-4.82v4.34h4.82v-4.34ZM546.54,451.37h-4.82v4.34h4.82v-4.34ZM567.18,451.37h-4.82v4.34h4.82v-4.34ZM607.98,451.37h-4.34v4.34h4.34v-4.34ZM628.62,451.37h-4.34v4.34h4.34v-4.34ZM649.26,451.37h-4.82v4.34h4.82v-4.34ZM669.9,451.37h-4.82v4.34h4.82v-4.34ZM438.54,456.17h-4.82v4.82h4.82v-4.82ZM448.62,456.17h-4.34v4.82h4.34v-4.82ZM459.18,456.17h-4.82v4.82h4.82v-4.82ZM469.26,456.17h-4.82v4.82h4.82v-4.82ZM479.82,456.17h-4.82v4.82h4.82v-4.82ZM489.9,456.17h-4.82v4.82h4.82v-4.82ZM520.62,456.17h-4.34v4.82h4.34v-4.82ZM531.18,456.17h-4.82v4.82h4.82v-4.82ZM541.26,456.17h-4.82v4.82h4.82v-4.82ZM551.82,456.17h-4.82v4.82h4.82v-4.82ZM561.9,456.17h-4.82v4.82h4.82v-4.82ZM592.62,456.17h-4.34v4.82h4.34v-4.82ZM603.18,456.17h-4.82v4.82h4.82v-4.82ZM613.26,456.17h-4.82v4.82h4.82v-4.82ZM623.82,456.17h-4.82v4.82h4.82v-4.82ZM633.9,456.17h-4.82v4.82h4.82v-4.82ZM654.54,456.17h-4.82v4.82h4.82v-4.82ZM664.62,456.17h-4.34v4.82h4.34v-4.82ZM675.18,456.17h-4.82v4.82h4.82v-4.82ZM438.54,466.73h-4.82v4.82h4.82v-4.82ZM448.62,466.73h-4.34v4.82h4.34v-4.82ZM459.18,466.73h-4.82v4.82h4.82v-4.82ZM469.26,466.73h-4.82v4.82h4.82v-4.82ZM479.82,466.73h-4.82v4.82h4.82v-4.82ZM520.62,466.73h-4.34v4.82h4.34v-4.82ZM531.18,466.73h-4.82v4.82h4.82v-4.82ZM541.26,466.73h-4.82v4.82h4.82v-4.82ZM551.82,466.73h-4.82v4.82h4.82v-4.82ZM561.9,466.73h-4.82v4.82h4.82v-4.82ZM592.62,466.73h-4.34v4.82h4.34v-4.82ZM603.18,466.73h-4.82v4.82h4.82v-4.82ZM613.26,466.73h-4.82v4.82h4.82v-4.82ZM623.82,466.73h-4.82v4.82h4.82v-4.82ZM664.62,466.73h-4.34v4.82h4.34v-4.82ZM675.18,466.73h-4.82v4.82h4.82v-4.82ZM453.9,472.01h-4.82v4.34h4.82v-4.34ZM438.54,476.81h-4.82v4.82h4.82v-4.82ZM448.62,476.81h-4.34v4.82h4.34v-4.82ZM459.18,476.81h-4.82v4.82h4.82v-4.82ZM469.26,476.81h-4.82v4.82h4.82v-4.82ZM479.82,476.81h-4.82v4.82h4.82v-4.82ZM510.54,476.81h-4.82v4.82h4.82v-4.82ZM520.62,476.81h-4.34v4.82h4.34v-4.82ZM531.18,476.81h-4.82v4.82h4.82v-4.82ZM541.26,476.81h-4.82v4.82h4.82v-4.82ZM551.82,476.81h-4.82v4.82h4.82v-4.82ZM592.62,476.81h-4.34v4.82h4.34v-4.82ZM603.18,476.81h-4.82v4.82h4.82v-4.82ZM613.26,476.81h-4.82v4.82h4.82v-4.82ZM623.82,476.81h-4.82v4.82h4.82v-4.82ZM675.18,476.81h-4.82v4.82h4.82v-4.82ZM438.54,487.37h-4.82v4.34h4.82v-4.34ZM448.62,487.37h-4.34v4.34h4.34v-4.34ZM459.18,487.37h-4.82v4.34h4.82v-4.34ZM469.26,487.37h-4.82v4.34h4.82v-4.34ZM479.82,487.37h-4.82v4.34h4.82v-4.34ZM510.54,487.37h-4.82v4.34h4.82v-4.34ZM520.62,487.37h-4.34v4.34h4.34v-4.34ZM531.18,487.37h-4.82v4.34h4.82v-4.34ZM541.26,487.37h-4.82v4.34h4.82v-4.34ZM551.82,487.37h-4.82v4.34h4.82v-4.34ZM592.62,487.37h-4.34v4.34h4.34v-4.34ZM603.18,487.37h-4.82v4.34h4.82v-4.34ZM613.26,487.37h-4.82v4.34h4.82v-4.34ZM623.82,487.37h-4.82v4.34h4.82v-4.34ZM633.9,487.37h-4.82v4.34h4.82v-4.34ZM443.82,492.17h-4.82v4.82h4.82v-4.82ZM463.98,492.17h-4.34v4.82h4.34v-4.82ZM427.98,497.45h-4.34v4.82h4.34v-4.82ZM438.54,497.45h-4.82v4.82h4.82v-4.82ZM448.62,497.45h-4.34v4.82h4.34v-4.82ZM459.18,497.45h-4.82v4.82h4.82v-4.82ZM469.26,497.45h-4.82v4.82h4.82v-4.82ZM510.54,497.45h-4.82v4.82h4.82v-4.82ZM520.62,497.45h-4.34v4.82h4.34v-4.82ZM531.18,497.45h-4.82v4.82h4.82v-4.82ZM541.26,497.45h-4.82v4.82h4.82v-4.82ZM551.82,497.45h-4.82v4.82h4.82v-4.82ZM592.62,497.45h-4.34v4.82h4.34v-4.82ZM603.18,497.45h-4.82v4.82h4.82v-4.82ZM613.26,497.45h-4.82v4.82h4.82v-4.82ZM623.82,497.45h-4.82v4.82h4.82v-4.82ZM633.9,497.45h-4.82v4.82h4.82v-4.82ZM427.98,508.01h-4.34v4.34h4.34v-4.34ZM438.54,508.01h-4.82v4.34h4.82v-4.34ZM448.62,508.01h-4.34v4.34h4.34v-4.34ZM459.18,508.01h-4.82v4.34h4.82v-4.34ZM469.26,508.01h-4.82v4.34h4.82v-4.34ZM510.54,508.01h-4.82v4.34h4.82v-4.34ZM520.62,508.01h-4.34v4.34h4.34v-4.34ZM531.18,508.01h-4.82v4.34h4.82v-4.34ZM541.26,508.01h-4.82v4.34h4.82v-4.34ZM592.62,508.01h-4.34v4.34h4.34v-4.34ZM603.18,508.01h-4.82v4.34h4.82v-4.34ZM613.26,508.01h-4.82v4.34h4.82v-4.34ZM623.82,508.01h-4.82v4.34h4.82v-4.34ZM633.9,508.01h-4.82v4.34h4.82v-4.34ZM643.98,508.01h-4.34v4.34h4.34v-4.34ZM427.98,518.09h-4.34v4.82h4.34v-4.82ZM438.54,518.09h-4.82v4.82h4.82v-4.82ZM448.62,518.09h-4.34v4.82h4.34v-4.82ZM459.18,518.09h-4.82v4.82h4.82v-4.82ZM469.26,518.09h-4.82v4.82h4.82v-4.82ZM499.98,518.09h-4.34v4.82h4.34v-4.82ZM520.62,518.09h-4.34v4.82h4.34v-4.82ZM541.26,518.09h-4.82v4.82h4.82v-4.82ZM603.18,518.09h-4.82v4.82h4.82v-4.82ZM623.82,518.09h-4.82v4.82h4.82v-4.82ZM643.98,518.09h-4.34v4.82h4.34v-4.82ZM417.9,528.17h-4.82v4.82h4.82v-4.82ZM427.98,528.17h-4.34v4.82h4.34v-4.82ZM438.54,528.17h-4.82v4.82h4.82v-4.82ZM448.62,528.17h-4.34v4.82h4.34v-4.82ZM459.18,528.17h-4.82v4.82h4.82v-4.82ZM499.98,528.17h-4.34v4.82h4.34v-4.82ZM510.54,528.17h-4.82v4.82h4.82v-4.82ZM520.62,528.17h-4.34v4.82h4.34v-4.82ZM531.18,528.17h-4.82v4.82h4.82v-4.82ZM541.26,528.17h-4.82v4.82h4.82v-4.82ZM603.18,528.17h-4.82v4.82h4.82v-4.82ZM613.26,528.17h-4.82v4.82h4.82v-4.82ZM623.82,528.17h-4.82v4.82h4.82v-4.82ZM633.9,528.17h-4.82v4.82h4.82v-4.82ZM643.98,528.17h-4.34v4.82h4.34v-4.82ZM654.54,528.17h-4.82v4.82h4.82v-4.82ZM417.9,538.73h-4.82v4.82h4.82v-4.82ZM427.98,538.73h-4.34v4.82h4.34v-4.82ZM438.54,538.73h-4.82v4.82h4.82v-4.82ZM448.62,538.73h-4.34v4.82h4.34v-4.82ZM459.18,538.73h-4.82v4.82h4.82v-4.82ZM499.98,538.73h-4.34v4.82h4.34v-4.82ZM510.54,538.73h-4.82v4.82h4.82v-4.82ZM520.62,538.73h-4.34v4.82h4.34v-4.82ZM531.18,538.73h-4.82v4.82h4.82v-4.82ZM613.26,538.73h-4.82v4.82h4.82v-4.82ZM633.9,538.73h-4.82v4.82h4.82v-4.82ZM654.54,538.73h-4.82v4.82h4.82v-4.82ZM417.9,548.81h-4.82v4.82h4.82v-4.82ZM427.98,548.81h-4.34v4.82h4.34v-4.82ZM438.54,548.81h-4.82v4.82h4.82v-4.82ZM448.62,548.81h-4.34v4.82h4.34v-4.82ZM459.18,548.81h-4.82v4.82h4.82v-4.82ZM489.9,548.81h-4.82v4.82h4.82v-4.82ZM499.98,548.81h-4.34v4.82h4.34v-4.82ZM510.54,548.81h-4.82v4.82h4.82v-4.82ZM520.62,548.81h-4.34v4.82h4.34v-4.82ZM531.18,548.81h-4.82v4.82h4.82v-4.82ZM561.9,548.81h-4.82v4.82h4.82v-4.82ZM571.98,548.81h-4.34v4.82h4.34v-4.82ZM613.26,548.81h-4.82v4.82h4.82v-4.82ZM623.82,548.81h-4.82v4.82h4.82v-4.82ZM633.9,548.81h-4.82v4.82h4.82v-4.82ZM654.54,548.81h-4.82v4.82h4.82v-4.82ZM417.9,559.37h-4.82v4.34h4.82v-4.34ZM438.54,559.37h-4.82v4.34h4.82v-4.34ZM499.98,559.37h-4.34v4.34h4.34v-4.34ZM520.62,559.37h-4.34v4.34h4.34v-4.34ZM561.9,559.37h-4.82v4.34h4.82v-4.34ZM623.82,559.37h-4.82v4.34h4.82v-4.34ZM643.98,559.37h-4.34v4.34h4.34v-4.34ZM407.82,569.45h-4.82v4.82h4.82v-4.82ZM417.9,569.45h-4.82v4.82h4.82v-4.82ZM427.98,569.45h-4.34v4.82h4.34v-4.82ZM438.54,569.45h-4.82v4.82h4.82v-4.82ZM448.62,569.45h-4.34v4.82h4.34v-4.82ZM489.9,569.45h-4.82v4.82h4.82v-4.82ZM499.98,569.45h-4.34v4.82h4.34v-4.82ZM510.54,569.45h-4.82v4.82h4.82v-4.82ZM520.62,569.45h-4.34v4.82h4.34v-4.82ZM531.18,569.45h-4.82v4.82h4.82v-4.82ZM551.82,569.45h-4.82v4.82h4.82v-4.82ZM561.9,569.45h-4.82v4.82h4.82v-4.82ZM571.98,569.45h-4.34v4.82h4.34v-4.82ZM582.54,569.45h-4.82v4.82h4.82v-4.82ZM613.26,569.45h-4.82v4.82h4.82v-4.82ZM623.82,569.45h-4.82v4.82h4.82v-4.82ZM633.9,569.45h-4.82v4.82h4.82v-4.82ZM643.98,569.45h-4.34v4.82h4.34v-4.82ZM407.82,580.01h-4.82v4.34h4.82v-4.34ZM427.98,580.01h-4.34v4.34h4.34v-4.34ZM448.62,580.01h-4.34v4.34h4.34v-4.34ZM489.9,580.01h-4.82v4.34h4.82v-4.34ZM510.54,580.01h-4.82v4.34h4.82v-4.34ZM571.98,580.01h-4.34v4.34h4.34v-4.34ZM592.62,580.01h-4.34v4.34h4.34v-4.34ZM613.26,580.01h-4.82v4.34h4.82v-4.34ZM633.9,580.01h-4.82v4.34h4.82v-4.34ZM592.62,590.09h-4.34v4.82h4.34v-4.82ZM613.26,590.09h-4.82v4.82h4.82v-4.82Z"/>
    </g>
    <g>
      <g>
        <path class="cls-1" d="M597.89,677.46v-15.84s5.28,0,5.28,0v-15.36c0-.24,4.8.24,4.8,0v-9.84c0-1.29,5.28-.45,5.28-.72v-20.16h67.2c.13.81-.19,4.62,0,4.8.2.2,4.42-.15,5.28,0,.14.86-.2,5.09,0,5.28.26.26,5.28-.56,5.28.72v24.96c0,.05-.67.72-.72.72h-9.84v4.32s5.29.27,5.29.27v5.49s-5.29,0-5.29,0v5.28s-10.08,0-10.08,0c-.24,0,.24,4.8,0,4.8h-15.36c-.26,0,.19,4.64,0,5.28h-57.12ZM633.9,620.81h-4.82v4.82h4.82v-4.82ZM654.54,620.81h-4.82v4.82h4.82v-4.82ZM675.18,620.81h-4.82v4.82h4.82v-4.82ZM633.9,631.37h-4.82v4.34h4.82v-4.34ZM654.53,631.38c-.53-.53-12.94.4-14.88,0v10.08h-5.28v14.88h14.88c.24,0-.24-4.8,0-4.8h10.56v-10.56h4.8s0-4.8,0-4.8h-10.08c-.24,0,.23-4.57,0-4.8ZM675.18,631.37h-4.82v4.34h4.82v-4.34ZM623.82,652.01h-4.82v4.34h4.82v-4.34ZM664.62,652.01h-4.34v4.34h4.34v-4.34Z"/>
        <path class="cls-1" d="M695.81,677.46c.42-2.06-.56-15.28,0-15.84.22-.22,4.59.22,4.8,0,1.03-1.02-2.78-6.95,5.28-5.28v-4.32c-5.88.56-5.54-.33-5.28-5.76h5.28s0-15.36,0-15.36h5.28v-15.36h72.48v15.12c0,.05-.67.72-.72.72h-50.64v4.32h40.8v11.04c-.81.14-4.62-.19-4.8,0-.26.26.56,5.28-.72,5.28h-45.84v4.32h51.36c-.15.91.21,5.56,0,5.76-.22.22-4.59-.22-4.8,0-.54.54.41,13.36,0,15.36h-72.48ZM715.98,631.37h-4.34v4.34h4.34v-4.34Z"/>
        <path class="cls-1" d="M469.25,677.46c-.19-.64.26-5.28,0-5.28h-10.08c-.13-.81.19-4.62,0-4.8s-4.42.14-5.28,0v-11.04h5.28s0-4.04,0-4.04l-5.29-.28v-16.32c.86-.14,5.09.19,5.28,0,.22-.22-.22-4.59,0-4.8.19-.19,3.99.14,4.8,0-1.67-8.06,4.25-4.25,5.28-5.28.26-.26-.56-5.28.72-5.28h9.84c.24,0-.24-4.8,0-4.8h10.08v-5.28s5.76,0,5.76,0l.27,5.29h4.05s0-5.29,0-5.29h16.32v5.28s4.04,0,4.04,0l.28-5.29h11.04v5.28h10.08c.14.81-.19,4.62,0,4.8,1.09,1.09,6.98-2.97,5.28,5.76h-5.28s0,5.28,0,5.28h-5.28s0,10.08,0,10.08h-10.56v-5.28h-10.08c-.24,0,.24-4.8,0-4.8h-15.36c-.24,0,.24,4.8,0,4.8h-10.08v5.28s-5.28,0-5.28,0c-.14.86.2,5.09,0,5.28s-3.99-.14-4.8,0v4.8c.81.14,4.62-.19,4.8,0s-.14,3.99,0,4.8h35.52c.24,0-.24-4.8,0-4.8h11.04v20.64h-10.56c-.26,0,.19,4.64,0,5.28h-10.56l-.28-5.29h-4.53s0,5.29,0,5.29h-15.84l-.28-5.29h-4.53s0,5.29,0,5.29h-15.84ZM489.9,620.81h-4.82v4.82h4.82v-4.82ZM510.54,620.81h-4.82v4.82h4.82v-4.82ZM531.18,620.81h-4.82v4.82h4.82v-4.82ZM469.26,631.37h-4.82v4.34h4.82v-4.34ZM489.9,631.37h-4.82v4.34h4.82v-4.34ZM531.18,631.37h-4.82v4.34h4.82v-4.34ZM479.82,652.01h-4.82v4.34h4.82v-4.34Z"/>
        <path class="cls-1" d="M546.53,677.46v-5.76s5.28,0,5.28,0v-15.36h10.08v-4.32c-1.24-.21-4.74.65-5.21-.78-.26-.81-.16-9.37.14-9.8.68-.97,5.07-.19,5.07-.45v-15.36h10.08v-4.8c-.81-.14-4.61.19-4.8,0s.14-4.42,0-5.28h25.92c-.14.86.19,5.09,0,5.28s-3.99-.14-4.8,0v4.53c.1.72,4.51-.02,4.8.27.2.2.2,5.56,0,5.76-.18.18-3.99-.14-4.8,0v14.64c0,1.28-5.02.46-5.28.72-1.03,1.03,2.78,6.95-5.28,5.28v4.32c5.88-.56,5.54.33,5.28,5.76h-5.28s0,15.36,0,15.36h-31.2ZM571.98,631.37h-4.34v4.34h4.34v-4.34Z"/>
        <g>
          <path class="cls-1" d="M1081.25,476.82h-9.6s0,4.8,0,4.8l4.81.27c-.16.88.19,5.29,0,5.49-.18.18-3.99-.14-4.8,0v19.92c0,.05-.67.72-.72.72h-9.84v4.32c1.24.21,4.74-.65,5.21.78.26.81.16,9.37-.14,9.8-.68.97-5.07.19-5.07.45v15.36c0,.24-4.8-.24-4.8,0v15.36h-5.28v15.36h-5.28v15.36h-5.28v10.56c0,.24-4.8-.24-4.8,0v10.08h-5.28v9.84c0,1.28-5.02.46-5.28.72-.22.22.22,4.59,0,4.8s-4.59-.22-4.8,0c-.2.2.15,4.42,0,5.28h-5.28c1.67,8.05-4.26,4.25-5.28,5.28-.22.22.22,4.59,0,4.8-.2.2-4.42-.15-5.28,0-.14.86.2,5.09,0,5.28s-3.99-.14-4.8,0c1.67,8.06-4.25,4.25-5.28,5.28-.26.26.56,5.28-.72,5.28h-9.36c-.24,0,.24,4.8,0,4.8h-10.56v5.28h-15.36c-.27,0,.57,5.28-.72,5.28h-25.2c-.24,0,.24,4.8,0,4.8h-46.56v-15.84h5.28v-15.36c0-.24,4.8.24,4.8,0v-14.64c0-1.29,5.28-.45,5.28-.72v-10.08h11.04c.13.81-.19,4.62,0,4.8.22.22,4.59-.22,4.8,0s-.23,5.06,0,5.28c1.02,1.03,6.95-2.78,5.28,5.28h10.08c.24,0-.24,4.8,0,4.8h15.36c.24,0-.24-4.8,0-4.8h10.08v-5.28h10.08c-.41-5.39-.11-5.69,5.28-5.28v-10.08h5.28v-15.36h5.28s0-4.8,0-4.8h-10.08v5.28h-10.08c-.24,0,.24,4.8,0,4.8h-21.12v-10.08h-4.8s0,5.28,0,5.28c-5.43.26-6.32.6-5.76-5.28h-10.08v-10.08c-8.06,1.67-4.25-4.26-5.28-5.28-.19-.19-3.99.14-4.8,0v-10.56h-5.28v-10.08h-4.8v15.36h-5.28v15.36c0,.24-4.8-.24-4.8,0v9.84c0,.05-.67.72-.72.72h-9.6c-1.28,0-.46-5.02-.72-5.28-.18-.18-3.56.13-4.32,0-.21,1.25.65,4.75-.78,5.22-.95.31-14.46.29-15.08-.14-.91-.64-.27-3.87-.45-5.07h-4.05c-.73.1.34,5.28-1,5.28h-15.12v-5.28s-5.29-.27-5.29-.27v-5.49s5.29,0,5.29,0v-20.64h10.08v-4.32c-1.24-.21-4.74.65-5.21-.78-.26-.81-.16-9.37.14-9.8.68-.97,5.07-.19,5.07-.45v-15.36h10.08v-4.8s-4.8,0-4.8,0v-15.84c0-.24,4.8.24,4.8,0v-14.64c0-1.28,5.02-.46,5.28-.72,1.03-1.03-2.78-6.95,5.28-5.28v-4.32c-5.39.41-5.69.12-5.28-5.28h-10.08v-5.28h-10.08v10.56h-10.08v14.64c0,1.28-5.02.46-5.28.72-.2.2.15,4.42,0,5.28h-5.28s0,20.16,0,20.16h-10.08c.14.81-.19,4.62,0,4.8,1.1,1.11,5.86-2.73,5.31,3.62-.31,3.49-2.47,1.79-5.3,2.14v19.92c0,.05-.67.72-.72.72h-9.36v4.32s4.81.27,4.81.27c-.16.88.19,5.29,0,5.49-.18.18-3.99-.14-4.8,0v20.64h-10.56v5.28h-15.84v-5.28s-4.52,0-4.52,0l-.28,5.29h-15.12c-1.33,0-.27-5.18-1-5.29h-4.53s0,5.29,0,5.29h-10.56v-10.56c-.86-.14-5.09.19-5.28,0s.14-3.99,0-4.8h-4.32v10.08h-10.56v5.28c-5.8.29-5.84.54-6.04-5.29-.73.14-3.87-.17-4.05,0-.26.26.56,5.28-.72,5.28h-15.12v-5.28s-4.52,0-4.52,0c-.73.11.34,5.29-1,5.29h-15.12v-5.28s-5.28,0-5.28,0v-5.28s-5.28,0-5.28,0v-41.28h10.56v-4.8s-5.29-.27-5.29-.27v-5.49s5.29,0,5.29,0v-20.64h10.08v-4.32c-5.88.56-5.54-.33-5.28-5.76h5.28s0-19.92,0-19.92c0-.05.67-.72.72-.72h9.84v-4.8s-5.29-.27-5.29-.27v-5.01s5.29,0,5.29,0v-15.36l-5.29-.28v-5.01s5.29,0,5.29,0v-5.28s5.28,0,5.28,0l.27,5.29h4.53s0-5.29,0-5.29c5.82-.28,5.84-.54,6.04,5.29h4.05c-.56-5.88.33-5.55,5.76-5.29v5.28s4.52,0,4.52,0l.27-5.29c5.82-.28,5.84-.54,6.04,5.29h4.05c.97-.98-2.74-6.67,4.56-5.29,2.35.45.65,4.74,1.2,5.28.19.19,3.74-.14,4.53,0l.27-5.29h5.28v5.28s5.28,0,5.28,0v5.01s-5.28.28-5.28.28v15.84c-.81.13-4.62-.19-4.8,0-.22.22.22,4.59,0,4.8-.2.2-4.42-.15-5.28,0,.14.81-.18,4.62,0,4.8.54.54,4.84-1.15,5.28,1.2,1.39,7.3-4.31,3.59-5.28,4.56-.53.53.7,13.61-.21,14.91-.7,1.01-4.76.13-5.07.45-.23.23.23,5.06,0,5.28-.19.19-3.99-.14-4.8,0v4.32s4.81.27,4.81.27c-.16.88.19,5.29,0,5.49-.18.18-3.99-.14-4.8,0v15.36h-5.28v20.64h-5.28v9.6h25.44v-10.08h10.08v-19.92c0-.05.67-.72.72-.72h9.84v-4.8s-5.29-.27-5.29-.27v-5.01s5.29,0,5.29,0v-20.64h10.08v-4.8s-5.28,0-5.28,0c-.26-5.43-.6-6.32,5.28-5.76v-20.16h10.08v-4.8c-.81-.14-4.61.19-4.8,0-.2-.2-.2-5.56,0-5.76.19-.19,3.99.14,4.8,0v-4.53c-.1-.72-4.51.02-4.8-.27-.19-.19.15-4.17,0-5.01.11-.72,4.51.02,4.81-.27,1.09-1.09-2.97-6.97,5.76-5.28v5.28s4.52,0,4.52,0l.27-5.29c5.41-.26,6.33-.6,5.76,5.28h4.05c.81-.11-.36-4.31.73-5.07.51-.35,3.85-.36,4.52-.14,1.59.52.38,4.81.78,5.22.19.19,3.74-.14,4.53,0l.27-5.29h5.28v5.28s4.52,0,4.52,0c1-.15-.93-4.83,1.47-5.29,7.29-1.39,3.59,4.32,4.56,5.28.19.19,3.74-.14,4.53,0l.27-5.29h5.28v15.36h4.8v-10.08h10.08c-.55-5.88.33-5.54,5.76-5.28v5.28s4.8,0,4.8,0v-5.28s5.28,0,5.28,0v-5.28s25.92,0,25.92,0c.14.86-.2,5.09,0,5.28,1.02,1.03,6.95-2.78,5.28,5.28h10.08v10.08c3.9.11,5.73-1.22,5.3,3.62-.36,4.12-4.41,1.24-5.31,2.13-.18.18.14,3.99,0,4.8h5.28s0,10.08,0,10.08h9.6v-10.08h10.56v-10.56h10.08c.34-2.83-1.36-5,2.14-5.3,6.35-.56,2.51,4.2,3.62,5.31.19.19,3.99-.14,4.8,0v-10.08h10.08c.11-3.9-1.22-5.73,3.62-5.3,4.12.36,1.24,4.41,2.13,5.31.18.18,3.99-.14,4.8,0,.14-.86-.2-5.09,0-5.28.22-.22,4.59.22,4.8,0,.26-.26-.56-5.28.72-5.28h56.4c.14.86-.2,5.09,0,5.28,1.02,1.03,6.95-2.78,5.28,5.28h4.8s.27-5.29.27-5.29h5.01s0,5.29,0,5.29h10.56c.13.81-.19,4.62,0,4.8.34.34,8.24-.26,9.6,0v21.12ZM880.62,446.09h-4.34v4.82h4.34v-4.82ZM891.18,446.09h-4.82v4.82h4.82v-4.82ZM901.26,446.09h-4.82v4.82h4.82v-4.82ZM993.9,446.09h-4.82v4.82h4.82v-4.82ZM1003.98,446.09h-4.34v4.82h4.34v-4.82ZM1014.54,446.09h-4.82v4.82h4.82v-4.82ZM1024.62,446.09h-4.34v4.82h4.34v-4.82ZM1035.18,446.09h-4.82v4.82h4.82v-4.82ZM1045.26,446.09h-4.82v4.82h4.82v-4.82ZM711.18,451.37h-4.82v4.34h4.82v-4.34ZM731.82,451.37h-4.82v4.34h4.82v-4.34ZM751.98,451.37h-4.34v4.34h4.34v-4.34ZM705.9,456.17h-4.82v4.82h4.82v-4.82ZM715.98,456.17h-4.34v4.82h4.34v-4.82ZM726.54,456.17h-4.82v4.82h4.82v-4.82ZM736.62,456.17h-4.34v4.82h4.34v-4.82ZM747.18,456.17h-4.82v4.82h4.82v-4.82ZM798.54,456.17h-4.82v4.82h4.82v-4.82ZM808.62,456.17h-4.34v4.82h4.34v-4.82ZM819.18,456.17h-4.82v4.82h4.82v-4.82ZM829.26,456.17h-4.82v4.82h4.82v-4.82ZM839.82,456.17h-4.82v4.82h4.82v-4.82ZM859.98,456.17h-4.34v4.82h4.34v-4.82ZM870.54,456.17h-4.82v4.82h4.82v-4.82ZM880.62,456.17h-4.34v4.82h4.34v-4.82ZM891.18,456.17h-4.82v4.82h4.82v-4.82ZM901.26,456.17h-4.82v4.82h4.82v-4.82ZM911.82,456.17h-4.82v4.82h4.82v-4.82ZM973.26,456.17h-4.82v4.82h4.82v-4.82ZM983.82,456.17h-4.82v4.82h4.82v-4.82ZM993.9,456.17h-4.82v4.82h4.82v-4.82ZM1003.98,456.17h-4.34v4.82h4.34v-4.82ZM1014.54,456.17h-4.82v4.82h4.82v-4.82ZM1024.62,456.17h-4.34v4.82h4.34v-4.82ZM1035.18,456.17h-4.82v4.82h4.82v-4.82ZM1045.26,456.17h-4.82v4.82h4.82v-4.82ZM1065.9,456.17h-4.82v4.82h4.82v-4.82ZM705.9,466.73h-4.82v4.82h4.82v-4.82ZM715.98,466.73h-4.34v4.82h4.34v-4.82ZM726.54,466.73h-4.82v4.82h4.82v-4.82ZM736.62,466.73h-4.34v4.82h4.34v-4.82ZM747.18,466.73h-4.82v4.82h4.82v-4.82ZM798.54,466.73h-4.82v4.82h4.82v-4.82ZM808.62,466.73h-4.34v4.82h4.34v-4.82ZM819.18,466.73h-4.82v4.82h4.82v-4.82ZM829.26,466.73h-4.82v4.82h4.82v-4.82ZM839.82,466.73h-4.82v4.82h4.82v-4.82ZM849.9,466.73h-4.82v4.82h4.82v-4.82ZM859.98,466.73h-4.34v4.82h4.34v-4.82ZM870.54,466.73h-4.82v4.82h4.82v-4.82ZM880.62,466.73h-4.34v4.82h4.34v-4.82ZM891.18,466.73h-4.82v4.82h4.82v-4.82ZM901.26,466.73h-4.82v4.82h4.82v-4.82ZM911.82,466.73h-4.82v4.82h4.82v-4.82ZM952.62,466.73h-4.34v4.82h4.34v-4.82ZM963.18,466.73h-4.82v4.82h4.82v-4.82ZM973.26,466.73h-4.82v4.82h4.82v-4.82ZM983.82,466.73h-4.82v4.82h4.82v-4.82ZM993.9,466.73h-4.82v4.82h4.82v-4.82ZM994.37,476.82c-.36.36-8.68-.27-10.08,0v5.28c-.86.14-5.09-.2-5.28,0-.26.26.56,5.28-.72,5.28h-9.84v4.32s5.29.27,5.29.27v5.49s-5.29,0-5.29,0v10.56h-10.08v4.32c5.88-.56,5.54.33,5.28,5.76h-5.28s0,40.8,0,40.8c.86.14,5.09-.19,5.28,0,.22.22-.22,4.59,0,4.8.19.19,3.99-.14,4.8,0v10.56h5.28s0,5.28,0,5.28h14.88v-5.28s5.29-.27,5.29-.27v-4.53s-5.29,0-5.29,0c-.26-5.41-.6-6.33,5.28-5.76v-20.16h10.08v-4.8s-4.8,0-4.8,0v-11.04c0-.24,4.8.24,4.8,0v-14.64c0-1.28,5.02-.46,5.28-.72.51-.52-.6-12.55.06-14.58.47-1.43,3.97-.57,5.21-.79v-15.36h5.28v-9.6h-5.28s0-5.28,0-5.28h-4.8v5.28c-5.43.26-6.31.6-5.76-5.28h-4.32c1.67,8.06-4.26,4.25-5.28,5.28-.22.22.22,4.59,0,4.8ZM1024.62,466.73h-4.34v4.82h4.34v-4.82ZM1035.18,466.73h-4.82v4.82h4.82v-4.82ZM1045.26,466.73h-4.82v4.82h4.82v-4.82ZM1055.82,466.73h-4.82v4.82h4.82v-4.82ZM1065.9,466.73h-4.82v4.82h4.82v-4.82ZM1075.98,466.73h-4.34v4.82h4.34v-4.82ZM705.9,476.81h-4.82v4.82h4.82v-4.82ZM715.98,476.81h-4.34v4.82h4.34v-4.82ZM726.54,476.81h-4.82v4.82h4.82v-4.82ZM736.62,476.81h-4.34v4.82h4.34v-4.82ZM787.98,476.81h-4.34v4.82h4.34v-4.82ZM808.62,476.81h-4.34v4.82h4.34v-4.82ZM829.26,476.81h-4.82v4.82h4.82v-4.82ZM870.54,476.81h-4.82v4.82h4.82v-4.82ZM891.18,476.81h-4.82v4.82h4.82v-4.82ZM911.82,476.81h-4.82v4.82h4.82v-4.82ZM952.62,476.81h-4.34v4.82h4.34v-4.82ZM973.26,476.81h-4.82v4.82h4.82v-4.82ZM1035.18,476.81h-4.82v4.82h4.82v-4.82ZM1055.82,476.81h-4.82v4.82h4.82v-4.82ZM695.82,487.37h-4.82v4.34h4.82v-4.34ZM705.9,487.37h-4.82v4.34h4.82v-4.34ZM715.98,487.37h-4.34v4.34h4.34v-4.34ZM726.54,487.37h-4.82v4.34h4.82v-4.34ZM736.62,487.37h-4.34v4.34h4.34v-4.34ZM787.98,487.37h-4.34v4.34h4.34v-4.34ZM798.54,487.37h-4.82v4.34h4.82v-4.34ZM808.62,487.37h-4.34v4.34h4.34v-4.34ZM819.18,487.37h-4.82v4.34h4.82v-4.34ZM829.26,487.37h-4.82v4.34h4.82v-4.34ZM880.62,487.37h-4.34v4.34h4.34v-4.34ZM891.18,487.37h-4.82v4.34h4.82v-4.34ZM901.26,487.37h-4.82v4.34h4.82v-4.34ZM911.82,487.37h-4.82v4.34h4.82v-4.34ZM921.9,487.37h-4.82v4.34h4.82v-4.34ZM931.98,487.37h-4.34v4.34h4.34v-4.34ZM942.54,487.37h-4.82v4.34h4.82v-4.34ZM952.62,487.37h-4.34v4.34h4.34v-4.34ZM963.18,487.37h-4.82v4.34h4.82v-4.34ZM1024.62,487.37h-4.34v4.34h4.34v-4.34ZM1035.18,487.37h-4.82v4.34h4.82v-4.34ZM1045.26,487.37h-4.82v4.34h4.82v-4.34ZM1055.82,487.37h-4.82v4.34h4.82v-4.34ZM1065.9,487.37h-4.82v4.34h4.82v-4.34ZM695.82,497.45h-4.82v4.82h4.82v-4.82ZM705.9,497.45h-4.82v4.82h4.82v-4.82ZM715.98,497.45h-4.34v4.82h4.34v-4.82ZM726.54,497.45h-4.82v4.82h4.82v-4.82ZM736.62,497.45h-4.34v4.82h4.34v-4.82ZM787.98,497.45h-4.34v4.82h4.34v-4.82ZM798.54,497.45h-4.82v4.82h4.82v-4.82ZM819.18,497.45h-4.82v4.82h4.82v-4.82ZM880.62,497.45h-4.34v4.82h4.34v-4.82ZM901.26,497.45h-4.82v4.82h4.82v-4.82ZM921.9,497.45h-4.82v4.82h4.82v-4.82ZM942.54,497.45h-4.82v4.82h4.82v-4.82ZM963.18,497.45h-4.82v4.82h4.82v-4.82ZM1024.62,497.45h-4.34v4.82h4.34v-4.82ZM1045.26,497.45h-4.82v4.82h4.82v-4.82ZM1065.9,497.45h-4.82v4.82h4.82v-4.82ZM695.82,508.01h-4.82v4.34h4.82v-4.34ZM705.9,508.01h-4.82v4.34h4.82v-4.34ZM715.98,508.01h-4.34v4.34h4.34v-4.34ZM726.54,508.01h-4.82v4.34h4.82v-4.34ZM777.9,508.01h-4.82v4.34h4.82v-4.34ZM787.98,508.01h-4.34v4.34h4.34v-4.34ZM798.54,508.01h-4.82v4.34h4.82v-4.34ZM808.62,508.01h-4.34v4.34h4.34v-4.34ZM819.18,508.01h-4.82v4.34h4.82v-4.34ZM870.54,508.01h-4.82v4.34h4.82v-4.34ZM880.62,508.01h-4.34v4.34h4.34v-4.34ZM891.18,508.01h-4.82v4.34h4.82v-4.34ZM901.26,508.01h-4.82v4.34h4.82v-4.34ZM921.9,508.01h-4.82v4.34h4.82v-4.34ZM942.54,508.01h-4.82v4.34h4.82v-4.34ZM1024.62,508.01h-4.34v4.34h4.34v-4.34ZM1045.26,508.01h-4.82v4.34h4.82v-4.34ZM685.26,518.09h-4.82v4.82h4.82v-4.82ZM705.9,518.09h-4.82v4.82h4.82v-4.82ZM726.54,518.09h-4.82v4.82h4.82v-4.82ZM787.98,518.09h-4.34v4.82h4.34v-4.82ZM808.62,518.09h-4.34v4.82h4.34v-4.82ZM870.54,518.09h-4.82v4.82h4.82v-4.82ZM891.18,518.09h-4.82v4.82h4.82v-4.82ZM911.82,518.09h-4.82v4.82h4.82v-4.82ZM931.98,518.09h-4.34v4.82h4.34v-4.82ZM952.62,518.09h-4.34v4.82h4.34v-4.82ZM1014.54,518.09h-4.82v4.82h4.82v-4.82ZM1035.18,518.09h-4.82v4.82h4.82v-4.82ZM1055.82,518.09h-4.82v4.82h4.82v-4.82ZM685.26,528.17h-4.82v4.82h4.82v-4.82ZM695.82,528.17h-4.82v4.82h4.82v-4.82ZM705.9,528.17h-4.82v4.82h4.82v-4.82ZM715.98,528.17h-4.34v4.82h4.34v-4.82ZM726.54,528.17h-4.82v4.82h4.82v-4.82ZM777.9,528.17h-4.82v4.82h4.82v-4.82ZM787.98,528.17h-4.34v4.82h4.34v-4.82ZM798.54,528.17h-4.82v4.82h4.82v-4.82ZM808.62,528.17h-4.34v4.82h4.34v-4.82ZM870.54,528.17h-4.82v4.82h4.82v-4.82ZM880.62,528.17h-4.34v4.82h4.34v-4.82ZM891.18,528.17h-4.82v4.82h4.82v-4.82ZM901.26,528.17h-4.82v4.82h4.82v-4.82ZM911.82,528.17h-4.82v4.82h4.82v-4.82ZM921.9,528.17h-4.82v4.82h4.82v-4.82ZM931.98,528.17h-4.34v4.82h4.34v-4.82ZM952.62,528.17h-4.34v4.82h4.34v-4.82ZM1014.54,528.17h-4.82v4.82h4.82v-4.82ZM1035.18,528.17h-4.82v4.82h4.82v-4.82ZM1055.82,528.17h-4.82v4.82h4.82v-4.82ZM695.82,538.73h-4.82v4.82h4.82v-4.82ZM715.98,538.73h-4.34v4.82h4.34v-4.82ZM777.9,538.73h-4.82v4.82h4.82v-4.82ZM798.54,538.73h-4.82v4.82h4.82v-4.82ZM859.98,538.73h-4.34v4.82h4.34v-4.82ZM880.62,538.73h-4.34v4.82h4.34v-4.82ZM901.26,538.73h-4.82v4.82h4.82v-4.82ZM921.9,538.73h-4.82v4.82h4.82v-4.82ZM942.54,538.73h-4.82v4.82h4.82v-4.82ZM1024.62,538.73h-4.34v4.82h4.34v-4.82ZM1045.26,538.73h-4.82v4.82h4.82v-4.82ZM675.18,548.81h-4.82v4.82h4.82v-4.82ZM695.82,548.81h-4.82v4.82h4.82v-4.82ZM715.98,548.81h-4.34v4.82h4.34v-4.82ZM777.9,548.81h-4.82v4.82h4.82v-4.82ZM798.54,548.81h-4.82v4.82h4.82v-4.82ZM859.98,548.81h-4.34v4.82h4.34v-4.82ZM880.62,548.81h-4.34v4.82h4.34v-4.82ZM901.26,548.81h-4.82v4.82h4.82v-4.82ZM921.9,548.81h-4.82v4.82h4.82v-4.82ZM942.54,548.81h-4.82v4.82h4.82v-4.82ZM1003.98,548.81h-4.34v4.82h4.34v-4.82ZM1024.62,548.81h-4.34v4.82h4.34v-4.82ZM1045.26,548.81h-4.82v4.82h4.82v-4.82ZM685.26,559.37h-4.82v4.34h4.82v-4.34ZM705.9,559.37h-4.82v4.34h4.82v-4.34ZM767.82,559.37h-4.82v4.34h4.82v-4.34ZM787.98,559.37h-4.34v4.34h4.34v-4.34ZM870.54,559.37h-4.82v4.34h4.82v-4.34ZM891.18,559.37h-4.82v4.34h4.82v-4.34ZM675.18,569.45h-4.82v4.82h4.82v-4.82ZM685.26,569.45h-4.82v4.82h4.82v-4.82ZM705.9,569.45h-4.82v4.82h4.82v-4.82ZM726.54,569.45h-4.82v4.82h4.82v-4.82ZM747.18,569.45h-4.82v4.82h4.82v-4.82ZM767.82,569.45h-4.82v4.82h4.82v-4.82ZM787.98,569.45h-4.34v4.82h4.34v-4.82ZM849.9,569.45h-4.82v4.82h4.82v-4.82ZM870.54,569.45h-4.82v4.82h4.82v-4.82ZM891.18,569.45h-4.82v4.82h4.82v-4.82ZM931.98,569.45h-4.34v4.82h4.34v-4.82ZM952.62,569.45h-4.34v4.82h4.34v-4.82ZM1014.54,569.45h-4.82v4.82h4.82v-4.82ZM1035.18,569.45h-4.82v4.82h4.82v-4.82ZM675.18,580.01h-4.82v4.34h4.82v-4.34ZM695.82,580.01h-4.82v4.34h4.82v-4.34ZM715.98,580.01h-4.34v4.34h4.34v-4.34ZM757.26,580.01h-4.82v4.34h4.82v-4.34ZM777.9,580.01h-4.82v4.34h4.82v-4.34ZM798.54,580.01h-4.82v4.34h4.82v-4.34ZM859.98,580.01h-4.34v4.34h4.34v-4.34ZM880.62,580.01h-4.34v4.34h4.34v-4.34ZM963.18,590.09h-4.82v4.82h4.82v-4.82ZM1003.98,590.09h-4.34v4.82h4.34v-4.82ZM1024.62,590.09h-4.34v4.82h4.34v-4.82ZM993.9,610.73h-4.82v4.82h4.82v-4.82ZM1014.54,610.73h-4.82v4.82h4.82v-4.82Z"/>
          <path class="cls-1" d="M783.17,677.46c.28-1.47-.38-10.19,0-10.56.18-.18,3.99.14,4.8,0v-9.84c0-1.28,5.02-.46,5.28-.72.51-.52-.6-12.55.06-14.58.47-1.43,3.97-.57,5.21-.79v-15.36h5.28v-10.08h67.2c.14.81-.19,4.62,0,4.8.26.26,5.28-.56,5.28.72v20.4c-.86.14-5.09-.2-5.28,0-1.03,1.02,2.78,6.95-5.28,5.28v30.72s-25.92,0-25.92,0v-15.36s-5.28,0-5.28,0v-5.28s-14.88,0-14.88,0v5.28s-5.28,0-5.28,0v15.36s-31.2,0-31.2,0ZM844.61,631.38h-20.16v4.32h20.16v-4.32ZM808.62,652.01h-4.34v4.34h4.34v-4.34Z"/>
        </g>
      </g>
      <path class="cls-1" d="M52.61,481.62h5.28s0-5.28,0-5.28h5.28s0-4.32,0-4.32h-5.28s0-5.76,0-5.76h5.28c.14-.86-.2-5.08,0-5.28s3.99.14,4.8,0v-4.8c-.81-.14-4.62.19-4.8,0s-.19-5.1,0-5.28c.22-.22,4.59.22,4.8,0,1.03-1.02-2.78-6.95,5.28-5.28v-4.8s-5.28,0-5.28,0v-5.28h5.28s0-5.28,0-5.28h5.28s0-5.28,0-5.28h5.28s0-4.8,0-4.8h-5.28s0-5.28,0-5.28h5.28c.14-.86-.2-5.08,0-5.28.22-.22,4.59.22,4.8,0,1.03-1.02-2.78-6.95,5.28-5.28.14-.81-.19-4.62,0-4.8s4.42.15,5.28,0c.14-.86-.2-5.09,0-5.28.22-.22,4.59.22,4.8,0,1.03-1.02-2.78-6.95,5.28-5.28-1.67-8.06,4.26-4.25,5.28-5.28.22-.22-.22-4.59,0-4.8.2-.2,4.42.15,5.28,0,.14-.86-.2-5.09,0-5.28.22-.22,4.59.22,4.8,0,.32-.32-.57-4.37.45-5.07.54-.38,4.32-.38,4.86,0,1.01.7.13,4.76.45,5.07.18.18,3.99-.14,4.8,0,.14-.86-.2-5.09,0-5.28.22-.22,4.59.22,4.8,0s-.22-4.59,0-4.8c.2-.2,4.42.15,5.28,0v-5.28s5.76,0,5.76,0v5.28s4.8,0,4.8,0c.14-.86-.2-5.09,0-5.28.22-.22,4.59.22,4.8,0,.32-.32-.57-4.37.45-5.07.54-.38,4.32-.38,4.86,0,1.01.7.13,4.76.45,5.07.18.18,3.99-.14,4.8,0,.14-.86-.2-5.09,0-5.28.22-.22,4.59.22,4.8,0,1.09-1.08-2.96-6.98,5.76-5.28v5.28s4.8,0,4.8,0v-5.28c5.43-.26,6.31-.6,5.76,5.28h4.32c.11-3.9-1.22-5.73,3.62-5.31,4.12.36,1.24,4.41,2.13,5.31.18.18,3.99-.14,4.8,0v-5.28s5,0,5,0l.27,5.29c.81-.14,4.62.18,4.8,0,1.11-1.1-2.73-5.86,3.62-5.31,4.12.36,1.24,4.41,2.13,5.31.19.19,3.74-.14,4.53,0l.27-5.29h5.28c.14.86-.2,5.09,0,5.28,1.02,1.03,6.95-2.78,5.28,5.28h4.8s0-5.28,0-5.28h5.28v5.28s5.28,0,5.28,0v5.28c.86.14,5.08-.2,5.28,0,.22.22-.22,4.59,0,4.8,1.02,1.03,6.95-2.78,5.28,5.28.81.14,4.62-.19,4.8,0s-.14,4.42,0,5.28h10.56v10.08c.81.13,4.62-.19,4.8,0,.2.2-.15,4.42,0,5.28h4.53c.35-5.3-.22-5.72,5.56-5.28v-15.36h5.28c.14-.86-.2-5.09,0-5.28s3.99.14,4.8,0v-4.32c-.81-.14-4.62.19-4.8,0-.2-.2-.2-5.56,0-5.76.19-.19,3.99.14,4.8,0v-4.53c-.1-.72-4.51.02-4.8-.27-.2-.2.15-4.85,0-5.76h5.28s.27,5.29.27,5.29h4.53s0-5.29,0-5.29c5.82-.28,5.84-.54,6.04,5.29h4.05c-.57-5.88.34-5.55,5.76-5.29v5.28s4.8,0,4.8,0v-5.28c5.43-.26,6.31-.6,5.76,5.28h4.32c.11-3.9-1.22-5.73,3.62-5.31,4.12.36,1.24,4.41,2.13,5.31.19.19,3.74-.14,4.53,0l.27-5.29h5.28v5.28s5.28,0,5.28,0v5.76h-5.28c-.14.86.2,5.08,0,5.28s-3.99-.14-4.8,0v4.32c.81.14,4.62-.19,4.8,0,.2.2.2,5.56,0,5.76-.19.19-3.99-.14-4.8,0,.45,5.78.02,5.21-5.29,5.56v4.05c5.89-.57,5.55.35,5.29,5.76h-5.28s0,4.52,0,4.52l5.29.27c1.7,8.72-4.2,4.67-5.28,5.76-.22.22.22,4.59,0,4.8-.2.2-4.42-.15-5.28,0,.14.81-.18,4.62,0,4.8.9.9,4.94-1.98,5.31,2.13.42,4.84-1.4,3.51-5.3,3.62v15.36c-.81.14-4.62-.19-4.8,0-1.03,1.02,2.78,6.95-5.28,5.28v4.32c5.88-.56,5.54.33,5.28,5.76h-5.28s0,14.88,0,14.88h4.8c.14-.86-.2-5.09,0-5.28.22-.22,4.59.22,4.8,0s-.22-4.59,0-4.8c.2-.2,4.42.15,5.28,0v-5.28s5.28,0,5.28,0v-5.28s15.36,0,15.36,0c.13-.81-.19-4.62,0-4.8.2-.2,5.56-.2,5.76,0,.19.19-.14,3.99,0,4.8h4.05s.55-4.81.55-4.81c.88.16,5.29-.19,5.49,0,.18.18-.14,3.99,0,4.8h15.36c.14.86-.2,5.09,0,5.28,1.02,1.03,6.95-2.78,5.28,5.28h5.28s0,5.28,0,5.28h-5.28s0,4.8,0,4.8h10.08v11.04h-4.8s0,4.04,0,4.04c.1.67,4.81.04,4.81.28v21.12h-10.08v4.8s5.28,0,5.28,0c.26,5.43.6,6.32-5.28,5.76v20.16h-10.56v4.8s5.29.27,5.29.27v5.49s-5.29,0-5.29,0v20.64c0,.24-4.8-.24-4.8,0v10.08h-5.28v20.64h-10.08c.56,5.87-.35,5.54-5.76,5.28l-.27-5.29h-4.53s0,5.29,0,5.29c-5.81.29-5.84.54-6.04-5.29h-4.05c.56,5.89-.33,5.55-5.76,5.29v-5.28s-4.8,0-4.8,0l-.27,5.29h-5.01s0-5.29,0-5.29c-.81.14-4.62-.18-4.8,0-.98.98,2.76,6.65-4.56,5.28-2.34-.44-.66-4.74-1.2-5.28-.2-.2-4.42.15-5.28,0-.26-5.43-.59-6.32,5.28-5.76v-19.92c0-.05.67-.72.72-.72h9.84v-4.32s-5.29-.27-5.29-.27v-5.49s5.29,0,5.29,0v-20.64h10.08v-4.8s-5.29-.27-5.29-.27v-5.01s5.29,0,5.29,0v-25.92h5.28c.14-.86-.2-5.09,0-5.28s3.99.14,4.8,0v-4.32c-.81-.14-4.62.19-4.8,0-.2-.2.16-4.61,0-5.49l4.81-.27v-4.8c-.81-.14-4.62.19-4.8,0s.14-3.99,0-4.8h-4.53c-.68.1-.04,4.8-.28,4.8h-15.36v5.28s-5.28,0-5.28,0v5.28c-.86.14-5.08-.2-5.28,0-.22.22.22,4.59,0,4.8s-4.59-.22-4.8,0c-.2.2.15,4.42,0,5.28h-5.28s0,4.8,0,4.8h5.28c1.7,8.71-4.2,4.67-5.28,5.76-.53.53.7,13.61-.21,14.91-.7,1.01-4.76.13-5.07.45-.22.22.22,4.59,0,4.8-.19.19-3.99-.14-4.8,0v4.8s4.81.27,4.81.27c-.16.88.19,5.29,0,5.49-.18.18-3.99-.14-4.8,0v15.36c-.86.14-5.09-.2-5.28,0-1.03,1.02,2.78,6.95-5.28,5.28v4.32c5.88-.56,5.54.33,5.28,5.76h-5.28s0,15.36,0,15.36h-5.28c-.14.86.2,5.09,0,5.28-.22.22-4.59-.22-4.8,0-1.09,1.08,2.96,6.98-5.76,5.28v-5.28s-4.8,0-4.8,0l-.27,5.29h-5.01s0-5.29,0-5.29c-.81.14-4.62-.18-4.8,0-.9.9,1.98,4.94-2.13,5.31-6.35.56-2.51-4.2-3.62-5.31-.18-.18-3.99.14-4.8,0v5.28s-5,0-5,0l-.27-5.29c-.81.14-4.62-.18-4.8,0-1.11,1.1,2.73,5.86-3.62,5.31-3.5-.31-1.79-2.47-2.13-5.31h-4.05c-.2,5.82-.23,5.57-6.04,5.28v-5.76s5.28,0,5.28,0c.14-.86-.2-5.09,0-5.28s3.99.14,4.8,0v-4.32s-4.81-.27-4.81-.27c.16-.88-.19-5.29,0-5.49.19-.19,3.99.14,4.8,0v-4.8h-14.88v10.56h-10.08c-.13.81.19,4.62,0,4.8-.2.2-4.42-.15-5.28,0v5.28s-15.36,0-15.36,0c-.11,3.9,1.22,5.73-3.62,5.3-4.12-.36-1.24-4.41-2.13-5.31-.18-.18-3.99.14-4.8,0-.14.86.2,5.09,0,5.28-.22.22-4.59-.22-4.8,0-.19.19.14,3.99,0,4.8h-41.76v-10.08h-4.8s0,5.28,0,5.28h-5.01s-.27-5.28-.27-5.28c-.81.14-4.62-.18-4.8,0-1.11,1.1,2.73,5.86-3.62,5.31-3.49-.31-1.79-2.47-2.14-5.3h-10.08v-10.08h-15.36v-5.28s-5.28,0-5.28,0v-5.28s-5.28,0-5.28,0c-.26-5.43-.59-6.32,5.28-5.76v-4.32h-9.84c-.05,0-.72-.67-.72-.72v-9.84c-.81-.13-4.62.19-4.8,0s.15-4.17,0-5.01l4.81-.27v-4.8h-10.08v-20.64c0-.26-4.64.19-5.28,0v-5.76l5.29-.28v-4.05s-5.29,0-5.29,0v-5.76l5.29-.28v-4.53s-5.29,0-5.29,0v-5.76l5.29-.28v-4.05s-5.29,0-5.29,0v-5.76ZM181.26,353.45h-4.82v4.82h4.82v-4.82ZM191.82,353.45h-4.82v4.82h4.82v-4.82ZM201.9,353.45h-4.82v4.82h4.82v-4.82ZM207.64,353.45v4.82h4.34v-4.82h-4.34ZM222.54,353.45h-4.82v4.82h4.82v-4.82ZM228.28,353.45v4.82h4.34v-4.82h-4.34ZM315.18,353.45h-4.82v4.82h4.82v-4.82ZM325.26,353.45h-4.82v4.82h4.82v-4.82ZM335.82,353.45h-4.82v4.82h4.82v-4.82ZM345.9,353.45h-4.82v4.82h4.82v-4.82ZM355.98,353.45h-4.34v4.82h4.34v-4.82ZM165.9,358.73h-4.82v4.82h4.82v-4.82ZM171.64,358.73v4.82h4.34v-4.82h-4.34ZM192.28,358.73v4.82h4.34v-4.82h-4.34ZM217.26,358.73h-4.82v4.82h4.82v-4.82ZM237.9,358.73h-4.82v4.82h4.82v-4.82ZM319.98,358.73h-4.34v4.82h4.34v-4.82ZM340.62,358.73h-4.34v4.82h4.34v-4.82ZM150.54,364.01h-4.82v4.34h4.82v-4.34ZM160.62,364.01h-4.34v4.34h4.34v-4.34ZM171.18,364.01h-4.82v4.34h4.82v-4.34ZM181.26,364.01h-4.82v4.34h4.82v-4.34ZM191.82,364.01h-4.82v4.34h4.82v-4.34ZM201.9,364.01h-4.82v4.34h4.82v-4.34ZM207.64,364.01v4.34h4.34v-4.34h-4.34ZM222.54,364.01h-4.82v4.34h4.82v-4.34ZM228.28,364.01v4.34h4.34v-4.34h-4.34ZM243.18,364.01h-4.82v4.34h4.82v-4.34ZM253.26,364.01h-4.82v4.34h4.82v-4.34ZM315.18,364.01h-4.82v4.34h4.82v-4.34ZM325.26,364.01h-4.82v4.34h4.82v-4.34ZM335.82,364.01h-4.82v4.34h4.82v-4.34ZM345.9,364.01h-4.82v4.34h4.82v-4.34ZM145.26,368.81h-4.82v4.82h4.82v-4.82ZM155.82,368.81h-4.82v4.82h4.82v-4.82ZM165.9,368.81h-4.82v4.82h4.82v-4.82ZM171.64,368.81v4.82h4.34v-4.82h-4.34ZM135.65,518.34c.94,3.04-.7,11.02,0,14.64.81.13,4.62-.19,4.8,0,.2.2-.15,4.42,0,5.28h5.28s0,5.28,0,5.28c.86.14,5.09-.2,5.28,0,.22.22-.22,4.59,0,4.8,1.02,1.03,6.95-2.78,5.28,5.28h4.32c.34-2.83-1.36-5,2.13-5.31,4.84-.42,3.51,1.4,3.62,5.3h25.44v-5.28s5,0,5,0l.27,5.29h4.8v-5.28c.86-.14,5.08.2,5.28,0,.18-.18-.14-3.99,0-4.8h15.36v-5.28s5.28,0,5.28,0c.14-.86-.2-5.09,0-5.28s3.99.14,4.8,0c-1.67-8.06,4.26-4.25,5.28-5.28.22-.22-.22-4.59,0-4.8.2-.2,4.42.15,5.28,0,.14-.86-.2-5.09,0-5.28.22-.22,4.59.22,4.8,0,1.03-1.02-2.78-6.95,5.28-5.28v-14.64c0-1.28,5.02-.46,5.28-.72.2-.2-.15-4.42,0-5.28h5.28s0-4.32,0-4.32h-5.28s0-5.76,0-5.76h5.28c.14-.86-.2-5.08,0-5.28s3.99.14,4.8,0v-4.32c-.81-.14-4.62.19-4.8,0-.2-.2-.2-5.56,0-5.76.22-.22,4.59.22,4.8,0,1.03-1.02-2.78-6.95,5.28-5.28v-4.8s-5.29-.27-5.29-.27v-5.01s5.29,0,5.29,0v-5.28s5.28,0,5.28,0v-4.8s-5.28,0-5.28,0v-10.56h10.08v-4.8h-14.88c-.14.86.19,5.09,0,5.28-.22.22-4.59-.22-4.8,0-.26.26.56,5.28-.72,5.28h-15.12c-.13.81.19,4.62,0,4.8-.22.22-4.59-.22-4.8,0-.2.2.15,4.42,0,5.28h-5.76s0-5.28,0-5.28h-4.8c-.14.86.2,5.09,0,5.28-.22.22-4.59-.22-4.8,0-1.03,1.02,2.78,6.95-5.28,5.28-.14.81.19,4.62,0,4.8-.2.2-4.85-.15-5.76,0v-5.28s5.29-.27,5.29-.27v-4.53s-5.29,0-5.29,0c-1.69-8.73,4.2-4.67,5.28-5.76.22-.22-.22-4.59,0-4.8.2-.2,4.42.15,5.28,0v-4.8s-5.29-.27-5.29-.27v-5.49s5.29,0,5.29,0v-4.8s-5.29-.27-5.29-.27v-5.01s5.29,0,5.29,0v-4.8h-5.28s0-5.28,0-5.28h-5.28s0-5.28,0-5.28h5.28s0-4.8,0-4.8c-8.06,1.67-4.25-4.26-5.28-5.28-.19-.19-4.42.14-5.28,0v-15.36h-4.32c.56,5.87-.33,5.54-5.76,5.28v-5.28s-5.28,0-5.28,0v-5.28s-4.32,0-4.32,0v5.28s-5.48,0-5.48,0l-.27-5.29h-4.8s0,5.28,0,5.28h-5.28c-.14.86.2,5.08,0,5.28-.22.22-4.59-.22-4.8,0s.22,4.59,0,4.8c-.2.2-4.42-.15-5.28,0v5.28s-5.28,0-5.28,0c-.14.86.2,5.09,0,5.28s-3.99-.14-4.8,0c1.67,8.06-4.26,4.25-5.28,5.28-.22.22.22,4.59,0,4.8-.2.2-4.42-.15-5.28,0,.14.81-.18,4.62,0,4.8.32.32,4.37-.57,5.07.45.38.54.38,4.32,0,4.86-.7,1.01-4.76.13-5.07.45-.22.22.22,4.59,0,4.8-.2.2-4.42-.15-5.28,0-.14.86.2,5.09,0,5.28s-3.99-.14-4.8,0v4.8c.81.14,4.62-.19,4.8,0,.2.2.2,5.56,0,5.76-.22.22-4.59-.22-4.8,0s.22,4.59,0,4.8c-.2.2-4.42-.15-5.28,0,.14.81-.18,4.62,0,4.8.9.9,4.94-1.98,5.31,2.13.42,4.84-1.4,3.51-5.31,3.62v4.32c5.88-.56,5.54.33,5.28,5.76-.86.14-5.09-.2-5.28,0-1.03,1.02,2.78,6.95-5.28,5.28v4.8s5.29.27,5.29.27v5.01s-5.29,0-5.29,0c.14.81-.18,4.62,0,4.8.9.9,4.94-1.98,5.31,2.13.42,4.84-1.4,3.51-5.31,3.62v4.32c5.88-.56,5.54.33,5.28,5.76h-5.28s0,4.8,0,4.8h5.28c.26,5.43.6,6.31-5.28,5.76v4.32c8.06-1.67,4.25,4.25,5.28,5.28.34.34,4.85-.68,5.28.72ZM207.18,368.81h-4.82v4.82h4.82v-4.82ZM217.26,368.81h-4.82v4.82h4.82v-4.82ZM227.82,368.81h-4.82v4.82h4.82v-4.82ZM237.9,368.81h-4.82v4.82h4.82v-4.82ZM243.64,368.81v4.82h4.34v-4.82h-4.34ZM258.54,368.81h-4.82v4.82h4.82v-4.82ZM309.9,368.81h-4.82v4.82h4.82v-4.82ZM319.98,368.81h-4.34v4.82h4.34v-4.82ZM330.54,368.81h-4.82v4.82h4.82v-4.82ZM340.62,368.81h-4.34v4.82h4.34v-4.82ZM351.18,368.81h-4.82v4.82h4.82v-4.82ZM129.9,374.09h-4.82v4.82h4.82v-4.82ZM139.98,374.09h-4.34v4.82h4.34v-4.82ZM150.54,374.09h-4.82v4.82h4.82v-4.82ZM160.62,374.09h-4.34v4.82h4.34v-4.82ZM171.18,374.09h-4.82v4.82h4.82v-4.82ZM222.54,374.09h-4.82v4.82h4.82v-4.82ZM228.28,374.09v4.82h4.34v-4.82h-4.34ZM243.18,374.09h-4.82v4.82h4.82v-4.82ZM253.26,374.09h-4.82v4.82h4.82v-4.82ZM263.82,374.09h-4.82v4.82h4.82v-4.82ZM304.62,374.09h-4.34v4.82h4.34v-4.82ZM315.18,374.09h-4.82v4.82h4.82v-4.82ZM325.26,374.09h-4.82v4.82h4.82v-4.82ZM335.82,374.09h-4.82v4.82h4.82v-4.82ZM345.9,374.09h-4.82v4.82h4.82v-4.82ZM124.62,379.37h-4.34v4.34h4.34v-4.34ZM135.18,379.37h-4.82v4.34h4.82v-4.34ZM145.26,379.37h-4.82v4.34h4.82v-4.34ZM155.82,379.37h-4.82v4.34h4.82v-4.34ZM165.9,379.37h-4.82v4.34h4.82v-4.34ZM227.82,379.37h-4.82v4.34h4.82v-4.34ZM243.64,379.37v4.34h4.34v-4.34h-4.34ZM264.28,379.37v4.34h4.34v-4.34h-4.34ZM309.9,379.37h-4.82v4.34h4.82v-4.34ZM330.54,379.37h-4.82v4.34h4.82v-4.34ZM119.82,384.17h-4.82v4.82h4.82v-4.82ZM129.9,384.17h-4.82v4.82h4.82v-4.82ZM139.98,384.17h-4.34v4.82h4.34v-4.82ZM150.54,384.17h-4.82v4.82h4.82v-4.82ZM160.62,384.17h-4.34v4.82h4.34v-4.82ZM222.54,384.17h-4.82v4.82h4.82v-4.82ZM228.28,384.17v4.82h4.34v-4.82h-4.34ZM243.18,384.17h-4.82v4.82h4.82v-4.82ZM253.26,384.17h-4.82v4.82h4.82v-4.82ZM263.82,384.17h-4.82v4.82h4.82v-4.82ZM273.9,384.17h-4.82v4.82h4.82v-4.82ZM304.62,384.17h-4.34v4.82h4.34v-4.82ZM315.18,384.17h-4.82v4.82h4.82v-4.82ZM325.26,384.17h-4.82v4.82h4.82v-4.82ZM335.82,384.17h-4.82v4.82h4.82v-4.82ZM345.9,384.17h-4.82v4.82h4.82v-4.82ZM114.54,389.45h-4.82v4.82h4.82v-4.82ZM124.62,389.45h-4.34v4.82h4.34v-4.82ZM135.18,389.45h-4.82v4.82h4.82v-4.82ZM145.26,389.45h-4.82v4.82h4.82v-4.82ZM155.82,389.45h-4.82v4.82h4.82v-4.82ZM227.82,389.45h-4.82v4.82h4.82v-4.82ZM237.9,389.45h-4.82v4.82h4.82v-4.82ZM243.64,389.45v4.82h4.34v-4.82h-4.34ZM258.54,389.45h-4.82v4.82h4.82v-4.82ZM264.28,389.45v4.82h4.34v-4.82h-4.34ZM279.18,389.45h-4.82v4.82h4.82v-4.82ZM299.82,389.45h-4.82v4.82h4.82v-4.82ZM309.9,389.45h-4.82v4.82h4.82v-4.82ZM330.54,389.45h-4.82v4.82h4.82v-4.82ZM109.26,394.73h-4.82v4.82h4.82v-4.82ZM119.82,394.73h-4.82v4.82h4.82v-4.82ZM129.9,394.73h-4.82v4.82h4.82v-4.82ZM139.98,394.73h-4.34v4.82h4.34v-4.82ZM150.54,394.73h-4.82v4.82h4.82v-4.82ZM228.28,394.73v4.82h4.34v-4.82h-4.34ZM243.18,394.73h-4.82v4.82h4.82v-4.82ZM253.26,394.73h-4.82v4.82h4.82v-4.82ZM263.82,394.73h-4.82v4.82h4.82v-4.82ZM273.9,394.73h-4.82v4.82h4.82v-4.82ZM279.64,394.73v4.82h4.34v-4.82h-4.34ZM294.54,394.73h-4.82v4.82h4.82v-4.82ZM304.62,394.73h-4.34v4.82h4.34v-4.82ZM315.18,394.73h-4.82v4.82h4.82v-4.82ZM325.26,394.73h-4.82v4.82h4.82v-4.82ZM335.82,394.73h-4.82v4.82h4.82v-4.82ZM345.9,394.73h-4.82v4.82h4.82v-4.82ZM114.54,400.01h-4.82v4.34h4.82v-4.34ZM135.18,400.01h-4.82v4.34h4.82v-4.34ZM237.9,400.01h-4.82v4.34h4.82v-4.34ZM258.54,400.01h-4.82v4.34h4.82v-4.34ZM279.18,400.01h-4.82v4.34h4.82v-4.34ZM299.82,400.01h-4.82v4.34h4.82v-4.34ZM319.98,400.01h-4.34v4.34h4.34v-4.34ZM340.62,400.01h-4.34v4.34h4.34v-4.34ZM99.18,404.81h-4.82v4.82h4.82v-4.82ZM109.26,404.81h-4.82v4.82h4.82v-4.82ZM119.82,404.81h-4.82v4.82h4.82v-4.82ZM129.9,404.81h-4.82v4.82h4.82v-4.82ZM139.98,404.81h-4.34v4.82h4.34v-4.82ZM228.28,404.81v4.82h4.34v-4.82h-4.34ZM243.18,404.81h-4.82v4.82h4.82v-4.82ZM253.26,404.81h-4.82v4.82h4.82v-4.82ZM263.82,404.81h-4.82v4.82h4.82v-4.82ZM273.9,404.81h-4.82v4.82h4.82v-4.82ZM279.64,404.81v4.82h4.34v-4.82h-4.34ZM294.54,404.81h-4.82v4.82h4.82v-4.82ZM304.62,404.81h-4.34v4.82h4.34v-4.82ZM315.18,404.81h-4.82v4.82h4.82v-4.82ZM325.26,404.81h-4.82v4.82h4.82v-4.82ZM335.82,404.81h-4.82v4.82h4.82v-4.82ZM93.9,410.09h-4.82v4.82h4.82v-4.82ZM103.98,410.09h-4.34v4.82h4.34v-4.82ZM114.54,410.09h-4.82v4.82h4.82v-4.82ZM124.62,410.09h-4.34v4.82h4.34v-4.82ZM135.18,410.09h-4.82v4.82h4.82v-4.82ZM145.26,410.09h-4.82v4.82h4.82v-4.82ZM237.9,410.09h-4.82v4.82h4.82v-4.82ZM243.64,410.09v4.82h4.34v-4.82h-4.34ZM258.54,410.09h-4.82v4.82h4.82v-4.82ZM264.28,410.09v4.82h4.34v-4.82h-4.34ZM279.18,410.09h-4.82v4.82h4.82v-4.82ZM289.26,410.09h-4.82v4.82h4.82v-4.82ZM299.82,410.09h-4.82v4.82h4.82v-4.82ZM309.9,410.09h-4.82v4.82h4.82v-4.82ZM319.98,410.09h-4.34v4.82h4.34v-4.82ZM330.54,410.09h-4.82v4.82h4.82v-4.82ZM340.62,410.09h-4.34v4.82h4.34v-4.82ZM88.62,415.37h-4.34v4.34h4.34v-4.34ZM99.18,415.37h-4.82v4.34h4.82v-4.34ZM109.26,415.37h-4.82v4.34h4.82v-4.34ZM119.82,415.37h-4.82v4.34h4.82v-4.34ZM129.9,415.37h-4.82v4.34h4.82v-4.34ZM139.98,415.37h-4.34v4.34h4.34v-4.34ZM228.28,415.37v4.34h4.34v-4.34h-4.34ZM243.18,415.37h-4.82v4.34h4.82v-4.34ZM253.26,415.37h-4.82v4.34h4.82v-4.34ZM263.82,415.37h-4.82v4.34h4.82v-4.34ZM273.9,415.37h-4.82v4.34h4.82v-4.34ZM279.64,415.37v4.34h4.34v-4.34h-4.34ZM294.54,415.37h-4.82v4.34h4.82v-4.34ZM304.62,415.37h-4.34v4.34h4.34v-4.34ZM315.18,415.37h-4.82v4.34h4.82v-4.34ZM325.26,415.37h-4.82v4.34h4.82v-4.34ZM335.82,415.37h-4.82v4.34h4.82v-4.34ZM103.98,420.17h-4.34v4.82h4.34v-4.82ZM124.62,420.17h-4.34v4.82h4.34v-4.82ZM243.64,420.17v4.82h4.34v-4.82h-4.34ZM264.28,420.17v4.82h4.34v-4.82h-4.34ZM289.26,420.17h-4.82v4.82h4.82v-4.82ZM309.9,420.17h-4.82v4.82h4.82v-4.82ZM330.54,420.17h-4.82v4.82h4.82v-4.82ZM88.62,425.45h-4.34v4.82h4.34v-4.82ZM99.18,425.45h-4.82v4.82h4.82v-4.82ZM109.26,425.45h-4.82v4.82h4.82v-4.82ZM119.82,425.45h-4.82v4.82h4.82v-4.82ZM129.9,425.45h-4.82v4.82h4.82v-4.82ZM228.28,425.45v4.82h4.34v-4.82h-4.34ZM243.18,425.45h-4.82v4.82h4.82v-4.82ZM253.26,425.45h-4.82v4.82h4.82v-4.82ZM263.82,425.45h-4.82v4.82h4.82v-4.82ZM294.54,425.45h-4.82v4.82h4.82v-4.82ZM304.62,425.45h-4.34v4.82h4.34v-4.82ZM315.18,425.45h-4.82v4.82h4.82v-4.82ZM325.26,425.45h-4.82v4.82h4.82v-4.82ZM335.82,425.45h-4.82v4.82h4.82v-4.82ZM83.82,430.73h-4.82v4.82h4.82v-4.82ZM103.98,430.73h-4.34v4.82h4.34v-4.82ZM124.62,430.73h-4.34v4.82h4.34v-4.82ZM243.64,430.73v4.82h4.34v-4.82h-4.34ZM289.26,430.73h-4.82v4.82h4.82v-4.82ZM309.9,430.73h-4.82v4.82h4.82v-4.82ZM330.54,430.73h-4.82v4.82h4.82v-4.82ZM78.54,436.01h-4.82v4.34h4.82v-4.34ZM88.62,436.01h-4.34v4.34h4.34v-4.34ZM99.18,436.01h-4.82v4.34h4.82v-4.34ZM109.26,436.01h-4.82v4.34h4.82v-4.34ZM119.82,436.01h-4.82v4.34h4.82v-4.34ZM129.9,436.01h-4.82v4.34h4.82v-4.34ZM228.28,436.01v4.34h4.34v-4.34h-4.34ZM243.18,436.01h-4.82v4.34h4.82v-4.34ZM279.64,436.01v4.34h4.34v-4.34h-4.34ZM294.54,436.01h-4.82v4.34h4.82v-4.34ZM304.62,436.01h-4.34v4.34h4.34v-4.34ZM315.18,436.01h-4.82v4.34h4.82v-4.34ZM325.26,436.01h-4.82v4.34h4.82v-4.34ZM93.9,440.81h-4.82v4.82h4.82v-4.82ZM114.54,440.81h-4.82v4.82h4.82v-4.82ZM299.82,440.81h-4.82v4.82h4.82v-4.82ZM319.98,440.81h-4.34v4.82h4.34v-4.82ZM78.54,446.09h-4.82v4.82h4.82v-4.82ZM88.62,446.09h-4.34v4.82h4.34v-4.82ZM99.18,446.09h-4.82v4.82h4.82v-4.82ZM109.26,446.09h-4.82v4.82h4.82v-4.82ZM119.82,446.09h-4.82v4.82h4.82v-4.82ZM129.9,446.09h-4.82v4.82h4.82v-4.82ZM279.64,446.09v4.82h4.34v-4.82h-4.34ZM294.54,446.09h-4.82v4.82h4.82v-4.82ZM304.62,446.09h-4.34v4.82h4.34v-4.82ZM315.18,446.09h-4.82v4.82h4.82v-4.82ZM325.26,446.09h-4.82v4.82h4.82v-4.82ZM355.98,446.09h-4.34v4.82h4.34v-4.82ZM366.54,446.09h-4.82v4.82h4.82v-4.82ZM376.62,446.09h-4.34v4.82h4.34v-4.82ZM387.18,446.09h-4.82v4.82h4.82v-4.82ZM397.26,446.09h-4.82v4.82h4.82v-4.82ZM73.26,451.37h-4.82v4.34h4.82v-4.34ZM83.82,451.37h-4.82v4.34h4.82v-4.34ZM93.9,451.37h-4.82v4.34h4.82v-4.34ZM114.54,451.37h-4.82v4.34h4.82v-4.34ZM279.18,451.37h-4.82v4.34h4.82v-4.34ZM299.82,451.37h-4.82v4.34h4.82v-4.34ZM319.98,451.37h-4.34v4.34h4.34v-4.34ZM361.26,451.37h-4.82v4.34h4.82v-4.34ZM381.9,451.37h-4.82v4.34h4.82v-4.34ZM402.54,451.37h-4.82v4.34h4.82v-4.34ZM78.54,456.17h-4.82v4.82h4.82v-4.82ZM88.62,456.17h-4.34v4.82h4.34v-4.82ZM99.18,456.17h-4.82v4.82h4.82v-4.82ZM109.26,456.17h-4.82v4.82h4.82v-4.82ZM119.82,456.17h-4.82v4.82h4.82v-4.82ZM129.9,456.17h-4.82v4.82h4.82v-4.82ZM279.64,456.17v4.82h4.34v-4.82h-4.34ZM294.54,456.17h-4.82v4.82h4.82v-4.82ZM304.62,456.17h-4.34v4.82h4.34v-4.82ZM315.18,456.17h-4.82v4.82h4.82v-4.82ZM325.26,456.17h-4.82v4.82h4.82v-4.82ZM345.9,456.17h-4.82v4.82h4.82v-4.82ZM355.98,456.17h-4.34v4.82h4.34v-4.82ZM366.54,456.17h-4.82v4.82h4.82v-4.82ZM376.62,456.17h-4.34v4.82h4.34v-4.82ZM387.18,456.17h-4.82v4.82h4.82v-4.82ZM397.26,456.17h-4.82v4.82h4.82v-4.82ZM83.82,461.45h-4.82v4.82h4.82v-4.82ZM103.98,461.45h-4.34v4.82h4.34v-4.82ZM124.62,461.45h-4.34v4.82h4.34v-4.82ZM289.26,461.45h-4.82v4.82h4.82v-4.82ZM309.9,461.45h-4.82v4.82h4.82v-4.82ZM330.54,461.45h-4.82v4.82h4.82v-4.82ZM351.18,461.45h-4.82v4.82h4.82v-4.82ZM67.98,466.73h-4.34v4.82h4.34v-4.82ZM78.54,466.73h-4.82v4.82h4.82v-4.82ZM88.62,466.73h-4.34v4.82h4.34v-4.82ZM99.18,466.73h-4.82v4.82h4.82v-4.82ZM109.26,466.73h-4.82v4.82h4.82v-4.82ZM119.82,466.73h-4.82v4.82h4.82v-4.82ZM273.9,466.73h-4.82v4.82h4.82v-4.82ZM279.64,466.73v4.82h4.34v-4.82h-4.34ZM294.54,466.73h-4.82v4.82h4.82v-4.82ZM304.62,466.73h-4.34v4.82h4.34v-4.82ZM315.18,466.73h-4.82v4.82h4.82v-4.82ZM325.26,466.73h-4.82v4.82h4.82v-4.82ZM335.82,466.73h-4.82v4.82h4.82v-4.82ZM345.9,466.73h-4.82v4.82h4.82v-4.82ZM355.98,466.73h-4.34v4.82h4.34v-4.82ZM366.54,466.73h-4.82v4.82h4.82v-4.82ZM376.62,466.73h-4.34v4.82h4.34v-4.82ZM387.18,466.73h-4.82v4.82h4.82v-4.82ZM397.26,466.73h-4.82v4.82h4.82v-4.82ZM407.82,466.73h-4.82v4.82h4.82v-4.82ZM83.82,472.01h-4.82v4.34h4.82v-4.34ZM103.98,472.01h-4.34v4.34h4.34v-4.34ZM124.62,472.01h-4.34v4.34h4.34v-4.34ZM289.26,472.01h-4.82v4.34h4.82v-4.34ZM309.9,472.01h-4.82v4.34h4.82v-4.34ZM330.54,472.01h-4.82v4.34h4.82v-4.34ZM371.82,472.01h-4.82v4.34h4.82v-4.34ZM391.98,472.01h-4.34v4.34h4.34v-4.34ZM67.98,476.81h-4.34v4.82h4.34v-4.82ZM78.54,476.81h-4.82v4.82h4.82v-4.82ZM88.62,476.81h-4.34v4.82h4.34v-4.82ZM99.18,476.81h-4.82v4.82h4.82v-4.82ZM109.26,476.81h-4.82v4.82h4.82v-4.82ZM119.82,476.81h-4.82v4.82h4.82v-4.82ZM273.9,476.81h-4.82v4.82h4.82v-4.82ZM279.64,476.81v4.82h4.34v-4.82h-4.34ZM294.54,476.81h-4.82v4.82h4.82v-4.82ZM304.62,476.81h-4.34v4.82h4.34v-4.82ZM315.18,476.81h-4.82v4.82h4.82v-4.82ZM325.26,476.81h-4.82v4.82h4.82v-4.82ZM366.54,476.81h-4.82v4.82h4.82v-4.82ZM376.62,476.81h-4.34v4.82h4.34v-4.82ZM387.18,476.81h-4.82v4.82h4.82v-4.82ZM397.26,476.81h-4.82v4.82h4.82v-4.82ZM407.82,476.81h-4.82v4.82h4.82v-4.82ZM67.98,487.37h-4.34v4.34h4.34v-4.34ZM78.54,487.37h-4.82v4.34h4.82v-4.34ZM88.62,487.37h-4.34v4.34h4.34v-4.34ZM99.18,487.37h-4.82v4.34h4.82v-4.34ZM109.26,487.37h-4.82v4.34h4.82v-4.34ZM119.82,487.37h-4.82v4.34h4.82v-4.34ZM273.9,487.37h-4.82v4.34h4.82v-4.34ZM279.64,487.37v4.34h4.34v-4.34h-4.34ZM294.54,487.37h-4.82v4.34h4.82v-4.34ZM304.62,487.37h-4.34v4.34h4.34v-4.34ZM315.18,487.37h-4.82v4.34h4.82v-4.34ZM366.54,487.37h-4.82v4.34h4.82v-4.34ZM376.62,487.37h-4.34v4.34h4.34v-4.34ZM387.18,487.37h-4.82v4.34h4.82v-4.34ZM397.26,487.37h-4.82v4.34h4.82v-4.34ZM407.82,487.37h-4.82v4.34h4.82v-4.34ZM73.26,492.17h-4.82v4.82h4.82v-4.82ZM93.9,492.17h-4.82v4.82h4.82v-4.82ZM114.54,492.17h-4.82v4.82h4.82v-4.82ZM279.18,492.17h-4.82v4.82h4.82v-4.82ZM299.82,492.17h-4.82v4.82h4.82v-4.82ZM361.26,492.17h-4.82v4.82h4.82v-4.82ZM381.9,492.17h-4.82v4.82h4.82v-4.82ZM402.54,492.17h-4.82v4.82h4.82v-4.82ZM67.98,497.45h-4.34v4.82h4.34v-4.82ZM78.54,497.45h-4.82v4.82h4.82v-4.82ZM88.62,497.45h-4.34v4.82h4.34v-4.82ZM99.18,497.45h-4.82v4.82h4.82v-4.82ZM109.26,497.45h-4.82v4.82h4.82v-4.82ZM119.82,497.45h-4.82v4.82h4.82v-4.82ZM263.82,497.45h-4.82v4.82h4.82v-4.82ZM273.9,497.45h-4.82v4.82h4.82v-4.82ZM279.64,497.45v4.82h4.34v-4.82h-4.34ZM294.54,497.45h-4.82v4.82h4.82v-4.82ZM304.62,497.45h-4.34v4.82h4.34v-4.82ZM355.98,497.45h-4.34v4.82h4.34v-4.82ZM366.54,497.45h-4.82v4.82h4.82v-4.82ZM376.62,497.45h-4.34v4.82h4.34v-4.82ZM387.18,497.45h-4.82v4.82h4.82v-4.82ZM397.26,497.45h-4.82v4.82h4.82v-4.82ZM63.18,502.73h-4.82v4.82h4.82v-4.82ZM83.82,502.73h-4.82v4.82h4.82v-4.82ZM103.98,502.73h-4.34v4.82h4.34v-4.82ZM67.98,508.01h-4.34v4.34h4.34v-4.34ZM78.54,508.01h-4.82v4.34h4.82v-4.34ZM88.62,508.01h-4.34v4.34h4.34v-4.34ZM99.18,508.01h-4.82v4.34h4.82v-4.34ZM109.26,508.01h-4.82v4.34h4.82v-4.34ZM119.82,508.01h-4.82v4.34h4.82v-4.34ZM263.82,508.01h-4.82v4.34h4.82v-4.34ZM273.9,508.01h-4.82v4.34h4.82v-4.34ZM279.64,508.01v4.34h4.34v-4.34h-4.34ZM294.54,508.01h-4.82v4.34h4.82v-4.34ZM304.62,508.01h-4.34v4.34h4.34v-4.34ZM355.98,508.01h-4.34v4.34h4.34v-4.34ZM366.54,508.01h-4.82v4.34h4.82v-4.34ZM376.62,508.01h-4.34v4.34h4.34v-4.34ZM387.18,508.01h-4.82v4.34h4.82v-4.34ZM397.26,508.01h-4.82v4.34h4.82v-4.34ZM63.18,512.81h-4.82v4.82h4.82v-4.82ZM83.82,512.81h-4.82v4.82h4.82v-4.82ZM103.98,512.81h-4.34v4.82h4.34v-4.82ZM124.62,512.81h-4.34v4.82h4.34v-4.82ZM67.98,518.09h-4.34v4.82h4.34v-4.82ZM78.54,518.09h-4.82v4.82h4.82v-4.82ZM88.62,518.09h-4.34v4.82h4.34v-4.82ZM99.18,518.09h-4.82v4.82h4.82v-4.82ZM109.26,518.09h-4.82v4.82h4.82v-4.82ZM119.82,518.09h-4.82v4.82h4.82v-4.82ZM129.9,518.09h-4.82v4.82h4.82v-4.82ZM253.26,518.09h-4.82v4.82h4.82v-4.82ZM263.82,518.09h-4.82v4.82h4.82v-4.82ZM273.9,518.09h-4.82v4.82h4.82v-4.82ZM279.64,518.09v4.82h4.34v-4.82h-4.34ZM294.54,518.09h-4.82v4.82h4.82v-4.82ZM304.62,518.09h-4.34v4.82h4.34v-4.82ZM355.98,518.09h-4.34v4.82h4.34v-4.82ZM366.54,518.09h-4.82v4.82h4.82v-4.82ZM376.62,518.09h-4.34v4.82h4.34v-4.82ZM387.18,518.09h-4.82v4.82h4.82v-4.82ZM397.26,518.09h-4.82v4.82h4.82v-4.82ZM67.98,528.17h-4.34v4.82h4.34v-4.82ZM78.54,528.17h-4.82v4.82h4.82v-4.82ZM88.62,528.17h-4.34v4.82h4.34v-4.82ZM99.18,528.17h-4.82v4.82h4.82v-4.82ZM109.26,528.17h-4.82v4.82h4.82v-4.82ZM119.82,528.17h-4.82v4.82h4.82v-4.82ZM129.9,528.17h-4.82v4.82h4.82v-4.82ZM243.18,528.17h-4.82v4.82h4.82v-4.82ZM253.26,528.17h-4.82v4.82h4.82v-4.82ZM263.82,528.17h-4.82v4.82h4.82v-4.82ZM273.9,528.17h-4.82v4.82h4.82v-4.82ZM279.64,528.17v4.82h4.34v-4.82h-4.34ZM294.54,528.17h-4.82v4.82h4.82v-4.82ZM355.98,528.17h-4.34v4.82h4.34v-4.82ZM366.54,528.17h-4.82v4.82h4.82v-4.82ZM376.62,528.17h-4.34v4.82h4.34v-4.82ZM387.18,528.17h-4.82v4.82h4.82v-4.82ZM73.26,533.45h-4.82v4.82h4.82v-4.82ZM93.9,533.45h-4.82v4.82h4.82v-4.82ZM114.54,533.45h-4.82v4.82h4.82v-4.82ZM135.18,533.45h-4.82v4.82h4.82v-4.82ZM237.9,533.45h-4.82v4.82h4.82v-4.82ZM78.54,538.73h-4.82v4.82h4.82v-4.82ZM88.62,538.73h-4.34v4.82h4.34v-4.82ZM99.18,538.73h-4.82v4.82h4.82v-4.82ZM109.26,538.73h-4.82v4.82h4.82v-4.82ZM119.82,538.73h-4.82v4.82h4.82v-4.82ZM129.9,538.73h-4.82v4.82h4.82v-4.82ZM139.98,538.73h-4.34v4.82h4.34v-4.82ZM228.28,538.73v4.82h4.34v-4.82h-4.34ZM243.18,538.73h-4.82v4.82h4.82v-4.82ZM253.26,538.73h-4.82v4.82h4.82v-4.82ZM263.82,538.73h-4.82v4.82h4.82v-4.82ZM273.9,538.73h-4.82v4.82h4.82v-4.82ZM279.64,538.73v4.82h4.34v-4.82h-4.34ZM294.54,538.73h-4.82v4.82h4.82v-4.82ZM345.9,538.73h-4.82v4.82h4.82v-4.82ZM355.98,538.73h-4.34v4.82h4.34v-4.82ZM366.54,538.73h-4.82v4.82h4.82v-4.82ZM376.62,538.73h-4.34v4.82h4.34v-4.82ZM387.18,538.73h-4.82v4.82h4.82v-4.82ZM78.54,548.81h-4.82v4.82h4.82v-4.82ZM84.28,548.81v4.82h4.34v-4.82h-4.34ZM99.18,548.81h-4.82v4.82h4.82v-4.82ZM109.26,548.81h-4.82v4.82h4.82v-4.82ZM119.82,548.81h-4.82v4.82h4.82v-4.82ZM129.9,548.81h-4.82v4.82h4.82v-4.82ZM139.98,548.81h-4.34v4.82h4.34v-4.82ZM150.54,548.81h-4.82v4.82h4.82v-4.82ZM207.64,548.81v4.82h4.34v-4.82h-4.34ZM222.54,548.81h-4.82v4.82h4.82v-4.82ZM228.28,548.81v4.82h4.34v-4.82h-4.34ZM243.18,548.81h-4.82v4.82h4.82v-4.82ZM253.26,548.81h-4.82v4.82h4.82v-4.82ZM263.82,548.81h-4.82v4.82h4.82v-4.82ZM273.9,548.81h-4.82v4.82h4.82v-4.82ZM279.64,548.81v4.82h4.34v-4.82h-4.34ZM294.54,548.81h-4.82v4.82h4.82v-4.82ZM345.9,548.81h-4.82v4.82h4.82v-4.82ZM355.98,548.81h-4.34v4.82h4.34v-4.82ZM366.54,548.81h-4.82v4.82h4.82v-4.82ZM376.62,548.81h-4.34v4.82h4.34v-4.82ZM387.18,548.81h-4.82v4.82h4.82v-4.82ZM88.62,559.37h-4.34v4.34h4.34v-4.34ZM99.18,559.37h-4.82v4.34h4.82v-4.34ZM109.26,559.37h-4.82v4.34h4.82v-4.34ZM119.82,559.37h-4.82v4.34h4.82v-4.34ZM129.9,559.37h-4.82v4.34h4.82v-4.34ZM139.98,559.37h-4.34v4.34h4.34v-4.34ZM150.54,559.37h-4.82v4.34h4.82v-4.34ZM160.62,559.37h-4.34v4.34h4.34v-4.34ZM171.18,559.37h-4.82v4.34h4.82v-4.34ZM181.26,559.37h-4.82v4.34h4.82v-4.34ZM191.82,559.37h-4.82v4.34h4.82v-4.34ZM201.9,559.37h-4.82v4.34h4.82v-4.34ZM211.98,559.37h-4.34v4.34h4.34v-4.34ZM222.54,559.37h-4.82v4.34h4.82v-4.34ZM232.62,559.37h-4.34v4.34h4.34v-4.34ZM243.18,559.37h-4.82v4.34h4.82v-4.34ZM253.26,559.37h-4.82v4.34h4.82v-4.34ZM273.9,559.37h-4.82v4.34h4.82v-4.34ZM355.98,559.37h-4.34v4.34h4.34v-4.34ZM376.62,559.37h-4.34v4.34h4.34v-4.34ZM84.28,569.45v4.82h4.34v-4.82h-4.34ZM99.18,569.45h-4.82v4.82h4.82v-4.82ZM109.26,569.45h-4.82v4.82h4.82v-4.82ZM119.82,569.45h-4.82v4.82h4.82v-4.82ZM129.9,569.45h-4.82v4.82h4.82v-4.82ZM139.98,569.45h-4.34v4.82h4.34v-4.82ZM150.54,569.45h-4.82v4.82h4.82v-4.82ZM160.62,569.45h-4.34v4.82h4.34v-4.82ZM171.18,569.45h-4.82v4.82h4.82v-4.82ZM181.26,569.45h-4.82v4.82h4.82v-4.82ZM191.82,569.45h-4.82v4.82h4.82v-4.82ZM201.9,569.45h-4.82v4.82h4.82v-4.82ZM207.64,569.45v4.82h4.34v-4.82h-4.34ZM243.18,569.45h-4.82v4.82h4.82v-4.82ZM253.26,569.45h-4.82v4.82h4.82v-4.82ZM263.82,569.45h-4.82v4.82h4.82v-4.82ZM273.9,569.45h-4.82v4.82h4.82v-4.82ZM279.64,569.45v4.82h4.34v-4.82h-4.34ZM335.82,569.45h-4.82v4.82h4.82v-4.82ZM345.9,569.45h-4.82v4.82h4.82v-4.82ZM355.98,569.45h-4.34v4.82h4.34v-4.82ZM366.54,569.45h-4.82v4.82h4.82v-4.82ZM376.62,569.45h-4.34v4.82h4.34v-4.82ZM109.26,580.01h-4.82v4.34h4.82v-4.34ZM119.82,580.01h-4.82v4.34h4.82v-4.34ZM129.9,580.01h-4.82v4.34h4.82v-4.34ZM139.98,580.01h-4.34v4.34h4.34v-4.34ZM150.54,580.01h-4.82v4.34h4.82v-4.34ZM160.62,580.01h-4.34v4.34h4.34v-4.34ZM171.18,580.01h-4.82v4.34h4.82v-4.34ZM181.26,580.01h-4.82v4.34h4.82v-4.34ZM191.82,580.01h-4.82v4.34h4.82v-4.34ZM201.9,580.01h-4.82v4.34h4.82v-4.34ZM243.18,580.01h-4.82v4.34h4.82v-4.34ZM253.26,580.01h-4.82v4.34h4.82v-4.34ZM263.82,580.01h-4.82v4.34h4.82v-4.34ZM273.9,580.01h-4.82v4.34h4.82v-4.34ZM283.98,580.01h-4.34v4.34h4.34v-4.34ZM345.9,580.01h-4.82v4.34h4.82v-4.34ZM366.54,580.01h-4.82v4.34h4.82v-4.34ZM139.98,590.09h-4.34v4.82h4.34v-4.82ZM150.54,590.09h-4.82v4.82h4.82v-4.82ZM160.62,590.09h-4.34v4.82h4.34v-4.82ZM171.18,590.09h-4.82v4.82h4.82v-4.82Z"/>
    </g>
  </g>
</svg>