<?xml version="1.0" encoding="UTF-8"?>
<svg id="Layer_1" data-name="Layer 1" xmlns="http://www.w3.org/2000/svg" viewBox="0 0 1133.86 737.01">
  <defs>
    <style>
      .cls-1 {
        fill: #24af15;
      }

      .cls-2 {
        fill: #fff;
      }
    </style>
  </defs>
  <circle class="cls-1" cx="566.93" cy="368.5" r="337.14"/>
  <g>
    <path class="cls-2" d="M583.56,324.97l-.86,2.65-14.29,43.85h-.08l.04.12-22.4,68.74h-26.02l22.44-68.86,10.9-33.46h0c1.08-3.32,1.48-5.88,1.52-7.82.09-3.84-1.2-5.22-1.2-5.22h29.95Z"/>
    <path class="cls-2" d="M584.74,293.8l5.43,16.7-14.21-10.32-14.21,10.32,5.43-16.7-12.23-8.88-12.23,8.88,5.43,16.7-14.21-10.32-10.16,7.39,5.66,17.41h23.34l-18.89,13.72,7.21,22.2-4.39-3.19-4.48,13.76-22.44,68.86h-26.02l16.87-51.77s0-.02,0-.03c1.82-5.6.81-12.18.81-12.18l3.96-2.46,3.9-2.42,24.98-15.51-12.08-8.78-18.89,13.72,7.21-22.2-18.89-13.72h23.35l7.21-22.2v.04s2.94-9.01,2.94-9.01l-14.21-10.32h17.56l5.43-16.7,5.43,16.7h31.16l5.43-16.7,5.43,16.7h17.56l-14.21,10.32Z"/>
    <path class="cls-2" d="M596.66,383.67c-.19,4.13,1.13,7.39,2.25,9.85,3.76,8.34,5.83,9.25,8.15,14.83,1.56,3.75,3.35,8.05,2.67,13.21-1.4,10.61-12.14,16.41-14.11,17.42-1.04.53-2.07.98-3.07,1.34-5.18,1.89-9.79,1.78-12.62,1.68-2.72-.09-6.68-.26-10.8-1.68-2.68-.93-5.42-2.38-7.93-4.7-5.8-5.36-6.7-12.14-6.7-12.14l17.39-9.64c-.37,5.06.48,8.95,1.22,11.35,1.04,3.37,2.14,4.74,2.84,5.48,1.63,1.71,4.98,4.06,7.15,2.94,2.41-1.24,2.02-6.08,1.86-7.97-.43-5.16-2.67-8.89-3.38-10.09-5.41-9.15-10.37-17.46-9.95-25.57.1-1.93.49-3.71,1.03-5.31h0c1.74-5.16,5.1-8.48,5.76-9.11,1.97-1.89,4.09-3.18,6.31-4.09,3.67-1.5,7.61-1.96,11.57-2.37.22-.02.43-.04.65-.07,4.69-.48,12.85-.7,22.83,2.44.76.24,1.54.5,2.32.78l-5.67,18.34c-.4-.8-7.23-14.14-13.8-14.18-.62,0-2.22-.01-3.59,1.02-2.1,1.57-2.28,4.49-2.36,6.25Z"/>
    <path class="cls-2" d="M810.17,378.45l-18.5,56.78s0,.02-.01.03c-.55,1.49-1.24,3.2-2.11,5.06-1.54,3.3-3.65,7.09-6.54,11-.53.71-1.08,1.43-1.66,2.15-.91,1.13-2.27,2.8-4.11,4.71-.97,1.01-2.07,2.1-3.31,3.21-2.55,2.29-5.69,4.69-9.44,6.87-1.34.78-2.77,1.52-4.27,2.23-1.16.54-2.29,1.02-3.41,1.44l-2.12.75c-1.3.42-2.59.78-3.93,1.1-4.34,1.04-9.05,1.63-15.16,2.41-2.39.3-4.65.53-6.77.69-3.66.29-6.89.4-9.57.44l1.75-5.39,1.19-3.66,2.24-6.87,1.05-3.21,2.24-6.87c.51,1.01,2.26,4.25,5.86,6.87.35.25.71.5,1.09.74.92.57,1.93,1.1,3.05,1.54,1.1.43,2.18.73,3.22.93,2.64.51,5.07.37,7.05,0,2.67-.49,4.53-1.39,5.05-1.64.94-.47,1.8-1,2.59-1.57h.2l.06-.2c2.69-2.02,4.44-4.51,5.55-6.67h.19l.42-1.28s0,0,0,0c.81-1.86,1.13-3.3,1.21-3.7,0,0,0,0,0,0l1.96-6,19.03-58.39c-.94-.3-2.05-.59-3.31-.81-2.36-.41-5.21-.55-8.3.13-12.57,2.75-17.98,16.51-19.53,21.08-.02.07-.04.13-.06.19,0,.01,0,.03-.01.04-.03.07-.05.14-.07.21-.01.03-.02.07-.03.1-.02.06-.04.13-.06.18-.01.03-.02.06-.03.08-.02.05-.03.11-.05.16,0,.03-.02.05-.02.07-.03.08-.05.16-.08.24-1.37,4.3-4.31,13.93.74,23.28,2.83,5.24,6.99,8.23,9.43,9.69-.92,1.08-2.34,2.49-4.4,3.59-.11.06-.21.11-.32.17-4.9,2.48-10.59,1.86-15.09,0-.71-.29-1.39-.62-2.03-.96-.34-.19-.68-.38-1-.58-2.85-1.76-4.81-3.98-6.23-6.16-1.39-2.14-2.26-4.24-2.92-5.84-1.1-2.67-3.73-9.32-1.6-17.48l-10.11,31.02h-24.79l13.56-41.6c.53-1.26.93-2.49,1.19-3.66.91-4.01.31-7.39-1.71-9.02-1.64-1.33-3.8-1.16-4.5-1.11-8.83.7-14.24,15.68-14.85,17.46,0,.01,0,.03-.01.04l-12.35,37.89h-24.79l3.14-9.65c-2.1,1.61-5.24,3.79-9.33,5.89-2.95,1.51-5.62,2.88-8.65,3.77-.99.29-2.01.53-3.1.7-.39.06-.8.12-1.21.16-3.14.35-7.57.84-11.37-.86-.99-.45-1.94-1.04-2.82-1.83-4.01-3.62-5.08-10.08-3.22-16.42l12.24-37.56h0c3.23-9.91.33-13.04.33-13.04h28.72l-14.47,44.41c-.19.53-.35,1.05-.5,1.55-.57,1.87-.89,3.47-1.09,4.71-.27,1.68-.31,2.73.11,3.87.04.1.61,1.62,1.65,2.39,2.62,1.94,8.07-1.05,10.58-2.89,4.14-3.04,6.12-7.19,7.07-9.93,0-.03.02-.05.03-.07.02-.06.04-.12.06-.18.06-.17.11-.34.16-.5,0-.02.01-.04.02-.05l9.86-30.25c3.23-9.92.32-13.04.32-13.04h28.72l-2.82,8.64h0c-.05.12-.08.22-.1.32,0,0,0,0,0,.01-.12.55.07,1.08.45,1.33.37.24.79.14.91.11,2.6-3.38,7.31-8.22,14.22-10.42,1.02-.33,2.08-.59,3.2-.79.83-.15,1.95-.34,3.24-.46,2.52-.23,5.7-.14,8.76,1.25.73.33,1.45.73,2.15,1.22,5.76,4.02,8.22,12.38,6.18,21.16,0,0,0,0,0,0,0,0,0,0,0,0,0,0,0,0,0,0,2.8-3.99,8.35-10.87,17.46-16.36,1.49-.89,3.06-1.75,4.74-2.55,1.22-.58,3.41-1.61,6.38-2.62.86-.29,1.78-.59,2.76-.87,5.01-1.44,11.59-2.59,19.09-2.01,1.13.09,2.28.21,3.45.39,1.18.17,2.38.39,3.6.66,1.3.29,2.54.61,3.74.97,6.51,1.94,11.46,4.82,14.65,6.99Z"/>
    <path class="cls-2" d="M485.63,371.46c-.33-.28-.67-.54-1.02-.79-.73-.51-1.47-.92-2.22-1.26-3.15-1.43-6.43-1.52-9.02-1.28-.01,0-.03,0-.04,0-1.31.12-2.44.32-3.29.47-1.15.2-2.24.48-3.29.81-1.71.55-3.29,1.25-4.74,2.05-4.58,2.53-7.87,6.04-9.9,8.68-.12.03-.56.13-.93-.12-.13-.08-.24-.2-.32-.34-.17-.28-.23-.65-.14-1.03,0,0,0,0,0-.01.02-.11.06-.21.1-.32,0,0,0,0,0-.01l2.25-6.85,15.26-46.5h-29.58s2.39,2.58.52,10.43c-.18.76-.4,1.56-.67,2.42-.06.19-.12.39-.19.59l-3.79,11.57s-.05-.08-.07-.12c-2.91-4.88-11.41-17.59-27.33-22.98-2.7-.92-5.38-1.54-8.01-1.91h-13.04c-14.95,2.04-26.79,10.38-31.09,13.41-15.49,10.92-22.7,25.41-25.79,33.07,0,0,0,0,0,.01l-4.43,13.58c-3.49,17.29.93,34.41,12.2,45.23,5.62,5.4,12.07,8.4,17.95,10.05,7.96,2.23,14.88,1.99,17.31,1.84,3.72-.23,7.2-.88,10.43-1.84,13.81-4.08,23.24-13.68,28.73-19.66,0,0,0,0,0,0l-3.17,9.73-3.24,9.94h25.53l12.72-39.02s0-.03.01-.04c.21-.6.95-2.69,2.19-5.24,0,0,0,0,0,0,2.5-5.17,7.01-12.26,13.11-12.74.73-.05,2.94-.23,4.64,1.14,2.01,1.62,2.65,4.93,1.85,8.88h0c-.03.14-.06.27-.09.41-.28,1.21-.68,2.48-1.23,3.77l-13.96,42.84h25.53l10.41-31.94,5.18-15.89s0,0,0,0c0,0,0,0,0,0,0,0,0,0,0,0,.03-.14.06-.28.09-.41,0,0,0,0,0-.01,1.81-8.35-.32-16.28-5.43-20.58ZM427.59,371.46l-10.45,31.92s-.03.06-.05.09c0,0,0,0,0,0-.39.69-.78,1.36-1.17,2.04-14.99,17.02-36.27,21.41-48.37,13.54-16.01-10.41-9.95-38.35-8.11-46.84.05-.25.11-.5.17-.75,3.13-13.68,12.18-34.61,26.51-36.64,1.38-.19,4.85-.64,8.27,1.14,8.07,4.19,11.03,18.25,7.31,35.5l-.45,2.17,3.44-2.17,27.44-14.13.11-.06-4.64,14.19ZM434.51,356.1l.32-.99c0,.27,0,.54.01.82l-.34.17Z"/>
    <polygon class="cls-2" points="555.46 244.68 559.75 257.87 548.53 249.72 537.31 257.87 541.59 244.68 530.37 236.52 544.24 236.52 548.53 223.34 552.81 236.52 566.68 236.52 555.46 244.68"/>
    <polygon class="cls-2" points="566.07 202.94 569.44 213.29 560.62 206.89 551.81 213.29 555.18 202.94 546.37 196.53 557.26 196.53 560.62 186.18 563.99 196.53 574.88 196.53 566.07 202.94"/>
    <polygon class="cls-2" points="597.06 244.68 601.35 257.87 590.13 249.72 578.91 257.87 583.19 244.68 571.97 236.52 585.84 236.52 590.13 223.34 594.41 236.52 608.28 236.52 597.06 244.68"/>
    <polygon class="cls-2" points="607.69 202.94 611.06 213.29 602.25 206.89 593.43 213.29 596.8 202.94 587.99 196.53 598.88 196.53 602.25 186.18 605.61 196.53 616.5 196.53 607.69 202.94"/>
    <polygon class="cls-2" points="645.76 458.19 644.66 461.4 663.33 461.4 660.96 468.26 642.3 468.26 641.04 471.93 661.97 471.93 659.61 478.8 628.57 478.8 630.93 471.93 632.19 468.26 634.55 461.4 635.65 458.19 638.01 451.32 669.05 451.32 666.69 458.19 645.76 458.19"/>
    <path class="cls-2" d="M622.98,457.41c-1.94-3.68-5.78-6.01-9.99-6.09h-21.41l-2.36,6.87-1.1,3.21-2.36,6.87-1.26,3.66-2.36,6.87h20.65c3.54,0,7.07-.72,10.28-2.22,1.15-.53,2.33-1.19,3.51-2.01,3.09-2.14,5.08-4.58,6.26-6.31.22-.39,2.93-5.55.13-10.86ZM613.63,464.2c-.45,3.75-3.96,5.84-4.61,6.23-2.06,1.23-4.11,1.47-5.38,1.5h-8.8l1.26-3.66,2.36-6.87,1.1-3.21h8.12c.21,0,3.81-.1,5.38,2.49.84,1.39.66,2.84.58,3.51Z"/>
    <polygon class="cls-2" points="578.7 451.32 576.33 458.19 575.23 461.4 572.87 468.26 571.61 471.93 569.25 478.8 559.14 478.8 561.5 471.93 562.76 468.26 565.12 461.4 566.22 458.19 568.58 451.32 578.7 451.32"/>
    <path class="cls-2" d="M711.91,454.87c-2.02-3.46-6.72-3.55-7.06-3.55h-23.91l-2.36,6.87-1.1,3.21-2.36,6.87-1.26,3.66-2.36,6.87h10.11l2.36-6.87.74-2.17h8.28c1.42,0,2.72.86,3.24,2.19,0,0,0,.02.01.03,1.08,2.8.84,5.38.58,6.82h10.03c.24-2.2.25-5.45-1-9.03-.37-1.05-.8-1.99-1.24-2.82,1.46-.47,4.07-1.57,6.1-4.1.84-1.05,2.02-2.51,2.07-4.66,0-.24.02-1.78-.88-3.32ZM702.08,460.68c-.1,1.07-.88,2.03-1.98,2.46-.41.16-.85.23-1.28.23h-11.9l.68-1.97,1.1-3.21h11.08c1.28,0,2.36,1.04,2.32,2.31,0,.06,0,.11-.01.17Z"/>
    <path class="cls-2" d="M554.71,454.12l-3.04,4.07-2.4,3.21c-2.5-2.59-6.8-2.94-8.79-3.11-.31-.03-.92-.08-1.73-.1h-1.71c-3.03.09-7.28.7-10.06,3.21-.59.53-1.11,1.13-1.55,1.84-.25.41-1.76,2.87-1.05,5.03.04.11.08.22.13.33,1.11,2.48,4.96,3.14,7.01,3.33h3.33c.1,0,.2-.01.31-.02,3.04-.22,6.08-.44,9.36-1.61,1.11-.4,2.31-.83,3.37-1.36l.22,3,.33,4.46c-2.34,1.19-4.76,1.94-6.87,2.41-2.33.52-4.28.71-5.31.81-3.48.33-8.16.21-12.34-.81-4.36-1.05-8.18-3.07-9.53-6.52-.05-.12-.08-.23-.12-.35-.42-1.25-.49-2.54-.43-3.66.07-1.27.32-2.32.44-2.8.38-1.58,1.01-2.92,1.75-4.06.83-1.29,1.8-2.33,2.73-3.21.48-.45.94-.86,1.37-1.23,1.3-1.12,5.23-4.26,12.01-5.64,4.27-.87,10.66-1.23,16.07,0,2.47.56,4.73,1.46,6.49,2.8Z"/>
  </g>
</svg>