<?xml version="1.0" encoding="UTF-8"?>
<svg id="Layer_1" data-name="Layer 1" xmlns="http://www.w3.org/2000/svg" viewBox="0 0 100 100">
  <defs>
    <style>
      .cls-1 {
        fill: #111;
      }
    </style>
  </defs>
  <polygon class="cls-1" points="31.79 44.13 50.51 44.13 32.58 51.64 33.36 59.16 58.63 59.16 58.44 62.74 58.04 69.2 49.66 70.59 42.03 69.2 41.63 62.74 33.74 62.74 34.56 70.59 34.9 73.85 50 78.04 65.1 73.85 65.43 70.59 66.25 62.74 66.62 59.16 67.42 51.64 50.25 51.64 68.19 44.13 68.19 36.38 30.99 36.38 31.79 44.13"/>
  <path class="cls-1" d="M0,0v100h100V0H0ZM58.37,16.36h2.76l-2.76-3.28v-4h8.85v4h-2.76l2.76,3.28v4h-8.85v-4ZM45.7,16.36h2.76l-2.76-3.28v-4h8.85v4h-2.76l2.76,3.28v4h-8.85v-4ZM32.82,16.36v-7.28h8.9v4h-5.09v3.28h5.09v4h-8.9v-4ZM74.15,84.19l-24.15,6.72-24.15-6.72-5.54-58.92h59.37l-5.54,58.92Z"/>
</svg>