<?xml version="1.0" encoding="UTF-8"?>
<svg id="Layer_1" data-name="Layer 1" xmlns="http://www.w3.org/2000/svg" viewBox="0 0 100 100">
  <path d="M30.71,70.67c0,4.96,3.99,8.96,8.96,8.96s8.96-3.99,8.96-8.96v-8.96h-8.96c-4.96,0-8.96,3.99-8.96,8.96Z"/>
  <path d="M30.71,29.33c0,4.96,3.99,8.96,8.96,8.96h8.96v-17.91h-8.96c-4.96,0-8.96,3.99-8.96,8.96Z"/>
  <path d="M55.99,41.04h-4.61v4.61c1.04-1.98,2.63-3.57,4.61-4.61Z"/>
  <path d="M30.71,50c0,4.96,3.99,8.96,8.96,8.96h8.96v-17.91h-8.96c-4.96,0-8.96,3.99-8.96,8.96Z"/>
  <path d="M60.34,20.37h-8.96v17.91h8.96c4.96,0,8.96-3.99,8.96-8.96s-3.99-8.96-8.96-8.96Z"/>
  <path d="M52.76,50.69c0,4.58,3.69,8.27,8.27,8.27s8.27-3.69,8.27-8.27-3.69-8.27-8.27-8.27-8.27,3.69-8.27,8.27Z"/>
  <path d="M0,0v100h100V0H0ZM72.05,50.69c0,6.07-4.95,11.02-11.02,11.02-4.23,0-7.8-2.48-9.65-5.99v14.94c0,6.45-5.26,11.71-11.71,11.71s-11.71-5.26-11.71-11.71c0-4.55,2.69-8.4,6.49-10.34-3.8-1.94-6.49-5.79-6.49-10.34s2.69-8.4,6.49-10.34c-3.8-1.94-6.49-5.79-6.49-10.34,0-6.45,5.26-11.71,11.71-11.71h20.67c6.45,0,11.71,5.26,11.71,11.71,0,5.13-3.37,9.37-7.97,10.95,4.56,1.35,7.97,5.41,7.97,10.41Z"/>
</svg>