<?xml version="1.0" encoding="UTF-8"?>
<svg id="Layer_1" data-name="Layer 1" xmlns="http://www.w3.org/2000/svg" viewBox="0 0 100 100">
  <defs>
    <style>
      .cls-1 {
        fill: #111;
      }
    </style>
  </defs>
  <path class="cls-1" d="M0,0v100h100V0H0ZM64.62,9.08h3.5v7.16h5.55v3.91h-9.05v-11.08ZM50.66,9.08h3.5v3.91h4.97v-3.91h3.5v11.08h-3.5v-3.91h-4.97v3.91h-3.5v-11.08ZM38.69,9.08h10.25v3.91h-3.5v7.16h-3.25v-7.16h-3.5v-3.91ZM26.47,9.08h3.53v3.91h3.8v-3.91h3.53v11.08h-3.53v-3.91h-3.8v3.91h-3.53v-11.08ZM73,84.6l-23.22,6.31-22.78-6.31-6-59.33h58.01l-6,59.33Z"/>
  <polygon class="cls-1" points="32.64 51.81 33.36 59.09 58.6 59.09 57.46 68.46 49.78 70.61 42.19 68.46 41.38 62.7 33.72 62.7 35.25 74.4 49.78 78.89 64.29 74.4 66.18 59.09 66.93 51.81 40.3 51.81 39.58 44.46 67.65 44.46 68.4 37.15 31.17 37.15 31.92 44.46 32.64 51.81"/>
</svg>