<?xml version="1.0" encoding="UTF-8"?>
<svg id="Layer_1" data-name="Layer 1" xmlns="http://www.w3.org/2000/svg" viewBox="0 0 100 100">
  <defs>
    <style>
      .cls-1 {
        fill: #111;
      }
    </style>
  </defs>
  <path class="cls-1" d="M57.8,45.95h-3.06c-3.18,0-5.76,2.34-5.76,5.58v9.78c0,3.24,2.58,5.58,5.76,5.58h8.7v-15.36c0-3.24-2.46-5.58-5.64-5.58Z"/>
  <path class="cls-1" d="M0,0v100h100V0H0ZM37.58,75.53h-9.48V24.47h9.48v51.06ZM71.9,75.53h-17.16c-8.7,0-14.04-5.52-14.04-13.98v-10.26c0-8.46,5.34-13.92,14.04-13.92h3.06c2.04,0,3.96.3,5.64.9v-13.8h8.46v51.06Z"/>
</svg>