<?xml version="1.0" encoding="UTF-8"?>
<svg id="Layer_1" data-name="Layer 1" xmlns="http://www.w3.org/2000/svg" viewBox="0 0 100 100">
  <defs>
    <style>
      .cls-1 {
        fill: #111;
      }
    </style>
  </defs>
  <path class="cls-1" d="M0,0v100h100V0H0ZM57.36,81.34c0,6.71-5.53,12.19-12.19,12.19h-3.01c-6.32,0-11.01-4.84-11.55-11.01h7.6c.49,2.12,1.68,3.7,4,3.7h2.62c2.86,0,4.89-2.42,4.89-5.33v-29.37h7.65v29.82ZM82.23,93.54h-19.15v-7.8h16.93c3.36,0,6.12-1.58,6.12-4.99,0-3.21-2.42-5.08-5.53-5.08h-4.99c-8.39,0-13.87-3.55-13.87-12.29,0-6.22,4.34-11.85,10.96-11.85h17.38v8.2h-14.17c-3.21,0-5.78.54-5.78,4.05,0,2.07,1.48,3.7,3.9,3.7h7.55c7.01,0,12.19,5.58,12.19,13.28,0,7.26-4.69,12.79-11.55,12.79Z"/>
</svg>