<?xml version="1.0" encoding="UTF-8"?>
<svg id="Layer_1" data-name="Layer 1" xmlns="http://www.w3.org/2000/svg" viewBox="0 0 100 100">
  <defs>
    <style>
      .cls-1 {
        fill: #111;
      }
    </style>
  </defs>
  <path class="cls-1" d="M36.32,33.41h-11.4v12.06h11.4c4.26,0,6.18-2.28,6.18-6s-1.98-6.06-6.18-6.06Z"/>
  <path class="cls-1" d="M0,0v100h100V0H0ZM51.68,40.55c0,7.62-6.12,13.86-13.86,13.86h-12.9v21.12h-9V24.47h21.9c7.74,0,13.86,6.24,13.86,13.86v2.22ZM84.08,64.49c0,6.6-4.56,11.04-10.56,11.04h-18.12v-7.44h15.6c2.27,0,4.6-1.25,4.74-3.87-.02-2.79-2.41-3.98-4.74-3.98h-6.72c-8.94,0-10.98-6.06-10.98-11.76,0-6.12,3.66-11.52,10.38-11.52h16.74v7.8h-14.88c-2.52,0-3.6,2.16-3.6,4.02s1.38,3.72,3.24,3.72h8.34c7.02,0,10.56,5.16,10.56,11.76v.24Z"/>
</svg>