<svg id="Layer_1" data-name="Layer 1" xmlns="http://www.w3.org/2000/svg" viewBox="0 0 2440.07 2440.07"><defs><style>.cls-1{fill:#fff402;}.cls-1,.cls-10,.cls-11,.cls-12,.cls-13,.cls-2,.cls-3,.cls-4,.cls-5,.cls-6,.cls-7,.cls-8,.cls-9{stroke:#000;}.cls-1,.cls-10,.cls-11,.cls-12,.cls-14,.cls-2,.cls-3,.cls-4,.cls-5,.cls-6,.cls-7,.cls-8,.cls-9{stroke-miterlimit:10;}.cls-1,.cls-10,.cls-11,.cls-12,.cls-13,.cls-14,.cls-2,.cls-3,.cls-4,.cls-5,.cls-6,.cls-7,.cls-8,.cls-9{stroke-width:20px;}.cls-2{fill:#ff9230;}.cls-3{fill:#ffc828;}.cls-4{fill:#fe572d;}.cls-5{fill:#00afab;}.cls-6{fill:#00aa5b;}.cls-7{fill:#98d147;}.cls-8{fill:#01b2f1;}.cls-9{fill:#ff4e9b;}.cls-10{fill:#bf479a;}.cls-11{fill:#0080c8;}.cls-12{fill:#50419b;}.cls-13{fill:#fff;stroke-linecap:round;stroke-linejoin:round;}.cls-14{fill:#fe71ad;stroke:#3656a5;}.cls-15{fill:#5dbf6a;}.cls-16{fill:#fba6ce;}.cls-17{fill:#ffff1c;}.cls-18{fill:#df2717;}</style></defs><title>Artboard 11</title><circle cx="1220.03" cy="1220.03" r="1220.03"/><path class="cls-1" d="M1220,1220h0l186.26,695.11c32.24,120.33,169.71,178.93,277.84,117.07,2-1.13,3.94-2.26,5.91-3.41,108.2-63,127.34-211.42,38.82-299.94Z"/><path class="cls-2" d="M1220,1220l694.84,186.18c120.63,32.33,239.89-58,240.33-182.85q0-3.33,0-6.66c-.44-124.88-119.7-215.17-240.33-182.85L1220,1220Z"/><path class="cls-3" d="M2028.8,1690c1.15-2,2.28-3.94,3.41-5.91,61.86-108.13,3.26-245.6-117.06-277.84L1220,1220l508.83,508.83C1817.38,1817.38,1965.84,1798.24,2028.8,1690Z"/><path class="cls-4" d="M2032.21,755.94c-1.13-2-2.26-3.94-3.41-5.91-63-108.2-211.42-127.34-299.94-38.82L1220,1220l695.11-186.25C2035.47,1001.54,2094.07,864.06,2032.21,755.94Z"/><path class="cls-5" d="M1220,1220,524.92,1406.29C404.6,1438.53,346,1576,407.85,1684.13q1.69,3,3.42,5.91c63,108.2,211.42,127.34,299.94,38.82L1220,1220Z"/><path class="cls-6" d="M1220,1220,711.21,1728.86c-88.52,88.52-69.38,237,38.82,299.94,2,1.15,3.94,2.28,5.91,3.41,108.12,61.86,245.6,3.26,277.84-117.07L1220,1220Z"/><path class="cls-7" d="M1216.7,2155.2q3.33,0,6.66,0c124.89-.44,215.18-119.7,182.85-240.33L1220,1220l-186.18,694.84C1001.53,2035.5,1091.82,2154.76,1216.7,2155.2Z"/><path class="cls-8" d="M284.86,1216.7v6.66c.45,124.89,119.71,215.18,240.34,182.85L1220,1220,525.2,1033.85C404.57,1001.53,285.31,1091.82,284.86,1216.7Z"/><path class="cls-9" d="M1690,411.27q-3-1.72-5.91-3.41C1576,346,1438.53,404.6,1406.29,524.92L1220,1220l508.83-508.82C1817.38,622.69,1798.24,474.23,1690,411.27Z"/><path class="cls-10" d="M1220,1220,1406.21,525.2c32.33-120.63-58-239.89-182.85-240.34h-6.65c-124.89.45-215.18,119.71-182.86,240.34L1220,1220Z"/><path class="cls-11" d="M1220,1220h0L711.21,711.21c-88.52-88.52-237-69.39-299.94,38.82-1.15,2-2.29,3.94-3.41,5.91-61.86,108.12-3.26,245.6,117.06,277.84L1220,1220Z"/><path class="cls-12" d="M755.94,407.85c-2,1.13-4,2.27-5.91,3.42-108.2,63-127.34,211.42-38.82,299.94L1220,1220,1033.78,524.92C1001.54,404.6,864.06,346,755.94,407.85Z"/><path class="cls-10" d="M1406.21,525.2c32.33-120.63-58-239.89-182.85-240.34h-6.65c-124.89.45-215.18,119.71-182.86,240.34l101.84,476.94c16,59.73,152.69,59.73,168.69,0Z"/><path class="cls-13" d="M1526.46,687.55c-103.69,0-171,44.79-186.35,155.12-13.19,95-73.72,139.49-120.08,139.49S1113.15,937.64,1100,842.67c-15.33-110.33-82.66-155.12-186.35-155.12C706.36,687.55,682,982.46,677.92,1220c0,499.82,542.11,481.39,542.11,481.39s542.12,18.43,542.12-481.39C1758.09,982.46,1733.71,687.55,1526.46,687.55Z"/><path class="cls-14" d="M1220,1220c-243.44,0-261.72,37.44-261.72,37.44s17.87,113.24,111.54,193.48c86.32,73.94,214.05,73.94,300.37,0,93.66-80.24,111.54-193.48,111.54-193.48S1463.47,1220,1220,1220Z"/><ellipse class="cls-15" cx="1373.2" cy="1098.85" rx="40.34" ry="61.47" transform="translate(-210.43 333.82) rotate(-12.88)"/><ellipse class="cls-16" cx="1364.71" cy="1072.51" rx="15.34" ry="23.38" transform="translate(-204.77 331.27) rotate(-12.88)"/><ellipse class="cls-17" cx="1395.83" cy="1131.8" rx="14.37" ry="9.43" transform="translate(111.27 2388.47) rotate(-83.41)"/><ellipse class="cls-18" cx="1066.86" cy="1098.85" rx="61.47" ry="40.34" transform="translate(-242.19 1893.86) rotate(-77.12)"/><ellipse class="cls-16" cx="1075.35" cy="1072.51" rx="23.38" ry="15.34" transform="translate(-209.92 1881.67) rotate(-77.12)"/><ellipse class="cls-17" cx="1044.24" cy="1131.8" rx="9.43" ry="14.37" transform="translate(-123.03 127.36) rotate(-6.59)"/></svg>