<?xml version="1.0" encoding="UTF-8"?>
<svg id="Layer_1" data-name="Layer 1" xmlns="http://www.w3.org/2000/svg" viewBox="0 0 380 142.05">
  <defs>
    <style>
      .cls-1 {
        isolation: isolate;
      }

      .cls-2 {
        fill: none;
        stroke: #000;
        stroke-miterlimit: 10;
      }

      .cls-3 {
        fill: #003fd1;
      }
    </style>
  </defs>
  <rect class="cls-3" x="0" y="0" width="380" height="142.05" rx="32.17" ry="32.17"/>
  <rect class="cls-2" x="9.04" y="9.03" width="361.94" height="123.99" rx="24.22" ry="24.22"/>
  <g class="cls-1">
    <g class="cls-1">
      <path d="M163.09,38.41h3.29v6.57h6.88v-6.57h3.31v15.87h-3.31v-6.57h-6.88v6.57h-3.29v-15.87h0Z"/>
      <path d="M186.38,54.51c-4.23,0-7.44-3-7.44-8.16s3.2-8.16,7.44-8.16,7.41,2.98,7.41,8.16-3.22,8.16-7.41,8.16ZM186.38,41.11c-2.45,0-4.07,1.84-4.07,5.24s1.62,5.24,4.07,5.24,4.06-1.84,4.06-5.24-1.6-5.24-4.06-5.24Z"/>
      <path d="M200.23,38.41l4.4,10.76h.17l4.4-10.76h4.07v15.87h-3.2v-10.39h-.13l-4.14,10.33h-2.19l-4.14-10.37h-.13v10.44h-3.2v-15.87h4.09,0Z"/>
      <path d="M215.98,38.41h10.66v2.72h-7.37v3.86h6.82v2.72h-6.82v3.86h7.39v2.72h-10.68v-15.89h0Z"/>
      <path d="M237.66,54.29h-3.29v-15.87h3.29v15.87Z"/>
      <path d="M246.21,40.95c-1.67,0-2.59.77-2.61,1.82-.02,1.14,1.19,1.67,2.54,1.97l1.43.35c2.72.62,4.76,2,4.76,4.64,0,2.92-2.28,4.76-6.14,4.76s-6.3-1.78-6.38-5.18h3.2c.11,1.6,1.38,2.41,3.14,2.41s2.85-.81,2.85-2c0-1.07-.99-1.58-2.72-2.02l-1.73-.42c-2.68-.66-4.32-2-4.32-4.32,0-2.9,2.54-4.8,6-4.8s5.83,1.95,5.88,4.76h-3.16c-.13-1.24-1.14-2-2.74-2h0Z"/>
    </g>
    <g class="cls-1">
      <path d="M167.17,62.36l4.4,10.76h.17l4.4-10.76h4.07v15.87h-3.2v-10.39h-.13l-4.14,10.32h-2.19l-4.14-10.37h-.13v10.44h-3.2v-15.87h4.09,0Z"/>
      <path d="M185.65,62.36l3.66,6.84h.15l3.64-6.84h3.71l-5.79,10.22v5.66h-3.29v-5.66l-5.79-10.22h3.72Z"/>
    </g>
    <g class="cls-1">
      <path d="M202.71,62.36h3.59l2.68,11.09h.13l2.92-11.09h3.09l2.92,11.11h.13l2.68-11.11h3.59l-4.54,15.87h-3.22l-3.02-10.48h-.13l-3.05,10.48h-3.22l-4.54-15.87h0Z"/>
    </g>
    <g class="cls-1">
      <path d="M232.37,78.46c-4.23,0-7.44-3-7.44-8.16s3.2-8.16,7.44-8.16,7.41,2.98,7.41,8.16-3.22,8.16-7.41,8.16ZM232.37,65.06c-2.45,0-4.07,1.84-4.07,5.24s1.62,5.24,4.07,5.24,4.06-1.84,4.06-5.24-1.6-5.24-4.06-5.24Z"/>
      <path d="M242.14,62.36h6.23c3.62,0,5.68,2.04,5.68,5.18,0,2.17-1,3.75-2.81,4.52l3.38,6.18h-3.64l-3.02-5.64h-2.52v5.64h-3.29v-15.87h0ZM247.75,69.93c1.95,0,2.9-.81,2.9-2.39s-.94-2.48-2.9-2.48h-2.33v4.86h2.33Z"/>
      <path d="M256.33,62.36h3.29v13.16h6.84v2.72h-10.13v-15.87h0Z"/>
    </g>
    <g class="cls-1">
      <path d="M268.6,78.24v-15.87h5.66c4.78,0,7.69,2.98,7.69,7.91s-2.92,7.96-7.76,7.96h-5.59ZM274.05,75.41c3.02,0,4.61-1.58,4.61-5.13s-1.58-5.09-4.59-5.09h-2.19v10.22h2.17Z"/>
    </g>
    <g class="cls-1">
      <path d="M284.91,82.86h-2.33l1.1-6.25h3.11l-1.88,6.25h0Z"/>
    </g>
    <g class="cls-1">
      <path d="M166.38,102.18h-3.29v-15.87h3.29v15.87h0Z"/>
      <path d="M171.09,92.32h-2.35v-6h2.35v6Z"/>
      <path d="M177.56,86.31l4.4,10.76h.17l4.4-10.76h4.07v15.87h-3.2v-10.39h-.13l-4.14,10.33h-2.19l-4.14-10.37h-.13v10.44h-3.2v-15.87h4.09,0Z"/>
      <path d="M197.58,102.18l5.5-15.87h4.23l5.48,15.87h-3.53l-1.19-3.66h-5.75l-1.21,3.66h-3.55.01ZM207.25,95.96l-2-6.07h-.11l-1.97,6.07h4.07Z"/>
      <path d="M219.77,86.31h3.29v6.57h6.88v-6.57h3.31v15.87h-3.31v-6.57h-6.88v6.57h-3.29v-15.87h0Z"/>
      <path d="M243.06,102.4c-4.23,0-7.44-3-7.44-8.16s3.2-8.16,7.44-8.16,7.41,2.98,7.41,8.16-3.22,8.16-7.41,8.16h0ZM243.06,89.01c-2.45,0-4.07,1.84-4.07,5.24s1.62,5.24,4.07,5.24,4.06-1.84,4.06-5.24-1.6-5.24-4.06-5.24Z"/>
      <path d="M256.91,86.31l4.4,10.76h.17l4.4-10.76h4.07v15.87h-3.2v-10.39h-.13l-4.14,10.33h-2.19l-4.14-10.37h-.13v10.44h-3.2v-15.87h4.09Z"/>
      <path d="M272.66,86.31h10.66v2.72h-7.37v3.86h6.82v2.72h-6.82v3.86h7.39v2.72h-10.68v-15.89h0Z"/>
      <path d="M285.88,86.31h6.31c3.5,0,5.26,1.69,5.26,4.07,0,1.86-1.21,3.02-2.85,3.4v.15c1.8.09,3.49,1.51,3.49,3.86,0,2.52-1.88,4.39-5.48,4.39h-6.73v-15.87h0ZM294.12,90.92c0-1.14-.83-1.93-2.35-1.93h-2.61v3.97h2.54c1.38,0,2.41-.77,2.41-2.04h0ZM294.67,97.49c0-1.34-1.01-2.28-2.63-2.28h-2.87v4.26h2.78c1.91,0,2.72-.79,2.72-1.97h0Z"/>
      <path d="M307.29,102.4c-4.23,0-7.44-3-7.44-8.16s3.2-8.16,7.44-8.16,7.41,2.98,7.41,8.16-3.22,8.16-7.41,8.16h0ZM307.29,89.01c-2.45,0-4.07,1.84-4.07,5.24s1.62,5.24,4.07,5.24,4.06-1.84,4.06-5.24-1.6-5.24-4.06-5.24Z"/>
    </g>
    <g class="cls-1">
      <path d="M317.08,102.18v-15.87h5.66c4.78,0,7.69,2.98,7.69,7.91s-2.92,7.96-7.76,7.96h-5.59ZM322.54,99.35c3.02,0,4.61-1.58,4.61-5.13s-1.58-5.09-4.59-5.09h-2.19v10.22h2.17Z"/>
    </g>
    <g class="cls-1">
      <path d="M334.6,86.31l3.66,6.84h.15l3.64-6.84h3.71l-5.79,10.22v5.66h-3.29v-5.66l-5.79-10.22h3.72Z"/>
    </g>
  </g>
  <polygon points="136.97 117.5 88.92 117.5 40.87 117.5 40.87 98.14 40.87 50.09 88.92 24.55 136.97 50.09 136.97 98.14 136.97 117.5"/>
</svg>