<?xml version="1.0" encoding="UTF-8"?>
<svg id="Layer_1" data-name="Layer 1" xmlns="http://www.w3.org/2000/svg" viewBox="0 0 340.16 340.16">
  <defs>
    <style>
      .cls-1 {
        fill: #0f58ec;
      }
    </style>
  </defs>
  <circle class="cls-1" cx="170.07" cy="170.07" r="170.08"/>
  <circle cx="170.07" cy="170.07" r="164.98"/>
  <path class="cls-1" d="M41.27,132.74l-.37,1.46-11.28,4.26v.12l9.6,2.4-.39,1.53-12.32-3.09.37-1.48,11.29-4.26v-.12l-9.62-2.42.38-1.51,12.33,3.09Z"/>
  <path class="cls-1" d="M42.62,128.77l-.5,1.54-12.11-3.85.48-1.51,12.14,3.82Z"/>
  <path class="cls-1" d="M36.05,115.52c-.69.43-1.21,1.07-1.49,1.83-.28.67-.35,1.41-.21,2.13.16.75.53,1.44,1.07,1.99.67.67,1.48,1.18,2.38,1.51.87.38,1.81.55,2.76.51,2.22-.13,3.91-2.03,3.78-4.25,0-.06,0-.12-.01-.17-.06-.61-.3-1.19-.69-1.66-.45-.53-1.04-.93-1.69-1.17l-1.23,3.09-1.28-.52,1.8-4.52,1.27.5c.89.34,1.68.9,2.29,1.63.56.68.9,1.51,1,2.39.18,2-.67,3.95-2.24,5.19-.83.61-1.82.96-2.84,1.01-2.4.06-4.72-.86-6.43-2.55-1.46-1.5-1.88-3.72-1.06-5.65.3-.79.77-1.49,1.38-2.07,1.17-1.11,2.81-1.58,4.4-1.26l-.6,1.51c-.81-.07-1.63.12-2.33.54Z"/>
  <path class="cls-1" d="M36.55,109.07l.69-1.42,5.06,2.51,3-6.02-5.06-2.51.69-1.43,11.38,5.65-.69,1.43-5.06-2.53-3,6.02,5.08,2.53-.69,1.42-11.4-5.65Z"/>
  <path class="cls-1" d="M42.36,97.68l4.99-8.18,1.2.72-2.07,3.4,9.67,5.88-.83,1.38-9.67-5.88-2.07,3.45-1.22-.78Z"/>
  <path class="cls-1" d="M58.67,78.45c-.53.02-1.05.17-1.51.42-.47.26-.89.61-1.22,1.04-.47.57-.76,1.27-.84,2-.06.77.09,1.54.46,2.22.45.83,1.07,1.55,1.82,2.11.73.6,1.57,1.03,2.49,1.27.74.19,1.53.16,2.26-.08.7-.25,1.31-.69,1.76-1.28.33-.42.58-.9.73-1.41.28-1.06.02-2.19-.69-3.02l.98-1.24c.56.6.97,1.33,1.19,2.12.19.76.19,1.55,0,2.31-.19.8-.55,1.54-1.07,2.17-.61.81-1.43,1.44-2.38,1.8-.97.34-2.02.39-3.02.16-2.34-.61-4.31-2.17-5.45-4.3-.46-.92-.66-1.95-.55-2.98.11-1.01.52-1.97,1.17-2.76.49-.65,1.13-1.18,1.85-1.55.7-.36,1.47-.54,2.26-.53.82.02,1.62.24,2.34.64l-.97,1.24c-.49-.25-1.03-.37-1.58-.35Z"/>
  <path class="cls-1" d="M68.62,82.31l-6.08-12.07,1.14-1.22,12.43,5.32-1.14,1.22-3.45-1.53-3.5,3.72,1.74,3.38-1.14,1.18ZM70.16,73.41l-5.52-2.42-.08.08,2.76,5.36,2.84-3.02Z"/>
  <path class="cls-1" d="M67.03,65.49l7.04-6.5.95,1.03-2.93,2.7,7.66,8.29-1.17,1.08-7.66-8.29-2.94,2.71-.95-1.03Z"/>
  <path class="cls-1" d="M81.64,52.91l9.53,6.06.13-.09-2.55-11.05,1.55-1.07,7.35,10.36-1.22.86-5.52-7.84-.1.08,2.33,10.11-1.15.81-8.78-5.56-.08.06,5.52,7.84-1.22.86-7.35-10.36,1.56-1.08Z"/>
  <path class="cls-1" d="M107.08,48.43c.08,1.03-.14,2.05-.62,2.96-.5.9-1.24,1.63-2.14,2.12-.88.52-1.9.78-2.92.73-1.03-.05-2.02-.4-2.85-1.01-.97-.69-1.76-1.6-2.33-2.65-.61-1.03-.97-2.18-1.07-3.36-.08-1.03.14-2.05.62-2.96,1.03-1.81,2.98-2.9,5.06-2.85,1.03.06,2.02.4,2.86,1,.96.7,1.76,1.61,2.32,2.66.61,1.02.97,2.17,1.07,3.36ZM102.87,43.69c-.62-.46-1.35-.73-2.12-.79-.74-.04-1.47.14-2.11.52-.65.35-1.19.88-1.54,1.53-.35.69-.5,1.46-.42,2.23.09.94.39,1.84.88,2.64.44.83,1.06,1.56,1.81,2.13.62.46,1.36.73,2.13.79.74.03,1.47-.15,2.11-.52.65-.35,1.18-.89,1.53-1.54.36-.68.5-1.46.42-2.22-.24-1.88-1.2-3.59-2.69-4.77Z"/>
  <path class="cls-1" d="M110.97,49.73l-5.22-11.59,3.75-1.68c.99-.48,2.1-.68,3.2-.6,1.02.1,1.98.51,2.76,1.17,1.73,1.6,2.73,3.85,2.76,6.21-.03,1.03-.38,2.02-.99,2.84-.7.91-1.62,1.63-2.68,2.07l-3.58,1.58ZM113.91,46.87c1.2-.44,2.15-1.39,2.59-2.6.34-1.29.18-2.65-.44-3.82-.46-1.23-1.36-2.25-2.52-2.86-1.16-.47-2.46-.41-3.56.18l-2.21.99,4.05,9.03,2.1-.93Z"/>
  <path class="cls-1" d="M117.76,32.96l7.26-2.57.45,1.33-5.77,2.04,1.44,4.04,5.39-1.91.46,1.3-5.39,1.91,1.42,4.03,5.85-2.07.47,1.32-7.33,2.58-4.26-11.99Z"/>
  <path class="cls-1" d="M144.72,35.43c-.43,2.06-2.04,3.66-4.1,4.08-1,.24-2.04.2-3.01-.14-.98-.34-1.84-.96-2.47-1.78-.73-.94-1.23-2.04-1.46-3.21-.29-1.16-.31-2.36-.06-3.53.22-1,.72-1.93,1.44-2.66,1.51-1.44,3.69-1.93,5.67-1.28.97.35,1.82.97,2.45,1.78,1.42,1.94,1.97,4.38,1.53,6.74h.03ZM142.04,29.69c-.46-.62-1.09-1.1-1.81-1.38-.7-.24-1.45-.28-2.17-.11-.72.15-1.38.51-1.91,1.04-.53.56-.88,1.26-1.01,2.02-.17.92-.14,1.86.08,2.76.18.92.57,1.8,1.13,2.55.46.62,1.09,1.1,1.81,1.38,1.43.48,3,.12,4.08-.93.52-.56.87-1.25,1.01-2,.17-.92.15-1.86-.08-2.76-.18-.93-.56-1.81-1.13-2.58Z"/>
  <path class="cls-1" d="M158.05,36.48l-1.49.19-8.09-8.93h-.12l1.3,9.83-1.56.2-1.63-12.6,1.52-.2,8.09,8.98h.12l-1.26-9.83,1.55-.2,1.59,12.57Z"/>
  <path class="cls-1" d="M161.3,39.93l-1.3.08.69-4.83,1.71-.1-1.1,4.85Z"/>
  <path class="cls-1" d="M179.52,36.28l-1.51-.06-6.55-10.12h-.12l-.3,9.89-1.57-.06.41-12.7,1.53.05,6.54,10.14h.12l.32-9.91,1.56.06-.43,12.7Z"/>
  <path class="cls-1" d="M192.31,34.88c-.55.87-1.34,1.56-2.27,2-2.7,1.27-5.91.12-7.19-2.58-.1-.21-.19-.43-.26-.65-.36-1.13-.45-2.34-.28-3.51.12-1.2.51-2.36,1.15-3.39,1.59-2.52,4.92-3.28,7.45-1.69,1.08.68,1.88,1.72,2.27,2.94.36,1.14.45,2.34.28,3.52-.12,1.19-.51,2.34-1.15,3.36ZM191.75,28.56c-.22-.74-.64-1.4-1.23-1.9-.57-.47-1.26-.77-2-.85-.73-.11-1.48,0-2.15.31-.69.34-1.27.87-1.67,1.53-.94,1.65-1.18,3.6-.69,5.43.22.74.64,1.4,1.23,1.9.57.47,1.27.77,2,.85.73.1,1.48,0,2.15-.32.69-.34,1.27-.87,1.67-1.53.93-1.65,1.18-3.6.69-5.43Z"/>
  <path class="cls-1" d="M204.64,30.06c-.25-.47-.6-.87-1.03-1.18-.44-.33-.94-.56-1.48-.69-.72-.17-1.47-.13-2.17.12-.73.27-1.36.75-1.81,1.38-1.08,1.56-1.52,3.47-1.2,5.34.14.76.49,1.46,1.01,2.02.52.52,1.19.88,1.91,1.04.53.12,1.08.14,1.62.04.52-.09,1.01-.31,1.43-.62.44-.33.78-.76,1.01-1.26l1.54.35c-.3.75-.77,1.42-1.38,1.95-.6.51-1.31.85-2.07,1.01-.8.17-1.63.16-2.43-.03-1-.2-1.92-.68-2.66-1.38-.72-.73-1.22-1.65-1.44-2.66-.25-1.17-.23-2.37.06-3.53.24-1.17.74-2.27,1.46-3.21,1.27-1.68,3.41-2.44,5.45-1.93.8.17,1.55.51,2.2,1.01.63.47,1.12,1.09,1.45,1.8.34.75.49,1.57.43,2.39l-1.54-.35c.02-.56-.11-1.12-.37-1.62Z"/>
  <path class="cls-1" d="M209.61,28.7l9.13,2.87-.42,1.38-3.79-1.23-3.41,10.78-1.52-.48,3.4-10.78-3.82-1.2.42-1.34Z"/>
  <path class="cls-1" d="M230.64,36.35l-3.2,7.77c-.3.77-.8,1.44-1.46,1.95-.65.48-1.42.77-2.22.83-1.83.1-3.6-.63-4.83-1.98-.51-.62-.83-1.38-.93-2.18-.12-.81,0-1.64.32-2.39l3.2-7.77,1.46.6-3.16,7.66c-.23.53-.31,1.1-.25,1.67.07.55.29,1.07.65,1.49.84.93,2.06,1.44,3.31,1.38.55-.05,1.07-.26,1.51-.6.45-.36.8-.84,1-1.38l3.16-7.66,1.43.61Z"/>
  <path class="cls-1" d="M233.92,37.91l3.84,1.98c.75.36,1.41.89,1.93,1.55.41.55.64,1.21.65,1.89,0,.71-.18,1.4-.52,2.02-.34.71-.88,1.3-1.55,1.71-.67.37-1.44.51-2.2.38l.14,5.96-1.66-.84-.1-5.61-.28-.14-2.45-1.26-2.26,4.38-1.38-.69,5.83-11.32ZM234.8,45.51c.66.41,1.44.56,2.2.43.64-.2,1.16-.67,1.43-1.28.35-.59.44-1.3.24-1.96-.32-.71-.89-1.28-1.62-1.57l-2.38-1.26-2.26,4.38,2.39,1.26Z"/>
  <path class="cls-1" d="M246.04,59.53l-1.28-.81-.54-12.04-.11-.07-5.28,8.37-1.34-.85,6.79-10.74,1.33.81.52,12.06.1.06,5.3-8.38,1.32.84-6.81,10.74Z"/>
  <path class="cls-1" d="M247.2,60.32l11.42-7.27,1.33,1.01-4.03,12.92-1.33-1.01,1.16-3.62-4.05-3.1-3.19,2.07-1.3-1ZM256.22,60.95l1.85-5.74-.08-.06-5.06,3.29,3.29,2.51Z"/>
  <path class="cls-1" d="M265.48,58.5l1.17,1.06-7.55,8.44,4.4,3.94-.94,1.07-5.57-4.99,8.49-9.51Z"/>
  <path class="cls-1" d="M268.09,78.65l-1.08-1.15,9.25-8.71,1.08,1.15-9.26,8.72Z"/>
  <path class="cls-1" d="M276.36,88.27l-.96-1.16,3.22-11.62-.08-.09-7.59,6.32-1.01-1.22,9.78-8.11.98,1.17-3.24,11.63.08.1,7.63-6.33,1,1.2-9.8,8.11Z"/>
  <path class="cls-1" d="M290.23,89.62c.1-.39.1-.8,0-1.19-.12-.46-.32-.89-.59-1.27-.28-.41-.64-.77-1.06-1.05-.35-.23-.75-.36-1.17-.38-.39-.01-.77.1-1.08.32-.47.3-.73.83-.69,1.38.03.63.16,1.26.39,1.85l.43,1.24c.34.88.51,1.82.49,2.76-.05.91-.55,1.74-1.33,2.21-.54.39-1.19.61-1.86.62-.7.01-1.39-.18-1.99-.55-1.4-.92-2.4-2.33-2.8-3.96-.15-.67-.11-1.36.12-2,.23-.63.63-1.17,1.16-1.58l.92,1.33c-.34.27-.58.63-.69,1.05-.11.42-.11.85,0,1.27.13.47.34.91.62,1.3.3.45.68.83,1.13,1.13.38.26.82.42,1.28.45.43.02.86-.1,1.22-.35.3-.19.52-.49.61-.83.09-.35.1-.72.03-1.07-.09-.47-.21-.93-.36-1.38l-.55-1.53c-.33-.85-.44-1.78-.32-2.69.13-.76.56-1.43,1.21-1.86.54-.38,1.19-.59,1.86-.58.68.01,1.35.21,1.93.57.65.4,1.21.94,1.64,1.57.44.62.74,1.32.88,2.07.13.65.09,1.32-.12,1.94-.2.59-.58,1.11-1.08,1.48l-.88-1.27c.32-.26.54-.62.65-1.02Z"/>
  <path class="cls-1" d="M294.46,92.11l4.83,8.29-1.21.69-2.01-3.45-9.77,5.68-.8-1.38,9.77-5.68-2.01-3.45,1.19-.69Z"/>
  <path class="cls-1" d="M289.79,109.92l-.69-1.38,11.32-5.77.69,1.38-11.32,5.77Z"/>
  <path class="cls-1" d="M295.06,121.48l-.6-1.38,6.35-10.25-.05-.11-9.09,3.93-.63-1.44,11.66-5.05.61,1.38-6.37,10.26.05.11,9.1-3.94.62,1.44-11.66,5.06Z"/>
  <path class="cls-1" d="M308.08,128.23c.28-.45.44-.96.48-1.49.05-.54-.02-1.09-.19-1.6-.22-.71-.65-1.33-1.22-1.8-.59-.48-1.31-.78-2.07-.86-.93-.09-1.88.03-2.76.35-.9.28-1.74.75-2.44,1.38-.57.52-.98,1.18-1.19,1.93-.18.72-.14,1.47.1,2.17.17.51.43.98.79,1.38.35.4.78.71,1.27.9.51.21,1.06.29,1.6.22l.49,1.51c-.81.12-1.63.05-2.4-.21-.74-.25-1.4-.69-1.93-1.26-.55-.6-.96-1.3-1.22-2.07-.7-1.98-.16-4.19,1.38-5.61,1.79-1.6,4.17-2.38,6.56-2.15,1.01.13,1.97.54,2.76,1.19.78.66,1.36,1.53,1.66,2.51.27.77.36,1.59.26,2.4-.09.78-.36,1.52-.81,2.17-.47.67-1.09,1.22-1.82,1.6l-.5-1.51c.49-.27.89-.66,1.18-1.13Z"/>
  <path class="cls-1" d="M311.8,131.82l2.2,9.33-1.38.32-.92-3.88-11,2.6-.37-1.55,11-2.6-.92-3.89,1.38-.32Z"/>
  <path class="cls-1" d="M298.88,207.41l.37-1.46,11.26-4.27.03-.12-9.6-2.41.38-1.53,12.34,3.11-.37,1.48-11.3,4.27v.12l9.59,2.42-.38,1.52-12.32-3.12Z"/>
  <path class="cls-1" d="M297.57,211.35l.48-1.5,12.11,3.85-.48,1.51-12.11-3.86Z"/>
  <path class="cls-1" d="M304.1,224.63c.69-.43,1.21-1.07,1.48-1.83.28-.67.36-1.42.22-2.13-.16-.75-.54-1.44-1.08-1.98-1.37-1.31-3.19-2.03-5.09-2.02-.77.03-1.52.28-2.15.73-1.14.87-1.75,2.26-1.61,3.69.07.62.33,1.2.72,1.67.44.52,1,.92,1.63,1.16l1.22-3.08,1.29.51-1.8,4.52-1.28-.5c-.89-.33-1.68-.89-2.29-1.63-.56-.68-.9-1.51-1-2.38-.17-2,.66-3.95,2.23-5.2.83-.61,1.82-.96,2.85-1.01,1.18-.05,2.36.16,3.45.62,1.11.42,2.12,1.08,2.95,1.93.71.74,1.18,1.67,1.38,2.67.18,1,.07,2.04-.32,2.98-.3.78-.77,1.49-1.38,2.07-.58.54-1.28.94-2.04,1.16-.77.22-1.58.26-2.37.1l.61-1.52c.82.07,1.64-.11,2.35-.52Z"/>
  <path class="cls-1" d="M303.6,231.11l-.69,1.38-5.07-2.52-2.99,6.02,5.06,2.52-.69,1.43-11.38-5.65.69-1.43,5.07,2.52,3-6.02-5.08-2.52.69-1.42,11.39,5.69Z"/>
  <path class="cls-1" d="M297.79,242.47l-4.98,8.19-1.2-.73,2.07-3.4-9.67-5.88.83-1.38,9.67,5.88,2.07-3.42,1.22.75Z"/>
  <path class="cls-1" d="M281.51,261.7c.53-.02,1.05-.16,1.51-.42.48-.26.89-.62,1.22-1.05.47-.57.76-1.27.84-2.01.06-.77-.1-1.54-.46-2.22-.94-1.65-2.49-2.86-4.31-3.38-.75-.19-1.53-.17-2.26.08-.7.25-1.3.7-1.75,1.28-.34.42-.59.91-.73,1.44-.14.51-.16,1.04-.06,1.56.1.53.34,1.03.69,1.45l-.97,1.24c-.55-.6-.95-1.33-1.16-2.11-.19-.76-.19-1.55,0-2.31.2-.79.56-1.54,1.08-2.17,1.26-1.68,3.41-2.45,5.45-1.95,1.16.27,2.24.81,3.16,1.57.95.71,1.73,1.64,2.27,2.7.97,1.87.73,4.13-.61,5.75-.5.65-1.13,1.18-1.86,1.55-.7.35-1.47.53-2.25.52-.82-.02-1.62-.23-2.34-.63l.97-1.24c.49.25,1.03.37,1.57.35Z"/>
  <path class="cls-1" d="M271.54,257.84l6.08,12.1-1.15,1.22-12.43-5.32,1.15-1.22,3.45,1.53,3.5-3.72-1.74-3.38,1.14-1.2ZM269.98,266.74l5.52,2.43.07-.08-2.76-5.37-2.83,3.02Z"/>
  <path class="cls-1" d="M273.12,274.67l-7.05,6.5-.95-1.04,2.93-2.7-7.66-8.29,1.18-1.08,7.66,8.29,2.94-2.71.95,1.04Z"/>
  <path class="cls-1" d="M258.51,287.25l-9.54-6.07-.12.09,2.55,11.05-1.55,1.09-7.35-10.36,1.22-.86,5.52,7.84.1-.07-2.33-10.12,1.15-.81,8.78,5.52.08-.06-5.52-7.84,1.22-.86,7.34,10.36-1.55,1.1Z"/>
  <path class="cls-1" d="M233.07,291.72c-.08-1.03.14-2.05.62-2.96,1.4-2.63,4.66-3.63,7.29-2.23.21.11.42.24.62.39,1.92,1.45,3.15,3.63,3.39,6.02.25,2.97-1.96,5.58-4.93,5.83-1.28.11-2.56-.25-3.6-1-1.91-1.45-3.14-3.63-3.39-6.02v-.03ZM237.29,296.46c.61.46,1.34.74,2.11.79,1.51.04,2.92-.75,3.65-2.07.35-.69.5-1.46.42-2.22-.24-1.88-1.2-3.59-2.69-4.77-.62-.46-1.36-.74-2.13-.79-1.51-.05-2.92.75-3.65,2.07-.35.68-.5,1.46-.43,2.22.1.94.4,1.84.88,2.65.45.83,1.09,1.56,1.86,2.11h-.03Z"/>
  <path class="cls-1" d="M229.2,290.42l5.2,11.6-3.75,1.68c-.99.48-2.1.69-3.2.6-1.02-.09-1.98-.5-2.76-1.16-1.74-1.6-2.74-3.85-2.76-6.21.03-1.03.38-2.03.99-2.85.7-.9,1.62-1.6,2.67-2.04l3.6-1.62ZM226.27,293.25c-1.21.44-2.17,1.39-2.62,2.6-.51,2.63.68,5.29,2.97,6.68,1.15.48,2.46.41,3.56-.18l2.21-.99-4.05-9.01-2.07.9Z"/>
  <path class="cls-1" d="M222.39,307.19l-7.27,2.57-.46-1.33,5.77-2.04-1.42-4-5.39,1.9-.46-1.3,5.39-1.91-1.42-4.02-5.85,2.07-.47-1.33,7.35-2.6,4.24,11.99Z"/>
  <path class="cls-1" d="M195.43,304.72c.42-2.06,2.03-3.66,4.09-4.08,1-.25,2.04-.2,3.01.14.97.35,1.82.97,2.45,1.78.73.94,1.23,2.04,1.46,3.2.29,1.16.31,2.36.06,3.53-.22,1.01-.72,1.93-1.44,2.67-.73.72-1.65,1.21-2.66,1.42-2.04.5-4.18-.25-5.45-1.92-1.42-1.94-1.97-4.38-1.53-6.74h0ZM198.11,310.46c.46.63,1.09,1.11,1.81,1.38.7.25,1.45.29,2.17.11.72-.15,1.39-.51,1.91-1.04.54-.55.9-1.25,1.04-2.01.31-1.87-.13-3.79-1.21-5.34-.46-.62-1.09-1.1-1.81-1.38-.7-.25-1.45-.29-2.17-.11-.72.15-1.39.51-1.91,1.04-.54.56-.9,1.25-1.05,2.01-.17.92-.14,1.86.09,2.76.18.93.56,1.82,1.13,2.58Z"/>
  <path class="cls-1" d="M182.09,303.66l1.5-.19,8.09,8.94h.12l-1.27-9.82,1.57-.2,1.63,12.61-1.52.19-8.09-8.98h-.12l1.26,9.84-1.55.2-1.63-12.59Z"/>
  <path class="cls-1" d="M178.86,300.22l1.3-.08-.69,4.83-1.7.11,1.09-4.86Z"/>
  <path class="cls-1" d="M160.63,303.88l1.51.05,6.55,10.12h.12l.32-9.89,1.58.05-.42,12.7-1.53-.06-6.55-10.14h-.12l-.32,9.91-1.57-.05.42-12.7Z"/>
  <path class="cls-1" d="M147.84,305.28c.55-.87,1.34-1.57,2.27-2,2.69-1.27,5.91-.12,7.18,2.58.1.22.19.45.27.68.68,2.31.36,4.79-.88,6.85-1.6,2.52-4.94,3.27-7.46,1.67-1.07-.68-1.87-1.71-2.25-2.92-.67-2.31-.35-4.79.88-6.85ZM148.39,311.59c.22.74.64,1.4,1.22,1.91.57.47,1.27.76,2,.85.73.1,1.48,0,2.15-.32.69-.34,1.27-.87,1.67-1.53.93-1.65,1.17-3.6.69-5.43-.22-.74-.64-1.4-1.23-1.9-1.17-.94-2.77-1.15-4.14-.54-.69.34-1.27.87-1.67,1.53-.49.81-.79,1.71-.88,2.65-.15.93-.08,1.88.19,2.78h0Z"/>
  <path class="cls-1" d="M135.52,310.09c.24.47.6.87,1.03,1.18.44.32.95.54,1.48.66.72.18,1.47.14,2.17-.11.72-.28,1.35-.76,1.81-1.38,1.08-1.56,1.52-3.47,1.2-5.34-.15-.76-.51-1.46-1.05-2.01-.52-.52-1.19-.88-1.91-1.03-.53-.12-1.07-.14-1.61-.05-.52.09-1.01.31-1.43.63-.44.33-.78.76-1.01,1.26l-1.54-.35c.3-.75.77-1.42,1.38-1.95.6-.5,1.31-.85,2.07-1.01.8-.16,1.63-.15,2.42.03,1,.21,1.93.7,2.66,1.42.73.73,1.23,1.66,1.44,2.67.45,2.36-.1,4.8-1.51,6.74-1.27,1.67-3.41,2.43-5.45,1.93-.8-.17-1.55-.52-2.2-1.01-.63-.47-1.12-1.1-1.45-1.81-.34-.75-.49-1.57-.43-2.39l1.54.35c-.01.55.13,1.1.39,1.59Z"/>
  <path class="cls-1" d="M130.54,311.45l-9.13-2.89.42-1.34,3.8,1.2,3.4-10.78,1.53.48-3.4,10.78,3.81,1.21-.42,1.34Z"/>
  <path class="cls-1" d="M109.52,303.8l3.2-7.79c.3-.76.8-1.43,1.46-1.92.65-.48,1.42-.77,2.22-.84,1.81-.09,3.57.64,4.8,1.98.53.61.87,1.36.99,2.15.11.81,0,1.64-.32,2.39l-3.2,7.77-1.46-.6,3.16-7.66c.23-.53.31-1.11.25-1.68-.08-.55-.32-1.07-.69-1.48-.84-.94-2.06-1.45-3.31-1.38-.55.05-1.07.26-1.51.59-.45.36-.8.84-1,1.38l-3.13,7.68-1.46-.6Z"/>
  <path class="cls-1" d="M106.23,302.22l-3.83-1.98c-.76-.36-1.42-.89-1.93-1.55-.41-.54-.64-1.2-.65-1.88,0-.71.17-1.41.52-2.03.34-.71.87-1.3,1.55-1.7.66-.38,1.44-.51,2.19-.38l-.14-5.96,1.64.84.1,5.61.28.13,2.45,1.26,2.26-4.38,1.38.72-5.81,11.3ZM105.35,294.63c-.65-.41-1.44-.56-2.2-.43-.64.2-1.16.67-1.43,1.28-.35.59-.44,1.3-.24,1.95.31.72.89,1.28,1.62,1.58l2.37,1.22,2.26-4.38-2.38-1.23Z"/>
  <path class="cls-1" d="M94.11,280.62l1.27.8.53,12.05.1.06,5.29-8.37,1.34.84-6.79,10.75-1.29-.82-.52-12.05-.1-.07-5.3,8.39-1.32-.84,6.79-10.74Z"/>
  <path class="cls-1" d="M92.95,279.84l-11.41,7.27-1.33-1.01,4.03-12.92,1.33,1.01-1.17,3.62,4.06,3.11,3.19-2.07,1.3,1ZM83.97,279.2l-1.88,5.77.08.06,5.06-3.29-3.26-2.54Z"/>
  <path class="cls-1" d="M74.67,281.63l-1.18-1.05,7.55-8.42-4.39-3.94.94-1.04,5.56,4.99-8.48,9.46Z"/>
  <path class="cls-1" d="M72.07,261.49l1.08,1.15-9.24,8.74-1.08-1.15,9.25-8.73Z"/>
  <path class="cls-1" d="M63.79,251.88l.97,1.16-3.22,11.62.08.1,7.59-6.32,1.01,1.22-9.76,8.11-.97-1.17,3.24-11.63-.08-.1-7.64,6.34-.99-1.21,9.78-8.11Z"/>
  <path class="cls-1" d="M49.92,250.54c-.1.39-.1.8,0,1.19.27.95.86,1.77,1.68,2.31.34.24.75.37,1.17.39.39.01.77-.1,1.08-.33.47-.3.73-.83.69-1.38-.03-.63-.16-1.26-.39-1.84l-.43-1.24c-.35-.88-.51-1.82-.49-2.76.05-.91.54-1.74,1.32-2.22.55-.38,1.2-.6,1.86-.62.7,0,1.39.18,1.99.55,1.38.93,2.37,2.34,2.76,3.96.14.67.1,1.36-.12,2-.22.64-.62,1.21-1.16,1.63l-.92-1.33c.33-.27.58-.64.69-1.06.11-.42.11-.85,0-1.27-.29-.99-.91-1.85-1.75-2.44-.38-.26-.82-.42-1.28-.44-.43-.02-.86.1-1.21.35-.3.19-.52.49-.61.83-.08.35-.08.72,0,1.07.08.47.2.93.36,1.38l.55,1.53c.32.86.43,1.78.32,2.69-.12.76-.56,1.44-1.22,1.86-.54.39-1.19.6-1.85.59-.68-.01-1.35-.21-1.93-.57-.65-.4-1.21-.94-1.64-1.57-.44-.61-.74-1.3-.88-2.04-.13-.65-.08-1.32.12-1.95.2-.59.58-1.1,1.08-1.47l.88,1.27c-.32.24-.55.56-.68.94Z"/>
  <path class="cls-1" d="M45.69,248.04l-4.83-8.29,1.22-.69,2,3.45,9.78-5.68.8,1.38-9.78,5.68,2.02,3.45-1.2.69Z"/>
  <path class="cls-1" d="M50.33,230.23l.69,1.38-11.3,5.8-.69-1.38,11.3-5.8Z"/>
  <path class="cls-1" d="M45.09,218.68l.6,1.38-6.35,10.25.05.12,9.09-3.94.63,1.45-11.67,5.05-.61-1.38,6.37-10.25-.05-.11-9.11,3.94-.61-1.43,11.66-5.07Z"/>
  <path class="cls-1" d="M32.07,211.92c-.28.45-.45.96-.49,1.49-.04.54.02,1.09.19,1.6.22.71.64,1.34,1.22,1.81.6.47,1.31.77,2.07.85,1.89.13,3.76-.48,5.21-1.71.57-.51.99-1.18,1.19-1.93.18-.72.15-1.47-.09-2.17-.17-.51-.44-.98-.79-1.38-.71-.83-1.79-1.25-2.87-1.13l-.49-1.5c.81-.13,1.63-.06,2.4.21.74.26,1.4.69,1.93,1.26.55.61.97,1.32,1.22,2.11.34.97.39,2.01.14,3-.26,1-.79,1.9-1.55,2.6-1.79,1.6-4.17,2.38-6.56,2.15-1.01-.13-1.97-.54-2.76-1.18-.78-.66-1.36-1.53-1.66-2.51-.26-.77-.35-1.59-.26-2.4.09-.78.37-1.52.81-2.17.47-.67,1.09-1.22,1.82-1.6l.49,1.5c-.48.26-.88.64-1.17,1.1Z"/>
  <path class="cls-1" d="M28.35,208.32l-2.2-9.32,1.38-.32.91,3.88,11.01-2.6.37,1.55-11,2.6.92,3.89-1.38.32Z"/>
  <polyline class="cls-1" points="101.91 126.2 101.91 96.54 128.71 106.9"/>
  <polyline class="cls-1" points="238.24 126.2 238.24 96.54 211.44 106.9"/>
  <path class="cls-1" d="M248.44,143.99v-4.54H91.59v4.54h8.34v8.04h-8.34v4.52h8.34v24.48c0,1.47.09,2.94.28,4.4,2.42,19.82,20.46,33.92,40.27,31.49,3.97-.49,7.84-1.63,11.43-3.38,1.44-.69,2.82-1.47,4.14-2.36l-3.27-3.1-.12-.11c-.37-.42-.53-.99-.42-1.55.11-.61.53-1.11,1.1-1.34l5.72-2.34,8.2-3.35c.89-1.49,1.66-3.04,2.31-4.65.17-.37.31-.75.45-1.12,6.98,18.71,27.8,28.23,46.52,21.25,14.13-5.27,23.51-18.75,23.53-33.83v-24.5h8.35v-4.54h-8.35v-8.01h8.35ZM151.62,200.89c-3.25,1.32-4.81,5.02-3.49,8.27.13.32.29.63.47.93-15.23,6.57-32.95.23-40.57-14.5h0c7.41,6.98,19.08,6.62,26.06-.79,3.22-3.42,5.01-7.93,5.01-12.62v-38.19h28.64v37.05c0,5.15-1.26,10.23-3.68,14.78l-12.44,5.07ZM235.54,181.04c0,17.47-14.16,31.63-31.63,31.62-11.83,0-22.68-6.61-28.1-17.13h0c7.41,6.98,19.08,6.62,26.06-.79,3.21-3.41,5.01-7.92,5.01-12.61v-38.15h28.64l.03,37.05Z"/>
  <path class="cls-1" d="M185.16,219.78c-1.92-1.38-4.23-2.12-6.6-2.12h-.07v4.54c.63,0,1.25.09,1.86.26-8.75,3.94-18.8,3.79-27.43-.41l-1.98,4.09c4.65,2.26,9.71,3.51,14.87,3.69h1.26c6.01,0,11.92-1.46,17.25-4.24.5.95.8,1.99.88,3.06l4.54-.23c-.18-3.41-1.85-6.57-4.56-8.64Z"/>
  <path class="cls-1" d="M311.99,178.74c.04-4.62-3.67-8.4-8.29-8.45-.2,0-.4,0-.6.02,4.62.04,8.4-3.67,8.44-8.3,0-.2,0-.4-.02-.6-.04,4.62,3.67,8.4,8.3,8.44.2,0,.4,0,.6-.02-4.63-.04-8.4,3.68-8.44,8.31,0,.2,0,.39.02.59Z"/>
  <path class="cls-1" d="M28.16,178.74c-.04-4.63,3.68-8.41,8.3-8.45.2,0,.4,0,.6.02-4.61.05-8.39-3.65-8.44-8.27,0-.21,0-.42.02-.63.04,4.62-3.67,8.4-8.3,8.44-.2,0-.4,0-.6-.02,4.62-.04,8.4,3.67,8.44,8.3,0,.2,0,.4-.02.6Z"/>
</svg>