<?xml version="1.0" encoding="UTF-8"?>
<svg id="Layer_1" data-name="Layer 1" xmlns="http://www.w3.org/2000/svg" viewBox="0 0 453.54 169.54">
  <defs>
    <style>
      .cls-1 {
        isolation: isolate;
      }

      .cls-2 {
        fill: #0f58ec;
      }

      .cls-3 {
        fill: none;
        stroke: #000;
        stroke-miterlimit: 10;
      }
    </style>
  </defs>
  <rect class="cls-2" x="0" y="0" width="453.54" height="169.54" rx="35.56" ry="35.56"/>
  <rect class="cls-3" x="10.78" y="10.78" width="431.98" height="147.98" rx="24.22" ry="24.22"/>
  <g class="cls-1">
    <g class="cls-1">
      <path d="M194.66,45.85h3.93v7.85h8.22v-7.85h3.95v18.94h-3.95v-7.85h-8.22v7.85h-3.93v-18.94h0Z"/>
      <path d="M222.45,65.06c-5.05,0-8.87-3.58-8.87-9.74s3.82-9.74,8.87-9.74,8.85,3.56,8.85,9.74-3.85,9.74-8.85,9.74ZM222.45,49.06c-2.93,0-4.86,2.2-4.86,6.26s1.94,6.26,4.86,6.26,4.84-2.2,4.84-6.26-1.91-6.26-4.84-6.26Z"/>
      <path d="M238.98,45.85l5.26,12.85h.21l5.26-12.85h4.86v18.94h-3.82v-12.4h-.16l-4.94,12.33h-2.62l-4.94-12.38h-.16v12.46h-3.82v-18.94h4.89Z"/>
      <path d="M257.78,45.85h12.72v3.25h-8.79v4.61h8.14v3.25h-8.14v4.61h8.82v3.25h-12.74v-18.96Z"/>
      <path d="M283.66,64.79h-3.93v-18.94h3.93v18.94Z"/>
      <path d="M293.86,48.88c-1.99,0-3.09.92-3.11,2.18-.02,1.36,1.42,1.99,3.03,2.35l1.7.42c3.25.74,5.68,2.38,5.68,5.54,0,3.48-2.72,5.68-7.33,5.68s-7.51-2.12-7.62-6.18h3.82c.13,1.91,1.65,2.88,3.74,2.88s3.4-.97,3.4-2.38c0-1.28-1.18-1.88-3.25-2.41l-2.06-.5c-3.19-.78-5.15-2.38-5.15-5.15,0-3.46,3.03-5.73,7.17-5.73s6.96,2.33,7.02,5.68h-3.77c-.16-1.49-1.36-2.38-3.27-2.38h0Z"/>
    </g>
    <g class="cls-1">
      <path d="M199.52,74.43l5.26,12.85h.21l5.26-12.85h4.86v18.94h-3.82v-12.4h-.16l-4.94,12.32h-2.62l-4.94-12.38h-.16v12.46h-3.82v-18.94h4.89Z"/>
      <path d="M221.58,74.43l4.37,8.17h.18l4.34-8.17h4.42l-6.91,12.19v6.75h-3.93v-6.75l-6.91-12.19h4.43Z"/>
    </g>
    <g class="cls-1">
      <path d="M241.94,74.43h4.29l3.19,13.24h.16l3.48-13.24h3.69l3.48,13.26h.16l3.19-13.26h4.29l-5.42,18.94h-3.85l-3.61-12.5h-.16l-3.64,12.5h-3.85l-5.42-18.94h0Z"/>
    </g>
    <g class="cls-1">
      <path d="M277.34,93.64c-5.05,0-8.87-3.58-8.87-9.74s3.82-9.74,8.87-9.74,8.85,3.56,8.85,9.74-3.85,9.74-8.85,9.74ZM277.34,77.65c-2.93,0-4.86,2.2-4.86,6.26s1.94,6.26,4.86,6.26,4.84-2.2,4.84-6.26-1.91-6.26-4.84-6.26Z"/>
      <path d="M289.01,74.43h7.43c4.32,0,6.78,2.43,6.78,6.18,0,2.59-1.19,4.47-3.35,5.39l4.03,7.38h-4.34l-3.61-6.73h-3.01v6.73h-3.93v-18.94ZM295.7,83.46c2.33,0,3.46-.97,3.46-2.86s-1.13-2.96-3.46-2.96h-2.78v5.81h2.78Z"/>
      <path d="M305.94,74.43h3.93v15.7h8.16v3.25h-12.09v-18.94h0Z"/>
    </g>
    <g class="cls-1">
      <path d="M320.58,93.38v-18.94h6.75c5.7,0,9.18,3.56,9.18,9.45s-3.48,9.5-9.26,9.5h-6.67ZM327.09,90c3.61,0,5.5-1.89,5.5-6.12s-1.89-6.07-5.47-6.07h-2.62v12.19s2.59,0,2.59,0Z"/>
    </g>
    <g class="cls-1">
      <path d="M340.05,98.9h-2.78l1.31-7.46h3.71l-2.25,7.46h0Z"/>
    </g>
    <g class="cls-1">
      <path d="M198.58,121.96h-3.93v-18.94h3.93v18.94h0Z"/>
      <path d="M204.21,110.18h-2.8v-7.17h2.8v7.17Z"/>
      <path d="M211.93,103.02l5.26,12.85h.21l5.26-12.85h4.86v18.94h-3.82v-12.4h-.16l-4.94,12.33h-2.62l-4.94-12.38h-.16v12.46h-3.82v-18.94h4.89Z"/>
      <path d="M235.82,121.96l6.57-18.94h5.05l6.54,18.94h-4.22l-1.42-4.37h-6.86l-1.44,4.37h-4.24,0ZM247.36,114.53l-2.38-7.25h-.13l-2.35,7.25h4.86Z"/>
      <path d="M262.3,103.02h3.93v7.85h8.22v-7.85h3.95v18.94h-3.95v-7.85h-8.22v7.85h-3.93v-18.94h0Z"/>
      <path d="M290.1,122.22c-5.05,0-8.87-3.58-8.87-9.74s3.82-9.74,8.87-9.74,8.85,3.56,8.85,9.74-3.85,9.74-8.85,9.74ZM290.1,106.23c-2.93,0-4.86,2.2-4.86,6.26s1.94,6.26,4.86,6.26,4.84-2.2,4.84-6.26-1.91-6.26-4.84-6.26Z"/>
      <path d="M306.63,103.02l5.26,12.85h.21l5.26-12.85h4.86v18.94h-3.82v-12.4h-.16l-4.94,12.33h-2.62l-4.94-12.38h-.16v12.46h-3.82v-18.94h4.89Z"/>
      <path d="M325.42,103.02h12.72v3.25h-8.79v4.61h8.14v3.25h-8.14v4.61h8.82v3.25h-12.74v-18.96Z"/>
      <path d="M341.21,103.02h7.54c4.18,0,6.28,2.02,6.28,4.86,0,2.22-1.44,3.61-3.4,4.06v.18c2.14.1,4.16,1.81,4.16,4.61,0,3.01-2.25,5.23-6.54,5.23h-8.03v-18.94h0ZM351.04,108.51c0-1.36-.99-2.3-2.8-2.3h-3.11v4.74h3.03c1.65,0,2.88-.92,2.88-2.43ZM351.7,116.36c0-1.6-1.21-2.72-3.14-2.72h-3.42v5.08h3.32c2.28,0,3.25-.94,3.25-2.35h0Z"/>
      <path d="M366.77,122.22c-5.05,0-8.87-3.58-8.87-9.74s3.82-9.74,8.87-9.74,8.85,3.56,8.85,9.74-3.85,9.74-8.85,9.74ZM366.77,106.23c-2.93,0-4.86,2.2-4.86,6.26s1.94,6.26,4.86,6.26,4.84-2.2,4.84-6.26-1.91-6.26-4.84-6.26Z"/>
    </g>
    <g class="cls-1">
      <path d="M378.45,121.96v-18.94h6.75c5.7,0,9.18,3.56,9.18,9.45s-3.48,9.5-9.26,9.5h-6.67ZM384.96,118.58c3.61,0,5.5-1.89,5.5-6.12s-1.89-6.07-5.47-6.07h-2.62v12.19h2.59Z"/>
    </g>
    <g class="cls-1">
      <path d="M399.35,103.02l4.37,8.17h.18l4.34-8.17h4.42l-6.91,12.19v6.75h-3.93v-6.75l-6.91-12.19h4.43Z"/>
    </g>
  </g>
  <polygon points="163.47 140.23 106.13 140.23 48.78 140.23 48.78 117.14 48.78 59.78 106.13 29.3 163.47 59.78 163.47 117.14 163.47 140.23"/>
</svg>