<?xml version="1.0" encoding="UTF-8"?>
<svg id="Layer_1" data-name="Layer 1" xmlns="http://www.w3.org/2000/svg" viewBox="0 0 340.16 340.16">
  <defs>
    <style>
      .cls-1 {
        fill: #0f58ec;
      }

      .cls-2 {
        fill: #ddd;
      }
    </style>
  </defs>
  <circle class="cls-2" cx="170.08" cy="170.08" r="170.08"/>
  <path class="cls-1" d="M146.68,15.06l-.58,3.08-1.25.17,1.9-9.81,1.46-.2,4.49,8.93-1.29.18-1.41-2.81-3.33.46ZM149.61,13.7l-1.32-2.57c-.3-.58-.51-1.12-.72-1.64h0c-.06.58-.13,1.17-.23,1.8l-.55,2.84,2.82-.42Z"/>
  <path class="cls-1" d="M153,12.24c-.06-.69-.13-1.27-.22-1.8l1.09-.1.17,1.11h0c.38-.85,1.2-1.42,2.13-1.47.9-.08,2.44.35,2.64,2.7l.36,4.04-1.23.11-.34-3.9c-.1-1.09-.58-1.97-1.74-1.86-.76.09-1.38.65-1.55,1.4-.03.19-.03.39,0,.58l.36,4.07-1.23.11-.44-5Z"/>
  <path class="cls-1" d="M166.68,12.87c.24,1.82-1.04,3.48-2.86,3.72-.12.02-.25.03-.37.03-1.78.1-3.3-1.26-3.4-3.04,0-.1,0-.21,0-.31-.23-1.82,1.05-3.49,2.87-3.72.11-.01.23-.02.34-.03,1.77-.11,3.3,1.24,3.41,3.01,0,.11,0,.23,0,.34ZM161.29,13.17c.06,1.49.96,2.58,2.17,2.53s2.01-1.2,1.95-2.7c-.05-1.15-.69-2.59-2.15-2.53s-2.02,1.41-1.97,2.7h0Z"/>
  <path class="cls-1" d="M169.21,7.59v1.95h1.8v.94h-1.8l.05,3.66c0,.84.26,1.32.95,1.3.24,0,.48-.03.71-.1l.07.9c-.35.13-.72.2-1.09.19-.5.04-.99-.14-1.34-.49-.39-.51-.58-1.15-.51-1.8v-3.64s-1.04,0-1.04,0v-.9h1.05v-1.63l1.14-.39Z"/>
  <path class="cls-1" d="M172.27,6.35h1.23l-.13,4.23h0c.22-.35.53-.64.9-.84.39-.21.83-.32,1.28-.31.9,0,2.35.63,2.28,2.97l-.12,4.04-1.24-.04.12-3.89c0-1.1-.34-2.04-1.51-2.08-.75.03-1.4.53-1.63,1.24-.07.19-.11.39-.1.59l-.13,4.09h-1.24l.28-10.01Z"/>
  <path class="cls-1" d="M180.14,13.48c-.19,1.18.61,2.29,1.79,2.49.12.02.24.03.36.03.64.07,1.29,0,1.91-.21l.14.9c-.73.25-1.51.34-2.28.26-1.74-.02-3.14-1.44-3.12-3.18,0-.16.02-.32.04-.48.15-2.04,1.47-3.59,3.44-3.42,2.21.16,2.7,2.15,2.57,3.4-.01.19-.04.38-.09.57l-4.75-.35ZM183.81,12.86c.19-.97-.45-1.92-1.42-2.11-.05,0-.1-.02-.14-.02-1.05,0-1.93.8-2.03,1.85l3.59.28Z"/>
  <path class="cls-1" d="M186.22,12.46c.09-.8.14-1.48.17-2.12l1.08.12-.1,1.33h.05c.33-.82,1.15-1.34,2.03-1.28.12,0,.23.03.34.08l-.16,1.17c-.13-.05-.27-.08-.41-.09-.87-.05-1.64.55-1.8,1.4-.06.18-.1.37-.12.57l-.4,3.59-1.2-.15.5-4.62Z"/>
  <path class="cls-1" d="M192.33,16.62c.44.38.97.63,1.54.73.9.14,1.38-.24,1.46-.8s-.21-.95-1.06-1.42c-1.14-.62-1.6-1.38-1.48-2.17.22-1.14,1.32-1.88,2.45-1.66.06.01.11.02.17.04.58.09,1.13.32,1.59.67l-.45.84c-.37-.32-.83-.53-1.31-.59-.53-.16-1.08.13-1.25.66,0,.03-.01.05-.02.08-.08.56.28.9,1.11,1.34,1.1.62,1.6,1.29,1.45,2.29-.18,1.19-1.22,1.88-2.82,1.63-.65-.09-1.27-.35-1.8-.75l.43-.88Z"/>
  <path class="cls-1" d="M200.29,10.36l-.35,1.92,1.73.31-.17.9-1.73-.32-.67,3.59c-.15.83,0,1.34.67,1.46.24.05.48.07.72.04l-.11.9c-.37.07-.74.07-1.11,0-.5-.06-.94-.34-1.22-.75-.27-.56-.32-1.2-.14-1.8l.67-3.64-1.03-.19.17-.9,1.03.19.3-1.6,1.24-.13Z"/>
  <path class="cls-1" d="M207.97,17.39c-.25,1.82-1.93,3.1-3.76,2.85-.11-.02-.22-.04-.33-.06-1.75-.37-2.86-2.09-2.49-3.84.02-.1.05-.19.08-.29.25-1.82,1.92-3.09,3.74-2.85.11.02.22.04.33.06,1.74.35,2.87,2.04,2.52,3.79-.02.11-.05.23-.09.34ZM202.69,16.29c-.32,1.46.27,2.7,1.45,2.99s2.26-.63,2.59-2.12c.24-1.12,0-2.7-1.42-2.99s-2.34.86-2.62,2.12Z"/>
  <path class="cls-1" d="M209.41,16.52c.21-.77.37-1.45.49-2.07l1.04.28-.3,1.29h.05c.44-.77,1.33-1.15,2.19-.96.12.03.23.07.33.13l-.3,1.13c-.13-.07-.26-.12-.4-.15-.85-.19-1.71.29-2,1.11-.08.18-.15.36-.2.55l-.9,3.5-1.18-.31,1.16-4.5Z"/>
  <path class="cls-1" d="M214.9,15.79l.28,4.28v1.46h0c.23-.36.52-.82.82-1.24l2.44-3.43,1.25.38-3.08,4.12c-1.51,1.98-2.44,2.95-3.45,3.42-.52.25-1.1.36-1.68.33v-1.09c.42-.01.83-.11,1.21-.27.54-.23,1.01-.58,1.39-1.02.07-.07.13-.16.17-.25.02-.11.02-.22,0-.33l-.62-6.72,1.28.39Z"/>
  <path class="cls-1" d="M225.03,17l-.65,1.8,1.66.58-.31.9-1.67-.51-1.18,3.42c-.28.79-.22,1.32.43,1.55.23.08.47.14.71.15l-.26.9c-.37,0-.74-.08-1.09-.21-.47-.13-.86-.46-1.08-.9-.18-.59-.14-1.24.13-1.8l1.15-3.56-.99-.35.31-.9.99.35.55-1.54,1.28.11Z"/>
  <path class="cls-1" d="M228.28,16.85l1.14.46-1.55,3.94h0c.33-.27.72-.44,1.14-.49.44-.07.89-.02,1.3.13.84.34,2,1.4,1.13,3.59l-1.48,3.77-1.15-.46,1.44-3.59c.4-1.02.36-2.03-.72-2.45-.71-.26-1.51-.05-2,.53-.13.15-.23.33-.3.52l-1.51,3.81-1.15-.45,3.7-9.31Z"/>
  <path class="cls-1" d="M234.74,30.37l.26-.82h0c-.71.39-1.57.42-2.31.07-1.01-.33-1.56-1.42-1.23-2.43.03-.08.06-.16.09-.23.67-1.5,2.36-1.73,4.75-.64l.06-.13c.4-.66.19-1.52-.48-1.92-.09-.06-.19-.1-.29-.13-.56-.25-1.19-.34-1.8-.26l.07-.9c.78-.09,1.57.03,2.28.36,1.9.85,1.8,2.35,1.22,3.59l-1.02,2.37c-.23.49-.42,1-.57,1.53l-1.06-.46ZM235.99,27.13c-1.21-.58-2.7-.98-3.24.22-.29.52-.11,1.19.41,1.48.05.03.11.05.16.07.67.32,1.46.17,1.97-.37.09-.1.16-.21.22-.32l.48-1.08Z"/>
  <path class="cls-1" d="M242.11,24.19l-.85,1.8,1.59.77-.41.84-1.57-.81-1.6,3.29c-.37.75-.37,1.29.25,1.59.22.11.45.19.68.24l-.36.9c-.37-.04-.72-.15-1.05-.32-.46-.19-.82-.58-.97-1.05-.12-.62,0-1.26.34-1.8l1.62-3.33-.9-.46.41-.84.94.46.72-1.46,1.16.19Z"/>
  <path class="cls-1" d="M243.35,33.2c.28.5.7.92,1.2,1.21.79.43,1.38.24,1.64-.25s.13-.97-.51-1.71c-.9-.96-1.04-1.8-.66-2.54.6-.99,1.89-1.31,2.89-.71.04.03.08.05.12.08.51.28.95.68,1.27,1.17l-.7.65c-.24-.43-.6-.78-1.03-1.02-.44-.33-1.06-.24-1.38.19-.02.03-.04.05-.05.08-.27.49,0,.9.58,1.63.83.96,1.07,1.8.58,2.7-.57,1.05-1.8,1.35-3.2.58-.59-.33-1.08-.8-1.43-1.37l.69-.68Z"/>
  <path class="cls-1" d="M253.01,30.03l-.98,1.69,1.53.9-.48.82-1.53-.9-1.85,3.16c-.42.73-.46,1.26.13,1.61.2.13.43.22.66.29l-.41.83c-.37-.07-.72-.21-1.03-.4-.45-.22-.78-.63-.9-1.12-.07-.64.1-1.28.49-1.8l1.87-3.2-.9-.53.47-.81.9.53.82-1.41,1.22.35Z"/>
  <path class="cls-1" d="M254.08,40.94l.37-.77h0c-.76.29-1.61.2-2.29-.25-.94-.5-1.3-1.67-.81-2.61.03-.05.06-.1.09-.15.9-1.38,2.59-1.37,4.81,0l.07-.12c.49-.6.41-1.48-.18-1.97-.09-.07-.18-.13-.28-.18-.54-.33-1.16-.51-1.8-.51l.2-.84c.79.02,1.55.25,2.21.68,1.8,1.11,1.43,2.58.7,3.73l-1.35,2.15c-.3.46-.56.94-.78,1.44l-.95-.58ZM255.77,37.91c-1.12-.74-2.54-1.36-3.24-.24-.37.48-.27,1.17.21,1.54.04.03.09.06.14.09.61.41,1.42.37,2-.09.11-.08.2-.18.27-.3l.63-1Z"/>
  <path class="cls-1" d="M258.77,38.43c.45-.67.82-1.24,1.14-1.8l.9.61-.71,1.12h.04c.67-.57,1.64-.65,2.39-.18.1.07.19.14.27.23l-.66.96c-.1-.1-.21-.19-.32-.27-.75-.46-1.71-.29-2.26.39-.13.14-.26.28-.37.44l-2.03,3-1.02-.65,2.62-3.86Z"/>
  <path class="cls-1" d="M266.1,38.57l-1.14,1.58,1.44,1.03-.55.76-1.44-1.03-2.14,2.97c-.49.68-.58,1.21,0,1.62.19.14.41.26.63.35l-.49.78c-.36-.11-.69-.28-.99-.5-.42-.27-.71-.7-.78-1.2,0-.63.22-1.24.65-1.71l2.17-3.01-.85-.61.55-.76.9.61.95-1.32,1.11.43Z"/>
  <path class="cls-1" d="M263.78,46.13c.2.54.54,1.02.99,1.38.72.54,1.32.44,1.66,0s.28-.9-.24-1.8c-.7-1.09-.75-1.97-.26-2.62.75-.89,2.07-1.01,2.96-.26.04.03.08.07.11.1.47.35.83.81,1.07,1.35l-.79.53c-.18-.46-.5-.87-.9-1.16-.39-.39-1.02-.4-1.41-.01-.02.02-.04.04-.05.06-.34.45-.17.9.32,1.7.67,1.07.78,1.91.17,2.7-.73.95-1.97,1.05-3.25.07-.54-.39-.96-.92-1.23-1.53l.85-.51Z"/>
  <path class="cls-1" d="M273.93,47.07l-1.61,3.19c-.35.7-.67,1.35-1.04,1.96h0c.57-.42,1.21-.83,1.86-1.22l3.12-1.89.78.68-1.44,3.25c-.35.78-.67,1.45-1.01,2.07h0c.58-.47,1.18-.91,1.8-1.32l3.12-1.87.9.81-6.11,3.68-.84-.74,1.35-3.13c.3-.71.64-1.4,1.02-2.08h0c-.62.47-1.27.9-1.94,1.29l-2.95,1.71-.84-.74,2.92-6.46.93.81Z"/>
  <path class="cls-1" d="M276.41,58.42l4.66-4.94.9.85-4.66,4.93-.9-.84ZM283.38,53.03c-.29.31-.78.32-1.08.03s-.32-.78-.03-1.08c.29-.3.76-.32,1.07-.03.01,0,.02.02.03.03.3.28.31.75.03,1.04,0,0,0,0,0,0Z"/>
  <path class="cls-1" d="M285.62,55.12l-1.37,1.38,1.26,1.25-.67.67-1.26-1.24-2.57,2.61c-.59.59-.75,1.11-.27,1.58.17.18.36.33.58.45l-.61.7c-.34-.16-.64-.38-.9-.66-.38-.33-.59-.8-.58-1.3.09-.62.41-1.19.9-1.59l2.61-2.64-.75-.74.66-.67.75.74,1.15-1.16,1.08.62Z"/>
  <path class="cls-1" d="M288.62,56.38l.84.9-3.08,2.94h0c.41-.1.84-.09,1.24.04.43.12.81.36,1.12.67.62.67,1.21,2.11-.49,3.72l-2.92,2.75-.9-.9,2.85-2.7c.79-.75,1.19-1.67.39-2.53-.53-.54-1.35-.68-2.03-.36-.18.08-.35.2-.49.34l-2.95,2.84-.84-.9,7.26-6.83Z"/>
  <path class="cls-1" d="M295.59,65.91l-1.49,1.26,1.14,1.35-.72.61-1.14-1.35-2.8,2.33c-.64.54-.85,1.03-.4,1.55.15.19.33.35.52.49l-.67.64c-.32-.19-.61-.43-.84-.73-.35-.36-.52-.85-.47-1.35.15-.62.52-1.15,1.04-1.51l2.82-2.39-.67-.8.72-.61.67.8,1.24-1.05,1.03.75Z"/>
  <path class="cls-1" d="M298.45,67.41l.76.97-3.33,2.62h0c.42-.06.84,0,1.23.16.42.16.78.43,1.06.77.56.72,1.02,2.22-.83,3.67l-3.17,2.49-.76-.97,3.06-2.41c.9-.67,1.34-1.56.62-2.48-.48-.58-1.28-.8-2-.54-.19.06-.36.16-.51.3l-3.23,2.53-.76-.97,7.86-6.14Z"/>
  <path class="cls-1" d="M298.05,78.01c-1.03.61-1.37,1.95-.76,2.98.06.1.13.19.2.28.36.54.83.99,1.38,1.33l-.59.68c-.67-.4-1.25-.94-1.69-1.59-1.1-1.35-.9-3.34.45-4.44.12-.1.25-.19.39-.27,1.66-1.2,3.68-1.15,4.83.46,1.29,1.8.05,3.42-.96,4.14-.16.11-.32.21-.49.3l-2.75-3.87ZM300.88,80.44c.87-.48,1.18-1.58.7-2.44-.02-.04-.05-.08-.07-.12-.67-.79-1.83-.95-2.7-.37l2.07,2.93Z"/>
  <path class="cls-1" d="M304.1,84.24c.74-.47,1.32-.9,1.85-1.23l.59.9-.96.67h0c.98-.03,1.9.49,2.4,1.34.9,1.39.36,3.18-1.39,4.28-2.07,1.3-3.88.68-4.74-.67-.47-.69-.55-1.58-.21-2.34h0l-3.13,1.97-.65-1.03,6.23-3.87ZM303.2,86.23c-.14.1-.27.2-.4.32-.61.63-.71,1.6-.24,2.34.7,1.11,2,1.18,3.33.35,1.15-.73,1.8-1.95,1.06-3.06-.48-.76-1.42-1.09-2.27-.81-.16.04-.32.11-.47.2l-1.01.66Z"/>
  <path class="cls-1" d="M312.76,88.01l.62,1.07-8.61,5.02-.62-1.07,8.61-5.02Z"/>
  <path class="cls-1" d="M307.37,98.77l.7-.49h0c-.81-.12-1.51-.62-1.88-1.35-.58-.9-.32-2.09.57-2.67.05-.03.1-.06.15-.09,1.44-.78,2.93.07,4.17,2.38l.13-.06c.73-.27,1.09-1.08.82-1.8-.04-.11-.1-.22-.17-.32-.3-.55-.74-1-1.29-1.31l.58-.64c.68.4,1.23.98,1.6,1.67,1,1.8,0,2.95-1.2,3.59l-2.26,1.18c-.49.26-.95.56-1.38.9l-.54-.99ZM310.33,96.97c-.62-1.2-1.56-2.43-2.7-1.8-.55.24-.8.88-.56,1.43.02.05.05.1.08.15.33.66,1.07,1.03,1.8.9.13-.02.26-.06.38-.13l1-.56Z"/>
  <path class="cls-1" d="M314.75,98.23l-2.94,3.11c-.33.34-.74.73-1.05,1.01h0c.41-.06.9-.17,1.46-.24l4.17-.56.58,1.17-5.16.49c-2.48.24-3.82.23-4.84-.2-.54-.21-1.02-.55-1.39-1l.79-.75c.29.3.64.54,1.02.7.53.24,1.11.35,1.69.32.1.02.2.02.31,0,.1-.06.18-.13.25-.22l4.49-5.02.62,1.19Z"/>
  <path class="cls-1" d="M312.16,108.52c.44-.15,1.08-.4,1.64-.63l7.57-3.21.48,1.13-3.93,1.66h0c.94.12,1.73.76,2.05,1.64.66,1.55-.17,3.2-2.08,3.99-2.24.9-3.95,0-4.49-1.39-.41-.85-.3-1.86.3-2.59h0l-1.06.39-.47-1ZM315.17,108.64c-.14.06-.27.14-.4.22-.7.53-.95,1.47-.61,2.27.5,1.19,1.8,1.49,3.21.9,1.26-.53,2.06-1.64,1.55-2.85-.37-.82-1.24-1.29-2.13-1.14-.17.02-.34.07-.49.13l-1.12.46Z"/>
  <path class="cls-1" d="M318.75,120.15c-.66.24-1.23.47-1.73.69l-.38-1.03,1.02-.45h0c-.91-.16-1.66-.8-1.97-1.67-.37-1-.25-2.4,1.99-3.23l3.73-1.37.43,1.16-3.53,1.29c-1.21.45-1.9,1.11-1.51,2.17.26.67.9,1.13,1.62,1.15.22,0,.43-.04.63-.12l3.92-1.44.42,1.16-4.65,1.68Z"/>
  <path class="cls-1" d="M326.24,120.93l-1.85.6.55,1.69-.9.29-.56-1.68-3.48,1.14c-.8.26-1.18.64-.97,1.29.08.23.18.45.31.66l-.9.34c-.23-.3-.4-.63-.5-.99-.18-.47-.15-.99.08-1.43.37-.52.92-.88,1.54-1.01l3.52-1.15-.33-1,.9-.3.32,1.01,1.55-.5.73,1.04Z"/>
  <path class="cls-1" d="M327.56,125.11l-1.87.56.5,1.69-.9.27-.5-1.7-3.51,1.05c-.81.24-1.2.6-1,1.27.06.23.16.45.28.66l-.9.31c-.22-.3-.38-.64-.47-1-.18-.47-.13-.99.12-1.43.38-.5.93-.85,1.55-.97l3.55-1.05-.3-1.02.9-.26.31,1.01,1.55-.47.69,1.08Z"/>
  <path class="cls-1" d="M324.79,135.14c-1.73.61-3.63-.3-4.24-2.03-.04-.11-.07-.23-.1-.34-.46-1.73.56-3.5,2.29-3.96.09-.03.19-.05.28-.06,1.73-.61,3.62.3,4.23,2.02.04.11.07.23.1.34.48,1.7-.5,3.47-2.2,3.95-.12.03-.24.06-.36.08ZM323.37,129.95c-1.44.37-2.31,1.48-2.01,2.65s1.59,1.72,3.07,1.34c1.11-.3,2.38-1.21,2.02-2.62s-1.83-1.69-3.08-1.37h0Z"/>
  <path class="cls-1" d="M326.51,135.99c.68-.13,1.25-.27,1.8-.42l.22,1.07-1.09.3h0c.89.28,1.54,1.03,1.71,1.94.19.9-.06,2.46-2.35,2.94l-3.96.83-.25-1.21,3.83-.8c1.07-.22,1.89-.81,1.64-1.94-.16-.75-.8-1.31-1.57-1.37-.19-.03-.39-.03-.58,0l-4,.84-.25-1.21,4.85-.95Z"/>
  <path class="cls-1" d="M326.71,147.72l-3.08-.56-.18-1.25,9.81,1.85.17,1.43-8.92,4.49-.18-1.29,2.8-1.42-.43-3.26ZM328.09,150.65l2.57-1.29c.58-.3,1.11-.51,1.64-.73h0c-.58-.06-1.17-.13-1.8-.23l-2.84-.53.43,2.79Z"/>
  <path class="cls-1" d="M329.55,154.03c.7-.06,1.27-.13,1.8-.22l.1,1.1-1.11.17h0c.85.38,1.42,1.19,1.47,2.12.09.9-.33,2.44-2.7,2.65l-4.04.38-.12-1.23,3.9-.36c1.09-.1,1.96-.59,1.86-1.75-.09-.76-.66-1.38-1.41-1.54-.19-.03-.39-.03-.58,0l-4.06.38-.12-1.23,5.01-.46Z"/>
  <path class="cls-1" d="M328.94,167.7c-1.82.24-3.49-1.04-3.73-2.86-.01-.11-.02-.23-.03-.34-.11-1.78,1.25-3.31,3.03-3.41.1,0,.21,0,.31,0,1.82-.24,3.48,1.03,3.73,2.85.02.12.03.24.03.35.12,1.77-1.23,3.3-3,3.42-.11,0-.23,0-.34,0ZM328.63,162.3c-1.48.06-2.57.97-2.52,2.17s1.2,2.01,2.7,1.94c1.15-.05,2.58-.69,2.52-2.16s-1.38-2-2.66-1.94l-.04-.02Z"/>
  <path class="cls-1" d="M334.28,170.24h-1.95v1.8h-.9v-1.8l-3.67.06c-.84,0-1.31.26-1.3.95,0,.24.04.48.1.71l-.9.07c-.13-.35-.19-.72-.19-1.1-.03-.5.15-.98.49-1.34.51-.39,1.16-.58,1.8-.5l3.7-.06v-1.05h.94v1.05h1.63l.24,1.2Z"/>
  <path class="cls-1" d="M335.53,173.26v1.23l-4.23-.11h0c.36.22.65.53.84.9.21.39.33.82.32,1.27,0,.9-.63,2.36-2.97,2.3l-4.04-.1v-1.24l3.9.1c1.09,0,2.03-.35,2.06-1.52,0-.76-.48-1.44-1.2-1.69-.19-.07-.38-.1-.58-.1l-4.1-.1v-1.24l9.99.3Z"/>
  <path class="cls-1" d="M328.46,181.2c-1.19-.19-2.3.62-2.49,1.81-.02.12-.03.23-.03.35-.07.64,0,1.29.22,1.9l-.9.15c-.25-.73-.34-1.51-.26-2.28,0-1.74,1.42-3.14,3.16-3.13.16,0,.32.01.48.04,2.05.13,3.59,1.46,3.43,3.42-.15,2.22-2.14,2.7-3.38,2.58-.19-.01-.39-.04-.58-.08l.33-4.75ZM329.08,184.86c.98.18,1.92-.46,2.1-1.43,0-.04.02-.09.02-.13,0-1.06-.81-1.94-1.87-2.03l-.25,3.59Z"/>
  <path class="cls-1" d="M329.49,187.25c.79.08,1.48.13,2.11.16l-.11,1.08-1.33-.1v.05c.82.33,1.33,1.14,1.29,2.02-.01.12-.04.24-.08.35l-1.16-.13c.05-.13.08-.27.09-.41.05-.87-.55-1.64-1.41-1.8-.18-.06-.37-.1-.57-.12l-3.59-.38.13-1.21,4.63.48Z"/>
  <path class="cls-1" d="M325.35,193.34c-.38.44-.63.97-.73,1.54-.13.9.24,1.37.8,1.46s.95-.22,1.42-1.07c.61-1.14,1.37-1.61,2.17-1.49,1.14.23,1.88,1.33,1.65,2.47,0,.05-.02.09-.03.14-.08.58-.31,1.13-.67,1.59l-.84-.44c.31-.38.52-.83.59-1.31.16-.53-.15-1.09-.68-1.25-.02,0-.04-.01-.07-.02-.56-.08-.9.29-1.33,1.11-.62,1.1-1.29,1.61-2.29,1.46-1.19-.18-1.88-1.22-1.64-2.81.09-.65.35-1.27.74-1.8l.89.42Z"/>
  <path class="cls-1" d="M331.64,201.32l-1.92-.35-.31,1.74-.9-.17.31-1.73-3.59-.66c-.84-.14-1.35,0-1.46.68-.05.24-.07.48-.04.72l-.9-.12c-.07-.37-.07-.74,0-1.11.06-.5.34-.94.75-1.21.56-.28,1.2-.34,1.8-.16l3.64.67.19-1.04.9.17-.19,1.03,1.61.29.13,1.25Z"/>
  <path class="cls-1" d="M324.65,209.03c-1.82-.23-3.1-1.89-2.87-3.71.02-.12.04-.24.07-.36.36-1.75,2.06-2.87,3.81-2.51.1.02.2.05.3.08,1.82.23,3.11,1.89,2.88,3.7-.02.12-.04.24-.07.36-.35,1.75-2.05,2.88-3.8,2.53-.11-.02-.21-.05-.32-.08ZM325.72,203.75c-1.45-.32-2.7.28-2.98,1.46s.64,2.26,2.14,2.58c1.12.24,2.7,0,2.98-1.43s-.87-2.35-2.14-2.61Z"/>
  <path class="cls-1" d="M325.53,210.47c.77.2,1.44.35,2.06.47l-.26,1.05-1.3-.3v.05c.76.44,1.16,1.33.98,2.19-.03.12-.08.23-.13.33l-1.12-.29c.06-.13.11-.27.14-.4.18-.85-.3-1.71-1.12-2-.18-.08-.36-.15-.55-.2l-3.51-.9.31-1.18,4.51,1.16Z"/>
  <path class="cls-1" d="M326.24,215.93l-4.27.29h-1.46c.36.24.82.52,1.24.82l3.44,2.42-.37,1.26-4.13-3.15c-1.99-1.51-2.96-2.43-3.42-3.44-.26-.52-.38-1.1-.34-1.68h1.08c.01.42.11.82.28,1.2.22.54.58,1.01,1.02,1.38.07.07.16.13.25.18.11.02.23.02.34,0l6.71-.64-.4,1.36Z"/>
  <path class="cls-1" d="M325.1,226.07l-1.84-.65-.58,1.67-.9-.31.58-1.67-3.45-1.2c-.8-.28-1.33-.21-1.55.44-.08.23-.14.46-.15.7l-.9-.25c0-.37.07-.74.21-1.09.13-.48.46-.87.9-1.09.59-.18,1.24-.14,1.8.13l3.5,1.21.35-.99.9.31-.35,1,1.54.53-.04,1.25Z"/>
  <path class="cls-1" d="M325.26,229.32l-.45,1.15-3.95-1.55h0c.26.33.43.72.49,1.13.07.44.02.89-.13,1.31-.33.84-1.38,2-3.59,1.14l-3.77-1.46.45-1.15,3.59,1.42c1.02.4,2.03.36,2.45-.73.26-.71.04-1.51-.55-2-.15-.13-.33-.23-.52-.29l-3.81-1.5.45-1.15,9.35,3.67Z"/>
  <path class="cls-1" d="M311.78,235.88l.82.26v-.04c-.4-.71-.43-1.57-.08-2.31.36-1,1.47-1.53,2.47-1.17.05.02.1.04.15.06,1.5.67,1.73,2.36.66,4.75l.13.05c.66.4,1.52.19,1.93-.47.06-.1.11-.2.14-.31.24-.57.33-1.19.25-1.8l.9.08c.09.78-.03,1.57-.36,2.28-.84,1.9-2.34,1.8-3.59,1.23l-2.32-1.02c-.5-.22-1.01-.41-1.54-.56l.45-1.05ZM315.02,237.11c.57-1.21.97-2.7-.23-3.24-.53-.29-1.2-.09-1.49.44-.03.05-.05.1-.07.15-.32.67-.17,1.47.38,1.97.1.09.21.16.33.22l1.08.48Z"/>
  <path class="cls-1" d="M317.99,243.23l-1.8-.85-.76,1.6-.85-.41.77-1.59-3.3-1.59c-.76-.37-1.29-.36-1.59.26-.11.22-.19.45-.24.68l-.85-.36c.04-.37.15-.72.32-1.05.19-.47.57-.83,1.05-.98.62-.12,1.26,0,1.8.34l3.33,1.61.49-.92.84.41-.45.94,1.46.71-.23,1.2Z"/>
  <path class="cls-1" d="M308.99,244.46c-.5.28-.92.7-1.2,1.2-.43.79-.23,1.38.26,1.64s.97.13,1.7-.52c.96-.9,1.8-1.05,2.54-.67,1,.59,1.33,1.87.74,2.87-.03.05-.06.1-.09.14-.27.52-.68.95-1.17,1.27l-.64-.7c.42-.25.77-.6,1.01-1.03.33-.44.23-1.07-.21-1.39-.02-.02-.04-.03-.06-.04-.49-.27-.9,0-1.63.58-.95.83-1.8,1.08-2.65.6-1.05-.57-1.35-1.8-.58-3.21.31-.59.76-1.09,1.31-1.46l.68.72Z"/>
  <path class="cls-1" d="M312.19,254.14l-1.69-.98-.9,1.53-.81-.47.9-1.53-3.16-1.84c-.74-.42-1.27-.45-1.61.14-.12.21-.22.43-.29.67l-.83-.42c.07-.36.2-.71.4-1.02.23-.45.64-.77,1.12-.9.64-.08,1.28.09,1.8.48l3.21,1.85.52-.9.82.47-.53.9,1.41.82-.36,1.21Z"/>
  <path class="cls-1" d="M301.31,255.24l.77.37h0c-.29-.76-.2-1.61.24-2.29.5-.94,1.67-1.31,2.61-.81.05.03.09.05.14.08,1.39.9,1.38,2.58,0,4.8l.12.07c.61.49,1.49.4,1.98-.21.07-.08.13-.17.17-.27.33-.54.51-1.16.5-1.8l.84.2c-.01.78-.24,1.55-.67,2.21-1.1,1.8-2.57,1.44-3.73.72l-2.15-1.35c-.46-.29-.94-.55-1.44-.76l.6-.96ZM304.35,256.92c.74-1.12,1.34-2.55.22-3.25-.49-.36-1.17-.25-1.53.23-.03.04-.06.09-.08.13-.4.62-.37,1.42.09,2,.09.1.19.19.3.27l1.01.62Z"/>
  <path class="cls-1" d="M303.83,259.92c.67.44,1.24.82,1.8,1.13l-.6.9-1.13-.71v.04c.57.67.65,1.64.18,2.39-.06.1-.14.19-.22.27l-.97-.61c.11-.1.2-.21.27-.33.46-.74.29-1.71-.4-2.26-.14-.14-.28-.26-.44-.37l-3.03-2.06.68-1.02,3.86,2.62Z"/>
  <path class="cls-1" d="M303.7,267.27l-1.58-1.13-1.03,1.44-.76-.54,1.02-1.45-2.96-2.13c-.69-.49-1.21-.57-1.62,0-.14.19-.26.41-.34.63l-.79-.49c.11-.36.28-.69.5-.99.26-.42.7-.71,1.2-.78.63,0,1.24.22,1.72.64l3.02,2.16.61-.85.76.55-.61.85,1.32.94-.46,1.16Z"/>
  <path class="cls-1" d="M296.15,264.96c-.54.2-1.02.55-1.38,1-.55.72-.44,1.32,0,1.66s.9.27,1.8-.25c1.09-.71,1.97-.75,2.62-.27.89.74,1.01,2.07.27,2.96-.03.04-.07.08-.1.11-.35.47-.81.84-1.35,1.08l-.52-.79c.46-.19.86-.5,1.15-.9.39-.38.4-1.01.02-1.4-.02-.02-.05-.05-.07-.07-.44-.33-.9-.16-1.69.33-1.08.67-1.91.79-2.7.18-.95-.72-1.06-1.97-.08-3.25.39-.54.92-.96,1.52-1.24l.51.84Z"/>
  <path class="cls-1" d="M295.27,275.09l-3.18-1.58c-.7-.34-1.35-.67-1.97-1.02h0c.42.57.83,1.21,1.23,1.86l1.9,3.11-.67.78-3.31-1.42c-.78-.34-1.45-.67-2.07-1h0c.47.58.91,1.18,1.32,1.8l1.95,2.97-.8.9-3.7-6.1.73-.84,3.14,1.33c.71.3,1.4.64,2.08,1.01h0c-.47-.62-.9-1.27-1.29-1.94l-1.73-2.94.74-.84,6.48,2.89-.84,1.05Z"/>
  <path class="cls-1" d="M284,277.64l4.96,4.65-.84.9-5.01-4.65.9-.9ZM289.4,284.6c-.31-.29-.33-.77-.04-1.08.29-.31.77-.33,1.08-.04h0c.3.28.32.75.04,1.05-.01.01-.03.03-.04.04-.28.3-.75.31-1.04.03,0,0,0,0,0,0Z"/>
  <path class="cls-1" d="M287.25,286.84l-1.39-1.37-1.23,1.27-.67-.66,1.23-1.27-2.62-2.56c-.6-.59-1.11-.75-1.59-.26-.17.17-.32.36-.44.57l-.7-.6c.16-.34.38-.64.65-.9.33-.37.81-.59,1.3-.58.63.08,1.2.4,1.6.9l2.64,2.59.74-.75.67.67-.74.75,1.17,1.14-.62,1.08Z"/>
  <path class="cls-1" d="M286.03,289.83l-.9.84-2.93-3.07h0c.1.41.09.84-.04,1.24-.12.43-.35.82-.67,1.12-.66.63-2.1,1.22-3.72-.48l-2.75-2.9.9-.85,2.7,2.83c.75.8,1.69,1.19,2.53.39.54-.54.68-1.35.35-2.04-.08-.18-.2-.35-.34-.49l-2.83-2.97.9-.85,6.81,7.23Z"/>
  <path class="cls-1" d="M276.52,296.85l-1.27-1.48-1.35,1.15-.61-.72,1.35-1.14-2.38-2.79c-.55-.64-1.03-.85-1.55-.4-.19.15-.36.33-.49.53l-.65-.67c.19-.33.43-.61.73-.84.36-.34.85-.51,1.35-.47.62.14,1.16.51,1.51,1.03l2.41,2.84.8-.68.61.72-.8.68,1.06,1.24-.71,1Z"/>
  <path class="cls-1" d="M275.02,299.71l-.96.77-2.63-3.33h0c.07.42.01.84-.15,1.23-.16.42-.42.78-.77,1.06-.71.57-2.2,1.03-3.66-.8l-2.52-3.17.97-.76,2.43,3.06c.67.9,1.57,1.33,2.48.61.58-.49.8-1.29.53-2-.06-.19-.16-.36-.3-.51l-2.54-3.21.96-.77,6.17,7.83Z"/>
  <path class="cls-1" d="M264.42,299.36c-.62-1.03-1.95-1.36-2.98-.75-.1.06-.2.13-.29.21-.53.35-.98.81-1.32,1.36l-.68-.59c.4-.66.94-1.23,1.58-1.66,1.34-1.11,3.32-.92,4.43.41.1.12.2.26.28.4,1.2,1.66,1.17,3.68-.43,4.84-1.8,1.3-3.42.07-4.15-.94-.11-.16-.21-.32-.3-.49l3.86-2.77ZM262,302.2c.48.87,1.58,1.18,2.45.69.04-.02.08-.05.11-.07.79-.68.94-1.84.36-2.7l-2.92,2.08Z"/>
  <path class="cls-1" d="M258.24,305.42c.47.74.9,1.31,1.24,1.84l-.9.59-.67-.95h0c.03.99-.49,1.91-1.34,2.41-1.38.9-3.17.37-4.28-1.38-1.31-2.06-.7-3.87.65-4.74.69-.48,1.58-.56,2.35-.22h0l-1.98-3.12,1.03-.66,3.9,6.21ZM256.24,304.52c-.1-.14-.2-.27-.32-.4-.63-.61-1.6-.7-2.34-.22-1.11.7-1.17,2-.33,3.32.73,1.15,1.96,1.75,3.06,1.05.75-.5,1.06-1.44.76-2.29-.05-.17-.12-.33-.21-.48l-.62-.98Z"/>
  <path class="cls-1" d="M254.49,314.11l-1.06.63-5.07-8.59,1.07-.63,5.06,8.59Z"/>
  <path class="cls-1" d="M243.72,308.76l.5.7h0c.11-.81.61-1.51,1.33-1.89.89-.58,2.09-.33,2.67.57.03.05.06.1.09.14.8,1.44-.04,2.93-2.35,4.19l.06.12c.29.72,1.11,1.08,1.83.79.1-.04.19-.09.28-.15.55-.3,1-.76,1.31-1.3l.64.58c-.4.68-.97,1.23-1.66,1.6-1.8,1.01-2.95,0-3.59-1.19l-1.23-2.23c-.26-.48-.56-.94-.9-1.37l1.02-.57ZM245.52,311.71c1.2-.63,2.42-1.58,1.8-2.7-.25-.55-.91-.8-1.47-.54-.04.02-.08.04-.13.07-.66.34-1.02,1.07-.9,1.8.02.14.06.27.13.39l.57.99Z"/>
  <path class="cls-1" d="M244.27,316.15l-3.13-2.92c-.33-.33-.73-.74-1.01-1.05h0c.07.42.18.95.24,1.46l.58,4.17-1.17.58-.51-5.16c-.25-2.48-.24-3.82.18-4.84.21-.54.55-1.02,1-1.39l.75.79c-.3.29-.54.63-.7,1.02-.23.54-.34,1.12-.31,1.7-.01.1-.01.2,0,.31.06.09.14.18.22.25l5.04,4.49-1.19.59Z"/>
  <path class="cls-1" d="M233.97,313.61c.15.43.4,1.08.64,1.64l3.24,7.55-1.12.48-1.68-3.93h0c-.12.94-.75,1.73-1.64,2.06-1.55.67-3.2-.16-4-2.06-.95-2.24,0-3.95,1.37-4.55.85-.42,1.86-.31,2.6.28h0l-.39-1.06.99-.4ZM233.87,316.61c-.07-.14-.14-.27-.23-.39-.52-.71-1.47-.96-2.27-.6-1.19.5-1.48,1.8-.9,3.21.53,1.26,1.64,2.05,2.85,1.53.82-.37,1.29-1.24,1.13-2.13-.02-.17-.07-.34-.13-.49l-.44-1.12Z"/>
  <path class="cls-1" d="M222.38,320.24c-.24-.66-.47-1.23-.69-1.72l1.02-.38.45,1.02h0c.16-.91.79-1.66,1.66-1.97,1-.38,2.4-.27,3.24,1.97l1.39,3.72-1.16.43-1.31-3.52c-.46-1.21-1.12-1.9-2.18-1.5-.67.27-1.12.91-1.13,1.63,0,.21.05.43.12.63l1.46,3.9-1.15.44-1.71-4.65Z"/>
  <path class="cls-1" d="M221.6,327.76l-.61-1.85-1.68.56-.3-.9,1.68-.56-1.15-3.48c-.27-.8-.65-1.19-1.29-.96-.23.07-.45.17-.66.3l-.34-.85c.29-.23.62-.41.98-.51.46-.19.99-.16,1.43.08.52.36.88.91,1.02,1.53l1.17,3.51,1-.32.3.9-1.01.33.51,1.55-1.04.68Z"/>
  <path class="cls-1" d="M217.5,329.08l-.56-1.87-1.7.51-.27-.9,1.69-.51-1.06-3.51c-.24-.81-.61-1.2-1.27-1-.23.07-.45.17-.66.29l-.32-.9c.3-.22.64-.39,1-.49.45-.14.94-.09,1.35.14.51.38.85.93.97,1.55l1.07,3.55,1.01-.31.27.9-1.01.31.48,1.55-.99.67Z"/>
  <path class="cls-1" d="M207.41,326.34c-.62-1.72.27-3.62,2-4.24.12-.04.24-.08.36-.11,1.72-.47,3.49.54,3.97,2.25.03.1.05.2.07.3.62,1.72-.28,3.62-2,4.24-.11.04-.22.07-.33.1-1.71.49-3.49-.5-3.98-2.21-.03-.11-.06-.22-.08-.33ZM212.61,324.91c-.38-1.44-1.49-2.31-2.7-2s-1.72,1.6-1.32,3.07c.29,1.11,1.21,2.38,2.62,2.01s1.72-1.83,1.39-3.08h0Z"/>
  <path class="cls-1" d="M206.56,328.04c.14.69.28,1.25.43,1.8l-1.07.23-.3-1.09h0c-.27.89-1.01,1.55-1.92,1.72-.9.2-2.46-.04-2.96-2.33l-.84-3.96,1.2-.26.83,3.83c.22,1.07.81,1.88,1.95,1.64.74-.18,1.29-.82,1.36-1.58.03-.19.03-.39,0-.58l-.85-3.99,1.2-.26.97,4.84Z"/>
  <path class="cls-1" d="M194.84,328.33l.54-3.09,1.25-.18-1.8,9.83-1.46.21-4.57-8.9,1.29-.19,1.43,2.8,3.31-.49ZM191.9,329.72l1.31,2.56c.3.58.52,1.11.74,1.64h0c.06-.58.13-1.17.22-1.8l.52-2.84-2.8.44Z"/>
  <path class="cls-1" d="M188.54,331.2c.06.7.13,1.27.23,1.8l-1.09.11-.18-1.11h0c-.38.85-1.19,1.43-2.12,1.49-.9.09-2.44-.33-2.7-2.65l-.39-4.04,1.22-.12.38,3.89c.11,1.1.6,1.96,1.8,1.85.76-.1,1.37-.67,1.53-1.42.03-.19.03-.38,0-.58l-.4-4.07,1.23-.12.48,4.96Z"/>
  <path class="cls-1" d="M174.87,330.68c-.25-1.81,1.02-3.49,2.84-3.74.12-.02.24-.03.36-.03,1.77-.12,3.3,1.23,3.42,3,0,.11,0,.22,0,.32.25,1.81-1.01,3.48-2.82,3.73-.12.02-.24.03-.37.03-1.77.13-3.31-1.21-3.44-2.98,0-.11-.01-.23,0-.34ZM180.26,330.34c-.07-1.49-.99-2.57-2.19-2.51s-2,1.21-1.92,2.74c.05,1.14.7,2.57,2.16,2.5s2.01-1.44,1.95-2.73h0Z"/>
  <path class="cls-1" d="M172.33,336v-1.95h-1.8v-.9h1.8l-.06-3.66c0-.84-.26-1.32-.95-1.3-.24,0-.48.03-.71.09l-.07-.9c.35-.13.72-.2,1.09-.19.5-.04.99.14,1.35.49.39.51.57,1.16.5,1.8l.06,3.7h1.05v.94h-1.05v1.63l-1.2.24Z"/>
  <path class="cls-1" d="M169.31,337.25h-1.23l.09-4.24h0c-.22.36-.53.66-.9.85-.39.22-.82.33-1.27.32-.9,0-2.36-.61-2.31-2.96l.09-4.04h1.23l-.08,3.9c0,1.09.36,2.02,1.53,2.05.76,0,1.43-.48,1.68-1.2.07-.19.1-.39.1-.59l.08-4.09h1.24l-.25,9.99Z"/>
  <path class="cls-1" d="M161.38,330.22c.18-1.19-.64-2.3-1.84-2.48-.11-.02-.23-.02-.34-.02-.64-.06-1.29.01-1.9.22l-.15-.9c.73-.25,1.51-.34,2.28-.27,1.74,0,3.15,1.42,3.15,3.16,0,.16-.01.32-.04.48-.13,2.04-1.45,3.59-3.42,3.44-2.21-.14-2.7-2.13-2.59-3.38,0-.25.06-.44.08-.57l4.76.31ZM157.7,330.86c-.18.98.46,1.92,1.43,2.1.05,0,.1.02.15.02,1.06-.01,1.93-.82,2.02-1.88l-3.6-.24Z"/>
  <path class="cls-1" d="M155.32,331.27c-.08.8-.13,1.48-.15,2.12l-1.08-.11.09-1.33h-.05c-.32.82-1.13,1.35-2.01,1.29-.12,0-.24-.03-.35-.07l.12-1.16c.14.04.27.07.41.08.87.04,1.63-.56,1.8-1.41.05-.19.09-.38.11-.58l.36-3.59,1.21.12-.45,4.64Z"/>
  <path class="cls-1" d="M149.19,327.14c-.44-.37-.97-.62-1.54-.72-.9-.13-1.38.26-1.46.81s.22.96,1.07,1.42c1.15.61,1.62,1.36,1.5,2.17-.21,1.14-1.31,1.89-2.44,1.67-.05-.01-.11-.02-.16-.04-.58-.08-1.12-.31-1.59-.66l.44-.84c.37.31.83.52,1.31.58.73.11,1.19-.25,1.26-.75s-.29-.9-1.11-1.32c-1.1-.61-1.61-1.29-1.46-2.28.17-1.19,1.2-1.89,2.8-1.65.65.09,1.27.34,1.8.74l-.41.88Z"/>
  <path class="cls-1" d="M141.27,333.49l.34-1.91-1.74-.31.16-.9,1.74.31.63-3.59c.15-.83,0-1.34-.68-1.46-.24-.04-.48-.06-.72-.04l.11-.9c.36-.07.74-.07,1.11,0,.5.06.95.33,1.22.75.28.56.34,1.2.17,1.8l-.65,3.65,1.04.18-.16.9-1.04-.18-.28,1.6-1.25.12Z"/>
  <path class="cls-1" d="M133.54,326.53c.23-1.82,1.89-3.11,3.71-2.88.12.01.23.04.35.06,1.75.35,2.88,2.05,2.53,3.8-.02.1-.05.2-.08.3-.23,1.82-1.88,3.11-3.7,2.88-.12-.01-.23-.03-.35-.06-1.75-.33-2.89-2.02-2.55-3.77.02-.11.05-.22.08-.33ZM138.82,327.58c.31-1.45-.29-2.7-1.47-2.97s-2.25.66-2.56,2.15c-.24,1.12,0,2.7,1.45,2.97s2.32-.88,2.59-2.15h0Z"/>
  <path class="cls-1" d="M132.12,327.41c-.19.78-.35,1.45-.46,2.08l-1.05-.27.29-1.3h-.05c-.44.77-1.33,1.17-2.19.98-.12-.03-.23-.07-.33-.13l.29-1.13c.12.07.26.12.4.14.86.18,1.71-.3,2-1.13.08-.17.15-.35.2-.54l.9-3.51,1.19.3-1.16,4.52Z"/>
  <path class="cls-1" d="M126.63,328.19l-.31-4.27v-1.46h0c-.23.36-.51.82-.81,1.24l-2.47,3.44-1.25-.36,3.13-4.13c1.5-2,2.41-2.97,3.42-3.43.52-.26,1.09-.38,1.67-.35v1.09c-.42.01-.82.11-1.2.28-.53.23-1.01.58-1.38,1.02-.07.07-.13.16-.17.26-.02.11-.02.22,0,.33l.67,6.71-1.29-.38Z"/>
  <path class="cls-1" d="M116.49,327.06l.63-1.84-1.67-.58.31-.9,1.68.58,1.2-3.47c.28-.79.21-1.32-.45-1.55-.23-.08-.46-.14-.7-.15l.25-.9c.37,0,.74.07,1.09.2.48.13.87.46,1.1.9.18.59.13,1.23-.13,1.8l-1.2,3.51.99.34-.31.9-1-.34-.54,1.59-1.25-.08Z"/>
  <path class="cls-1" d="M113.24,327.23l-1.15-.44,1.52-3.95h0c-.33.26-.72.43-1.14.49-.44.08-.89.03-1.3-.13-.9-.32-2.01-1.38-1.17-3.59l1.45-3.77,1.16.45-1.42,3.68c-.4,1.02-.35,2.03.74,2.44.71.25,1.51.03,1.99-.56.13-.15.23-.32.3-.51l1.47-3.83,1.15.44-3.59,9.29Z"/>
  <path class="cls-1" d="M106.65,313.79l-.25.82h0c.73-.4,1.61-.42,2.35-.04,1.01.35,1.54,1.46,1.18,2.46-.02.05-.04.1-.06.15-.66,1.51-2.35,1.74-4.75.68l-.05.13c-.4.66-.19,1.51.46,1.91.1.06.21.11.32.14.57.24,1.19.33,1.8.25l-.07.85c-.78.1-1.57-.02-2.28-.34-1.91-.83-1.8-2.34-1.26-3.59l1.02-2.33c.23-.5.41-1.01.56-1.54l1.04.44ZM105.42,317.03c1.22.57,2.7.96,3.25-.24.28-.54.08-1.21-.46-1.49-.04-.02-.09-.04-.14-.06-.67-.31-1.46-.15-1.96.39-.09.1-.16.21-.22.33l-.48,1.08Z"/>
  <path class="cls-1" d="M99.33,320.03l.84-1.8-1.59-.75.4-.85,1.59.76,1.58-3.31c.36-.76.35-1.29-.27-1.59-.22-.1-.45-.18-.68-.23l.34-.9c.37.03.73.14,1.06.31.46.19.82.57.99,1.04.11.62,0,1.26-.33,1.8l-1.59,3.34.9.45-.4.85-.9-.46-.7,1.47-1.23-.14Z"/>
  <path class="cls-1" d="M98.01,311.03c-.29-.5-.71-.92-1.21-1.2-.79-.42-1.38-.22-1.64.27s-.12.97.52,1.7c.9.96,1.07,1.8.68,2.54-.59,1-1.87,1.33-2.87.74-.05-.03-.09-.06-.13-.09-.52-.27-.96-.67-1.28-1.16l.69-.65c.25.42.61.77,1.04,1,.44.33,1.07.23,1.39-.21.02-.02.03-.04.04-.06.26-.49,0-.9-.59-1.63-.84-.95-1.09-1.75-.61-2.64.56-1.06,1.8-1.37,3.2-.6.59.3,1.1.75,1.46,1.3l-.71.69Z"/>
  <path class="cls-1" d="M88.38,314.28l.97-1.7-1.54-.9.47-.82,1.54.9,1.8-3.17c.41-.74.45-1.27-.15-1.61-.2-.12-.43-.22-.66-.28l.41-.84c.36.07.71.2,1.02.4.45.22.78.63.9,1.11.08.64-.08,1.28-.46,1.8l-1.8,3.22.9.52-.47.82-.9-.52-.81,1.41-1.23-.34Z"/>
  <path class="cls-1" d="M87.22,303.38l-.37.78h0c.76-.3,1.62-.21,2.3.23.95.49,1.31,1.66.82,2.61-.03.05-.05.1-.08.14-.9,1.39-2.58,1.39-4.8,0l-.07.12c-.49.59-.4,1.47.19,1.96.09.07.19.14.3.19.54.33,1.16.51,1.8.5l-.2.84c-.78,0-1.55-.23-2.21-.66-1.8-1.1-1.45-2.56-.74-3.72l1.34-2.16c.3-.46.56-.93.78-1.43l.94.59ZM85.55,306.42c1.13.74,2.56,1.34,3.25.22.36-.49.25-1.17-.23-1.53-.04-.03-.09-.06-.13-.08-.62-.4-1.42-.36-2,.11-.11.08-.2.18-.27.3l-.62,1Z"/>
  <path class="cls-1" d="M82.54,305.92c-.44.67-.81,1.25-1.12,1.8l-.9-.59.7-1.13h-.04c-.67.57-1.63.65-2.39.2-.1-.07-.19-.14-.27-.23l.65-.96c.1.1.21.18.32.26.75.46,1.72.28,2.26-.4.13-.14.25-.28.36-.44l2-3.02,1.02.68-2.6,3.85Z"/>
  <path class="cls-1" d="M75.21,305.85l1.12-1.59-1.44-1.02.54-.76,1.45,1.02,2.11-2.99c.49-.68.57-1.21,0-1.61-.2-.14-.41-.26-.64-.34l.49-.79c.36.1.69.27.99.49.43.26.71.7.79,1.2,0,.63-.22,1.24-.63,1.72l-2.14,3.03.9.61-.57.77-.9-.61-.9,1.33-1.19-.44Z"/>
  <path class="cls-1" d="M77.46,298.27c-.21-.54-.56-1.01-1.01-1.38-.72-.54-1.32-.43-1.66,0s-.27.94.26,1.8c.71,1.08.77,1.96.28,2.62-.73.89-2.05,1.03-2.95.29-.04-.04-.09-.07-.13-.11-.47-.35-.84-.81-1.08-1.34l.79-.53c.19.46.5.86.9,1.15.39.39,1.02.39,1.41,0,.02-.02.04-.04.05-.06.33-.45.16-.9-.34-1.69-.67-1.07-.8-1.91-.2-2.7.72-.95,1.97-1.07,3.25-.1.54.39.97.91,1.25,1.52l-.84.53Z"/>
  <path class="cls-1" d="M67.33,297.48l1.56-3.21c.35-.7.67-1.36,1.02-1.97h0c-.57.42-1.21.83-1.86,1.24l-3.1,1.91-.78-.67,1.41-3.26c.33-.78.66-1.46.98-2.08h0c-.57.48-1.17.92-1.8,1.33l-2.95,1.96-.9-.79,6.08-3.73.9.73-1.32,3.14c-.31.73-.6,1.37-1,2.09h0c.58-.49,1.19-.95,1.82-1.38l2.93-1.73.9.73-2.93,6.49-.98-.77Z"/>
  <path class="cls-1" d="M57.82,291.6c.26-.3.72-.33,1.03-.07.02.02.05.04.07.07.31.29.32.78.02,1.08-.29.31-.78.32-1.08.02h0c-.31-.25-.36-.71-.11-1.02.02-.03.05-.06.08-.08ZM64.75,286.15l-4.63,4.98-.9-.84,4.58-4.98.94.84Z"/>
  <path class="cls-1" d="M55.53,289.47l1.37-1.4-1.27-1.23.65-.67,1.24,1.23,2.55-2.62c.59-.6.75-1.11.26-1.59-.17-.17-.36-.32-.58-.44l.61-.7c.34.15.64.37.9.64.38.33.6.8.59,1.3-.09.63-.41,1.2-.9,1.6l-2.58,2.7.75.73-.66.67-.75-.73-1.11,1.13-1.09-.61Z"/>
  <path class="cls-1" d="M52.55,288.26l-.85-.9,3.06-2.93h0c-.41.11-.83.11-1.24,0-.43-.12-.81-.36-1.12-.67-.63-.66-1.23-2.1.46-3.72l2.87-2.85.85.9-2.82,2.7c-.79.76-1.18,1.7-.37,2.53.54.53,1.36.67,2.04.34.18-.08.34-.2.48-.34l2.97-2.84.9.9-7.22,6.88Z"/>
  <path class="cls-1" d="M45.49,278.77l1.47-1.28-1.13-1.34.72-.61,1.15,1.34,2.78-2.39c.64-.55.84-1.04.4-1.56-.16-.18-.34-.34-.53-.49l.67-.65c.32.19.6.43.84.72.35.36.52.85.48,1.35-.14.62-.5,1.16-1.02,1.52l-2.8,2.42.68.8-.71.61-.69-.8-1.26,1.1-1.02-.74Z"/>
  <path class="cls-1" d="M42.62,277.3l-.77-.97,3.31-2.64h0c-.42.06-.84,0-1.23-.15-.41-.16-.78-.42-1.06-.76-.58-.71-1.04-2.2.78-3.67l3.16-2.53.76.96-3.04,2.44c-.9.69-1.33,1.58-.6,2.49.49.58,1.28.79,2,.53.19-.07.37-.17.52-.31l3.2-2.56.76.96-7.79,6.21Z"/>
  <path class="cls-1" d="M42.92,266.68c1.03-.62,1.36-1.96.74-2.99-.06-.1-.13-.2-.21-.28-.37-.53-.84-.98-1.39-1.31l.59-.69c.66.4,1.23.94,1.67,1.58,1.11,1.34.93,3.32-.41,4.43-.12.1-.26.2-.39.28-1.65,1.21-3.68,1.19-4.84-.41-1.31-1.8-.08-3.42.9-4.15.16-.11.32-.21.49-.31l2.84,3.86ZM40.08,264.29c-.85.45-1.19,1.5-.74,2.35.04.07.08.14.13.21.68.78,1.84.93,2.7.35l-2.09-2.91Z"/>
  <path class="cls-1" d="M36.85,260.51c-.74.47-1.31.9-1.8,1.24l-.59-.9.94-.67h0c-1.02.06-1.99-.46-2.5-1.34-.9-1.38-.38-3.17,1.36-4.29,2.06-1.32,3.87-.72,4.74.63.48.68.57,1.57.23,2.34h0l3.11-2,.66,1.03-6.15,3.95ZM37.75,258.51c.14-.1.27-.2.4-.32.6-.64.69-1.6.22-2.34-.7-1.1-2.01-1.16-3.33-.32-1.14.74-1.73,1.97-1.03,3.06.5.74,1.45,1.05,2.29.75.17-.04.33-.11.48-.2l.98-.63Z"/>
  <path class="cls-1" d="M28.13,256.82l-.63-1.06,8.57-5.1.63,1.06-8.57,5.1Z"/>
  <path class="cls-1" d="M33.43,246.01l-.7.5h0c.81.11,1.51.6,1.89,1.32.59.9.34,2.1-.56,2.69-.04.03-.09.06-.13.08-1.44.8-2.93-.04-4.2-2.35l-.12.07c-.72.29-1.07,1.1-.79,1.82.04.1.09.2.16.29.31.55.76,1,1.3,1.3l-.58.64c-.68-.39-1.24-.97-1.62-1.66-1.01-1.8,0-2.95,1.18-3.59l2.23-1.23c.48-.26.94-.56,1.37-.9l.57,1.02ZM30.49,247.81c.63,1.2,1.58,2.42,2.7,1.8.55-.25.79-.9.54-1.45-.02-.05-.05-.09-.08-.14-.33-.66-1.07-1.03-1.8-.9-.13.02-.26.06-.38.13l-.99.57Z"/>
  <path class="cls-1" d="M26.06,246.62l2.9-3.14c.33-.34.74-.73,1.04-1.02h0c-.42.07-.9.18-1.46.25l-4.16.6-.58-1.17,5.15-.53c2.48-.26,3.82-.26,4.84.16.55.2,1.03.54,1.4.99l-.79.75c-.29-.3-.64-.53-1.02-.69-.53-.23-1.11-.34-1.69-.31-.11,0-.21.01-.31.04-.09.06-.18.13-.24.22l-4.49,5.07-.58-1.23Z"/>
  <path class="cls-1" d="M28.55,236.32c-.44.15-1.08.4-1.64.65l-7.53,3.26-.51-1.16,3.92-1.7h0c-.94-.11-1.73-.74-2.06-1.63-.67-1.55.13-3.19,2.04-4,2.23-.97,3.95-.04,4.55,1.35.42.84.31,1.85-.27,2.59v.04l1.05-.4.45.99ZM25.54,236.23c.14-.07.27-.14.4-.23.7-.53.94-1.47.58-2.27-.51-1.19-1.8-1.47-3.21-.85-1.25.54-2.04,1.64-1.52,2.86.37.82,1.25,1.28,2.14,1.12.17-.03.33-.07.49-.13l1.11-.49Z"/>
  <path class="cls-1" d="M21.87,224.76c.66-.25,1.22-.49,1.71-.71l.39,1.02-1.01.46h0c.91.16,1.66.79,1.98,1.65.38.99.28,2.4-1.96,3.24l-3.7,1.46-.4-1.18,3.52-1.33c1.2-.46,1.88-1.13,1.48-2.18-.27-.67-.91-1.11-1.63-1.12-.21,0-.43.04-.63.12l-3.9,1.48-.48-1.18,4.62-1.73Z"/>
  <path class="cls-1" d="M14.38,224.01l1.85-.62-.57-1.67.9-.31.57,1.68,3.47-1.17c.8-.27,1.18-.65.96-1.3-.08-.23-.18-.44-.31-.65l.85-.35c.23.29.4.63.51.99.18.46.16.99-.07,1.43-.36.52-.9.88-1.52,1.02l-3.51,1.18.33,1-.9.3-.33-1-1.55.52-.69-1.04Z"/>
  <path class="cls-1" d="M13.01,219.84l1.86-.58-.49-1.69.9-.27.51,1.69,3.51-1.08c.8-.24,1.19-.61.99-1.27-.07-.23-.17-.46-.29-.67l.9-.32c.22.3.38.64.49,1,.17.47.13.99-.11,1.43-.37.51-.93.85-1.55.97l-3.55,1.13.31,1.01-.9.28-.31-1.05-1.55.48-.71-1.06Z"/>
  <path class="cls-1" d="M15.69,209.79c1.72-.63,3.62.25,4.26,1.97.04.11.08.22.1.34.48,1.72-.52,3.51-2.25,3.99-.1.03-.19.05-.29.07-1.72.64-3.63-.24-4.26-1.95-.04-.1-.07-.2-.1-.3-.52-1.69.43-3.49,2.12-4.01.13-.04.27-.07.41-.1ZM17.15,214.98c1.44-.39,2.3-1.5,2-2.7s-1.61-1.71-3.08-1.31c-1.11.3-2.38,1.23-2,2.64s1.85,1.7,3.09,1.37Z"/>
  <path class="cls-1" d="M13.96,208.98c-.68.14-1.24.28-1.8.44l-.23-1.07,1.08-.31h0c-.89-.27-1.56-1.01-1.73-1.92-.2-.9,0-2.46,2.32-2.96l3.96-.9.26,1.21-3.83.83c-1.07.23-1.87.83-1.63,1.97.19.74.83,1.28,1.59,1.35.19.03.39.03.58,0l3.99-.9.26,1.2-4.83,1.05Z"/>
  <path class="cls-1" d="M13.66,197.27l3.09.53.19,1.25-9.83-1.8-.22-1.46,8.88-4.59.19,1.29-2.79,1.45.49,3.33ZM12.26,194.34l-2.55,1.32c-.58.31-1.11.52-1.64.75h0c.58.05,1.17.13,1.8.22l2.84.51-.45-2.8Z"/>
  <path class="cls-1" d="M10.78,190.96c-.7.07-1.28.14-1.8.24l-.11-1.09,1.11-.19h0c-.86-.35-1.46-1.16-1.55-2.09-.09-.9.31-2.44,2.63-2.7l4.04-.4.13,1.22-3.89.4c-1.09.11-1.96.61-1.8,1.8.11.73.66,1.32,1.38,1.48.19.03.39.03.58,0l4.06-.41.13,1.23-4.91.5Z"/>
  <path class="cls-1" d="M11.22,177.3c1.81-.26,3.49,1,3.75,2.81.02.12.03.24.03.37.11,1.78-1.24,3.32-3.02,3.44-.1,0-.2,0-.3,0-1.82.26-3.5-1-3.76-2.82-.02-.12-.03-.23-.03-.35-.13-1.77,1.2-3.31,2.97-3.44.12,0,.23-.01.35,0ZM11.58,182.69c1.49-.08,2.56-1,2.5-2.2s-1.22-2-2.75-1.91c-1.15.06-2.57.72-2.49,2.17s1.46,2,2.74,1.92v.02Z"/>
  <path class="cls-1" d="M5.9,174.73h1.95v-1.8h.94v1.8l3.67-.07c.84,0,1.31-.26,1.3-.95,0-.24-.04-.48-.1-.71l.9-.07c.13.35.19.72.19,1.09.03.5-.15.99-.49,1.35-.51.39-1.16.57-1.8.5l-3.7.07v1.05h-.94v-1.05h-1.63l-.29-1.2Z"/>
  <path class="cls-1" d="M4.62,171.76v-1.23l4.23.07h0c-.38-.21-.69-.52-.9-.9-.22-.39-.33-.82-.32-1.27,0-.9.6-2.36,2.94-2.32l4.04.07v1.23l-3.83-.1c-1.1,0-2.03.38-2.05,1.54,0,.74.46,1.41,1.15,1.68.19.07.39.1.58.09l4.1.08v1.23l-9.95-.18Z"/>
  <path class="cls-1" d="M11.62,163.8c1.19.18,2.3-.64,2.47-1.83.02-.12.03-.24.02-.36.06-.64-.02-1.29-.23-1.91l.9-.15c.25.73.35,1.51.29,2.28,0,1.74-1.41,3.16-3.15,3.16-.15,0-.3-.01-.44-.03-2.05-.13-3.59-1.43-3.47-3.41.13-2.21,2.12-2.7,3.37-2.61.19.01.39.04.58.07l-.33,4.77ZM10.96,160.12c-.98-.18-1.91.47-2.09,1.44,0,.05-.02.1-.02.15.02,1.06.83,1.93,1.89,2.01l.22-3.6Z"/>
  <path class="cls-1" d="M10.54,157.74c-.8-.08-1.48-.13-2.12-.14l.11-1.08,1.33.08v-.05c-.82-.32-1.35-1.13-1.3-2.01.01-.12.04-.23.08-.34l1.16.11c-.04.13-.07.27-.08.41-.05.87.56,1.64,1.42,1.8.19.05.37.09.57.11l3.59.35-.11,1.21-4.65-.44Z"/>
  <path class="cls-1" d="M14.62,151.6c.37-.44.62-.98.72-1.55.13-.9-.26-1.37-.82-1.45s-.95.22-1.41,1.08c-.6,1.15-1.35,1.63-2.16,1.51-1.13-.2-1.89-1.29-1.68-2.42.01-.06.02-.12.04-.18.08-.58.3-1.12.65-1.59l.84.43c-.31.38-.51.83-.58,1.31-.1.73.26,1.19.76,1.26s.9-.29,1.32-1.11c.6-1.11,1.28-1.62,2.27-1.48,1.18.17,1.89,1.2,1.66,2.8-.09.65-.34,1.27-.73,1.8l-.89-.41Z"/>
  <path class="cls-1" d="M8.26,143.69l1.92.32.3-1.74.9.16-.31,1.74,3.59.62c.84.14,1.34,0,1.46-.69.04-.24.06-.48.04-.72l.9.1c.07.37.07.75,0,1.11-.05.5-.32.94-.74,1.22-.56.28-1.2.34-1.8.17l-3.65-.62-.18,1.03-.9-.16.18-1.03-1.61-.28-.12-1.24Z"/>
  <path class="cls-1" d="M15.19,135.92c1.82.22,3.12,1.88,2.9,3.7-.01.12-.04.24-.06.35-.35,1.75-2.05,2.89-3.8,2.54-.1-.02-.19-.04-.28-.07-1.82-.22-3.12-1.87-2.9-3.69.01-.12.03-.23.06-.35.33-1.75,2.01-2.9,3.75-2.57.11.02.22.05.33.08ZM14.16,141.21c1.46.31,2.7-.31,2.97-1.49s-.67-2.25-2.16-2.55c-1.13-.24-2.7,0-2.97,1.46s.89,2.32,2.16,2.59Z"/>
  <path class="cls-1" d="M14.29,134.52c-.77-.19-1.45-.34-2.07-.45l.26-1.05,1.3.28v-.05c-.77-.44-1.16-1.32-.99-2.18.03-.12.07-.23.13-.33l1.12.28c-.06.13-.11.26-.13.4-.18.86.31,1.71,1.14,1.99.18.08.36.14.55.19l3.51.9-.24,1.16-4.58-1.12Z"/>
  <path class="cls-1" d="M13.48,129.02l4.27-.33h1.46c-.35-.23-.82-.51-1.24-.81l-3.46-2.38.35-1.26,4.15,3.11c2,1.48,2.97,2.39,3.45,3.4.27.52.39,1.1.35,1.68h-1.08c-.02-.42-.12-.82-.29-1.2-.23-.53-.59-1-1.03-1.38-.07-.07-.16-.13-.26-.17-.11-.02-.22-.02-.33,0l-6.7.7.37-1.36Z"/>
  <path class="cls-1" d="M14.58,118.9l1.85.63.57-1.67.9.3-.57,1.67,3.47,1.18c.79.27,1.32.2,1.55-.46.08-.23.13-.46.14-.7l.9.24c0,.37-.06.74-.19,1.09-.13.48-.46.88-.9,1.1-.59.19-1.23.15-1.8-.11l-3.51-1.19-.34.99-.9-.3.34-1-1.55-.52.03-1.25Z"/>
  <path class="cls-1" d="M14.38,115.64l.44-1.15,3.96,1.5h0c-.27-.32-.44-.72-.49-1.13-.08-.44-.04-.89.12-1.3.32-.85,1.37-2.02,3.59-1.19l3.78,1.44-.44,1.15-3.65-1.38c-1.02-.39-2.03-.34-2.44.75-.25.71-.03,1.51.56,1.99.16.13.33.22.52.29l3.84,1.46-.44,1.15-9.35-3.57Z"/>
  <path class="cls-1" d="M27.86,108.96l-.9-.21h0c.41.71.45,1.57.11,2.31-.36,1.01-1.46,1.54-2.48,1.19-.05-.02-.09-.04-.14-.06-1.51-.65-1.75-2.35-.7-4.75l-.13-.05c-.66-.4-1.53-.18-1.92.49-.06.1-.1.2-.14.31-.24.57-.32,1.19-.24,1.8l-.85-.06c-.11-.78,0-1.57.33-2.29.82-1.91,2.33-1.8,3.59-1.27l2.33,1.01c.5.22,1.02.41,1.55.55l-.41,1.05ZM24.61,107.75c-.57,1.22-.95,2.7.26,3.25.54.28,1.2.08,1.48-.46.02-.05.05-.1.06-.15.31-.67.15-1.46-.4-1.96-.1-.09-.21-.17-.33-.22l-1.08-.47Z"/>
  <path class="cls-1" d="M21.57,101.66l1.8.84.75-1.6.84.4-.75,1.6,3.32,1.56c.76.36,1.29.34,1.59-.28.11-.22.18-.45.22-.68l.9.35c-.04.37-.14.73-.31,1.06-.18.46-.56.82-1.03.98-.62.12-1.26,0-1.8-.32l-3.35-1.58-.45.95-.85-.4.45-.95-1.47-.7.15-1.23Z"/>
  <path class="cls-1" d="M30.56,100.33c.5-.29.91-.7,1.2-1.2.42-.8.22-1.38-.28-1.64s-.97-.12-1.7.54c-.95.9-1.8,1.07-2.53.68-1-.58-1.34-1.85-.76-2.85.03-.05.06-.1.1-.15.27-.52.66-.96,1.15-1.28l.65.69c-.43.25-.78.61-1.02,1.05-.32.45-.22,1.07.22,1.39.02.02.04.03.07.04.5.26.9,0,1.63-.6.9-.84,1.8-1.09,2.64-.62,1.05.56,1.37,1.8.61,3.2-.3.6-.75,1.1-1.3,1.47l-.67-.73Z"/>
  <path class="cls-1" d="M27.25,90.72l1.69.95.9-1.55.82.47-.9,1.54,3.19,1.8c.73.41,1.27.45,1.6-.15.12-.21.22-.43.28-.67l.84.41c-.06.37-.2.72-.4,1.03-.22.45-.62.78-1.11.9-.64.08-1.28-.08-1.8-.46l-3.23-1.8-.52.9-.75-.45.52-.9-1.42-.82.29-1.21Z"/>
  <path class="cls-1" d="M38.12,89.53l-.78-.36h0c.3.76.22,1.61-.22,2.3-.5.95-1.67,1.32-2.62.82-.04-.02-.09-.05-.13-.07-1.4-.9-1.4-2.57,0-4.8l-.12-.07c-.6-.49-1.49-.39-1.97.21-.07.09-.13.18-.18.28-.33.54-.5,1.16-.49,1.8l-.84-.18c0-.79.23-1.56.65-2.22,1.09-1.8,2.56-1.46,3.72-.75l2.17,1.33c.46.29.94.54,1.45.75l-.64.97ZM35.05,87.88c-.73,1.13-1.32,2.56-.2,3.25.49.36,1.18.25,1.53-.24.03-.04.06-.09.09-.14.4-.62.35-1.43-.12-2-.08-.1-.18-.19-.3-.26l-1.01-.62Z"/>
  <path class="cls-1" d="M35.57,84.85c-.67-.44-1.26-.81-1.8-1.12l.59-.9,1.14.69v-.04c-.58-.67-.67-1.63-.21-2.39.07-.1.14-.19.22-.27l.98.65c-.11.09-.2.2-.27.32-.45.75-.27,1.72.41,2.26.14.14.29.26.45.37l3.03,1.99-.67,1.02-3.88-2.57Z"/>
  <path class="cls-1" d="M35.62,77.51l1.6,1.12,1.02-1.45.76.54-1.02,1.45,3,2.1c.69.48,1.22.56,1.61,0,.14-.19.26-.4.34-.63l.79.49c-.1.36-.26.69-.49.99-.26.43-.7.72-1.2.8-.63,0-1.24-.22-1.72-.63l-3.04-2.12-.6.9-.76-.54.6-.9-1.34-.9.43-1.22Z"/>
  <path class="cls-1" d="M43.19,79.75c.54-.21,1.01-.56,1.37-1.02.54-.72.43-1.33,0-1.66s-.94-.27-1.8.27c-1.08.72-1.96.77-2.62.29-.89-.74-1-2.06-.26-2.95.03-.03.05-.06.08-.09.35-.49.83-.87,1.38-1.12l.54.78c-.46.19-.86.5-1.15.9-.39.38-.39,1.01,0,1.4.02.02.05.05.07.07.45.34.9.16,1.7-.34,1.06-.68,1.9-.81,2.7-.21.96.71,1.08,1.96.12,3.25-.39.54-.91.97-1.51,1.26l-.6-.83Z"/>
  <path class="cls-1" d="M44.04,69.59l3.22,1.55c.7.34,1.36.66,1.97,1.02h0c-.42-.57-.83-1.21-1.24-1.85l-1.92-3.09.67-.79,3.27,1.39c.78.34,1.46.66,2.08.98h0c-.48-.57-.93-1.17-1.34-1.8l-1.98-2.95.79-.9,3.76,6.07-.72.9-3.16-1.46c-.72-.29-1.42-.62-2.09-.99h0c.47.62.91,1.26,1.31,1.92l1.8,2.92-.73.9-6.58-2.85.9-.96Z"/>
  <path class="cls-1" d="M49.8,60.06c.3.27.33.73.06,1.03-.02.02-.04.04-.06.06-.28.3-.75.31-1.04.03,0,0-.02-.02-.03-.03-.3-.3-.3-.78,0-1.08,0,0,0,0,0,0,.28-.3.75-.31,1.04-.03,0,0,.02.02.03.03ZM55.26,66.97l-5-4.6.84-.9,5,4.6-.84.9Z"/>
  <path class="cls-1" d="M51.9,57.78l1.4,1.36,1.22-1.28.68.66-1.23,1.28,2.64,2.53c.6.58,1.11.75,1.59.25.17-.17.32-.36.43-.58l.71.6c-.16.34-.37.64-.64.9-.33.38-.8.6-1.3.6-.63-.09-1.2-.41-1.6-.9l-2.7-2.57-.73.76-.68-.66.74-.75-1.18-1.13.64-1.08Z"/>
  <path class="cls-1" d="M53.12,54.77l.9-.85,2.95,3.05h0c-.11-.41-.11-.83,0-1.24.12-.43.35-.82.67-1.13.66-.63,2.09-1.24,3.72.44l2.8,2.91-.9.9-2.7-2.8c-.75-.79-1.7-1.17-2.53-.36-.53.54-.66,1.36-.33,2.04.08.18.2.34.35.48l2.88,2.92-.9.9-6.91-7.24Z"/>
  <path class="cls-1" d="M62.57,47.63l1.24,1.5,1.34-1.16.62.72-1.34,1.16,2.4,2.76c.56.64,1.04.84,1.56.4.18-.16.35-.34.49-.54l.66.67c-.19.32-.43.61-.72.84-.36.35-.85.53-1.35.49-.62-.14-1.16-.5-1.52-1.02l-2.44-2.8-.79.68-.62-.71.8-.68-1.07-1.23.74-1.07Z"/>
  <path class="cls-1" d="M64.03,44.78l.96-.75,2.7,3.3h0c-.07-.41-.02-.84.13-1.23.16-.42.42-.79.76-1.07.71-.58,2.2-1.05,3.68.77l2.53,3.15-.96.77-2.45-3.08c-.69-.84-1.59-1.31-2.5-.58-.58.49-.78,1.29-.51,2,.07.19.17.36.31.51l2.57,3.19-.96.77-6.26-7.76Z"/>
  <path class="cls-1" d="M74.6,45.07c.63,1.03,1.98,1.35,3.01.71.1-.06.19-.13.28-.2.53-.37.97-.84,1.3-1.39l.69.58c-.4.66-.94,1.24-1.57,1.68-1.34,1.12-3.33.94-4.44-.4-.1-.12-.19-.25-.27-.38-1.21-1.64-1.2-3.66.4-4.84,1.8-1.31,3.42-.09,4.16.9.14.21.24.39.31.49l-3.85,2.84ZM77,42.24c-.45-.85-1.5-1.18-2.36-.73-.07.04-.14.08-.21.13-.81.69-.95,1.88-.34,2.74l2.9-2.14Z"/>
  <path class="cls-1" d="M80.76,38.94c-.48-.73-.9-1.3-1.25-1.8l.9-.6.68.95h0c-.04-1,.48-1.95,1.36-2.44,1.38-.9,3.17-.4,4.3,1.33,1.32,2.05.73,3.87-.61,4.75-.68.48-1.57.57-2.34.24h0l2,3.1-1.02.67-4.02-6.19ZM82.77,39.84c.09.14.2.27.31.4.64.6,1.61.68,2.35.21,1.1-.71,1.15-2.01.31-3.33-.74-1.17-1.98-1.77-3.06-1.07-.73.51-1.04,1.46-.74,2.3.05.17.12.33.21.48l.62,1.02Z"/>
  <path class="cls-1" d="M84.48,30.23l1.06-.64,5.13,8.54-1.06.64-5.13-8.54Z"/>
  <path class="cls-1" d="M95.27,35.49l-.5-.7h0c-.11.81-.6,1.51-1.31,1.9-.89.59-2.09.35-2.68-.54-.03-.05-.06-.1-.09-.15-.81-1.43,0-2.93,2.32-4.2l-.06-.13c-.29-.72-1.11-1.06-1.83-.77-.1.04-.2.1-.3.16-.56.29-1.03.74-1.36,1.29l-.64-.58c.39-.68.96-1.24,1.64-1.62,1.8-1.02,2.95,0,3.59,1.16l1.24,2.22c.26.48.56.93.9,1.36l-.93.59ZM93.42,32.55c-1.2.64-2.41,1.59-1.8,2.74.25.55.89.79,1.44.54.05-.02.1-.05.15-.08.67-.33,1.03-1.07.9-1.8-.02-.13-.06-.25-.13-.37l-.57-1.03Z"/>
  <path class="cls-1" d="M94.63,28.09l3.15,2.9c.34.32.74.73,1.02,1.03h0c-.07-.42-.19-.95-.26-1.46l-.58-4.17,1.16-.59.56,5.16c.27,2.47.28,3.81-.13,4.84-.2.55-.54,1.03-.99,1.4l-.75-.78c.29-.3.52-.65.68-1.03.24-.53.34-1.12.3-1.7.02-.1.02-.21,0-.31-.06-.09-.13-.18-.22-.25l-5.1-4.38,1.16-.67Z"/>
  <path class="cls-1" d="M104.95,30.56c-.16-.44-.41-1.08-.66-1.63l-3.3-7.52,1.12-.49,1.71,3.9h0c.11-.94.73-1.74,1.62-2.08,1.55-.67,3.2.13,4.02,2.02.97,2.23.05,3.95-1.33,4.56-.84.43-1.86.32-2.6-.26h0l.4,1.05-.99.44ZM105.02,27.55c.07.14.15.27.23.4.54.69,1.47.92,2.27.58,1.19-.52,1.47-1.8.84-3.22-.55-1.25-1.65-2.03-2.87-1.5-.82.38-1.27,1.26-1.11,2.14.03.17.08.33.14.49l.49,1.11Z"/>
  <path class="cls-1" d="M116.5,23.81c.25.66.49,1.22.71,1.71l-1.02.4-.47-1.02h0c-.15.91-.78,1.67-1.64,1.99-1,.39-2.4.29-3.25-1.94l-1.42-3.71,1.15-.44,1.35,3.51c.46,1.2,1.14,1.88,2.19,1.47.87-.37,1.28-1.37.93-2.25l-1.49-3.89,1.15-.45,1.81,4.62Z"/>
  <path class="cls-1" d="M117.17,16.29l.63,1.84,1.68-.57.31.9-1.68.57,1.19,3.43c.27.8.66,1.18,1.3.95.23-.08.45-.18.66-.31l.35.9c-.29.23-.63.4-.99.51-.46.19-.99.17-1.43-.06-.52-.36-.88-.9-1.02-1.52l-1.2-3.51-1.02.34-.31-.9,1-.34-.52-1.55,1.06-.69Z"/>
  <path class="cls-1" d="M121.33,14.94l.58,1.87,1.69-.53.28.9-1.69.52,1.1,3.51c.25.8.62,1.19,1.28.98.23-.07.45-.17.66-.3l.33.9c-.3.22-.64.38-1,.49-.47.18-.99.14-1.43-.1-.52-.39-.86-.96-.97-1.6l-1.11-3.54-1.01.31-.28-.9,1.01-.31-.49-1.55,1.05-.64Z"/>
  <path class="cls-1" d="M131.4,17.58c.63,1.72-.25,3.63-1.96,4.26-.12.04-.23.08-.35.11-1.71.49-3.49-.5-3.98-2.2-.03-.1-.05-.2-.07-.3-.64-1.72.24-3.63,1.96-4.26.11-.04.23-.08.34-.11,1.71-.5,3.49.48,3.99,2.18.03.11.06.22.08.33ZM126.22,19.07c.39,1.43,1.51,2.29,2.7,1.97s1.7-1.61,1.3-3.08c-.31-1.11-1.24-2.36-2.7-1.99s-1.64,1.85-1.3,3.1Z"/>
  <path class="cls-1" d="M132.23,15.84c-.15-.68-.29-1.24-.46-1.8l1.07-.24.31,1.08h0c.27-.89,1-1.56,1.91-1.73.9-.21,2.46,0,2.97,2.3l.9,3.95-1.2.27-.9-3.82c-.23-1.07-.84-1.87-1.97-1.62-.75.18-1.29.82-1.34,1.59-.03.19-.03.39,0,.58l.9,3.98-1.2.27-1-4.82Z"/>
  <path class="cls-1" d="M259.29,146.16h-.04l-9.54-7.5h-.04l-8.99-7.05-.14-.11h0l-6.63-5.15-4.49-3.48-11.34-8.82-8.99-7-1.55-1.21-18.77-14.71-2.29-1.8v4.22l2.05,1.6v.11l3.28,2.55,8.39,6.54,4.81,3.73.1.08,1.91,1.47,8.99,7.01,11.34,8.81,4.49,3.49,6.62,5.15h0l.12.09,8.99,7.05h.05l9.45,7.49h0l.16.12c5.16,4.09,6.02,11.59,1.93,16.74-.51.64-1.08,1.23-1.71,1.75,1.31-5.77-.82-11.79-5.47-15.45l-.04-.04-9.54-7.5h-.04l-8.99-7.05-.14-.11h0l-6.63-5.15-4.49-3.48-11.34-8.82-8.99-7-1.55-1.21-13.73-10.68v4.27l11.18,8.77.1.08,1.91,1.47,8.99,7.01,11.34,8.81,4.49,3.49,6.62,5.15h0l.12.09,8.99,7.05h.1l9.37,7.36h0l.16.13c4.57,3.62,5.85,10.01,3.02,15.11-.79.21-1.61.34-2.43.39.14-4.83-2.02-9.44-5.81-12.43h-.04l-9.53-7.5h-.04l-8.99-7.05-.14-.12h0l-6.63-5.16-4.49-3.48-11.34-8.82-8.99-7-1.55-1.2-6.39-4.97v4.32l3.85,3.01.1.07,1.9,1.47,8.99,7.01,11.34,8.82,4.49,3.48,6.63,5.15h0l.12.09,8.99,7.05h.1l9.37,7.36h0l.16.13c2.87,2.27,4.53,5.75,4.49,9.41h0c-1.61-.38-3.12-1.1-4.44-2.1l-.11-.08-6.46-5.02-4.49-3.48-4.87-3.79-6.4-4.91-8.99-7-6.8-5.28-13.54-10.53-4.44-3.43v6.11h-15.8v15.82h-15.83v-15.82h-15.82v15.82h-15.81v15.82h-15.82v97.79c.02,7.54,6.14,13.64,13.68,13.62,3,0,5.92-1,8.3-2.84l11.76-9.04,40.56,11.91-16.73-30.29,2.7-2.08,2.99-2.3,15.82-12.19,1.73-1.33,14.05-10.82,6.44-4.96,7.08-5.46,2.29-1.8h0l11.14-8.58,4.66-3.59,9.11-7.03h0c.5-.3.98-.63,1.44-.99.47-.35.91-.74,1.33-1.14h0l3.93-3.03h.05l.95-.74c.38-.24.75-.5,1.11-.78.37-.28.72-.58,1.06-.9h0l6.29-4.84c6.72-5.15,8-14.78,2.84-21.51-.77-1.01-1.67-1.92-2.66-2.7Z"/>
  <rect class="cls-1" x="107.36" y="98.55" width="15.81" height="15.82"/>
  <polygon class="cls-1" points="123.17 66.91 123.13 66.91 107.36 66.91 107.36 82.73 123.17 82.73 123.17 66.94 123.17 66.91"/>
  <rect class="cls-1" x="123.17" y="82.73" width="15.82" height="15.82"/>
  <polygon class="cls-1" points="123.17 114.36 123.17 130.17 107.36 130.17 107.36 145.99 123.17 145.99 123.17 130.17 138.98 130.17 138.98 114.36 123.17 114.36"/>
  <polygon class="cls-1" points="170.63 99.98 170.63 98.55 168.78 98.55 154.8 98.55 154.8 114.36 170.63 114.36 170.63 99.98"/>
</svg>