<?xml version="1.0" encoding="UTF-8"?>
<svg id="Layer_4" data-name="Layer 4" xmlns="http://www.w3.org/2000/svg" xmlns:xlink="http://www.w3.org/1999/xlink" viewBox="0 0 113.3 180.89">
  <defs>
    <style>
      .cls-pink {
        fill: #ffcad3;
      }

      .cls-pink, .cls-2, .cls-3, .cls-4 {
        stroke: #003fd1;
      }

      .cls-pink, .cls-2, .cls-4 {
        stroke-linecap: round;
        stroke-linejoin: round;
        stroke-width: 2px;
      }

      .cls-5 {
        clip-path: url(#clippath-1);
      }

      .cls-2, .cls-3 {
        fill: none;
      }

      .cls-6 {
        fill: #fff;
      }

      .cls-3 {
        stroke-miterlimit: 10;
        stroke-width: .5px;
      }

      .cls-4 {
        fill: #003fd1;
      }

      .cls-7 {
        clip-path: url(#clippath);
      }
    </style>
    <clipPath id="clippath">
      <polygon class="cls-2" points="-81.59 -225.78 -197.56 -337.23 -111.28 -383.86 -81.59 -225.78"/>
    </clipPath>
    <clipPath id="clippath-1">
      <polygon class="cls-2" points="108.17 175.68 37.1 107.37 89.98 78.8 108.17 175.68"/>
    </clipPath>
  </defs>
  <g>
    <g class="cls-7">
      <g>
        <line class="cls-2" x1="-244.04" y1="18.57" x2="207.33" y2="-427.51"/>
        <line class="cls-2" x1="-222.32" y1="40.54" x2="229.04" y2="-405.54"/>
        <line class="cls-2" x1="-200.61" y1="62.51" x2="250.76" y2="-383.56"/>
        <line class="cls-2" x1="-178.89" y1="84.49" x2="272.48" y2="-361.59"/>
      </g>
    </g>
    <polygon class="cls-2" points="-81.59 -225.78 -197.56 -337.23 -111.28 -383.86 -81.59 -225.78"/>
  </g>
  <g>
    <path class="cls-6" d="M4.74,20.87c.09.15.22.34.39.54.22.29.49.61.82.95.68.72,1.38,1.28,2.16,1.73.98.55,2.02.82,3.08.82,1.35,0,2.66-.47,3.66-1.29.5-.4.92-.88,1.25-1.4.11-.07.23-.14.34-.21.02-.02.05-.03.07-.05.7-.49,1.29-1.07,1.76-1.72.18-.08.37-.16.55-.26.96-.53,1.8-1.23,2.46-2.06.46-.07.91-.17,1.36-.33.02,0,.05-.02.07-.02.71-.25,1.34-.6,1.91-1.01.49-.11.98-.29,1.43-.53.13-.07.25-.13.37-.21.36-.04.73-.12,1.1-.24.3-.09.59-.21.86-.35.09,0,.19,0,.28-.02.57-.07,1.12-.2,1.66-.37.08,0,.17.02.25.02.09,0,.21,0,.3,0,.55,0,1.51-.09,2.53-.58.33.06.67.1,1.01.1.32,0,.65-.03.96-.08.23-.04.48-.09.75-.17.54.17,1.09.25,1.64.26.03,0,.07,0,.1,0,.46,0,.95-.06,1.44-.19.59.28,1.22.49,1.9.62.52.1,1.06.15,1.61.15.01,0,.02,0,.03,0,.41.23.84.43,1.3.57.64.2,1.31.3,1.98.31.42.34.87.64,1.36.89.52.26,1.03.45,1.57.56.03,0,.06,0,.08.01.18.16.36.32.56.46.59.44,1.23.79,1.9,1.06.39.38.83.72,1.32.99.12.07.24.13.37.18.23.27.48.52.75.75.02.01.04.03.06.05,1.09.89,2.45,1.37,3.83,1.37,1.52,0,2.96-.58,4.1-1.67.31-.31.79-.85,1.18-1.63.07-.06.15-.12.22-.18,1.08-.94,1.84-2.2,2.13-3.57.23-1.01.21-2.08-.05-3.09-.1-.41-.24-.8-.41-1.19-.2-.44-.5-.82-.88-1.12C56.72,3.66,47.16,0,36.75,0,23.67,0,11.94,5.78,3.97,14.92c-.72.83-1.01,1.97-.7,3.02,0,0,0,.01,0,.02.29.95.78,1.93,1.46,2.91Z"/>
    <path class="cls-6" d="M108.18,180.89c-1.32,0-2.62-.5-3.61-1.45l-51.54-49.53c-.08,3.28.27,7.59,1.27,12.8l.16.82c.78,3.91,2.08,10.45-2.04,15-1.91,2.11-4.35,3.27-6.86,3.27h-.07c-3.07-.03-5.79-1.68-8.07-4.92-3.71-5.26-3.03-12.14-2.53-17.16.06-.56.12-1.23.18-1.89h-.01c-1.62,0-3.13-.53-4.37-1.54-3.57-2.91-2.75-7.38-2.08-10.96.17-.93.35-1.89.49-2.88.08-.57.14-1.16.19-1.75.32-3.89-1.08-7.84-3.95-11.11-2.1-2.4-3.94-5.04-5.47-7.86-3.17-5.87-4.91-12.38-5.09-19.01-1.39-1.07-2.55-2.42-3.4-3.99-1.67-3.08-1.93-6.64-.9-9.84-2.38-2.43-4.41-5.19-6.06-8.23C-.23,52.05-1.25,42.16,1.54,32.8c2.79-9.37,9.07-17.09,17.67-21.73,5.34-2.88,11.35-4.41,17.38-4.41,13.48,0,25.82,7.36,32.22,19.2,1.64,3.04,2.84,6.25,3.57,9.58,3.27.89,6.08,3.08,7.73,6.14.85,1.56,1.34,3.27,1.47,5.01,4.29,2.96,7.94,6.65,10.88,10.99,3.17,4.69,5.38,9.95,6.51,15.43,4.8,1.09,8.74,4.66,10.25,9.55,1.64,5.29-.12,11.22-4.38,14.76-1.63,1.35-3.53,2.32-5.55,2.83l14,74.58c.42,2.23-.65,4.47-2.64,5.55-.78.42-1.63.63-2.48.63Z"/>
    <g>
      <g class="cls-5">
        <g>
          <line class="cls-2" x1="-124.47" y1="190.76" x2="152.15" y2="-82.62"/>
          <line class="cls-2" x1="-111.16" y1="204.23" x2="165.46" y2="-69.15"/>
          <line class="cls-2" x1="-97.85" y1="217.69" x2="178.77" y2="-55.68"/>
          <line class="cls-2" x1="-84.54" y1="231.16" x2="192.08" y2="-42.22"/>
          <line class="cls-2" x1="-71.23" y1="244.63" x2="205.39" y2="-28.75"/>
          <line class="cls-2" x1="-57.93" y1="258.09" x2="218.69" y2="-15.28"/>
          <line class="cls-2" x1="-44.62" y1="271.56" x2="232" y2="-1.82"/>
          <line class="cls-2" x1="-31.31" y1="285.03" x2="245.31" y2="11.65"/>
          <line class="cls-2" x1="-18" y1="298.49" x2="258.62" y2="25.12"/>
          <line class="cls-2" x1="-4.69" y1="311.96" x2="271.93" y2="38.58"/>
          <line class="cls-2" x1="8.62" y1="325.43" x2="285.24" y2="52.05"/>
          <line class="cls-2" x1="21.93" y1="338.89" x2="298.55" y2="65.52"/>
          <line class="cls-2" x1="35.24" y1="352.36" x2="311.86" y2="78.98"/>
          <line class="cls-2" x1="48.54" y1="365.83" x2="325.16" y2="92.45"/>
        </g>
        <g>
          <line class="cls-2" x1="296.91" y1="166.38" x2="23.53" y2="-110.24"/>
          <line class="cls-2" x1="283.44" y1="179.69" x2="10.06" y2="-96.93"/>
          <line class="cls-2" x1="269.98" y1="193" x2="-3.4" y2="-83.62"/>
          <line class="cls-2" x1="256.51" y1="206.31" x2="-16.87" y2="-70.32"/>
          <line class="cls-2" x1="243.04" y1="219.61" x2="-30.34" y2="-57.01"/>
          <line class="cls-2" x1="229.58" y1="232.92" x2="-43.8" y2="-43.7"/>
          <line class="cls-2" x1="216.11" y1="246.23" x2="-57.27" y2="-30.39"/>
          <line class="cls-2" x1="202.64" y1="259.54" x2="-70.74" y2="-17.08"/>
          <line class="cls-2" x1="189.18" y1="272.85" x2="-84.2" y2="-3.77"/>
          <line class="cls-2" x1="175.71" y1="286.16" x2="-97.67" y2="9.54"/>
          <line class="cls-2" x1="162.24" y1="299.47" x2="-111.14" y2="22.85"/>
          <line class="cls-2" x1="148.78" y1="312.77" x2="-124.6" y2="36.15"/>
          <line class="cls-2" x1="135.31" y1="326.08" x2="-138.07" y2="49.46"/>
          <line class="cls-2" x1="121.84" y1="339.39" x2="-151.53" y2="62.77"/>
        </g>
      </g>
      <polygon class="cls-2" points="108.17 175.68 37.1 107.37 89.98 78.8 108.17 175.68"/>
    </g>
    <polygon class="cls-2" points="108.17 175.68 37.1 107.37 89.98 78.8 108.17 175.68"/>
    <path class="cls-4" d="M51.35,118.92c3.77-2.97,8.34,1.42,12.19-1.91,4.83-4.18,2.56-19.05,4.56-15.5,2.34,4.15,6.85,6.75,11.55,5.99,8.35-1.34,12.13-10.04,8.51-16.73.95,1.76,2.41,3.05,4.09,3.81,2.91,1.32,6.48,1.03,9.26-1.28s3.76-5.91,2.73-9.21c-1.37-4.44-5.67-6.78-9.79-6.12-.57-6.02-2.62-12.03-6.31-17.48-10.13-14.98-29.98-20.49-46.41-12.92-19.78,9.11-27.47,32.83-17.29,51.67,1.37,2.53,2.98,4.83,4.8,6.9,3.64,4.14,5.68,9.49,5.23,14.98-.06.73-.14,1.4-.22,2.02-.6,4.38-1.85,7.81-.28,9.09,1.46,1.19,3.46-.94,5.11,0,3.68,2.09-2.19,14.85,2.59,21.63.5.71,1.9,2.69,3.85,2.71,1.59.01,2.76-1.28,3.02-1.56,2.57-2.84,1.26-8,.62-11.34-.52-2.71-3.83-20.03,2.18-24.76Z"/>
    <path class="cls-pink" d="M75.53,44.05c1.93,3.58.6,8.04-2.98,9.98-2.09,1.13-4.5,1.14-6.53.22-1.42-.64-2.64-1.73-3.44-3.21,2.51,4.65.77,10.46-3.87,12.97-4.65,2.51-10.45.78-12.97-3.87,2.51,4.65.78,10.45-3.87,12.97s-10.45.78-12.96-3.87c.8,1.48,1.04,3.1.79,4.64-.33,2.19-1.67,4.21-3.76,5.34-3.58,1.93-8.04.6-9.98-2.98-1.53-2.83-1.01-6.22,1.06-8.47-3.19-2.55-5.94-5.78-8.01-9.6C.76,42.93,6.44,23.89,21.69,15.65c15.25-8.24,34.3-2.56,42.54,12.69,2.07,3.82,3.26,7.89,3.64,11.96,3.01-.48,6.13.94,7.65,3.76Z"/>
    <line class="cls-2" x1="36.58" y1="17.31" x2="37.79" y2="14.27"/>
    <line class="cls-2" x1="40.29" y1="10.48" x2="43.4" y2="13.85"/>
    <line class="cls-2" x1="29.29" y1="25.09" x2="31.9" y2="24.63"/>
    <line class="cls-2" x1="25.9" y1="18.5" x2="24.67" y2="19.89"/>
    <line class="cls-2" x1="18.34" y1="20.23" x2="18.34" y2="22.47"/>
    <line class="cls-2" x1="13.08" y1="25.74" x2="15.44" y2="25.09"/>
    <line class="cls-2" x1="13.73" y1="19.89" x2="14.39" y2="22.47"/>
    <line class="cls-2" x1="22" y1="14.6" x2="25.9" y2="14.6"/>
    <line class="cls-2" x1="30.97" y1="17.52" x2="34.43" y2="15.79"/>
    <line class="cls-2" x1="23.42" y1="26.09" x2="22" y2="28.34"/>
    <line class="cls-2" x1="17.39" y1="28.79" x2="15.93" y2="31.53"/>
    <line class="cls-2" x1="5.78" y1="33.69" x2="8.28" y2="34"/>
    <line class="cls-2" x1="6.48" y1="38.48" x2="8.54" y2="37.52"/>
    <line class="cls-2" x1="12.92" y1="29.45" x2="11.45" y2="29.49"/>
    <line class="cls-2" x1="13.46" y1="36.53" x2="13.46" y2="38.26"/>
    <line class="cls-2" x1="35.43" y1="10.9" x2="34.43" y2="11.76"/>
    <g>
      <path class="cls-3" d="M10.2,16.45c.6.58,1.22,1.3,1.5,2.09.13.34.19.78-.12,1.03-.28.23-.65.13-.94-.03-.35-.2-.65-.47-.93-.77-.19-.2-.36-.41-.53-.63-.03-.03-.05-.07-.08-.11-.33-.46-.68-1.04-.85-1.6-.08-.27-.13-.65.08-.87.45-.46,1.54.58,1.86.89ZM8.69,15.6c-.13-.02-.22.03-.29.14-.28.53.61,1.92.91,2.33,0,0,.02.02.02.03,0,0,.01.01.02.02,0,0,0,0,0,.02.2.24.4.48.62.69.26.26.56.53.9.66.14.05.28.09.42.05.08-.02.16-.06.22-.12.3-.3.05-.85-.1-1.16-.38-.76-.96-1.39-1.59-1.95-.27-.23-.78-.68-1.14-.71Z"/>
      <path class="cls-3" d="M14.31,15.17c.3.56.21,1.3-.12,1.84-.16.29-.41.52-.67.7-.42.29-.93.45-1.44.31-.68-.19-1.14-.81-1.48-1.4-.53-.92-.91-2.23-.07-3.09.39-.41.98-.72,1.53-.51.21.07.4.2.55.34.24.23.39.5.4.83.01.26-.08.63-.24.85.06-.07.13-.14.22-.21.19-.17.45-.28.72-.21.26.08.48.31.61.54ZM13.07,14.96c-.34.29-.6.83-.53,1.27,0,.03,0,.06-.02.07-.04.03-.1.02-.13-.04-.07-.25-.21-.49-.35-.7-.07-.1-.16-.2-.25-.29-.01,0-.03-.02-.05-.03,0,0-.01-.01-.01-.01-.07-.07-.15-.12-.24-.16-.06-.03-.06-.1-.02-.13.02-.02.04-.03.07,0,.13.05.25.13.35.23.18.14.51.06.67-.08.14-.12.23-.37.27-.54.08-.32.01-.67-.21-.92-.56-.64-1.19-.64-1.82-.12-.15.13-.27.25-.37.42-.61.97.03,2.34.63,3.16.34.44.79.83,1.37.85.46.01.89-.23,1.23-.52.48-.42.75-1.06.66-1.7-.04-.26-.13-.5-.3-.68-.3-.32-.63-.34-.95-.06ZM12.41,15.89s.02-.1.03-.16c.04-.16.09-.34.2-.49.02-.04.04-.07.07-.11-.18.16-.37.26-.62.24,0,.01.01.02.02.02l.03.04s0,.01.02.02c.1.13.18.28.26.43Z"/>
      <path class="cls-3" d="M15.97,10.41c.19.45-.23.98-.51,1.31.2-.08.44-.1.63.03.26.18.28.54.18.81-.04.09-.09.2-.15.28.05-.02.09-.04.13-.06.3-.15.65-.2.94-.01.25.16.41.42.46.7.04.25-.02.51-.12.73-.23.52-.69.96-1.19,1.23-.62.34-1.41.47-2,.02-.17-.13-.31-.3-.4-.47-.35-.62-.54-1.55-.56-2.26-.03-1.02.26-1.61,1.12-2.2.19-.14.39-.25.6-.34.31-.13.74-.11.88.24ZM14.64,10.6c-.3.2-.57.42-.78.7-.57.73-.32,2.2-.05,2.99.11.32.25.67.47.91.18.2.51.33.77.38.53.07,1.06-.16,1.47-.46.53-.37,1.22-1.18.9-1.87-.12-.26-.4-.48-.7-.46-.32.02-.6.21-.85.39-.26.31-.57.57-.89.83h0s-.07.02-.09,0c-.03-.03-.04-.06,0-.1.13-.16.27-.32.41-.44.15-.14.31-.28.47-.4.14-.17.26-.34.34-.54.09-.24.09-.56-.18-.67-.26-.11-.53.06-.72.22-.12.11-.21.22-.32.34-.1.11-.21.23-.32.35,0,.01,0,.02-.01.03-.06.07-.15,0-.13-.09,0,0,0-.01,0-.01.01-.04.04-.07.06-.09.27-.34.59-.65.87-.98.22-.25.53-.62.51-.98,0-.17-.1-.31-.27-.36-.31-.1-.71.16-.96.33Z"/>
      <path class="cls-3" d="M22.39,10.44c.14.62-.14,1.31-.6,1.74-.23.23-.53.39-.84.5-.48.17-1.02.19-1.47-.08-.61-.36-.88-1.09-1.06-1.74-.27-1.02-.29-2.39.74-3,.48-.29,1.13-.43,1.61-.09.19.13.33.3.44.48.17.29.24.59.17.91-.06.25-.25.59-.46.76.08-.05.17-.1.26-.15.23-.11.51-.16.75-.02.23.14.38.42.44.68ZM21.26,9.9c-.4.19-.8.64-.84,1.09,0,.03-.02.05-.04.07-.04.02-.1-.01-.11-.07,0-.26-.07-.53-.16-.77-.05-.11-.1-.24-.16-.35-.01,0-.02-.03-.04-.04v-.02c-.06-.08-.13-.15-.2-.21-.05-.04-.03-.11.01-.13.02-.01.05-.01.07,0,.11.08.21.19.27.32.14.18.47.19.67.1.17-.08.31-.29.4-.45.16-.29.19-.65.04-.94-.37-.76-.98-.94-1.72-.6-.18.08-.33.17-.47.31-.85.78-.59,2.27-.23,3.22.21.51.55,1.01,1.09,1.18.44.13.92.02,1.33-.18.58-.28,1.01-.83,1.09-1.47.03-.26,0-.51-.11-.74-.2-.39-.52-.49-.9-.31ZM20.37,10.63s.04-.1.07-.14c.09-.15.18-.31.32-.42.03-.04.06-.06.09-.08-.22.11-.42.15-.66.06v.02s.03.05.03.05c0,0,0,.01.01.02.06.15.1.32.14.48Z"/>
      <path class="cls-3" d="M24.93,8.76c.24.03.47.09.69.18.4.16.82.41.91.86.07.38-.2.7-.56.81-.67.2-1.54-.3-2.06-.7h0c.07.17.1.33.13.49.04.42-.01.8-.42,1.01-.17.09-.37.11-.56.06-.22-.06-.4-.22-.54-.4-.32-.4-.49-.92-.62-1.41-.34-1.25-.44-2.83,1.04-3.38.57-.22,1.23-.34,1.82-.13.22.07.43.21.59.37.21.21.33.5.37.79.08.65-.18,1.2-.81,1.42ZM24.49,6.24c-.32-.06-.66-.03-.98.04-.24.06-.48.13-.7.24h-.02s-.03.02-.04.03c-.02.01-.05.03-.08.05-.18.14-.34.26-.48.45-.55.8-.33,1.97-.06,2.83.08.24.16.48.27.71.19.39.58.92,1.07.75.39-.14.5-.5.44-.88-.02-.16-.05-.3-.12-.45-.07-.15-.17-.29-.27-.42,0,0,0-.01-.01-.02-.03-.05,0-.09.04-.11.03,0,.06,0,.08.02,0,0,0,0,.01.01.38.36.82.67,1.31.87.32.14.71.23,1.04.1.14-.05.28-.16.35-.29.08-.14.07-.32.01-.47-.09-.21-.28-.37-.47-.47-.52-.27-.94-.36-1.53-.35h0c-.06,0-.13.01-.2,0-.04,0-.07-.03-.07-.07h0s.02-.08.07-.08c.02,0,.03,0,.05,0h.1s.03-.01.05-.01c.1,0,.2-.01.29-.03.41-.08.78-.3.92-.71.02-.06.04-.13.05-.2,0-.02,0-.05,0-.1v-.02s0,0,0,0h0s0,0,0-.01c0-.25-.04-.49-.14-.71-.19-.38-.58-.62-.98-.7ZM23.57,7.21s.05.06.03.1c-.11.3-.16.64-.15.95,0,.04-.02.06-.05.07-.04.01-.09,0-.09-.06-.02-.35.04-.71.15-1.03.01-.04.07-.05.1-.04Z"/>
      <path class="cls-3" d="M29.62,5.28c0,.48-.58.82-.96,1.02.22,0,.44.07.57.26.18.26.05.6-.14.81-.07.07-.16.15-.24.2.06,0,.1,0,.14,0,.33-.03.68.05.88.34.17.24.23.54.16.82-.06.25-.21.46-.39.63-.41.39-1,.63-1.56.69-.7.08-1.48-.09-1.86-.73-.11-.18-.17-.39-.2-.59-.1-.7.08-1.64.33-2.3.36-.96.85-1.39,1.87-1.62.23-.05.46-.08.69-.09.34,0,.72.18.73.55ZM28.31,4.96c-.35.07-.69.18-.99.36-.8.46-1.12,1.91-1.17,2.75-.01.33-.02.72.09,1.02.09.25.35.5.57.64.46.26,1.04.25,1.54.13.62-.14,1.57-.63,1.54-1.39-.02-.29-.19-.59-.48-.69-.3-.1-.64-.04-.94.04-.36.19-.74.31-1.13.44h0s-.07-.01-.08-.03c-.02-.04,0-.07.03-.1.18-.1.36-.19.55-.26.19-.08.39-.14.59-.2.19-.11.37-.22.52-.37.17-.18.3-.49.08-.69-.2-.2-.52-.15-.75-.06-.15.05-.28.13-.43.19-.14.07-.28.14-.42.2,0,.01-.02.02-.02.02-.08.04-.14-.07-.08-.13,0,0,.01,0,.01,0,.03-.03.06-.05.09-.06.38-.21.79-.38,1.17-.58.3-.15.72-.38.84-.72.06-.16.02-.32-.11-.43-.25-.2-.72-.12-1.01-.05Z"/>
      <path class="cls-3" d="M33.9,7.5c0,.16,0,.32,0,.49-.04.45-.19.96-.71,1.04-.22.04-.45-.02-.63-.14-.3-.18-.46-.5-.53-.83-.07.29-.17.57-.3.84-.17.35-.44.8-.89.78-.41-.02-.77-.24-.9-.64-.15-.38-.13-.81-.07-1.2.04-.32.13-.77.26-1.08.3-.9.96-2.36,1.99-2.48.89-.1,1.43,1.56,1.6,2.18.08.34.15.69.18,1.04ZM32.11,4.43c-.98.11-1.64,1.76-1.9,2.57,0,.01-.02.04-.02.06,0,.03-.01.03-.02.06,0,.03-.02.06-.02.09-.02.07-.04.14-.05.22-.04.17-.07.35-.09.53-.04.36-.05.76.1,1.09.07.15.18.28.32.37.15.09.37.14.55.11.57-.13.93-1.46,1.01-1.93-.13.04-.27.11-.36.2-.08.06-.17-.06-.1-.12.17-.14.4-.24.63-.27.17-.02.34,0,.5.06.08.03.03.17-.07.13-.14-.05-.29-.07-.45-.04v.03c0,.11,0,.22.03.33.07.49.42,1.03.98.97.42-.05.56-.42.61-.78.04-.32.01-.64-.04-.95-.1-.78-.67-2.83-1.6-2.73ZM32.11,5.73s.1.02.09.08c-.05.27-.06.55-.06.83,0,.04-.02.08-.06.08-.04,0-.08-.02-.08-.06,0-.29,0-.58.05-.88,0-.04.03-.05.06-.05Z"/>
      <path class="cls-3" d="M39.12,7.09c-.1.65-.44,2.13-1.28,2.12-.63-.01-.76-.7-.78-1.2-.02-.27,0-.55.02-.82-.04.09-.06.18-.1.27-.11.32-.37.99-.8.98-.48-.03-.58-.67-.6-1.05-.13.55-.46,1.71-1.05,1.8-.18.03-.37-.01-.52-.11-.31-.19-.41-.59-.44-.93-.03-.33,0-.67.03-1.01.05-.46.13-.92.28-1.36.21-.63.66-1.63,1.42-1.62.76.01,1.1.82,1.18,1.48.21-.73.61-1.57,1.43-1.66.24-.03.47.03.65.17.49.37.61,1.14.65,1.71.02.42,0,.84-.07,1.25ZM38.04,4.11c-.16,0-.33.04-.47.11-.66.33-.92,1.2-1.06,1.87,0,0,0,.01,0,.02,0,.04-.03.05-.06.05-.04,0-.09-.04-.09-.08,0-.32-.09-.85-.21-1.13-.16-.35-.45-.64-.84-.66-.38-.01-.67.31-.85.59-.46.7-.65,1.62-.72,2.45-.03.34-.04.68.02,1.01.06.31.22.61.56.67.15.03.28,0,.39-.08.54-.38.83-1.97.95-2.57h0s.03-.05.06-.05c.01,0,.02,0,.03,0,.03,0,.05.03.05.06,0,.02,0,.03,0,.03-.05.34-.07.68-.04,1.02.02.25.06.59.26.77.07.07.18.09.26.07.31-.06.57-.8.65-1.05.09-.26.14-.52.25-.77.01-.03.05-.05.09-.05.03,0,.07.02.07.07,0,.01,0,.02,0,.03-.02.12-.04.24-.05.36-.05.46-.09.93-.04,1.38.03.34.18.81.59.82.53,0,.81-.73.94-1.14.23-.75.34-1.55.25-2.33-.06-.53-.29-1.46-.97-1.47Z"/>
      <path class="cls-3" d="M44.1,9.51c-.56.28-1.31.34-1.92.22-.81-.16-1.61-.68-1.66-1.59,0-.1.01-.22.02-.32.09-.76.62-1.39,1.15-1.91.45-.43,1.34-1.21,2.01-1.08.06.01.11.03.16.06.31.16.31.53.23.82-.23.81-1.03,1.65-1.68,2.16.48-.16.89-.2,1.39-.1.42.08,1.01.36.99.87-.02.38-.36.71-.68.87ZM41.52,6.3c-.42.46-.79,1.01-.84,1.65,0,.03,0,.06,0,.11,0,.1.01.19.03.29.17.71.82,1.09,1.5,1.22.62.12,1.45.09,1.98-.3.25-.17.54-.5.43-.82-.1-.27-.41-.42-.67-.5-.27-.09-.58-.11-.87-.08-.4.03-.79.2-1.15.36,0,0-.01,0-.01,0-.08.03-.14-.09-.07-.14,0,0,.01,0,.02-.01.75-.5,1.89-1.57,2.11-2.48.05-.24.03-.5-.23-.6h-.01s-.02,0-.02-.02c-.03,0-.04,0-.06,0-.66-.13-1.72.88-2.11,1.31Z"/>
      <path class="cls-3" d="M48.41,9.17c-.52.89-1.64,1.76-2.73,1.43-.52-.16-.88-.6-1.02-1.12-.18-.66-.04-1.47.38-2.18.66-1.12,1.83-1.7,2.74-1.42.53.16.87.59,1.02,1.12.18.66.03,1.47-.38,2.17ZM47.72,6.03c-.84-.26-1.93.3-2.55,1.35-.39.66-.53,1.43-.36,2.05.13.49.43.87.92,1.02.84.26,1.94-.29,2.56-1.35.13-.22.24-.46.31-.69.28-.89.13-2.07-.88-2.38ZM47.17,7.64s.08.09.02.13c-.35.31-.66.66-.93,1.04-.02.04-.05.04-.08.03-.04-.01-.07-.06-.04-.11.27-.4.59-.75.96-1.07.02-.02.04-.03.07-.02Z"/>
      <path class="cls-3" d="M52.71,10.65c-.45.83-1.58,1.81-2.56,1.59-.12-.02-.23-.07-.33-.13-.5-.24-.83-.62-1.03-1.15-.34-.87-.21-2.19.08-3.05.09-.23.18-.45.31-.66.12-.2.29-.38.51-.49.23-.11.54-.08.76.04.22.11.39.32.5.54.36.76.09,1.79-.14,2.56.1-.17.18-.33.28-.5.25-.43.8-1.32,1.31-1.48.18-.07.35-.03.52.05.71.32.51,1.17.27,1.75-.14.32-.29.63-.48.94ZM53.13,8.31c-.1-.14-.27-.23-.44-.27-.77-.17-1.85,2.1-2.1,2.65v.02s-.07.05-.11.03c-.03-.01-.06-.04-.04-.08v-.02c.04-.14.07-.27.11-.4.17-.62.38-1.26.42-1.91.03-.41-.05-.84-.3-1.18-.09-.11-.2-.2-.33-.26-.62-.28-1.01.27-1.24.79-.21.47-.29.91-.34,1.42-.1.95,0,2.18.89,2.73.01,0,.02.01.03.02,0,0,.01,0,.02,0h.01s.03.03.03.03c0,0,0,0,.01,0,.06.03.12.06.18.09.42.19.86.1,1.27-.1.67-.33,1.16-.92,1.51-1.57.15-.28.28-.56.39-.86.13-.35.26-.85.02-1.18Z"/>
      <path class="cls-3" d="M57.22,11.23c-.33.35-.99.2-1.4.08.16.15.27.36.24.58-.05.31-.38.47-.66.49-.1,0-.22,0-.32-.02.04.04.07.07.11.1.26.21.45.5.4.85-.04.29-.21.55-.45.71-.21.14-.47.19-.72.19-.56,0-1.16-.23-1.61-.57-.56-.42-1.01-1.09-.85-1.81.05-.21.14-.4.26-.56.41-.58,1.18-1.13,1.82-1.44.92-.45,1.57-.42,2.47.11.2.12.39.25.56.41.25.23.41.62.15.9ZM56.5,10.1c-.3-.19-.62-.34-.96-.42-.9-.22-2.13.62-2.74,1.19-.24.23-.51.51-.64.81-.1.24-.09.6-.02.86.15.51.58.89,1.03,1.15.55.33,1.58.62,2.07.05.19-.22.27-.56.13-.83-.15-.28-.44-.46-.71-.62-.39-.11-.76-.28-1.12-.46h0s-.04-.06-.04-.09c.01-.04.04-.06.09-.05.2.05.4.11.58.19.19.07.38.16.56.26.21.05.42.1.64.09.25-.02.55-.15.53-.45-.01-.28-.27-.46-.5-.57-.14-.06-.29-.1-.44-.15-.14-.05-.3-.09-.45-.15-.01,0-.02,0-.03,0-.09-.03-.06-.14.03-.15,0,0,.01,0,.01,0,.04,0,.08,0,.11.02.42.11.84.27,1.25.38.32.1.78.22,1.1.06.15-.07.24-.22.22-.39-.04-.32-.44-.58-.7-.74Z"/>
      <path class="cls-3" d="M58.35,14.9c.11.22.19.45.23.68.09.42.11.91-.22,1.24-.28.27-.7.22-.98-.02-.54-.45-.6-1.45-.54-2.11h0c-.09.15-.21.27-.33.39-.32.26-.67.43-1.08.21-.17-.09-.29-.25-.36-.43-.07-.22-.04-.45.03-.67.16-.49.5-.91.83-1.29.86-.97,2.12-1.92,3.4-.99.49.35.96.84,1.11,1.45.06.22.06.47.01.7-.06.29-.23.55-.46.75-.5.42-1.1.51-1.64.1ZM60.22,13.15c-.12-.31-.34-.56-.58-.79-.18-.17-.37-.32-.59-.45h-.02s-.03-.03-.04-.04c-.03-.01-.05-.02-.09-.04-.21-.08-.4-.14-.64-.15-.97-.02-1.83.81-2.4,1.51-.16.19-.32.39-.44.61-.22.37-.45.99-.03,1.3.33.25.69.15.98-.12.12-.1.23-.21.31-.35.09-.14.15-.3.2-.46,0,0,0-.01,0-.02.02-.05.08-.05.11-.03.02.02.03.04.03.07,0,0,0,0,0,.01-.09.52-.11,1.06-.01,1.57.06.34.2.72.49.92.12.09.28.15.43.13.16-.01.31-.11.4-.25.12-.19.15-.43.13-.65-.07-.58-.21-.98-.55-1.47h0c-.04-.05-.09-.1-.12-.16-.02-.04-.01-.07.02-.1h0s.06-.03.09,0c.01.02.02.03.03.04l.06.08s.02.03.03.04c.05.08.12.16.18.23.29.3.68.48,1.1.37.06-.01.13-.04.19-.07.02,0,.05-.02.08-.04h.02s0,0,0,0h0s0,0,0,0c.21-.13.39-.3.51-.51.21-.37.2-.83.04-1.2ZM58.91,12.91s-.02.08-.06.08c-.32.07-.62.21-.88.4-.03.02-.06.02-.09,0-.03-.02-.04-.08,0-.11.28-.21.61-.36.94-.44.04-.01.08.03.09.07Z"/>
    </g>
  </g>
</svg>