<?xml version="1.0" encoding="UTF-8"?>
<svg id="Layer_1" data-name="Layer 1" xmlns="http://www.w3.org/2000/svg" viewBox="0 0 52.25 12.09">
  <defs>
    <style>
      .cls-1, .cls-2 {
        fill: #fff;
      }

      .cls-2 {
        stroke: #003fd1;
        stroke-miterlimit: 10;
        stroke-width: .25px;
      }

      .cls-3 {
        fill: #003fd1;
      }
    </style>
  </defs>
  <path class="cls-2" d="M18.25,10.89c.39,0,.77-.11,1.09-.28.26.26.57.45.94.54.25.07.5.11.76.11.38,0,.75-.08,1.05-.22.48-.21.88-.56,1.21-1.07.24-.39.43-.84.56-1.36.61,1.14,1.37,1.85,2.34,2.15.33.1.67.16,1.02.16.66,0,1.25-.21,1.73-.54.68.7,1.54,1.08,2.5,1.08,1.25,0,2.44-.66,3.34-1.72.89.85,2.16,1.19,3.27,1.19.43,0,1.55-.06,2.64-.51.16.26.37.55.71.75.3.2.67.3,1.03.3,1.16,0,1.8-.92,2.15-1.66.69.75,1.58,1.16,2.58,1.16,2.14,0,4.13-1.9,4.74-4.51.13-.54.2-1.08.2-1.6,0-2.35-1.33-4.72-3.88-4.72-1.2,0-2.36.63-3.25,1.64-.08-.17-.15-.33-.26-.47-.32-.43-.78-.67-1.29-.67-.15,0-.3.02-.47.07-1.6.46-2.31,3.21-2.56,4.53-.08,0-.16-.01-.24-.01-.06,0-.13,0-.19,0,.53-.93.93-1.94.98-2.89,0-.09,0-.18,0-.29-.02-.26-.06-.49-.14-.7-.11-.31-.29-.57-.52-.77-.27-.24-.62-.38-1.01-.42-.04,0-.17,0-.2,0-.26,0-.53.04-.78.13-.02,0-.13.05-.14.05-.86.34-1.53,1.01-2.01,1.55-.17.19-.33.39-.5.61-.64-1.09-1.68-1.86-3.12-1.86-.61,0-1.2.17-1.76.46-.49-.32-1.09-.56-1.83-.73-.55-.13-1.16-.19-1.8-.19-.13,0-.27,0-.42,0-.59.03-1.16.12-1.66.27-.2.05-.38.13-.56.21-.16-.04-.31-.07-.43-.09-.4-.07-.83-.11-1.36-.12h-.24c-1.05,0-1.97.09-2.82.28-.25.06-.48.13-.7.21-.05-.03-.08-.07-.13-.1-.57-.34-1.24-.55-2.12-.66-.28-.03-.57-.05-.86-.05-.23,0-.47.01-.7.04-.09,0-.27.03-.36.05-.05,0-.25.06-.25.06-.09.02-.17.05-.29.08-.33.12-.64.28-1.01.52-.39.29-.69.63-.94.98-.18-.14-.36-.27-.56-.38-.52-.28-1.08-.42-1.64-.42-.62,0-1.2.18-1.71.45-.28-.33-.61-.61-.99-.82-.5-.29-1.09-.47-1.75-.54-.23-.03-.48-.04-.72-.04-.19,0-.38.01-.56.03-.74.1-1.4.4-1.93.85-.66.53-1.18,1.28-1.55,2.23-.38.94-.62,2-.7,3.15-.05.7-.08,1.52.09,2.34.35,1.91,1.42,2.25,1.99,2.28.03,0,.12,0,.15,0,.4,0,.99-.13,1.54-.8.25-.33.45-.71.6-1.16.12-.36.19-.72.25-1.03.03.01.06.03.09.04.17.07.34.11.51.14.26,1.47,1.04,2.72,2.21,3.34.5.27,1.04.4,1.6.4.65,0,1.3-.18,1.93-.54.42-.24.81-.56,1.16-.94.22.15.44.26.63.32.19.05.39.08.59.08.35,0,.71-.08,1.04-.24.34-.17.75-.48,1.03-1.02.07.07.14.13.21.2.77.71,1.6,1.08,2.4,1.08h.06Z"/>
  <g>
    <g>
      <g>
        <path class="cls-1" d="M42.47,10.45c-.18,0-.36-.06-.5-.15-.25-.14-.39-.4-.5-.64-.26-.63-.29-1.34-.27-2.02,0-.54.06-1.09.12-1.63v-.04s.04-.06.04-.06v-.1c.16-1.05.83-3.83,1.91-4.14.07-.02.13-.03.19-.03.19,0,.35.09.48.26.42.53.49,1.75.53,2.41.08,1.75-.09,3.22-.52,4.49-.18.5-.61,1.66-1.47,1.66Z"/>
        <path class="cls-3" d="M43.45,1.76c.15,0,.27.07.38.21.4.5.47,1.71.5,2.34.07,1.49-.02,3.01-.52,4.44-.22.59-.61,1.57-1.35,1.57-.16,0-.31-.05-.43-.13-.22-.12-.35-.35-.46-.59-.25-.6-.28-1.31-.26-1.97,0-.54.06-1.09.12-1.64.01-.01.01-.02.01-.04v-.06s.01-.05.01-.07c.17-1.04.84-3.75,1.83-4.04.06-.01.11-.02.16-.02M43.45,1.51c-.07,0-.15.01-.22.03-1.38.4-2.01,4.21-2.02,4.24,0,.01,0,.02,0,.02v.03s-.01.04-.01.04h0s0,.09,0,.09c-.06.57-.12,1.13-.12,1.67-.01.69.01,1.42.28,2.06.12.26.28.55.57.71.14.1.35.16.55.16.95,0,1.4-1.22,1.59-1.73.44-1.29.62-2.77.53-4.54-.04-.67-.11-1.91-.56-2.48-.15-.2-.35-.31-.58-.31h0Z"/>
      </g>
      <path class="cls-2" d="M39.17,1.28c.14.01.27.06.38.15.09.08.16.19.2.3.05.12.07.25.07.38,0,.05,0,.09,0,.14-.08,1.68-1.71,3.92-2.85,5.05,0,.01-.01.01-.02.02-.11.11.04.3.19.2.58-.41,1.2-.83,1.88-1.02.49-.14,1.04-.2,1.55-.14.47.05,1.07.22,1.33.65.31.53-.08,1.2-.47,1.58-.8.85-2.23,1.19-3.36,1.19-1.24,0-2.63-.5-3.08-1.76-.45-1.26.12-2.68.79-3.75.36-.58.75-1.14,1.2-1.65s.96-1,1.58-1.25c.03-.01.06-.02.09-.03.16-.05.34-.08.52-.07Z"/>
      <g>
        <path class="cls-1" d="M47.19,9.95c-.9,0-1.66-.45-2.2-1.31-.62-.98-.81-2.39-.48-3.77.52-2.17,2.09-3.74,3.74-3.74,1.88,0,2.87,1.87,2.87,3.71,0,.43-.06.9-.17,1.36-.49,2.13-2.11,3.74-3.75,3.74ZM48.17,4.41c-.47.76-.82,1.51-1.06,2.3.27-.81.62-1.57,1.06-2.3h0Z"/>
        <path class="cls-3" d="M48.25,1.26c1.88,0,2.75,1.93,2.75,3.59,0,.43-.06.89-.17,1.33-.49,2.12-2.06,3.65-3.63,3.65-.91,0-1.62-.49-2.1-1.25-.61-.96-.78-2.34-.47-3.67.5-2.12,2.05-3.65,3.62-3.65M47.12,6.84c.06,0,.11-.02.12-.1.25-.79.6-1.55,1.03-2.25.07-.1-.02-.2-.11-.2-.05,0-.08.02-.11.07-.46.73-.82,1.5-1.07,2.33-.02.1.05.16.13.16M48.25,1.01c-1.71,0-3.34,1.61-3.87,3.84-.33,1.41-.14,2.85.5,3.86.57.89,1.36,1.36,2.31,1.36,1.7,0,3.37-1.65,3.88-3.84.11-.47.17-.95.17-1.39,0-1.91-1.03-3.84-3-3.84h0Z"/>
      </g>
      <g>
        <path class="cls-1" d="M31.46,10.45c-.9,0-1.66-.45-2.2-1.31-.62-.98-.81-2.39-.48-3.77.52-2.17,2.09-3.74,3.74-3.74,1.88,0,2.87,1.87,2.87,3.71,0,.43-.06.9-.17,1.36-.49,2.13-2.11,3.74-3.75,3.74ZM32.43,4.92c-.47.76-.82,1.51-1.06,2.3.27-.81.62-1.57,1.06-2.3h0Z"/>
        <path class="cls-3" d="M32.52,1.76c1.88,0,2.75,1.93,2.75,3.59,0,.43-.06.89-.17,1.33-.49,2.12-2.06,3.65-3.63,3.65-.91,0-1.62-.49-2.1-1.25-.61-.96-.78-2.34-.47-3.67.5-2.12,2.05-3.65,3.62-3.65M31.39,7.34c.06,0,.11-.02.12-.1.25-.79.6-1.55,1.03-2.25.07-.1-.02-.2-.11-.2-.05,0-.08.02-.11.07-.46.73-.82,1.5-1.07,2.33-.02.1.05.16.13.16M32.52,1.51c-1.71,0-3.34,1.61-3.87,3.84-.33,1.41-.14,2.85.5,3.86.57.89,1.36,1.36,2.31,1.36,1.7,0,3.37-1.65,3.88-3.84.11-.47.17-.95.17-1.39,0-1.91-1.03-3.84-3-3.84h0Z"/>
      </g>
      <g>
        <path class="cls-1" d="M27.23,9.92c-.24,0-.49-.04-.71-.11-.93-.3-1.44-1.09-1.75-1.67-.55-1-.91-1.92-1.09-2.82-.17-.84-.29-1.81.07-2.64.32-.78,1.04-1.12,1.58-1.27.44-.13.93-.21,1.44-.23.12,0,.24,0,.37,0,.57,0,1.1.06,1.58.17.73.16,1.29.4,1.7.72.19.16.45.4.49.72.06.24-.03.49-.26.74-.48.53-1.24.76-1.85.9-.47.1-.92.15-1.39.15h-.16s-.25-.02-.25-.02c-.16-.01-.32-.03-.48-.05h.03s.04.06.04.06c.21,0,.4.02.61.02.21.02.4.07.63.15.18.07.39.16.49.33.07.1.14.31-.17.53-.26.16-.58.18-.83.19-.12,0-.23,0-.34,0-.24,0-.48-.01-.72-.06.76.29,1.47.74,1.98,1.28.33.33.55.66.67.99.15.42.11.83-.12,1.18-.3.47-.86.75-1.54.75Z"/>
        <path class="cls-3" d="M27.13,1.3c.52,0,1.04.05,1.55.16.59.13,1.19.34,1.65.7.19.16.41.37.44.64.06.24-.06.46-.23.64-.44.49-1.16.72-1.79.86-.45.1-.91.15-1.37.15-.05,0-.1,0-.16,0-.24-.02-.48-.04-.73-.07-.14,0-.19.25-.02.28.01.01.02.01.02.01h.01c.23.02.43.05.66.05.2.02.38.07.59.14.14.06.34.13.42.28.11.16-.01.28-.13.36-.23.14-.53.16-.78.17-.11,0-.21,0-.32,0-.24,0-.47-.01-.7-.05,0,0-.02,0-.03,0-.16,0-.21.21-.05.27.72.25,1.42.67,1.94,1.22.26.26.52.59.65.95s.11.74-.11,1.07c-.3.48-.87.69-1.43.69-.23,0-.46-.04-.68-.1-.79-.25-1.29-.89-1.68-1.61-.48-.88-.88-1.8-1.08-2.78-.17-.83-.29-1.76.06-2.57.26-.64.84-1.02,1.5-1.2.46-.13.94-.2,1.42-.23.12,0,.24,0,.36,0M27.13,1.05c-.12,0-.25,0-.37,0-.53.03-1.02.11-1.48.24-.8.22-1.39.7-1.66,1.34-.38.86-.25,1.86-.07,2.71.19.91.55,1.84,1.11,2.85.32.59.85,1.42,1.82,1.73.24.07.5.11.75.11.72,0,1.32-.29,1.65-.81.25-.37.3-.83.13-1.29-.13-.35-.36-.7-.71-1.04-.38-.39-.86-.74-1.39-1.01.01,0,.02,0,.04,0,.11,0,.22,0,.33,0,.28-.01.62-.03.9-.21.44-.31.27-.62.2-.71-.09-.16-.26-.25-.41-.31.28-.02.55-.07.83-.13.63-.15,1.42-.38,1.92-.94.26-.28.36-.57.28-.86-.04-.34-.32-.6-.53-.77-.43-.33-1.01-.58-1.76-.75-.48-.11-1.02-.17-1.6-.17h0Z"/>
      </g>
    </g>
    <g>
      <path class="cls-1" d="M18.2,9.88c-.69,0-1.32-.44-1.72-.81-.65-.58-1.22-1.35-1.72-2.3.11.37.18.66.2.92.02.26,0,.52-.08.86-.11.58-.37.98-.79,1.19-.18.09-.39.13-.59.13-.11,0-.22-.01-.31-.04-.34-.11-.62-.36-.83-.74-.17-.33-.28-.73-.34-1.21-.06-.45-.05-.92-.04-1.36.04-1.2.2-2.09.49-2.88.21-.58.61-1.4,1.34-1.93.27-.17.5-.29.76-.39.07-.02.34-.1.34-.1.08-.02.18-.04.18-.04h.13c.2-.04.4-.05.6-.05.25,0,.5.02.75.04.73.09,1.27.26,1.72.52.72.43,1.2,1.12,1.3,1.84.06.44-.01.91-.19,1.34-.17.4-.42.72-.72.93-.34.23-.76.35-1.24.35-.15,0-.29-.01-.44-.03-.18-.03-.35-.06-.53-.13l-.34-.09c.08.05.15.07.22.08l.12.04c.71.23,1.27.52,1.73.89.24.19.46.4.68.63.19.21.52.64.55,1.15.01.35-.11.68-.34.88-.2.19-.52.31-.84.31l-.06-.12v.12ZM16.02,2.96c-.37.45-.66,1-.83,1.58.18-.59.47-1.13.84-1.57v-.02s0-.12,0-.12v.12Z"/>
      <path class="cls-3" d="M15.83,1.26c.25,0,.49.02.74.04.58.07,1.16.2,1.67.5.62.37,1.14,1.01,1.24,1.75.05.41,0,.87-.18,1.27-.15.35-.38.67-.68.88-.34.24-.76.33-1.17.33-.14,0-.28-.01-.42-.03-.17-.02-.34-.06-.5-.12-.12-.04-.23-.06-.35-.1-.01,0-.03,0-.04,0-.06,0-.09.04-.11.1-.01.07.01.13.08.16.11.05.23.07.34.11.6.19,1.19.46,1.69.86.24.19.46.4.67.62.26.29.49.67.52,1.07.01.29-.08.59-.3.78-.19.18-.49.28-.76.28-.02,0-.04,0-.06,0-.61,0-1.19-.37-1.63-.78-.7-.62-1.25-1.42-1.69-2.27-.03-.05-.07-.07-.12-.07-.08,0-.16.07-.13.16.01.01.01.02.01.04.1.28.18.58.2.86.02.29-.01.55-.07.83-.08.46-.29.89-.72,1.1-.16.08-.35.12-.54.12-.1,0-.19-.01-.28-.04-.35-.11-.59-.37-.75-.68-.18-.35-.28-.76-.32-1.16-.06-.44-.05-.9-.04-1.34.04-.96.14-1.93.48-2.84.25-.71.67-1.42,1.29-1.87.24-.16.47-.28.73-.37.11-.04.22-.06.34-.1.07-.01.12-.02.17-.04.02,0,.06,0,.12-.01.19-.02.39-.03.58-.03M15.18,4.65c.05,0,.1-.03.12-.09.17-.54.44-1.07.82-1.51.05-.05.05-.12,0-.18-.03-.03-.06-.04-.1-.04-.03,0-.07.01-.09.04-.38.47-.68,1.03-.86,1.63-.03.09.04.15.12.15M15.83,1.01c-.2,0-.41.01-.61.03-.06.01-.08.01-.09.01h-.06s-.08.03-.15.04l-.17.05c-.07.02-.14.04-.2.06-.28.1-.52.22-.79.4-.77.56-1.18,1.39-1.39,2-.3.8-.45,1.7-.49,2.92-.01.45-.02.92.04,1.39.06.49.17.91.35,1.24.23.42.53.69.9.81.11.03.23.05.35.05.22,0,.45-.05.64-.15.45-.23.74-.66.86-1.28.08-.35.1-.62.08-.89,0-.04,0-.07-.01-.11.4.63.84,1.17,1.32,1.6.6.55,1.22.84,1.8.84h.07s0,0,0,0c.34,0,.69-.13.92-.34.25-.22.39-.59.38-.97-.03-.55-.38-1-.58-1.23-.24-.25-.46-.46-.7-.65-.25-.2-.52-.37-.83-.53.5,0,.95-.13,1.3-.38.33-.23.59-.57.77-.98.19-.45.26-.94.2-1.4-.1-.76-.61-1.49-1.36-1.93-.46-.27-1.02-.44-1.76-.54-.27-.03-.52-.04-.77-.04h0Z"/>
    </g>
    <g>
      <path class="cls-1" d="M9.19,10.96c-.39,0-.77-.1-1.13-.28-1.46-.77-2.13-2.94-1.57-5.06.12-.46.28-.9.48-1.28.54-1.03,1.68-2.24,3.1-2.24.4,0,.79.1,1.17.3,1.46.77,2.12,2.9,1.56,5.06-.36,1.37-1.17,2.53-2.19,3.1-.47.27-.96.41-1.43.41ZM10.18,5.41c-.4.72-.7,1.49-.91,2.34.22-.82.52-1.6.92-2.33h0Z"/>
      <path class="cls-3" d="M10.08,2.21c.36,0,.74.09,1.11.28,1.39.73,2.05,2.8,1.5,4.92-.35,1.32-1.14,2.46-2.13,3.03-.44.25-.9.39-1.37.39-.36,0-.72-.08-1.07-.27-1.39-.73-2.07-2.81-1.51-4.92.11-.44.27-.87.47-1.26.6-1.13,1.73-2.17,2.99-2.17M9.26,7.88c.06,0,.11-.03.12-.1.21-.8.51-1.58.9-2.31.04-.06.03-.11-.01-.15-.03-.03-.07-.05-.1-.05s-.07.02-.1.06c-.42.76-.72,1.55-.93,2.39-.02.05,0,.09.02.13.02.02.06.04.1.04M10.08,1.96h0c-1.47,0-2.65,1.24-3.21,2.31-.21.39-.38.84-.49,1.31-.57,2.17.13,4.41,1.64,5.2.38.2.78.3,1.19.3.5,0,1-.14,1.49-.43,1.04-.59,1.88-1.78,2.24-3.18.57-2.21-.11-4.4-1.63-5.2-.39-.21-.81-.31-1.23-.31h0Z"/>
    </g>
    <g>
      <path class="cls-1" d="M2.33,10.02c-.83-.04-1.02-1.11-1.08-1.46-.14-.72-.12-1.46-.07-2.09.08-1.05.29-2,.63-2.84.31-.79.73-1.41,1.25-1.83.41-.35.89-.56,1.44-.64.13-.02.27-.02.42-.02.2,0,.42.01.61.04.52.05.98.19,1.36.41,1.4.78,1.7,2.52,1.28,3.84-.27.83-.84,1.44-1.57,1.69-.29.1-.54.15-.78.15-.2,0-.38-.04-.56-.11-.41-.17-.77-.52-1.01-1-.12-.22-.19-.48-.22-.79-.04.78-.09,1.52-.2,2.25-.05.34-.12.73-.26,1.15-.11.33-.25.61-.44.85-.22.27-.47.4-.74.4h-.07ZM5.98,3.03c-.29.55-.48,1.14-.57,1.76.12-.65.31-1.24.58-1.74l-.02-.14v.12Z"/>
      <path class="cls-3" d="M4.91,1.26c.2,0,.41.01.6.03.46.05.91.17,1.31.4,1.29.72,1.66,2.35,1.22,3.69-.24.73-.74,1.36-1.49,1.61-.24.09-.49.15-.74.15-.17,0-.34-.03-.51-.1-.42-.17-.74-.53-.95-.94-.12-.23-.18-.49-.2-.74-.01-.09-.08-.13-.15-.13s-.13.04-.14.13c0,.76-.05,1.5-.16,2.24-.06.38-.13.76-.25,1.13-.1.29-.23.56-.42.82-.17.2-.38.35-.64.35-.02,0-.04,0-.06,0-.66-.04-.88-.83-.97-1.36-.13-.67-.12-1.37-.07-2.06.07-.95.26-1.92.62-2.81.26-.67.65-1.32,1.21-1.77.4-.34.86-.54,1.38-.61.12-.02.26-.02.4-.02M5.43,4.91c.08,0,.12-.07.13-.14.08-.56.26-1.15.54-1.67.06-.1-.04-.2-.13-.2-.04,0-.08.02-.11.07-.3.56-.49,1.18-.58,1.8-.01.07.07.14.14.14M4.91,1.01c-.15,0-.3,0-.43.02-.57.08-1.08.31-1.51.67-.53.43-.96,1.06-1.28,1.87-.34.85-.56,1.82-.64,2.88-.04.64-.07,1.39.08,2.13.07.37.28,1.51,1.2,1.56.02,0,.05,0,.07,0,.31,0,.59-.15.83-.44.2-.26.35-.55.47-.9.14-.42.21-.83.26-1.17.07-.49.12-.98.14-1.5.01.03.02.05.04.08.25.5.63.87,1.08,1.05.18.08.39.12.6.12.25,0,.52-.05.82-.16.76-.26,1.36-.9,1.64-1.77.44-1.37.12-3.18-1.34-3.99-.39-.23-.86-.37-1.4-.43-.21-.02-.42-.04-.62-.04h0Z"/>
    </g>
    <g>
      <path class="cls-1" d="M21.05,10.25c-.16,0-.33-.02-.48-.07-.65-.17-1.01-.83-.99-1.83.01-.54.12-1.13.32-1.74.19-.61.47-1.23.84-1.89-.17.05-.31.07-.45.09h-.12c-.16.03-.31.04-.46.04-.13,0-.25,0-.38-.02-.75-.1-1.25-.4-1.45-.86-.28-.6.02-1.23.44-1.57.37-.31.88-.53,1.55-.69.77-.17,1.62-.26,2.6-.26h.23c.47,0,.85.04,1.2.1.31.06.72.15,1.07.35.09.05.18.12.28.21.14.13.24.3.29.49.05.18.04.38-.03.59-.03.09-.06.17-.11.25-.42.72-1.39.97-1.94,1.04-.25.04-.48.05-.71.05l.04.24c.13.55.26,1.12.3,1.7.02.3.02.63-.01,1.04-.09.78-.29,1.43-.61,1.93-.22.33-.46.55-.76.68-.19.09-.41.13-.65.13Z"/>
      <path class="cls-3" d="M22.46,1.57c.08,0,.15,0,.23,0,.39,0,.79.03,1.18.1.35.06.72.15,1.03.33.09.05.18.12.25.2.12.12.21.27.25.43.04.17.03.35-.02.52-.02.08-.06.15-.1.22-.36.62-1.19.89-1.85.98-.24.04-.47.05-.7.05-.07,0-.11.02-.12.08-.01.02-.01.05-.01.08.14.64.3,1.26.35,1.91.02.34.01.68-.01,1.02-.07.65-.24,1.32-.59,1.87-.18.28-.41.5-.71.64-.18.08-.39.12-.59.12-.15,0-.31-.02-.45-.06-.74-.19-.91-1.04-.9-1.7.01-.58.13-1.15.31-1.7.2-.65.49-1.27.83-1.87.02-.04.01-.1-.01-.13,0-.04-.03-.07-.07-.07-.01,0-.03,0-.05.01-.02.01-.03.01-.05.02-.17.05-.34.06-.52.08-.15.01-.3.02-.44.02-.12,0-.24,0-.36-.02-.53-.07-1.13-.28-1.36-.79-.24-.52,0-1.08.41-1.43.42-.35.97-.54,1.5-.66.84-.19,1.72-.25,2.57-.25M22.46,1.32c-.99,0-1.84.08-2.62.26-.69.16-1.22.39-1.6.71-.55.46-.74,1.15-.48,1.72.22.5.76.83,1.55.93.13.02.26.02.39.02.15,0,.31,0,.47-.02l.13-.02c.06,0,.13-.02.19-.03-.31.58-.54,1.13-.71,1.67-.2.62-.31,1.22-.32,1.77-.02,1.06.38,1.77,1.09,1.95.16.05.33.07.51.07.25,0,.49-.05.7-.15.32-.14.58-.38.81-.73.33-.52.54-1.19.63-1.98.03-.42.03-.76.01-1.06-.04-.59-.17-1.16-.3-1.72l-.02-.09c.21,0,.4-.02.59-.05.57-.08,1.58-.34,2.03-1.11.05-.08.09-.18.12-.28.07-.23.08-.45.03-.65-.05-.21-.17-.4-.32-.55-.1-.1-.2-.17-.3-.23-.37-.21-.79-.31-1.11-.36-.35-.06-.74-.1-1.21-.1h-.23Z"/>
    </g>
  </g>
</svg>