<?xml version="1.0" encoding="UTF-8"?>
<svg id="Layer_1" data-name="Layer 1" xmlns="http://www.w3.org/2000/svg" xmlns:xlink="http://www.w3.org/1999/xlink" viewBox="0 0 1133.86 737.01">
  <defs>
    <style>
      .cls-1 {
        fill: #fff;
        filter: url(#drop-shadow-1);
      }
    </style>
    <filter id="drop-shadow-1" x="23.86" y="32.52" width="1084" height="679" filterUnits="userSpaceOnUse">
      <feOffset dx="-1.42" dy="2.83"/>
      <feGaussianBlur result="blur" stdDeviation=".85"/>
      <feFlood flood-color="#000" flood-opacity=".6"/>
      <feComposite in2="blur" operator="in"/>
      <feComposite in="SourceGraphic"/>
    </filter>
  </defs>
  <path class="cls-1" d="M1104.17,472.55l-38.9,119.37c-.07.22-.15.44-.23.65-.05.16-.11.31-.17.47-1.59,4.32-3.37,8.58-5.29,12.69-4.54,9.74-10.1,19.1-16.51,27.77-1.37,1.85-2.78,3.68-4.2,5.44-2.56,3.19-5.8,7.09-10.15,11.63-2.68,2.81-5.54,5.58-8.48,8.21-7.55,6.77-15.76,12.73-24.38,17.72-3.58,2.07-7.32,4.02-11.11,5.79-3.12,1.45-6.08,2.7-9.09,3.82-.92.35-1.86.64-2.8.89-.93.42-1.88.79-2.86,1.11-3.35,1.08-6.72,2.03-10.31,2.89-10.63,2.54-21.29,3.89-34.8,5.59-5.16.65-10.37,1.19-15.51,1.59-.74.06-1.49.11-2.24.16-22.01,2.13-78.49,3.96-78.49,3.96h-312.27c-5.11.97-9.2,1.37-11.35,1.57-3.25.31-6.67.47-10.16.47-5.29,0-13.02-.37-21.32-2.04-1.14-.23-2.29-.48-3.44-.76-24.78-6-34.87-19.76-38.97-30.25-.28-.71-.49-1.34-.59-1.64,0,0-.09-.27-.13-.39-1.86-5.57-2.61-11.57-2.26-17.86.29-5.08,1.26-9.13,1.63-10.65,0-.01,0-.05.01-.06,1.45-6.02,3.9-11.72,7.29-16.96.51-.79,1.05-1.56,1.6-2.33h-46.59c-3.04,0-6.01-.52-8.82-1.48-2.79.96-5.77,1.48-8.85,1.48h-191.06c-7.83,2.03-15.85,3.31-23.91,3.81-2.63.16-5.34.24-8.06.24-8.8,0-22.43-.88-37.36-5.07-19.11-5.35-35.68-14.67-49.24-27.69-15.15-14.55-26.18-33.59-31.9-55.06-5.47-20.53-6.02-43.02-1.57-65.04.21-1.03.47-2.04.8-3.04l9.3-28.55c.18-.55.37-1.08.58-1.61.02-.05.07-.16.07-.16,9.42-23.36,28.13-56.48,63.78-81.59,9.74-6.86,39.36-27.73,77.36-32.92,1.22-.17,2.45-.25,3.68-.25h27.43c1.29,0,2.57.09,3.84.27,7.33,1.05,14.64,2.79,21.72,5.19,11.82,4,22.12,9.5,31.04,15.68.37-1.63.9-3.24,1.58-4.8,4.33-9.92,14.12-16.33,24.94-16.33h62.18c8.72,0,16.91,4.18,22.03,11.24.97,1.34,1.8,2.75,2.5,4.22,4.47-9.35,13.96-15.45,24.53-15.45h29.32s9.08-27.94,9.09-27.98l-13.84-10.05c-9.53-6.93-13.53-19.21-9.88-30.41,3.64-11.21,14.09-18.8,25.87-18.8h17.16l5.3-16.32c1.22-3.76,3.21-7.11,5.75-9.9-.04-2.94.38-5.92,1.32-8.82l2.9-8.93-7.6-5.52c-9.53-6.93-13.52-19.21-9.88-30.41,3.64-11.21,14.09-18.79,25.87-18.79h9.39l2.9-8.93c1.21-3.75,3.2-7.08,5.72-9.87-.39-3.7-.02-7.53,1.18-11.24l.97-2.98-2.54-1.85c-9.53-6.92-13.52-19.2-9.88-30.41,3.64-11.21,14.09-18.8,25.87-18.8h3.13l.97-2.98c3.64-11.21,14.09-18.8,25.87-18.8s22.23,7.59,25.87,18.8l.97,2.98h3.14c4.97,0,9.69,1.35,13.78,3.75,4.08-2.4,8.81-3.75,13.78-3.75h3.13l.97-2.98c3.64-11.21,14.09-18.8,25.87-18.8s22.23,7.59,25.87,18.8l.97,2.98h3.13c11.79,0,22.23,7.59,25.87,18.8,3.64,11.21-.35,23.49-9.88,30.41l-2.54,1.85.97,2.98c3.64,11.21-.35,23.49-9.88,30.41-2.29,1.66-4.78,2.93-7.37,3.79,5.28,3.31,9.4,8.42,11.42,14.63,3.64,11.21-.35,23.49-9.88,30.41l-7.6,5.52,2.9,8.93c3.64,11.21-.35,23.49-9.88,30.41-4.65,3.38-10.1,5.11-15.57,5.19,9.45,1.93,17.34,8.8,20.4,18.24,3.64,11.2-.35,23.48-9.88,30.41l-13.89,10.09,5.31,16.32c3.64,11.21-.35,23.49-9.88,30.41-1.1.8-2.24,1.5-3.42,2.11,1.14,4.81.98,9.9-.59,14.73l-19.5,59.84c6.51-1.4,12.59-2.03,17.58-2.56.09,0,.17-.01.26-.02.29-.03.58-.06.87-.09l.21-.02c4.78-.49,9.61-.74,14.39-.74,14.68,0,29.46,2.28,43.95,6.77,2.4-.69,4.92-1.06,7.5-1.06h60.38c5.2,0,10.21,1.48,14.49,4.18,4.26-2.68,9.25-4.18,14.49-4.18h60.38c4.56,0,8.98,1.14,12.88,3.24,1.76-.71,3.57-1.36,5.45-1.96,3.31-1.06,6.76-1.91,10.22-2.53,2.51-.45,5.51-.95,9.17-1.28,2.25-.2,4.52-.31,6.71-.31,9.11,0,17.63,1.77,25.32,5.24,3.13,1.43,6.09,3.11,8.85,5.03,5.27,3.68,9.82,8.19,13.57,13.35,2.14-1.45,4.31-2.85,6.52-4.17,3.99-2.4,8.12-4.63,12.29-6.62,3.51-1.68,9.04-4.21,16.31-6.7,2.35-.81,4.75-1.56,7.11-2.24,12.95-3.72,26.16-5.6,39.28-5.6,3.49,0,7.01.13,10.48.4,3.1.24,6.15.59,9.09,1.02,3.12.45,6.31,1.03,9.45,1.72,3.36.74,6.67,1.6,9.86,2.55,13.5,4.03,26.39,10.17,38.26,18.24,10.02,6.8,14.33,19.41,10.58,30.93Z"/>
  <g>
    <path d="M601.89,351.67l-1.81,5.56-30.05,92.19h-.16l.08.25-47.1,144.52h-54.7l47.17-144.77,22.92-70.34h0c2.27-6.98,3.1-12.36,3.2-16.44.18-8.07-2.51-10.98-2.51-10.98h62.97Z"/>
    <path d="M604.37,286.15l11.41,35.12-29.87-21.71-29.87,21.71,11.41-35.12-25.71-18.68-25.7,18.68,11.41,35.12-29.87-21.71-21.37,15.53,11.89,36.59h49.08l-39.71,28.85,15.17,46.67-9.23-6.71-9.43,28.93-47.17,144.77h-54.7l35.47-108.84s.01-.04.02-.06c3.83-11.76,1.7-25.6,1.7-25.6l8.32-5.17,8.21-5.1,52.51-32.61-25.4-18.45-39.71,28.85,15.17-46.67-39.71-28.85h49.08l15.17-46.68.02.09,6.16-18.94-29.87-21.71h36.93l11.41-35.12,11.41,35.12h65.52l11.41-35.12,11.41,35.12h36.92l-29.87,21.71Z"/>
    <path d="M629.43,475.09c-.4,8.67,2.38,15.53,4.72,20.72,7.91,17.53,12.25,19.44,17.13,31.18,3.27,7.88,7.03,16.93,5.61,27.77-2.94,22.32-25.52,34.5-29.66,36.62-2.19,1.12-4.35,2.05-6.46,2.82-10.89,3.98-20.57,3.75-26.53,3.54-5.71-.2-14.04-.54-22.7-3.54-5.63-1.95-11.39-5.01-16.67-9.88-12.2-11.27-14.09-25.53-14.09-25.53l36.57-20.27c-.79,10.64,1,18.81,2.57,23.87,2.19,7.09,4.51,9.98,5.97,11.52,3.43,3.6,10.46,8.53,15.02,6.18,5.08-2.61,4.24-12.78,3.92-16.76-.9-10.86-5.6-18.7-7.1-21.22-11.37-19.23-21.81-36.71-20.92-53.75.21-4.06,1.02-7.8,2.16-11.16h0c3.66-10.85,10.72-17.83,12.1-19.16,4.14-3.98,8.6-6.68,13.27-8.59,7.72-3.15,16-4.11,24.32-4.98.46-.04.91-.09,1.36-.14,9.86-1.02,27.01-1.48,47.99,5.12,1.6.5,3.23,1.05,4.87,1.64l-11.92,38.56c-.85-1.69-15.2-29.74-29.02-29.81-1.31,0-4.66-.02-7.55,2.14-4.41,3.3-4.78,9.44-4.96,13.14Z"/>
    <path d="M1078.31,464.11l-38.9,119.37s-.01.04-.02.07c-1.15,3.13-2.6,6.72-4.43,10.64-3.24,6.95-7.67,14.91-13.75,23.13-1.11,1.5-2.27,3.01-3.49,4.53-1.92,2.38-4.78,5.88-8.65,9.91-2.03,2.13-4.36,4.4-6.97,6.74-5.36,4.81-11.96,9.87-19.85,14.44-2.83,1.64-5.82,3.21-8.98,4.68-2.44,1.13-4.81,2.14-7.17,3.02l-4.47,1.57c-2.73.88-5.46,1.64-8.26,2.31-9.13,2.18-19.02,3.44-31.88,5.06-5.02.63-9.78,1.11-14.23,1.46-7.7.61-14.49.85-20.13.92l3.69-11.32,2.51-7.7,4.71-14.44,2.2-6.74,4.71-14.44c1.07,2.12,4.75,8.93,12.32,14.44.73.53,1.5,1.06,2.3,1.55,1.92,1.2,4.05,2.3,6.42,3.23,2.31.91,4.58,1.54,6.77,1.96,5.56,1.07,10.66.77,14.82,0,5.6-1.03,9.53-2.91,10.61-3.45,1.99-.99,3.79-2.1,5.44-3.29h.43l.13-.41c5.66-4.26,9.33-9.48,11.68-14.03h.4l.88-2.7s0,0,0,0c1.69-3.9,2.37-6.94,2.54-7.79,0,0,0-.01,0-.02l4.11-12.61,40.01-122.76c-1.97-.62-4.31-1.25-6.95-1.71-4.96-.86-10.96-1.15-17.46.27-26.44,5.78-37.8,34.72-41.05,44.31-.04.14-.09.27-.13.39,0,.03-.02.06-.03.08-.05.15-.1.3-.14.44-.02.07-.05.14-.07.21-.05.13-.09.26-.12.38-.02.06-.04.12-.06.18-.04.12-.07.23-.11.33-.02.05-.03.1-.05.15-.05.16-.11.33-.16.49-2.89,9.05-9.05,29.3,1.56,48.95,5.94,11.01,14.7,17.3,19.83,20.38-1.92,2.27-4.93,5.23-9.25,7.55-.23.12-.45.24-.68.35-10.31,5.22-22.27,3.91-31.71,0-1.49-.62-2.91-1.3-4.26-2.02-.72-.39-1.42-.8-2.1-1.22-5.98-3.7-10.12-8.36-13.11-12.95-2.93-4.49-4.76-8.91-6.15-12.27-2.3-5.6-7.84-19.6-3.37-36.75l-21.26,65.21h-52.13l28.5-87.46c1.11-2.64,1.95-5.23,2.51-7.7,1.91-8.43.64-15.54-3.59-18.97-3.45-2.8-7.98-2.44-9.47-2.33-18.57,1.47-29.93,32.97-31.23,36.7,0,.03-.02.06-.03.08l-25.96,79.67h-52.13l6.61-20.3c-4.42,3.38-11.02,7.97-19.61,12.38-6.2,3.18-11.82,6.06-18.19,7.92-2.08.61-4.23,1.11-6.52,1.47-.83.13-1.67.25-2.54.35-6.61.74-15.91,1.78-23.89-1.82-2.09-.94-4.09-2.19-5.93-3.85-8.43-7.61-10.68-21.2-6.78-34.53l25.73-78.96h0c6.79-20.84.69-27.42.69-27.42h60.38l-30.42,93.36c-.39,1.12-.74,2.21-1.06,3.26-1.19,3.93-1.87,7.3-2.29,9.91-.57,3.54-.65,5.74.23,8.13.08.21,1.28,3.41,3.46,5.02,5.52,4.08,16.96-2.21,22.24-6.08,8.71-6.38,12.87-15.11,14.86-20.89.02-.05.03-.1.05-.15.04-.12.09-.25.12-.37.12-.36.23-.71.34-1.06,0-.04.02-.08.03-.11l20.73-63.6c6.79-20.85.68-27.43.68-27.43h60.38l-5.92,18.17v.03c-.11.22-.18.44-.23.65,0,0,0,.01,0,.02-.25,1.17.14,2.28.94,2.8.77.5,1.67.3,1.9.24,5.47-7.1,15.36-17.28,29.9-21.91,2.14-.69,4.38-1.25,6.72-1.66,1.75-.31,4.09-.72,6.8-.96,5.29-.48,11.99-.29,18.42,2.62,1.53.7,3.05,1.54,4.53,2.57,12.11,8.44,17.28,26.02,12.98,44.5,0,0,0,.01,0,.02,0,0,0,0,0,.01,0,0,0,0,0,.01,5.88-8.39,17.55-22.86,36.7-34.4,3.12-1.88,6.44-3.68,9.97-5.37,2.56-1.22,7.17-3.38,13.41-5.52,1.8-.62,3.74-1.24,5.81-1.83,10.54-3.03,24.36-5.44,40.14-4.22,2.37.19,4.79.45,7.24.81,2.49.36,5.01.82,7.57,1.38,2.73.6,5.35,1.28,7.85,2.03,13.69,4.09,24.1,10.13,30.8,14.69Z"/>
    <path d="M396,449.43c-.69-.59-1.41-1.14-2.15-1.66-1.53-1.07-3.09-1.93-4.67-2.65-6.62-3-13.52-3.19-18.97-2.7-.03,0-.06,0-.09,0-2.75.24-5.13.67-6.91.98-2.41.42-4.71,1-6.92,1.71-3.59,1.15-6.91,2.62-9.96,4.31-9.63,5.32-16.54,12.71-20.82,18.26-.24.06-1.17.27-1.96-.24-.27-.18-.5-.42-.67-.71-.35-.59-.47-1.37-.3-2.17,0,0,0-.01,0-.02.05-.23.12-.45.22-.67,0,0,.01-.02.02-.03l4.73-14.41,32.07-97.75h-62.18s5.03,5.42,1.09,21.92c-.38,1.59-.84,3.28-1.4,5.08-.12.41-.26.82-.39,1.24l-7.97,24.33c-.05-.08-.1-.16-.14-.24-6.13-10.27-23.99-36.98-57.46-48.31-5.69-1.92-11.31-3.23-16.83-4.02h-27.43c-31.43,4.29-56.31,21.82-65.37,28.2-32.57,22.95-47.73,53.42-54.22,69.53,0,0,0,.01,0,.02l-9.3,28.55c-7.35,36.35,1.96,72.33,25.65,95.09,11.81,11.34,25.37,17.66,37.74,21.12,16.73,4.69,31.28,4.18,36.4,3.86,7.83-.48,15.13-1.86,21.94-3.86,29.04-8.57,48.85-28.76,60.39-41.34,0,0,0,0,0-.01l-6.66,20.45-6.81,20.9h53.68l26.73-82.04s.02-.06.03-.09c.44-1.27,2.01-5.65,4.6-11.01,0,0,0,0,0,0,5.26-10.88,14.74-25.77,27.55-26.78,1.53-.12,6.19-.48,9.74,2.4,4.22,3.42,5.58,10.37,3.88,18.68h0c-.06.29-.12.57-.18.85-.58,2.54-1.44,5.21-2.59,7.93l-29.35,90.06h53.68l21.88-67.16,10.89-33.4s0,0,0-.01c0,0,0,0,0-.01,0,0,0-.01,0-.02.07-.29.13-.58.2-.87,0,0,0-.01,0-.02,3.81-17.56-.68-34.22-11.41-43.27ZM273.97,449.43l-21.97,67.1c-.04.06-.07.12-.11.19,0,0,0,0,0,0-.83,1.44-1.64,2.85-2.47,4.3-31.52,35.78-76.25,45.01-101.7,28.46-33.66-21.89-20.92-80.63-17.05-98.47.11-.52.23-1.04.35-1.57,6.57-28.76,25.61-72.76,55.74-77.02,2.89-.41,10.19-1.35,17.39,2.39,16.98,8.81,23.18,38.37,15.38,74.63l-.95,4.57,7.24-4.57,57.68-29.7.24-.12-9.76,29.83ZM288.53,417.13l.68-2.08c0,.56.01,1.13.02,1.72l-.71.36Z"/>
    <polygon points="542.81 182.87 551.82 210.61 528.24 193.47 504.64 210.61 513.65 182.87 490.07 165.74 519.22 165.74 528.24 138.01 537.25 165.74 566.4 165.74 542.81 182.87"/>
    <polygon points="565.12 95.12 572.19 116.9 553.66 103.44 535.14 116.9 542.22 95.12 523.69 81.66 546.59 81.66 553.66 59.88 560.74 81.66 583.64 81.66 565.12 95.12"/>
    <polygon points="630.27 182.87 639.28 210.61 615.69 193.47 592.11 210.61 601.12 182.87 577.53 165.74 606.68 165.74 615.69 138.01 624.7 165.74 653.86 165.74 630.27 182.87"/>
    <polygon points="652.62 95.12 659.7 116.9 641.17 103.44 622.65 116.9 629.72 95.12 611.2 81.66 634.09 81.66 641.17 59.88 648.25 81.66 671.14 81.66 652.62 95.12"/>
    <polygon points="732.66 631.77 730.35 638.51 769.58 638.51 764.62 652.94 725.38 652.94 722.74 660.64 766.74 660.64 761.77 675.09 696.52 675.09 701.48 660.64 704.13 652.94 709.09 638.51 711.4 631.77 716.37 617.32 781.63 617.32 776.67 631.77 732.66 631.77"/>
    <path d="M684.76,630.12c-4.07-7.73-12.14-12.64-21-12.8h-45.01l-4.97,14.44-2.32,6.74-4.96,14.44-2.65,7.7-4.96,14.44h43.42c7.45,0,14.86-1.51,21.61-4.66,2.41-1.12,4.89-2.5,7.38-4.22,6.51-4.5,10.69-9.63,13.17-13.26.46-.83,6.16-11.68.28-22.82ZM665.11,644.39c-.95,7.88-8.32,12.28-9.7,13.1-4.33,2.59-8.63,3.1-11.31,3.15h-18.51l2.65-7.7,4.96-14.44,2.32-6.74h17.07c.45-.02,8.02-.22,11.3,5.24,1.76,2.92,1.39,5.96,1.22,7.39Z"/>
    <polygon points="591.66 617.32 586.69 631.77 584.38 638.51 579.42 652.94 576.77 660.64 571.81 675.09 550.55 675.09 555.51 660.64 558.16 652.94 563.12 638.51 565.44 631.77 570.4 617.32 591.66 617.32"/>
    <path d="M871.73,624.79c-4.24-7.27-14.13-7.46-14.85-7.47h-50.26l-4.97,14.44-2.32,6.74-4.96,14.44-2.65,7.7-4.96,14.44h21.26l4.97-14.44,1.56-4.55h17.42c2.99,0,5.73,1.8,6.81,4.6,0,.01.01.03.02.05,2.26,5.9,1.77,11.3,1.22,14.35h21.09c.49-4.63.53-11.47-2.1-18.98-.77-2.22-1.68-4.19-2.61-5.93,3.07-1,8.56-3.31,12.83-8.63,1.78-2.21,4.25-5.29,4.34-9.79.01-.51.04-3.75-1.84-6.98ZM851.06,637c-.22,2.25-1.84,4.26-4.16,5.18-.85.34-1.78.47-2.7.47h-25.03l1.43-4.15,2.32-6.74h23.29c2.69,0,4.96,2.18,4.88,4.87,0,.12,0,.24-.02.36Z"/>
    <path d="M541.23,623.21l-6.39,8.56-5.04,6.74c-5.26-5.44-14.3-6.19-18.48-6.53-.65-.05-1.93-.16-3.64-.21h-3.6c-6.37.19-15.3,1.48-21.16,6.74-1.23,1.11-2.34,2.38-3.25,3.87-.52.85-3.69,6.03-2.2,10.57.08.24.17.47.27.7,2.34,5.21,10.42,6.6,14.73,7h7.01c.21-.01.42-.03.65-.05,6.38-.46,12.79-.92,19.67-3.39,2.34-.84,4.86-1.74,7.09-2.87l.47,6.3.7,9.38c-4.92,2.51-10.01,4.07-14.45,5.06-4.91,1.09-9.01,1.49-11.16,1.69-7.32.7-17.15.43-25.94-1.69-9.16-2.22-17.19-6.45-20.03-13.71-.1-.24-.17-.49-.26-.73-.88-2.63-1.04-5.35-.9-7.7.15-2.68.68-4.87.93-5.89.8-3.32,2.12-6.14,3.68-8.55,1.75-2.71,3.79-4.9,5.74-6.74,1-.95,1.99-1.8,2.89-2.58,2.73-2.36,11-8.96,25.25-11.86,8.98-1.82,22.42-2.6,33.78,0,5.19,1.19,9.94,3.07,13.65,5.88Z"/>
  </g>
</svg>