<svg id="Layer_1" data-name="Layer 1" xmlns="http://www.w3.org/2000/svg" viewBox="0 0 378.48 378.48"><defs><style>.cls-1{fill:#fff;}</style></defs><title>Artboard 33</title><circle cx="189.24" cy="189.24" r="189.24"/><path class="cls-1" d="M45.93,147.7l-.41,1.62L33,154.07l0,.13,10.68,2.68-.43,1.71-13.71-3.44.41-1.65,12.57-4.74,0-.13-10.7-2.69.42-1.68Z"/><path class="cls-1" d="M47.39,143.28,46.86,145l-13.47-4.29.53-1.67Z"/><path class="cls-1" d="M40.11,128.54a4,4,0,0,0-1.66,2,4.13,4.13,0,0,0-.23,2.37,4.39,4.39,0,0,0,1.19,2.21A7.18,7.18,0,0,0,42,136.83a7,7,0,0,0,3,.57,4.53,4.53,0,0,0,2.4-.81,4.41,4.41,0,0,0,1.48-2,4.27,4.27,0,0,0,.31-2.14,3.48,3.48,0,0,0-.81-1.85,4.56,4.56,0,0,0-1.81-1.3l-1.36,3.43-1.44-.57,2-5,1.42.56a6,6,0,0,1,2.55,1.81,5.12,5.12,0,0,1,1.11,2.66,6.26,6.26,0,0,1-.44,3,6.18,6.18,0,0,1-2,2.74,5.81,5.81,0,0,1-3.17,1.13,9.79,9.79,0,0,1-7.15-2.84,6,6,0,0,1-1.54-3,5.78,5.78,0,0,1,.36-3.31,6.29,6.29,0,0,1,1.54-2.3,5.6,5.6,0,0,1,2.26-1.3,5.69,5.69,0,0,1,2.63-.11L42.69,128A4.41,4.41,0,0,0,40.11,128.54Z"/><path class="cls-1" d="M40.67,121.36l.79-1.58,5.63,2.8,3.33-6.7-5.63-2.8.79-1.59,12.66,6.29-.79,1.59-5.65-2.8-3.33,6.7,5.65,2.8-.78,1.58Z"/><path class="cls-1" d="M47.13,108.68l5.55-9.1,1.34.81-2.31,3.78,10.74,6.55-.92,1.52-10.74-6.55-2.32,3.8Z"/><path class="cls-1" d="M65.28,87.29a3.86,3.86,0,0,0-1.68.47,4.58,4.58,0,0,0-1.36,1.17,4.17,4.17,0,0,0-.92,2.23,4.37,4.37,0,0,0,.5,2.47,8.15,8.15,0,0,0,4.79,3.77,4.46,4.46,0,0,0,2.52-.09,4.21,4.21,0,0,0,2-1.43,4.43,4.43,0,0,0,.82-1.6A3.89,3.89,0,0,0,72,92.55a3.66,3.66,0,0,0-.79-1.62l1.09-1.38a5.64,5.64,0,0,1,1.29,2.35,5.32,5.32,0,0,1,0,2.57,6.32,6.32,0,0,1-1.2,2.42,5.88,5.88,0,0,1-2.69,2,6,6,0,0,1-3.36.17,8.72,8.72,0,0,1-3.52-1.74,8.84,8.84,0,0,1-2.53-3,5.84,5.84,0,0,1,.68-6.4A6.34,6.34,0,0,1,63,86.19a5.36,5.36,0,0,1,2.51-.59,5.61,5.61,0,0,1,2.61.7L67,87.68A3.67,3.67,0,0,0,65.28,87.29Z"/><path class="cls-1" d="M76.35,91.58,69.59,78.13l1.27-1.35,13.85,5.91L83.44,84l-3.88-1.69-3.89,4.14,1.93,3.76Zm1.72-9.9L71.92,79l-.08.09,3.08,6Z"/><path class="cls-1" d="M74.59,72.86l7.84-7.22,1.06,1.15-3.26,3L88.75,79l-1.31,1.2L78.92,71l-3.27,3Z"/><path class="cls-1" d="M90.84,58.87l10.62,6.75.14-.1L98.76,53.26,100.49,52l8.17,11.54-1.36,1-6.17-8.72-.11.08,2.58,11.26-1.27.91-9.76-6.19-.1.07,6.18,8.72-1.36,1L89.12,60.09Z"/><path class="cls-1" d="M119.14,53.89a5.88,5.88,0,0,1-.69,3.29,6,6,0,0,1-2.37,2.36,5.85,5.85,0,0,1-6.43-.31,8.55,8.55,0,0,1-2.59-2.95,8.77,8.77,0,0,1-1.19-3.74,6.07,6.07,0,0,1,.69-3.3,6.32,6.32,0,0,1,5.63-3.17,5.92,5.92,0,0,1,3.18,1.12,9.61,9.61,0,0,1,3.77,6.7Zm-4.68-5.27a4.36,4.36,0,0,0-2.36-.88A4.47,4.47,0,0,0,108,50a4.5,4.5,0,0,0-.47,2.48,8,8,0,0,0,3,5.31,4.52,4.52,0,0,0,2.36.88A4.51,4.51,0,0,0,117,56.4a4.48,4.48,0,0,0,.47-2.48,7,7,0,0,0-1-2.94A7.1,7.1,0,0,0,114.46,48.62Z"/><path class="cls-1" d="M123.45,55.33l-5.78-12.9,4.17-1.87a7,7,0,0,1,3.56-.67,5.51,5.51,0,0,1,3.06,1.3,8.55,8.55,0,0,1,2.25,3.12,8.44,8.44,0,0,1,.83,3.79,5.52,5.52,0,0,1-1.1,3.17,7.37,7.37,0,0,1-3,2.26Zm3.26-3.17a4.86,4.86,0,0,0,2.92-2.89,5.89,5.89,0,0,0-.49-4.26,6,6,0,0,0-2.8-3.18,4.69,4.69,0,0,0-4,.2l-2.46,1.1,4.51,10.06Z"/><path class="cls-1" d="M131,36.67l8.08-2.86.52,1.48-6.42,2.27L134.78,42l6-2.12.51,1.46-6,2.12,1.58,4.47,6.52-2.3.52,1.47L135.74,50Z"/><path class="cls-1" d="M161,39.42a6,6,0,0,1-10.63,2.41,8.53,8.53,0,0,1-1.63-3.57,8.56,8.56,0,0,1-.07-3.92,5.82,5.82,0,0,1,4.56-4.55,5.88,5.88,0,0,1,6.07,2.14,9.62,9.62,0,0,1,1.7,7.49Zm-3-6.39a4.48,4.48,0,0,0-2-1.51,4.19,4.19,0,0,0-2.41-.13,4.32,4.32,0,0,0-2.13,1.16,4.43,4.43,0,0,0-1.16,2.23,8.05,8.05,0,0,0,1.35,5.95,4.4,4.4,0,0,0,2,1.51,4.19,4.19,0,0,0,2.41.13,4.28,4.28,0,0,0,2.13-1.16A4.35,4.35,0,0,0,159.39,39,8.11,8.11,0,0,0,158.05,33Z"/><path class="cls-1" d="M175.86,40.6l-1.67.21-9-9.94h-.14l1.41,10.93-1.74.22-1.81-14,1.69-.22,9,10,.14,0-1.41-11,1.72-.22Z"/><path class="cls-1" d="M179.47,44.43l-1.44.09.73-5.37,1.89-.12Z"/><path class="cls-1" d="M199.75,40.36l-1.68,0L190.78,29h-.13l-.36,11L188.53,40,189,25.86l1.7.06L198,37.2h.14l.36-11,1.74.06Z"/><path class="cls-1" d="M214,38.8a5.86,5.86,0,0,1-5.84,2.7,5.8,5.8,0,0,1-5-4.09,8.63,8.63,0,0,1-.3-3.91,8.56,8.56,0,0,1,1.28-3.71,6,6,0,0,1,2.52-2.23,6.33,6.33,0,0,1,6.41.82,6,6,0,0,1,1.88,2.8,8.63,8.63,0,0,1,.3,3.91A8.56,8.56,0,0,1,214,38.8Zm-.6-7A4.45,4.45,0,0,0,212,29.66a4.27,4.27,0,0,0-2.23-.94,4.2,4.2,0,0,0-2.39.35,4.37,4.37,0,0,0-1.86,1.7,7.14,7.14,0,0,0-1,2.94,7.24,7.24,0,0,0,.2,3.1,4.53,4.53,0,0,0,1.37,2.12,4.27,4.27,0,0,0,2.23.94,4.22,4.22,0,0,0,2.39-.35,4.37,4.37,0,0,0,1.86-1.7,7.14,7.14,0,0,0,1-2.94A7.24,7.24,0,0,0,213.38,31.78Z"/><path class="cls-1" d="M227.69,33.44a3.77,3.77,0,0,0-1.14-1.31,4.55,4.55,0,0,0-1.65-.73,4.19,4.19,0,0,0-2.41.13,4.36,4.36,0,0,0-2,1.52A8.09,8.09,0,0,0,219.14,39a4.43,4.43,0,0,0,1.17,2.24,4.28,4.28,0,0,0,2.12,1.15,4.56,4.56,0,0,0,1.8,0,3.65,3.65,0,0,0,1.59-.69,3.7,3.7,0,0,0,1.12-1.4l1.72.38a5.69,5.69,0,0,1-1.58,2.18A5.2,5.2,0,0,1,224.77,44a6.16,6.16,0,0,1-2.7,0,5.93,5.93,0,0,1-2.95-1.58,6,6,0,0,1-1.61-3,8.69,8.69,0,0,1,.06-3.92,8.63,8.63,0,0,1,1.63-3.58,6,6,0,0,1,2.72-2,5.89,5.89,0,0,1,3.34-.16,6.18,6.18,0,0,1,2.45,1.12,5.34,5.34,0,0,1,1.61,2,5.7,5.7,0,0,1,.49,2.66l-1.72-.39A3.59,3.59,0,0,0,227.69,33.44Z"/><path class="cls-1" d="M233.23,31.94l10.17,3.21-.47,1.49L238.7,35.3l-3.79,12-1.69-.54,3.78-12-4.24-1.34Z"/><path class="cls-1" d="M256.63,40.45l-3.57,8.65a5,5,0,0,1-1.62,2.13,4.75,4.75,0,0,1-2.47.93A6.74,6.74,0,0,1,243.62,50a4.73,4.73,0,0,1-1.1-2.39,4.94,4.94,0,0,1,.36-2.66l3.56-8.65,1.63.67-3.52,8.52a3.59,3.59,0,0,0-.27,1.86A3.21,3.21,0,0,0,245,49a4.6,4.6,0,0,0,3.69,1.52,3.28,3.28,0,0,0,1.68-.66,3.71,3.71,0,0,0,1.12-1.52L255,39.78Z"/><path class="cls-1" d="M260.28,42.18l4.27,2.21a6,6,0,0,1,2.14,1.72,3.65,3.65,0,0,1,.72,2.1,4.69,4.69,0,0,1-.58,2.26,4.41,4.41,0,0,1-1.72,1.89,3.63,3.63,0,0,1-2.44.42l.16,6.64L261,58.48l-.11-6.25-.31-.15-2.72-1.4-2.52,4.87-1.56-.8Zm1,8.45a3.48,3.48,0,0,0,2.44.47,2.53,2.53,0,0,0,1.59-1.43,2.69,2.69,0,0,0,.27-2.18,3.4,3.4,0,0,0-1.8-1.75l-2.64-1.36-2.52,4.87Z"/><path class="cls-1" d="M273.76,66.24l-1.42-.9-.59-13.4-.11-.07-5.88,9.31-1.49-.94,7.55-12,1.44.91.58,13.42.11.07,5.9-9.33,1.47.93Z"/><path class="cls-1" d="M275.06,67.11,287.76,59l1.47,1.13-4.48,14.38-1.47-1.13,1.29-4-4.51-3.45-3.55,2.31Zm10,.71,2.07-6.39-.1-.07L281.42,65Z"/><path class="cls-1" d="M295.4,65.12l1.31,1.17-8.4,9.37L293.2,80l-1.05,1.16L286,75.65Z"/><path class="cls-1" d="M298.29,87.51l-1.2-1.28,10.29-9.7,1.2,1.28Z"/><path class="cls-1" d="M307.5,98.22l-1.07-1.29L310,84l-.08-.1-8.48,7-1.12-1.35,10.88-9,1.08,1.31-3.6,12.94.09.1,8.49-7.05,1.11,1.34Z"/><path class="cls-1" d="M322.93,99.71a2.6,2.6,0,0,0,0-1.33,4.34,4.34,0,0,0-.66-1.4,4,4,0,0,0-1.18-1.17,2.45,2.45,0,0,0-1.3-.43,2,2,0,0,0-1.2.37,1.66,1.66,0,0,0-.78,1.5,6.64,6.64,0,0,0,.44,2.06l.48,1.38a8,8,0,0,1,.54,3,3,3,0,0,1-1.47,2.46,3.77,3.77,0,0,1-2.07.69,4.09,4.09,0,0,1-2.21-.61,6.55,6.55,0,0,1-2-2,6.62,6.62,0,0,1-1.09-2.44,4.08,4.08,0,0,1,.13-2.23,3.82,3.82,0,0,1,1.29-1.76l1,1.48a2.2,2.2,0,0,0-.75,1.17,2.82,2.82,0,0,0,0,1.41,4.57,4.57,0,0,0,.69,1.45,4.73,4.73,0,0,0,1.25,1.27,2.89,2.89,0,0,0,1.43.49,2.18,2.18,0,0,0,1.35-.39,1.67,1.67,0,0,0,.69-.92,2.78,2.78,0,0,0,0-1.19,10.61,10.61,0,0,0-.41-1.51l-.6-1.7a6.22,6.22,0,0,1-.37-3,3,3,0,0,1,1.35-2.06,3.51,3.51,0,0,1,2.07-.66,4.28,4.28,0,0,1,2.14.64,6,6,0,0,1,1.82,1.75,5.85,5.85,0,0,1,1,2.27,4.1,4.1,0,0,1-.14,2.16,3.32,3.32,0,0,1-1.19,1.64l-1-1.41A2.15,2.15,0,0,0,322.93,99.71Z"/><path class="cls-1" d="M327.64,102.49l5.36,9.22-1.35.78-2.23-3.83L318.54,115l-.89-1.53,10.87-6.33-2.24-3.85Z"/><path class="cls-1" d="M322.48,122.31l-.8-1.57,12.6-6.42.8,1.57Z"/><path class="cls-1" d="M328.31,135.17l-.67-1.54,7.07-11.4-.06-.13-10.11,4.38-.7-1.62,13-5.61.68,1.56-7.09,11.41.06.12L340.59,128l.69,1.59Z"/><path class="cls-1" d="M342.8,142.68a3.92,3.92,0,0,0,.54-1.66,4.35,4.35,0,0,0-.22-1.78,4.18,4.18,0,0,0-1.35-2,4.34,4.34,0,0,0-2.33-.95,8,8,0,0,0-5.79,1.9,4.41,4.41,0,0,0-1.32,2.14,4.26,4.26,0,0,0,.1,2.42,4.61,4.61,0,0,0,.88,1.56,3.7,3.7,0,0,0,3.19,1.26l.55,1.67a5.66,5.66,0,0,1-2.67-.24,5.32,5.32,0,0,1-2.16-1.4,6.31,6.31,0,0,1-1.35-2.34,5.83,5.83,0,0,1,1.56-6.24,9.63,9.63,0,0,1,7.3-2.4,6.08,6.08,0,0,1,3.1,1.32,5.93,5.93,0,0,1,1.85,2.79,6.06,6.06,0,0,1,.29,2.68,5.24,5.24,0,0,1-.9,2.41,5.6,5.6,0,0,1-2,1.78l-.55-1.67A3.56,3.56,0,0,0,342.8,142.68Z"/><path class="cls-1" d="M346.93,146.67l2.46,10.38-1.52.36-1-4.32L334.6,156l-.4-1.73,12.24-2.89-1-4.33Z"/><path class="cls-1" d="M332.55,230.78l.41-1.63,12.55-4.74,0-.14-10.68-2.68.43-1.7L349,223.33l-.41,1.65L336,229.72l0,.13,10.7,2.69-.42,1.68Z"/><path class="cls-1" d="M331.1,235.17l.53-1.67,13.47,4.29-.53,1.67Z"/><path class="cls-1" d="M338.37,249.94a4.05,4.05,0,0,0,1.66-2,4.11,4.11,0,0,0,.23-2.37,4.43,4.43,0,0,0-1.19-2.21,7.3,7.3,0,0,0-2.61-1.67,7,7,0,0,0-3-.57,4.34,4.34,0,0,0-2.4.81,4.44,4.44,0,0,0-1.48,2,4.3,4.3,0,0,0-.31,2.14,3.47,3.47,0,0,0,.81,1.86,4.56,4.56,0,0,0,1.81,1.3l1.36-3.44,1.44.57-2,5-1.42-.56a6.13,6.13,0,0,1-2.55-1.81,5.16,5.16,0,0,1-1.11-2.66,6.61,6.61,0,0,1,2.49-5.78,5.81,5.81,0,0,1,3.17-1.12,9.79,9.79,0,0,1,7.15,2.84,6,6,0,0,1,1.54,3,5.79,5.79,0,0,1-.36,3.31,6.29,6.29,0,0,1-1.54,2.3,5.46,5.46,0,0,1-2.26,1.29,5.56,5.56,0,0,1-2.63.11l.67-1.68A4.49,4.49,0,0,0,338.37,249.94Z"/><path class="cls-1" d="M337.8,257.12,337,258.7l-5.63-2.8-3.33,6.7,5.63,2.8L332.9,267l-12.66-6.3.79-1.59,5.65,2.81,3.33-6.7-5.65-2.81.78-1.57Z"/><path class="cls-1" d="M331.34,269.8l-5.55,9.1-1.33-.81,2.31-3.79L316,267.76l.92-1.52,10.74,6.54L330,269Z"/><path class="cls-1" d="M313.2,291.19a3.86,3.86,0,0,0,1.68-.47,4.58,4.58,0,0,0,1.36-1.17,4.21,4.21,0,0,0,.92-2.23,4.36,4.36,0,0,0-.5-2.47,7.08,7.08,0,0,0-2-2.35,7,7,0,0,0-2.76-1.42,4.46,4.46,0,0,0-2.52.09,4.21,4.21,0,0,0-2,1.43,4.47,4.47,0,0,0-.82,1.59,3.79,3.79,0,0,0-.06,1.74,3.72,3.72,0,0,0,.79,1.62l-1.09,1.38a5.64,5.64,0,0,1-1.29-2.35,5.32,5.32,0,0,1,0-2.57,6.22,6.22,0,0,1,1.2-2.43,5.93,5.93,0,0,1,2.69-2,6,6,0,0,1,3.36-.17,8.59,8.59,0,0,1,3.52,1.74,8.9,8.9,0,0,1,2.53,3,6,6,0,0,1,.62,3.31,6,6,0,0,1-1.3,3.09,6.19,6.19,0,0,1-2.07,1.73,5.29,5.29,0,0,1-2.5.59,5.74,5.74,0,0,1-2.61-.7l1.09-1.39A3.57,3.57,0,0,0,313.2,291.19Z"/><path class="cls-1" d="M302.13,286.89l6.76,13.46-1.27,1.35-13.85-5.91,1.27-1.35,3.88,1.69,3.89-4.14-1.93-3.76Zm-1.72,9.91,6.15,2.7.08-.09-3.08-6Z"/><path class="cls-1" d="M303.89,305.61l-7.84,7.23L295,311.69l3.26-3-8.52-9.25,1.31-1.21,8.52,9.25,3.27-3Z"/><path class="cls-1" d="M287.64,319.61,277,312.86l-.14.1,2.84,12.26L278,326.44l-8.17-11.55,1.36-1,6.17,8.72.11-.08-2.58-11.25,1.27-.91,9.76,6.18.1-.06-6.18-8.72,1.36-1,8.17,11.54Z"/><path class="cls-1" d="M259.34,324.59a5.9,5.9,0,0,1,.69-3.3,6.32,6.32,0,0,1,5.63-3.17,6.09,6.09,0,0,1,3.17,1.12,8.69,8.69,0,0,1,2.59,3,8.87,8.87,0,0,1,1.19,3.74,6,6,0,0,1-9.5,5.35,9.67,9.67,0,0,1-3.77-6.7Zm4.68,5.27a4.44,4.44,0,0,0,2.36.88,4.29,4.29,0,0,0,2.35-.57,4.22,4.22,0,0,0,1.71-1.72,4.45,4.45,0,0,0,.47-2.47,7.15,7.15,0,0,0-1-3,7.24,7.24,0,0,0-2-2.36,4.44,4.44,0,0,0-2.36-.88,4.46,4.46,0,0,0-4.06,2.29,4.45,4.45,0,0,0-.47,2.47,8.12,8.12,0,0,0,3,5.31Z"/><path class="cls-1" d="M255,323.15l5.78,12.9-4.17,1.87a7,7,0,0,1-3.56.67,5.51,5.51,0,0,1-3.06-1.3,9.51,9.51,0,0,1-3.08-6.91,5.5,5.5,0,0,1,1.1-3.17,7.32,7.32,0,0,1,3-2.27Zm-3.27,3.17a4.91,4.91,0,0,0-2.92,2.89,7.15,7.15,0,0,0,3.3,7.43,4.62,4.62,0,0,0,4-.2l2.46-1.1-4.51-10Z"/><path class="cls-1" d="M247.45,341.81l-8.08,2.86-.53-1.48,6.43-2.27-1.57-4.46-6,2.13-.51-1.46,6-2.12-1.58-4.48-6.52,2.31-.52-1.48,8.18-2.88Z"/><path class="cls-1" d="M217.45,339.05a6.08,6.08,0,0,1,1.61-3,6,6,0,0,1,9,.56,9.62,9.62,0,0,1,1.7,7.49,6,6,0,0,1-1.6,3,6.33,6.33,0,0,1-6.3,1.43,6,6,0,0,1-2.73-2,8.78,8.78,0,0,1-1.63-3.57A8.88,8.88,0,0,1,217.45,339.05Zm3,6.39a4.43,4.43,0,0,0,2,1.52,4.19,4.19,0,0,0,2.41.12,4.23,4.23,0,0,0,2.13-1.15,4.47,4.47,0,0,0,1.16-2.23,8.05,8.05,0,0,0-1.35-5.95,4.5,4.5,0,0,0-2-1.52,4.49,4.49,0,0,0-4.54,1,4.42,4.42,0,0,0-1.16,2.24,8.09,8.09,0,0,0,1.34,5.94Z"/><path class="cls-1" d="M202.62,337.88l1.67-.22,9,9.95.14,0L212,336.67l1.74-.23,1.81,14-1.69.22-9-10-.14,0,1.41,10.94-1.72.22Z"/><path class="cls-1" d="M199,334.05l1.44-.1-.73,5.37-1.89.12Z"/><path class="cls-1" d="M178.73,338.12l1.68.05,7.29,11.26h.13l.36-11,1.76.06-.46,14.13-1.7-.06-7.29-11.28h-.14l-.36,11-1.74-.06Z"/><path class="cls-1" d="M164.5,339.68a6,6,0,0,1,2.53-2.24,6.37,6.37,0,0,1,6.41.83,6,6,0,0,1,1.87,2.8,9.66,9.66,0,0,1-1,7.62,5.84,5.84,0,0,1-5.84,2.7,5.9,5.9,0,0,1-3.09-1.3,6,6,0,0,1-1.88-2.79,8.66,8.66,0,0,1-.3-3.92A8.51,8.51,0,0,1,164.5,339.68Zm.6,7a4.5,4.5,0,0,0,1.37,2.12,4.5,4.5,0,0,0,4.62.59,4.37,4.37,0,0,0,1.86-1.7,7.14,7.14,0,0,0,1-2.95,7.26,7.26,0,0,0-.2-3.1,4.47,4.47,0,0,0-1.37-2.11,4.47,4.47,0,0,0-4.62-.6,4.5,4.5,0,0,0-1.86,1.7,8.12,8.12,0,0,0-.78,6.05Z"/><path class="cls-1" d="M150.79,345a3.82,3.82,0,0,0,1.14,1.32,4.73,4.73,0,0,0,1.65.73A4.27,4.27,0,0,0,156,347a4.43,4.43,0,0,0,2-1.52,8.09,8.09,0,0,0,1.34-5.94,4.47,4.47,0,0,0-1.17-2.24A4.19,4.19,0,0,0,156,336.1a4.51,4.51,0,0,0-1.79-.05,3.79,3.79,0,0,0-1.59.7,3.54,3.54,0,0,0-1.12,1.4l-1.71-.39a5.69,5.69,0,0,1,1.56-2.17,5.42,5.42,0,0,1,2.32-1.13,6.32,6.32,0,0,1,2.7,0,5.93,5.93,0,0,1,3,1.58,6,6,0,0,1,1.61,3,8.69,8.69,0,0,1-.06,3.92,8.53,8.53,0,0,1-1.63,3.57,5.91,5.91,0,0,1-2.72,2,6,6,0,0,1-3.35.16,6.35,6.35,0,0,1-2.44-1.12,5.34,5.34,0,0,1-1.61-2,5.7,5.7,0,0,1-.49-2.66l1.72.39A3.53,3.53,0,0,0,150.79,345Z"/><path class="cls-1" d="M145.25,346.54l-10.17-3.21.47-1.49,4.23,1.33,3.79-12,1.69.54-3.79,12,4.25,1.34Z"/><path class="cls-1" d="M121.85,338l3.57-8.65a5,5,0,0,1,1.62-2.13,4.67,4.67,0,0,1,2.47-.93,6.16,6.16,0,0,1,2.92.5,6.36,6.36,0,0,1,2.43,1.7,4.8,4.8,0,0,1,1.1,2.4,5,5,0,0,1-.36,2.66L132,342.23l-1.63-.67,3.52-8.52a3.62,3.62,0,0,0,.27-1.86,3.21,3.21,0,0,0-.72-1.66,4.6,4.6,0,0,0-3.69-1.52,3.11,3.11,0,0,0-1.68.66,3.71,3.71,0,0,0-1.12,1.52l-3.51,8.52Z"/><path class="cls-1" d="M118.2,336.29l-4.27-2.2a6,6,0,0,1-2.14-1.73,3.6,3.6,0,0,1-.72-2.1,4.66,4.66,0,0,1,.58-2.25,4.5,4.5,0,0,1,1.72-1.9,3.69,3.69,0,0,1,2.44-.42l-.16-6.63,1.82.94.11,6.25.3.14,2.73,1.41,2.52-4.88,1.56.81Zm-1-8.44a3.45,3.45,0,0,0-2.44-.48,2.59,2.59,0,0,0-1.59,1.43,2.7,2.7,0,0,0-.27,2.18,3.38,3.38,0,0,0,1.8,1.76l2.64,1.36,2.52-4.88Z"/><path class="cls-1" d="M104.71,312.24l1.42.9.59,13.4.12.07,5.88-9.31,1.49.94-7.55,11.95-1.44-.9-.58-13.42-.11-.08-5.9,9.33-1.47-.93Z"/><path class="cls-1" d="M103.42,311.37l-12.7,8.08-1.47-1.12L93.73,304l1.47,1.13-1.29,4,4.51,3.46,3.54-2.31Zm-10-.72-2.06,6.4.1.07,5.63-3.67Z"/><path class="cls-1" d="M83.08,313.36l-1.31-1.17,8.4-9.37-4.89-4.38,1-1.16,6.19,5.55Z"/><path class="cls-1" d="M80.19,291l1.2,1.28L71.1,302l-1.2-1.28Z"/><path class="cls-1" d="M71,280.26l1.07,1.29-3.58,12.92.08.11,8.48-7,1.12,1.36-10.88,9-1.08-1.31,3.6-12.94-.09-.1-8.49,7-1.11-1.34Z"/><path class="cls-1" d="M55.54,278.76a2.72,2.72,0,0,0,0,1.33,4.64,4.64,0,0,0,1.83,2.58,2.61,2.61,0,0,0,1.31.43,2,2,0,0,0,1.2-.37,1.66,1.66,0,0,0,.78-1.5,6.64,6.64,0,0,0-.44-2.06l-.48-1.38a8.1,8.1,0,0,1-.54-3.05,3,3,0,0,1,1.47-2.46,3.7,3.7,0,0,1,2.07-.7,4.1,4.1,0,0,1,2.21.62,6.44,6.44,0,0,1,2,2,6.62,6.62,0,0,1,1.09,2.44,4.08,4.08,0,0,1-.13,2.23,3.87,3.87,0,0,1-1.29,1.76l-1-1.48a2.2,2.2,0,0,0,.75-1.17,2.82,2.82,0,0,0,0-1.41,4.62,4.62,0,0,0-.69-1.46,4.83,4.83,0,0,0-1.25-1.26,2.79,2.79,0,0,0-1.43-.49,2.12,2.12,0,0,0-1.35.39,1.67,1.67,0,0,0-.69.92,2.78,2.78,0,0,0,0,1.19,10.61,10.61,0,0,0,.41,1.51l.6,1.7a6.34,6.34,0,0,1,.37,3,3,3,0,0,1-1.35,2.06,3.5,3.5,0,0,1-2.07.65,4.09,4.09,0,0,1-2.14-.64,5.81,5.81,0,0,1-1.82-1.75,5.59,5.59,0,0,1-1-2.27,4.23,4.23,0,0,1,.13-2.16,3.42,3.42,0,0,1,1.2-1.63l1,1.41A2.26,2.26,0,0,0,55.54,278.76Z"/><path class="cls-1" d="M50.84,276l-5.36-9.22,1.35-.78,2.23,3.83,10.88-6.32.89,1.53L50,271.35l2.23,3.85Z"/><path class="cls-1" d="M56,256.17l.8,1.57-12.6,6.42-.8-1.57Z"/><path class="cls-1" d="M50.17,243.31l.67,1.54-7.07,11.4.06.13L53.94,252l.69,1.61-13,5.62L41,257.67l7.09-11.41-.06-.12-10.12,4.38-.69-1.6Z"/><path class="cls-1" d="M35.68,235.8a3.87,3.87,0,0,0-.54,1.66,4.37,4.37,0,0,0,.22,1.78,4.28,4.28,0,0,0,1.35,2,4.41,4.41,0,0,0,2.33.95,8.17,8.17,0,0,0,5.79-1.9,4.44,4.44,0,0,0,1.32-2.15,4.23,4.23,0,0,0-.1-2.41,4.56,4.56,0,0,0-.88-1.57,3.85,3.85,0,0,0-1.41-1,3.65,3.65,0,0,0-1.78-.24l-.55-1.67a5.54,5.54,0,0,1,2.67.23,5.34,5.34,0,0,1,2.16,1.41,6.31,6.31,0,0,1,1.35,2.34,5.84,5.84,0,0,1-1.56,6.24,8.68,8.68,0,0,1-3.4,2,8.56,8.56,0,0,1-3.9.43,5.81,5.81,0,0,1-5-4.11,6.15,6.15,0,0,1-.29-2.67,5.24,5.24,0,0,1,.9-2.41,5.51,5.51,0,0,1,2-1.78l.55,1.67A3.56,3.56,0,0,0,35.68,235.8Z"/><path class="cls-1" d="M31.54,231.81,29.1,221.43l1.52-.36,1,4.31,12.25-2.89.4,1.73L32,227.11l1,4.34Z"/><circle class="cls-1" cx="346.61" cy="189.24" r="9.91"/><polyline class="cls-1" points="113.4 140.41 113.4 107.42 143.21 118.95"/><polyline class="cls-1" points="265.08 140.41 265.08 107.42 235.27 118.95"/><path class="cls-1" d="M276.43,160.22v-5.06H101.91v5.06h9.3v8.94h-9.3v5.05h9.3v27.23a38.09,38.09,0,0,0,.3,4.91,40.25,40.25,0,0,0,57.54,31.28,36.84,36.84,0,0,0,4.57-2.63L170,231.55l-.12-.13a2,2,0,0,1,.75-3.21l6.37-2.6,9.12-3.72a38.34,38.34,0,0,0,2.58-5.17c.18-.42.34-.84.49-1.25a40.25,40.25,0,0,0,78-14V174.21h9.29v-5.05h-9.29v-8.94ZM168.71,223.53a7.05,7.05,0,0,0-4.29,5.24,7,7,0,0,0,.93,5,35.14,35.14,0,0,1-45.14-16.16l0,0a20.51,20.51,0,0,0,34.59-14.92V160.22h31.87v41.22a34.8,34.8,0,0,1-4.1,16.44Zm93.37-22.09a35.19,35.19,0,0,1-66.46,16.14v0h0a20.51,20.51,0,0,0,34.61-14.91V160.22h31.86Z"/><path class="cls-1" d="M206,244.54a12.56,12.56,0,0,0-7.34-2.36h-.08l0,5a8.82,8.82,0,0,1,2.06.28,35.85,35.85,0,0,1-16,3.16,36.25,36.25,0,0,1-14.53-3.61L168,251.61a41.1,41.1,0,0,0,16.54,4.11l1.4,0A41.65,41.65,0,0,0,205.08,251a8.62,8.62,0,0,1,1,3.4l5-.25A13,13,0,0,0,206,244.54Z"/><circle class="cls-1" cx="28.85" cy="189.24" r="9.91"/></svg>