<?xml version="1.0" encoding="UTF-8"?>
<svg id="Layer_1" data-name="Layer 1" xmlns="http://www.w3.org/2000/svg" viewBox="0 0 783.11 273.12">
  <defs>
    <style>
      .cls-1 {
        fill: #000111;
      }

      .cls-1, .cls-2 {
        stroke: #000;
        stroke-miterlimit: 10;
      }

      .cls-2 {
        fill: #fff;
      }
    </style>
  </defs>
  <path class="cls-2" d="M782.61,107.35v28.35c0,10.56-7.23,19.44-17.01,21.96v92.29c0,12.52-10.16,22.67-22.68,22.67h-56.69c-12.52,0-22.68-10.15-22.68-22.67v-5.68h-68.03v5.68c0,12.52-10.16,22.67-22.68,22.67h-56.69c-10.95,0-20.09-7.76-22.21-18.08-4.11,4.16-9.82,6.74-16.13,6.74h-28.35c-3.44,0-6.69-.76-9.61-2.13-3.03,4.44-7.61,7.78-13.09,9.19-11.06,2.84-22.49,4.28-33.99,4.28h-113.39c-2.76,0-5.41-.49-7.86-1.4-2.45.91-5.1,1.4-7.86,1.4h-56.69c-12.53,0-22.68-10.15-22.68-22.67v-35.75c-6.33,1.15-12.81,1.73-19.38,1.73h-62.36v34.02c0,12.52-10.16,22.67-22.68,22.67H23.18c-12.52,0-22.68-10.15-22.68-22.67V62.86c0-12.53,10.16-22.68,22.68-22.68h17v-17C40.18,10.65,50.34.5,62.86.5h102.05c10.76,0,21.38,1.6,31.52,4.7,3.83-2.95,8.63-4.7,13.83-4.7h39.69c5.62,0,10.76,2.04,14.72,5.43,3.96-3.38,9.09-5.43,14.71-5.43h113.39c36.35,0,70.52,14.15,96.21,39.86,1.55,1.54,3.05,3.12,4.51,4.73.4-12.17,10.39-21.92,22.66-21.92h28.35c10.57,0,19.45,7.23,21.96,17.01h.71v-17c0-12.53,10.16-22.68,22.68-22.68h79.37c6.77,0,12.85,2.97,17.01,7.67,4.15-4.7,10.23-7.67,17.01-7.67h39.68c12.53,0,22.68,10.15,22.68,22.67v39.69c0,8.34-4.51,15.63-11.22,19.57.32.74.64,1.49.95,2.24h4.6c12.52,0,22.68,10.16,22.68,22.68h0Z"/>
  <path class="cls-1" d="M392.77,23.18h-113.39v226.77h113.39c9.78,0,19.28-1.24,28.34-3.57v-24.77h28.35v17h28.35v-17h-10.06.01-18.3v-28.35h-28.35v28.34h-28.34v-28.34h-56.7v-113.39h56.7c31.31,0,56.69,25.38,56.69,56.69h28.35v28.35h-28.35v28.35h41.52c9.65-16.68,15.17-36.05,15.17-56.7,0-31.31-12.69-59.66-33.21-80.17-20.51-20.52-48.86-33.21-80.17-33.21h0Z"/>
  <rect class="cls-1" x="206.97" y="193.25" width="56.69" height="56.69"/>
  <path class="cls-1" d="M233.03,176.25v-17.12h0c10.63-14.2,16.92-31.82,16.92-50.91,0-16.68-4.8-32.23-13.11-45.36h13.11V23.17h-39.69v13.11h0c-13.13-8.3-28.68-13.1-45.35-13.1H62.86v39.68H23.18v187.09h56.69v-56.69h85.04c19.14,0,36.81-6.33,51.02-17.01h17.1,0ZM193.25,159.24h-28.35v-22.67h-85.03v-56.7h113.38v28.34h-28.35v28.35h.37c-.12,0-.25,0-.37,0h28.35v22.67ZM193.25,108.22h28.44v28.34h-28.44v-28.34Z"/>
  <path class="cls-1" d="M742.92,107.35h-3.81c-4.41-16.65-12.53-31.79-23.42-44.49h27.23V23.17h-39.69v27.23c-9.99-8.56-21.48-15.41-34.02-20.09v-7.14h-79.37v39.68h39.69v17.01c15.65,0,29.83,6.35,40.09,16.6,10.26,10.26,16.6,24.43,16.6,40.09v-.86h28.35v17.01h-28.35v12.2h-113.39v-45.36h17.01v-56.69h-45.35v-17.01h-28.35v17.01h17.01v56.69h-17.01v130.4h56.69v-28.35h113.39v28.35h56.69v-113.39c0-.29,0-.57-.01-.86h17.02v-28.35h-17.01,0Z"/>
</svg>