<?xml version="1.0" encoding="UTF-8"?>
<svg id="Layer_1" data-name="Layer 1" xmlns="http://www.w3.org/2000/svg" viewBox="0 0 783.11 273.12">
  <defs>
    <style>
      .cls-1 {
        fill: #000111;
        stroke: #000;
        stroke-miterlimit: 10;
      }
    </style>
  </defs>
  <path class="cls-1" d="M392.77,23.18h-113.39v226.77h113.39c9.78,0,19.28-1.24,28.34-3.57v-24.77h28.35v17h28.35v-17h-10.06.01-18.3v-28.35h-28.35v28.34h-28.34v-28.34h-56.7v-113.39h56.7c31.31,0,56.69,25.38,56.69,56.69h28.35v28.35h-28.35v28.35h41.52c9.65-16.68,15.17-36.05,15.17-56.7,0-31.31-12.69-59.66-33.21-80.17-20.51-20.52-48.86-33.21-80.17-33.21h0Z"/>
  <rect class="cls-1" x="206.97" y="193.25" width="56.69" height="56.69"/>
  <path class="cls-1" d="M233.03,176.25v-17.12h0c10.63-14.2,16.92-31.82,16.92-50.91,0-16.68-4.8-32.23-13.11-45.36h13.11V23.17h-39.69v13.11h0c-13.13-8.3-28.68-13.1-45.35-13.1H62.86v39.68H23.18v187.09h56.69v-56.69h85.04c19.14,0,36.81-6.33,51.02-17.01h17.1,0ZM193.25,159.24h-28.35v-22.67h-85.03v-56.7h113.38v28.34h-28.35v28.35h.37c-.12,0-.25,0-.37,0h28.35v22.67ZM193.25,108.22h28.44v28.34h-28.44v-28.34Z"/>
  <path class="cls-1" d="M742.92,107.35h-3.81c-4.41-16.65-12.53-31.79-23.42-44.49h27.23V23.17h-39.69v27.23c-9.99-8.56-21.48-15.41-34.02-20.09v-7.14h-79.37v39.68h39.69v17.01c15.65,0,29.83,6.35,40.09,16.6,10.26,10.26,16.6,24.43,16.6,40.09v-.86h28.35v17.01h-28.35v12.2h-113.39v-45.36h17.01v-56.69h-45.35v-17.01h-28.35v17.01h17.01v56.69h-17.01v130.4h56.69v-28.35h113.39v28.35h56.69v-113.39c0-.29,0-.57-.01-.86h17.02v-28.35h-17.01,0Z"/>
</svg>