<svg id="Layer_1" data-name="Layer 1" xmlns="http://www.w3.org/2000/svg" viewBox="0 0 278.23 157.77"><title>Artboard 1 copy</title><path d="M139.12,4.83C65.07,4.83,4.83,65.07,4.83,139.12S65.07,273.4,139.12,273.4,273.4,213.16,273.4,139.12,213.16,4.83,139.12,4.83Zm0,267.38C65.7,272.21,6,212.53,6,139.12S65.7,6,139.12,6,272.21,65.7,272.21,139.12A133.2,133.2,0,0,1,139.12,272.21Z"/><path d="M51.35,151.22a.64.64,0,0,1,.72.55.49.49,0,0,1,0,.17v2.54a.44.44,0,0,0,.39.48h.1a.54.54,0,0,0,.34-.16.48.48,0,0,0,.14-.34l-.18-8.84a.54.54,0,0,0-.16-.34.47.47,0,0,0-.33-.14h0a.47.47,0,0,0-.35.15.52.52,0,0,0-.14.35l.07,3.41a.64.64,0,0,1-.51.74.45.45,0,0,1-.2,0l-27.7.56,29-22.36h0v-1.39l-32.5.66h0a.78.78,0,0,1-.53-.17.7.7,0,0,1-.19-.55L19.24,124a.5.5,0,0,0-.16-.34.44.44,0,0,0-.33-.14h0a.47.47,0,0,0-.35.15.52.52,0,0,0-.14.35l.18,8.83a.5.5,0,0,0,.16.34.48.48,0,0,0,.34.14h0a.44.44,0,0,0,.49-.38.24.24,0,0,0,0-.12l-.07-3.41a.65.65,0,0,1,.54-.75h.18l26.29-.53L18.78,148.9h0l.13,6.24a.45.45,0,0,0,.15.34.48.48,0,0,0,.34.14h0a.47.47,0,0,0,.36-.13.5.5,0,0,0,.12-.37l-.05-2.53a.65.65,0,0,1,.51-.75h.21l30.78-.63Z"/><path d="M29.66,107.3a21.26,21.26,0,0,0,7.83,5.22,21.56,21.56,0,0,0,8.12,1.68h1.14a15.36,15.36,0,0,0,7.86-2.62,14.36,14.36,0,0,0,5.8-14.42,15.29,15.29,0,0,0-3.88-7.31,21.41,21.41,0,0,0-7.83-5.2A21.32,21.32,0,0,0,39.44,83a15.2,15.2,0,0,0-7.85,2.59A14.35,14.35,0,0,0,25.79,100,15.42,15.42,0,0,0,29.66,107.3Zm-2.17-15a8.5,8.5,0,0,1,4.16-4.53,13.47,13.47,0,0,1,6.21-1.36h.79a25.91,25.91,0,0,1,8.54,2,26.08,26.08,0,0,1,7.54,4.49,14,14,0,0,1,4.12,5.81,8.72,8.72,0,0,1-4.31,10.71,14.09,14.09,0,0,1-7,1.34,25.3,25.3,0,0,1-8.56-2,25.69,25.69,0,0,1-7.52-4.51,14,14,0,0,1-4.12-5.81,8.53,8.53,0,0,1,.15-6.17Z"/><path d="M43.5,63.63l1.79-1.79a.65.65,0,0,1,.92-.08l.08.08L68.13,83.6a.65.65,0,0,1,.08.92.6.6,0,0,1-.08.08h0l-1.79,1.79a.48.48,0,0,0-.18.35.52.52,0,0,0,.18.35.48.48,0,0,0,.34.14.5.5,0,0,0,.35-.14l6.25-6.26a.47.47,0,0,0,.13-.34.45.45,0,0,0-.13-.35.51.51,0,0,0-.7,0l-2.41,2.41a.65.65,0,0,1-.92.08.6.6,0,0,1-.08-.08L49.52,63l36.17,5.39h0l1-.94h0l-23-23a.65.65,0,0,1-.08-.92l.08-.08,1.79-1.79a.5.5,0,0,0-.7-.7l-6.24,6.26a.5.5,0,0,0-.14.35.48.48,0,0,0,.14.34.43.43,0,0,0,.6.09.38.38,0,0,0,.09-.09l2.42-2.41a.64.64,0,0,1,.9-.1.47.47,0,0,1,.1.1L81.3,64,47.24,58.53h0L42.8,62.94a.5.5,0,0,0-.14.35.48.48,0,0,0,.14.34.44.44,0,0,0,.62.08Z"/><path d="M85.24,34.35a.48.48,0,0,0,.37,0l2.23-1a.77.77,0,0,1,.56,0,.69.69,0,0,1,.41.39L100,61.33a.62.62,0,0,1-.22.85l-.17.07-2.27,1a.43.43,0,0,0-.3.52.42.42,0,0,0,0,.1.43.43,0,0,0,.26.25.61.61,0,0,0,.19,0h.17L108,59.85a.43.43,0,0,0,.25-.26.45.45,0,0,0,0-.36A.51.51,0,0,0,108,59a.45.45,0,0,0-.36,0l-3.44,1.4a.68.68,0,0,1-.56,0,.8.8,0,0,1-.37-.42L96.9,44.46,102.84,42a5.58,5.58,0,0,1,2.38-.52,3.2,3.2,0,0,1,1.93,1,11.38,11.38,0,0,1,1.93,3.06.85.85,0,0,0,.26.24.42.42,0,0,0,.31,0,.35.35,0,0,0,.2-.24.53.53,0,0,0,0-.35l-4.42-11a.49.49,0,0,0-.23-.26.34.34,0,0,0-.31,0,.41.41,0,0,0-.2.21.53.53,0,0,0,0,.35,11.35,11.35,0,0,1,.53,3.37,3.11,3.11,0,0,1-.7,1.93,5.26,5.26,0,0,1-2,1.29l-6,2.42L91.76,31.86l9.07-3.69a8.86,8.86,0,0,1,3.25-.74h.07a5.49,5.49,0,0,1,2.89.89,16.88,16.88,0,0,1,3.23,2.73.52.52,0,0,0,.62.14.41.41,0,0,0,.25-.25.76.76,0,0,0-.06-.42l-.06-.13-3.62-5.87h0l-22.1,9a.43.43,0,0,0-.25.26.45.45,0,0,0,0,.36A.48.48,0,0,0,85.24,34.35Z"/><path d="M135.31,52.85l-2.45.25a.7.7,0,0,1-.54-.12.76.76,0,0,1-.23-.51l-3-29.57a.62.62,0,0,1,.43-.76.68.68,0,0,1,.2,0l2.44-.25a.39.39,0,0,0,.31-.18.43.43,0,0,0,0-.62l0,0a.48.48,0,0,0-.35-.12l-9.74,1a.43.43,0,0,0-.32.17.49.49,0,0,0-.11.35.41.41,0,0,0,.52.42l2.43-.25a.66.66,0,0,1,.55.12.77.77,0,0,1,.24.51l3,29.58a.76.76,0,0,1-.12.55.7.7,0,0,1-.51.22l-2.44.25a.43.43,0,0,0-.44.41.41.41,0,0,0,0,.11.52.52,0,0,0,.18.32.41.41,0,0,0,.3.1h0l9.75-1a.53.53,0,0,0,.31-.17.51.51,0,0,0,.11-.35.53.53,0,0,0-.17-.32A.47.47,0,0,0,135.31,52.85Z"/><path d="M169.37,52.45a.59.59,0,0,0,0-.67.43.43,0,0,0-.38-.15.8.8,0,0,0-.44.22,11.76,11.76,0,0,1-5.16,3.41,11.4,11.4,0,0,1-5.68.35,8.66,8.66,0,0,1-5.19-3.14A13.84,13.84,0,0,1,149.76,46a23.82,23.82,0,0,1,.2-8.46,23.52,23.52,0,0,1,2.95-7.9,14,14,0,0,1,4.83-5,8.11,8.11,0,0,1,5.71-1,8.87,8.87,0,0,1,6.11,3.87,16.26,16.26,0,0,1,2.08,8.41.7.7,0,0,0,.13.42.52.52,0,0,0,.31.23.39.39,0,0,0,.34-.11.7.7,0,0,0,.2-.4l1.44-10.3a.3.3,0,0,0-.06-.26.26.26,0,0,0-.18-.14.31.31,0,0,0-.34.19l-1.14,2.2a16.51,16.51,0,0,0-3.94-3.27,16.23,16.23,0,0,0-5.19-1.87,12.63,12.63,0,0,0-7.53.79,14.78,14.78,0,0,0-6.06,5.07,20.9,20.9,0,0,0-3.47,8.36,20.32,20.32,0,0,0,.14,9.08,14.86,14.86,0,0,0,3.91,7,13.25,13.25,0,0,0,7,3.59,14.34,14.34,0,0,0,2.85.28,11.82,11.82,0,0,0,9.37-4.29Z"/><path d="M179.42,64l9,5.72a.41.41,0,0,0,.24.08h.11a.41.41,0,0,0,.3-.21.43.43,0,0,0,.06-.35.44.44,0,0,0-.2-.3l-2.42-1.55a.62.62,0,0,1-.31-.82,1.19,1.19,0,0,1,.09-.15l16.41-25.64,4.69,3a6.58,6.58,0,0,1,2.22,2A3.48,3.48,0,0,1,210,48a26.91,26.91,0,0,1-.77,3.86.68.68,0,0,0,.29.72.31.31,0,0,0,.23.05.56.56,0,0,0,.34-.3,1.35,1.35,0,0,0,.17-.34l2.39-5.8h0L190.69,32l-4.27,4.64a1.18,1.18,0,0,0-.24.31.6.6,0,0,0-.14.43.29.29,0,0,0,.15.19.71.71,0,0,0,.79,0,27.35,27.35,0,0,1,3.14-2.32,3.71,3.71,0,0,1,2.14-.48A6.82,6.82,0,0,1,195,35.93l4.69,3L183.27,64.57a.63.63,0,0,1-.84.3l-.12-.09-2.42-1.54a.46.46,0,0,0-.36-.09.48.48,0,0,0-.29.23.46.46,0,0,0-.06.36A.45.45,0,0,0,179.42,64Z"/><path d="M224.37,59.34a.73.73,0,0,1,.22.52.69.69,0,0,1-.28.48L202,79.93a.63.63,0,0,1-.89,0l-.08-.09L199.37,78a.45.45,0,0,0-.32-.19h0a.5.5,0,0,0-.47.47.51.51,0,0,0,.11.35L205.14,86a.48.48,0,0,0,.33.15h0a.41.41,0,0,0,.3-.1.47.47,0,0,0,.17-.33.55.55,0,0,0-.12-.35l-1.61-1.84a.61.61,0,0,1,.07-1L226.63,63a.63.63,0,0,1,.89,0,.36.36,0,0,1,.08.09l1.61,1.84a.5.5,0,0,0,.33.16.41.41,0,0,0,.33-.12.44.44,0,0,0,.17-.32.46.46,0,0,0-.12-.35l-6.45-7.37a.48.48,0,0,0-.67,0,.44.44,0,0,0-.18.32.43.43,0,0,0,.13.34Z"/><path d="M218,90.16a14.94,14.94,0,0,0-3.6,7.14,13.88,13.88,0,0,0,5.84,13.82,14.65,14.65,0,0,0,7.62,2.37h.72a21.22,21.22,0,0,0,8.19-1.77,20.84,20.84,0,0,0,7.43-5.15,14.84,14.84,0,0,0,3.65-7.14A13.85,13.85,0,0,0,242,85.61a14.73,14.73,0,0,0-7.63-2.39A22.16,22.16,0,0,0,218,90.13Zm17.21-3.61h1A13.15,13.15,0,0,1,242,87.76,8.43,8.43,0,0,1,246.33,98a13.44,13.44,0,0,1-3.86,5.68,27.62,27.62,0,0,1-15.4,6.51,13.54,13.54,0,0,1-6.76-1.18A8.43,8.43,0,0,1,216,98.77a13.74,13.74,0,0,1,3.86-5.67,27,27,0,0,1,15.44-6.52Z"/><path d="M255.65,124.34a.45.45,0,0,0-.33-.15h0a.42.42,0,0,0-.46.38.11.11,0,0,0,0,.08l-.05,2.45a.69.69,0,0,1-.2.53.68.68,0,0,1-.5.17h0l-29.72-.63a.74.74,0,0,1-.53-.19.73.73,0,0,1-.16-.53l.06-2.46a.45.45,0,0,0-.39-.48h-.09a.47.47,0,0,0-.33.14.48.48,0,0,0-.15.32l-.17,8.53a.43.43,0,0,0,.13.34.51.51,0,0,0,.33.15h0a.51.51,0,0,0,.33-.13.49.49,0,0,0,.14-.34l.07-3.29a.62.62,0,0,1,.53-.69h.19l26.73.56-28.8,20.38h0v1.35l31.37.65a.64.64,0,0,1,.7.55.55.55,0,0,1,0,.18v2.45a.46.46,0,0,0,.13.33.49.49,0,0,0,.34.15h0a.48.48,0,0,0,.32-.13.53.53,0,0,0,.15-.33l.17-8.53a.43.43,0,0,0-.13-.34.51.51,0,0,0-.33-.15h0a.43.43,0,0,0-.46.39v.08l-.07,3.29a.79.79,0,0,1-.18.53.67.67,0,0,1-.54.16l-25.53-.49,27.43-18.88h0l.12-6A.41.41,0,0,0,255.65,124.34Z"/></svg>