<?xml version="1.0" encoding="UTF-8"?>
<svg id="Layer_1" data-name="Layer 1" xmlns="http://www.w3.org/2000/svg" viewBox="0 0 3401.57 481.89">
  <defs>
    <style>
      .cls-1 {
        fill: #003fd1;
      }
    </style>
  </defs>
  <path class="cls-1" d="M0,105.22h272.64c66.77,0,113.27,23.85,113.27,96.58,0,76.7-46.5,104.92-113.27,104.92H80.68v69.55H0V105.22ZM80.68,174.38v63.59h182.82c25.83,0,38.95-8.74,38.95-31.79,0-24.64-13.11-31.79-38.95-31.79H80.68Z"/>
  <path class="cls-1" d="M723.72,105.22h80.68v144.66c0,92.6-76.31,130.76-195.93,130.76s-195.93-38.15-195.93-130.76V105.22h80.68v127.58c0,58.02,34.97,79.09,115.25,79.09s115.25-21.06,115.25-79.09v-127.58Z"/>
  <path class="cls-1" d="M843.34,376.27V105.22h301.65c54.45,0,83.86,19.87,83.86,66.37,0,33.78-15.5,54.05-45.7,62,36.56,8.35,55.64,29.41,55.64,70.35,0,51.67-31.4,72.33-93.4,72.33h-302.05ZM922.82,166.03v47.69h201.5c17.88,0,29.81-7.15,29.81-23.85s-9.54-23.85-31.79-23.85h-199.51ZM922.82,270.55v49.68h206.27c24.24,0,34.97-5.56,34.97-25.04s-12.72-24.64-32.99-24.64h-208.25Z"/>
  <path class="cls-1" d="M1622.3,307.12v69.15h-349.74V105.22h80.68v201.89h269.06Z"/>
  <path class="cls-1" d="M1651.7,376.27V105.22h80.68v271.05h-80.68Z"/>
  <path class="cls-1" d="M1968.05,381.44c-67.56,0-145.86-9.54-194.74-21.46l11.53-64.78c55.64,12.32,123.2,23.05,204.68,23.05,63.59,0,75.11-5.17,75.11-21.46s-9.94-18.68-31-20.67l-149.83-8.74c-84.25-3.97-114.86-31-114.86-81.47,0-60.81,53.26-85.45,178.84-85.45,48.09,0,126.38,7.55,180.04,19.08l-13.12,60.81c-46.1-9.14-117.64-16.69-185.6-16.69-73.13,0-83.86,3.97-83.86,20.27,0,15.1,10.33,17.49,34.97,19.08l147.84,8.74c77.9,4.37,112.87,31.4,112.87,87.43s-38.95,82.27-172.88,82.27Z"/>
  <path class="cls-1" d="M2177.5,376.27V105.22h80.68v97.77h234.48v-97.77h80.68v271.05h-80.68v-104.52h-234.48v104.52h-80.68Z"/>
  <path class="cls-1" d="M2616.25,376.27V105.22h361.66v63.19h-280.98v44.91h273.43v52.06h-273.43v47.69h280.98v63.19h-361.66Z"/>
  <path class="cls-1" d="M3016.86,376.27V105.22h271.45c66.77,0,113.27,23.45,113.27,94.59,0,59.61-35.37,88.23-95.38,93l-17.49.4,21.46,13.12,89.02,69.95h-101.34l-97.37-78.69h-102.93v78.69h-80.68ZM3097.54,237.17h182.82c26.63,0,37.76-8.74,37.76-31,0-24.24-11.13-31.79-37.76-31.79h-182.82v62.79Z"/>
</svg>