<?xml version="1.0" encoding="UTF-8"?>
<svg id="Layer_1" data-name="Layer 1" xmlns="http://www.w3.org/2000/svg" viewBox="0 0 280 280">
  <defs>
    <style>
      .cls-1 {
        fill: #0f58ec;
      }
    </style>
  </defs>
  <circle class="cls-1" cx="139.99" cy="139.99" r="140"/>
  <circle cx="139.99" cy="139.99" r="135.8"/>
  <path class="cls-1" d="M33.97,109.26l-.31,1.2-9.28,3.51v.1l7.9,1.98-.32,1.26-10.14-2.55.31-1.22,9.29-3.51v-.1l-7.92-1.99.32-1.24,10.15,2.55v.02h0Z"/>
  <path class="cls-1" d="M35.08,106l-.41,1.27-9.97-3.17.39-1.24,9.99,3.14h0Z"/>
  <path class="cls-1" d="M29.67,95.08c-.57.35-1,.88-1.23,1.51-.23.55-.29,1.16-.18,1.75.13.62.44,1.18.88,1.64.55.55,1.22.97,1.96,1.24.72.32,1.49.45,2.27.42,1.83-.11,3.22-1.67,3.12-3.5v-.14c-.05-.5-.24-.98-.57-1.36-.37-.44-.86-.76-1.39-.96l-1.01,2.55-1.05-.43,1.48-3.72,1.04.41c.74.28,1.38.74,1.88,1.34.46.56.74,1.24.82,1.97.15,1.64-.55,3.26-1.85,4.27-.68.5-1.5.79-2.34.83-1.98.05-3.88-.71-5.29-2.1-1.2-1.23-1.55-3.06-.88-4.65.25-.65.63-1.23,1.14-1.71.96-.91,2.31-1.3,3.62-1.04l-.49,1.24c-.66-.06-1.34.1-1.92.45h-.03Z"/>
  <path class="cls-1" d="M30.08,89.78l.57-1.17,4.16,2.07,2.47-4.95-4.17-2.07.57-1.18,9.37,4.65-.57,1.18-4.17-2.08-2.47,4.95,4.18,2.08-.57,1.17-9.38-4.65h0Z"/>
  <path class="cls-1" d="M34.87,80.4l4.1-6.74.99.6-1.71,2.8,7.96,4.84-.68,1.14-7.96-4.84-1.71,2.84-1.01-.64h0Z"/>
  <path class="cls-1" d="M48.29,64.57c-.44.02-.87.14-1.24.35-.38.21-.74.5-1.01.86-.38.47-.62,1.04-.69,1.64-.05.63.07,1.27.38,1.83.37.68.88,1.28,1.5,1.73.6.49,1.29.85,2.05,1.04.61.16,1.26.13,1.86-.07.58-.21,1.08-.57,1.45-1.05.27-.35.48-.74.6-1.16.23-.88.02-1.8-.57-2.48l.8-1.02c.46.49.8,1.09.98,1.74.16.62.16,1.28,0,1.9-.16.66-.46,1.27-.88,1.79-.5.67-1.18,1.18-1.96,1.48-.8.28-1.66.32-2.49.13-1.93-.5-3.54-1.79-4.49-3.54-.38-.76-.54-1.6-.46-2.45.09-.83.43-1.62.96-2.27.4-.53.93-.97,1.52-1.28.58-.3,1.21-.45,1.86-.44.67.02,1.33.2,1.93.52l-.8,1.02c-.4-.21-.85-.31-1.3-.29h-.03v.03Z"/>
  <path class="cls-1" d="M56.48,67.75l-5.01-9.93.94-1.01,10.23,4.38-.94,1.01-2.84-1.26-2.88,3.06,1.43,2.78-.94.97ZM57.75,60.43l-4.54-1.99-.07.07,2.27,4.41s2.34-2.48,2.34-2.49Z"/>
  <path class="cls-1" d="M55.18,53.91l5.79-5.35.78.85-2.42,2.22,6.31,6.83-.96.89-6.31-6.82-2.42,2.23-.78-.85h0Z"/>
  <path class="cls-1" d="M67.2,43.55l7.85,4.99.11-.07-2.1-9.1,1.28-.88,6.05,8.53-1.01.71-4.54-6.46-.08.07,1.92,8.32-.95.66-7.23-4.58-.07.05,4.54,6.46-1.01.71-6.05-8.53,1.29-.89h0Z"/>
  <path class="cls-1" d="M88.14,39.86c.07.85-.11,1.69-.51,2.43-.41.74-1.02,1.34-1.76,1.74-.73.43-1.57.64-2.41.6-.85-.04-1.66-.33-2.35-.83-.8-.57-1.45-1.32-1.92-2.18-.5-.85-.8-1.79-.88-2.76-.07-.85.11-1.69.51-2.43.85-1.49,2.45-2.39,4.17-2.35.85.05,1.66.33,2.35.82.79.58,1.45,1.32,1.91,2.19.5.84.8,1.79.88,2.77ZM84.67,35.96c-.51-.38-1.11-.6-1.74-.65-.61-.04-1.21.11-1.73.43-.53.29-.98.73-1.27,1.26-.29.57-.41,1.2-.35,1.84.07.77.32,1.51.73,2.17.36.68.88,1.29,1.49,1.75.51.38,1.12.6,1.75.65.61.03,1.21-.12,1.73-.43.53-.29.97-.74,1.26-1.27.3-.56.41-1.2.35-1.83-.2-1.55-.99-2.96-2.21-3.93h0Z"/>
  <path class="cls-1" d="M91.34,40.93l-4.3-9.54,3.09-1.38c.81-.39,1.73-.56,2.63-.49.84.08,1.63.42,2.27.96,1.43,1.32,2.25,3.17,2.27,5.11-.03.85-.32,1.66-.81,2.34-.58.75-1.33,1.34-2.2,1.71l-2.95,1.3h0ZM93.76,38.58c.99-.36,1.77-1.15,2.14-2.14.28-1.06.15-2.18-.36-3.14-.38-1.01-1.12-1.85-2.07-2.35-.95-.38-2.02-.34-2.93.15l-1.82.81,3.33,7.43,1.73-.76h-.02Z"/>
  <path class="cls-1" d="M96.93,27.13l5.98-2.12.37,1.09-4.75,1.68,1.18,3.33,4.44-1.57.38,1.07-4.44,1.57,1.17,3.32,4.81-1.71.39,1.09-6.04,2.13-3.51-9.87h.03Z"/>
  <path class="cls-1" d="M119.12,29.16c-.35,1.7-1.68,3.01-3.38,3.36-.82.2-1.68.17-2.48-.11-.8-.28-1.51-.79-2.03-1.46-.6-.77-1.02-1.68-1.2-2.64-.24-.95-.25-1.94-.05-2.9.18-.82.6-1.59,1.18-2.19,1.24-1.18,3.04-1.59,4.66-1.05.8.29,1.5.8,2.01,1.46,1.17,1.6,1.62,3.61,1.26,5.55h.03-.02,0ZM116.92,24.44c-.38-.51-.9-.9-1.49-1.14-.58-.2-1.19-.23-1.78-.09-.59.12-1.14.42-1.58.86-.44.46-.73,1.04-.83,1.66-.14.76-.11,1.53.07,2.27.15.76.47,1.48.93,2.1.38.51.9.9,1.49,1.14,1.18.39,2.47.1,3.36-.76.43-.46.72-1.03.83-1.65.14-.76.12-1.53-.07-2.28-.15-.76-.46-1.49-.93-2.13h0Z"/>
  <path class="cls-1" d="M130.09,30.03l-1.22.16-6.66-7.35h-.1l1.07,8.09-1.29.17-1.34-10.37,1.25-.17,6.66,7.39h.1l-1.04-8.09,1.28-.17,1.31,10.35h-.02v-.02Z"/>
  <path class="cls-1" d="M132.77,32.86l-1.07.07.57-3.97,1.41-.08-.9,3.99h0Z"/>
  <path class="cls-1" d="M147.77,29.86l-1.24-.05-5.39-8.33h-.1l-.24,8.14-1.29-.05.34-10.46,1.26.04,5.38,8.35h.1l.26-8.16,1.29.05-.35,10.46h0Z"/>
  <path class="cls-1" d="M158.29,28.71c-.46.72-1.1,1.29-1.87,1.65-2.22,1.04-4.86.1-5.91-2.13-.08-.18-.16-.35-.21-.53-.3-.93-.37-1.93-.23-2.89.1-.99.42-1.94.95-2.79,1.31-2.07,4.05-2.7,6.13-1.39.89.56,1.55,1.42,1.87,2.42.3.94.37,1.93.23,2.9-.1.98-.42,1.93-.95,2.76h0ZM157.84,23.51c-.18-.61-.53-1.15-1.02-1.57-.47-.39-1.04-.63-1.65-.7-.6-.09-1.22,0-1.77.25-.57.28-1.04.72-1.37,1.26-.77,1.36-.97,2.97-.57,4.47.18.61.53,1.16,1.02,1.57.47.38,1.04.63,1.65.7.6.08,1.22,0,1.77-.26.57-.28,1.04-.72,1.37-1.26.76-1.36.97-2.97.57-4.47h0Z"/>
  <path class="cls-1" d="M168.44,24.74c-.21-.39-.49-.72-.85-.97-.36-.27-.77-.46-1.22-.57-.59-.14-1.21-.11-1.78.1-.6.22-1.12.62-1.49,1.14-.89,1.29-1.25,2.85-.99,4.39.11.62.4,1.2.83,1.66.43.43.98.73,1.58.86.44.1.89.11,1.33.04.43-.07.83-.25,1.18-.51.36-.27.64-.62.83-1.04l1.27.29c-.24.62-.63,1.17-1.14,1.6-.49.42-1.08.7-1.71.83-.66.14-1.34.13-2-.03-.82-.17-1.58-.56-2.19-1.14-.59-.6-1.01-1.36-1.18-2.19-.21-.96-.19-1.95.05-2.9.2-.96.61-1.87,1.2-2.64,1.04-1.38,2.81-2.01,4.49-1.59.66.14,1.28.42,1.81.83.52.39.92.9,1.19,1.48.28.62.4,1.29.35,1.97l-1.27-.29c.02-.46-.09-.92-.31-1.33h0v.02Z"/>
  <path class="cls-1" d="M172.54,23.62l7.52,2.36-.35,1.14-3.12-1.01-2.81,8.87-1.25-.39,2.8-8.87-3.14-.99.35-1.1h0Z"/>
  <path class="cls-1" d="M189.85,29.92l-2.63,6.4c-.24.63-.66,1.18-1.2,1.6-.53.39-1.17.63-1.83.68-1.51.08-2.97-.52-3.97-1.63-.42-.51-.68-1.14-.76-1.79-.1-.66,0-1.35.26-1.97l2.63-6.4,1.2.49-2.6,6.31c-.19.44-.25.9-.21,1.37.06.46.24.88.53,1.23.69.76,1.7,1.18,2.72,1.14.46-.04.88-.21,1.24-.49.37-.3.66-.69.82-1.14l2.6-6.31,1.18.5h0Z"/>
  <path class="cls-1" d="M192.55,31.2l3.16,1.63c.62.3,1.16.74,1.59,1.28.34.46.53,1,.53,1.56,0,.59-.15,1.15-.43,1.66-.28.59-.73,1.07-1.28,1.41-.55.31-1.18.42-1.81.32l.11,4.91-1.36-.69-.08-4.62-.23-.11-2.01-1.04-1.86,3.6-1.14-.57,4.79-9.32h0ZM193.27,37.46c.54.34,1.18.46,1.81.35.53-.17.95-.55,1.18-1.05.29-.49.36-1.07.2-1.61-.26-.59-.73-1.05-1.33-1.29l-1.96-1.04-1.86,3.6,1.97,1.04h0Z"/>
  <path class="cls-1" d="M202.53,49l-1.05-.66-.45-9.91-.09-.06-4.35,6.89-1.1-.7,5.59-8.84,1.09.66.43,9.93.08.05,4.37-6.9,1.09.69-5.61,8.84h0Z"/>
  <path class="cls-1" d="M203.48,49.65l9.4-5.99,1.09.83-3.32,10.63-1.09-.83.95-2.98-3.33-2.55-2.63,1.71-1.07-.82h0ZM210.9,50.17l1.52-4.73-.07-.05-4.16,2.71,2.71,2.07h0Z"/>
  <path class="cls-1" d="M218.53,48.15l.96.88-6.21,6.95,3.62,3.25-.77.88-4.59-4.1,6.99-7.83h0v-.02Z"/>
  <path class="cls-1" d="M220.67,64.74l-.89-.95,7.61-7.17.89.95-7.62,7.17h0Z"/>
  <path class="cls-1" d="M227.48,72.66l-.79-.95,2.65-9.56-.07-.07-6.25,5.21-.83-1.01,8.05-6.68.81.96-2.67,9.57.07.08,6.28-5.21.82.99-8.07,6.68h0Z"/>
  <path class="cls-1" d="M238.9,73.77c.08-.32.08-.66,0-.98-.1-.38-.26-.73-.49-1.04-.23-.34-.53-.63-.88-.87-.29-.19-.62-.3-.96-.32-.32,0-.63.08-.89.26-.39.24-.6.68-.57,1.14.03.52.13,1.04.32,1.52l.35,1.02c.28.73.42,1.5.4,2.27-.04.75-.45,1.43-1.09,1.82-.45.32-.98.5-1.53.51-.58,0-1.15-.15-1.64-.45-1.16-.76-1.98-1.92-2.3-3.26-.12-.55-.09-1.12.1-1.64.19-.52.52-.96.95-1.3l.76,1.09c-.28.22-.48.52-.57.87s-.09.7,0,1.04c.1.39.28.75.51,1.07.24.37.56.68.93.93.31.21.67.35,1.05.37.35.02.71-.08,1.01-.29.24-.16.43-.4.5-.68.07-.29.08-.6.03-.88-.07-.39-.18-.76-.3-1.14l-.45-1.26c-.27-.7-.36-1.46-.26-2.21.1-.62.46-1.18,1-1.53.45-.32.98-.49,1.53-.48.56,0,1.11.17,1.59.47.53.33,1,.77,1.35,1.3.36.51.61,1.08.73,1.71.1.53.07,1.08-.1,1.6-.17.49-.48.91-.89,1.22l-.73-1.04c.26-.21.45-.51.53-.84v.02h.02Z"/>
  <path class="cls-1" d="M242.38,75.82l3.97,6.83-1,.57-1.65-2.84-8.04,4.67-.66-1.14,8.04-4.67-1.65-2.84.98-.57h0Z"/>
  <path class="cls-1" d="M238.53,90.47l-.57-1.14,9.32-4.75.57,1.14-9.32,4.75Z"/>
  <path class="cls-1" d="M242.87,99.99l-.49-1.14,5.22-8.43-.04-.09-7.48,3.24-.52-1.18,9.6-4.16.5,1.14-5.24,8.44.04.09,7.49-3.25.51,1.18-9.6,4.17h0Z"/>
  <path class="cls-1" d="M253.59,105.55c.23-.37.36-.79.39-1.23.04-.45-.02-.9-.16-1.32-.18-.59-.53-1.09-1.01-1.48-.49-.39-1.08-.64-1.71-.71-.76-.07-1.55.03-2.28.29-.74.23-1.44.62-2.01,1.14-.47.43-.81.97-.98,1.59-.15.6-.11,1.21.08,1.79.14.42.35.8.65,1.14.29.33.64.59,1.04.74.42.17.88.24,1.32.18l.4,1.24c-.67.1-1.34.04-1.98-.17-.61-.21-1.16-.57-1.59-1.04-.45-.49-.79-1.07-1.01-1.71-.58-1.63-.13-3.45,1.14-4.62,1.47-1.32,3.43-1.96,5.4-1.77.83.11,1.62.45,2.28.98.64.54,1.12,1.26,1.36,2.07.22.63.3,1.31.21,1.98-.07.64-.3,1.25-.67,1.79-.39.55-.9,1.01-1.5,1.32l-.41-1.24c.4-.22.73-.54.97-.93l.02-.02h.03Z"/>
  <path class="cls-1" d="M256.65,108.51l1.81,7.68-1.14.26-.76-3.19-9.06,2.14-.31-1.28,9.06-2.14-.76-3.2,1.14-.26h.02Z"/>
  <path class="cls-1" d="M246.02,170.73l.31-1.2,9.27-3.52.03-.1-7.9-1.99.31-1.26,10.16,2.56-.31,1.22-9.3,3.52v.1l7.89,1.99-.31,1.25-10.14-2.57h0Z"/>
  <path class="cls-1" d="M244.94,173.97l.39-1.23,9.97,3.17-.39,1.24-9.97-3.18h0Z"/>
  <path class="cls-1" d="M250.32,184.9c.57-.35,1-.88,1.22-1.51.23-.55.3-1.17.18-1.75-.13-.62-.45-1.18-.89-1.63-1.13-1.08-2.63-1.67-4.19-1.66-.63.03-1.25.23-1.77.6-.94.72-1.44,1.86-1.32,3.04.06.51.27.99.59,1.37.36.43.82.76,1.34.95l1.01-2.54,1.06.42-1.48,3.72-1.05-.41c-.73-.27-1.38-.73-1.88-1.34-.46-.56-.74-1.24-.82-1.96-.14-1.65.54-3.26,1.84-4.28.68-.5,1.5-.79,2.34-.83.97-.04,1.94.13,2.84.51.91.35,1.74.89,2.43,1.59.59.61.97,1.37,1.14,2.2.15.82.06,1.68-.26,2.45-.24.64-.63,1.22-1.14,1.71-.48.45-1.05.77-1.68.95-.63.18-1.3.21-1.95.08l.5-1.25c.67.06,1.35-.09,1.93-.43h.03-.02Z"/>
  <path class="cls-1" d="M249.91,190.23l-.57,1.14-4.17-2.07-2.46,4.95,4.17,2.07-.57,1.18-9.37-4.66.57-1.18,4.17,2.07,2.47-4.95-4.18-2.07.57-1.17,9.37,4.68h0Z"/>
  <path class="cls-1" d="M245.12,199.59l-4.09,6.74-.99-.6,1.71-2.8-7.96-4.84.68-1.14,7.96,4.84,1.71-2.82,1.01.62h-.02Z"/>
  <path class="cls-1" d="M231.72,215.41c.44-.02.87-.13,1.24-.35.39-.21.73-.51,1.01-.87.39-.47.62-1.04.69-1.65.05-.63-.08-1.27-.38-1.83-.77-1.36-2.05-2.35-3.54-2.78-.62-.16-1.26-.14-1.86.07-.58.21-1.07.58-1.44,1.05-.28.35-.49.75-.6,1.18-.11.42-.13.86-.05,1.29.08.44.28.85.57,1.19l-.8,1.02c-.45-.49-.78-1.09-.95-1.73-.16-.62-.16-1.28,0-1.9.17-.65.46-1.27.89-1.78,1.04-1.38,2.81-2.01,4.49-1.6.95.22,1.85.66,2.6,1.29.78.59,1.43,1.35,1.87,2.22.8,1.54.6,3.4-.5,4.73-.41.53-.93.97-1.53,1.28-.58.29-1.21.44-1.85.43-.67-.02-1.33-.19-1.93-.52l.8-1.02c.4.21.85.31,1.3.29h0Z"/>
  <path class="cls-1" d="M223.52,212.24l5,9.96-.94,1.01-10.23-4.38.95-1.01,2.84,1.26,2.88-3.06-1.43-2.78.94-.99h0ZM222.23,219.56l4.54,2,.06-.07-2.28-4.42-2.33,2.48h0Z"/>
  <path class="cls-1" d="M224.81,226.09l-5.8,5.35-.78-.86,2.41-2.22-6.31-6.83.97-.89,6.31,6.82,2.42-2.23.78.86h0Z"/>
  <path class="cls-1" d="M212.79,236.45l-7.85-5-.1.07,2.1,9.1-1.28.9-6.05-8.53,1.01-.71,4.54,6.46.08-.06-1.92-8.33.95-.67,7.23,4.54.07-.05-4.54-6.46,1.01-.71,6.04,8.53-1.28.9h0Z"/>
  <path class="cls-1" d="M191.85,240.12c-.07-.85.11-1.69.51-2.43,1.16-2.16,3.83-2.98,6-1.84.17.09.35.2.51.32,1.58,1.19,2.59,2.98,2.79,4.95.21,2.44-1.61,4.59-4.06,4.8-1.05.09-2.11-.21-2.97-.82-1.58-1.19-2.58-2.98-2.79-4.95v-.03h0ZM195.32,244.03c.5.38,1.1.61,1.73.65,1.24.04,2.41-.62,3-1.71.29-.57.41-1.2.35-1.83-.2-1.55-.99-2.96-2.21-3.93-.51-.38-1.12-.61-1.75-.65-1.24-.04-2.41.62-3,1.71-.29.56-.41,1.2-.35,1.83.08.77.33,1.51.73,2.18.37.68.9,1.29,1.53,1.73h-.03v.02Z"/>
  <path class="cls-1" d="M188.67,239.06l4.28,9.55-3.09,1.38c-.81.39-1.73.57-2.63.49-.84-.07-1.63-.41-2.28-.95-1.43-1.32-2.26-3.17-2.28-5.11.03-.85.32-1.67.81-2.34.58-.74,1.33-1.32,2.2-1.68l2.97-1.33h.02ZM186.25,241.38c-1,.36-1.78,1.15-2.15,2.14-.42,2.16.56,4.36,2.44,5.49.95.39,2.02.34,2.93-.15l1.82-.81-3.33-7.42-1.71.74Z"/>
  <path class="cls-1" d="M183.06,252.86l-5.98,2.12-.38-1.09,4.75-1.68-1.17-3.29-4.44,1.57-.38-1.07,4.44-1.57-1.17-3.31-4.81,1.71-.39-1.09,6.05-2.14,3.49,9.87h0Z"/>
  <path class="cls-1" d="M160.87,250.83c.35-1.7,1.67-3.01,3.37-3.36.82-.21,1.68-.17,2.48.11.8.29,1.5.8,2.01,1.46.6.77,1.02,1.68,1.2,2.63.24.95.25,1.94.05,2.91-.18.83-.59,1.59-1.18,2.2-.6.59-1.36,1-2.19,1.17-1.68.41-3.44-.21-4.49-1.58-1.17-1.6-1.62-3.6-1.26-5.55h0ZM163.07,255.55c.38.52.9.91,1.49,1.14.58.21,1.19.24,1.78.09.59-.12,1.15-.42,1.58-.86.45-.45.74-1.03.86-1.65.25-1.54-.1-3.12-1-4.39-.38-.51-.9-.9-1.49-1.14-.58-.21-1.19-.24-1.78-.09-.59.12-1.15.42-1.58.86-.45.46-.74,1.03-.87,1.65-.14.76-.11,1.53.07,2.28.15.76.46,1.5.93,2.13h0Z"/>
  <path class="cls-1" d="M149.89,249.95l1.23-.16,6.66,7.36h.1l-1.04-8.08,1.29-.17,1.34,10.38-1.25.16-6.66-7.39h-.1l1.04,8.1-1.28.17-1.34-10.36h0Z"/>
  <path class="cls-1" d="M147.23,247.12l1.07-.07-.57,3.97-1.4.09.9-4h0Z"/>
  <path class="cls-1" d="M132.22,250.13l1.24.04,5.39,8.33h.1l.26-8.14,1.3.04-.35,10.46-1.26-.05-5.39-8.35h-.1l-.26,8.16-1.29-.04.35-10.46h0Z"/>
  <path class="cls-1" d="M121.69,251.29c.46-.72,1.1-1.3,1.87-1.65,2.21-1.04,4.86-.1,5.91,2.13.08.18.16.37.22.56.56,1.9.3,3.95-.73,5.64-1.32,2.07-4.07,2.69-6.14,1.37-.88-.56-1.54-1.41-1.85-2.41-.55-1.9-.29-3.95.73-5.64h0ZM122.15,256.48c.18.61.53,1.16,1.01,1.57.47.39,1.04.62,1.65.7s1.22,0,1.77-.26c.57-.28,1.04-.72,1.37-1.26.76-1.36.96-2.97.57-4.47-.18-.61-.53-1.16-1.02-1.57-.96-.77-2.28-.94-3.4-.45-.57.28-1.04.72-1.37,1.26-.4.67-.65,1.41-.73,2.18-.12.76-.07,1.55.16,2.29h0Z"/>
  <path class="cls-1" d="M111.55,255.24c.2.39.49.72.85.97.36.26.78.45,1.22.54.59.15,1.21.11,1.78-.09.59-.23,1.11-.62,1.49-1.14.89-1.29,1.25-2.85.99-4.39-.12-.62-.42-1.2-.87-1.65-.43-.43-.98-.73-1.58-.85-.44-.1-.88-.11-1.32-.04-.43.07-.83.25-1.18.52-.36.27-.64.62-.83,1.04l-1.27-.29c.24-.62.63-1.17,1.14-1.6.49-.41,1.08-.7,1.71-.83.66-.13,1.34-.12,1.99.03.82.18,1.59.58,2.19,1.17s1.02,1.36,1.18,2.2c.37,1.94-.08,3.95-1.24,5.55-1.04,1.37-2.81,2-4.49,1.59-.66-.14-1.28-.43-1.81-.83-.52-.39-.92-.9-1.19-1.49-.28-.62-.4-1.3-.35-1.97l1.27.29c0,.45.11.9.32,1.31v-.03Z"/>
  <path class="cls-1" d="M107.45,256.36l-7.52-2.38.35-1.1,3.12.99,2.8-8.87,1.26.39-2.8,8.87,3.13,1-.35,1.1h0Z"/>
  <path class="cls-1" d="M90.15,250.07l2.63-6.41c.24-.62.66-1.18,1.2-1.58.53-.39,1.17-.63,1.83-.69,1.49-.07,2.94.53,3.95,1.63.44.5.72,1.12.81,1.77.09.67,0,1.35-.26,1.97l-2.63,6.4-1.2-.49,2.6-6.31c.19-.44.25-.91.21-1.38-.07-.45-.26-.88-.57-1.22-.69-.77-1.7-1.19-2.72-1.14-.45.04-.88.21-1.24.49-.37.3-.66.69-.82,1.14l-2.57,6.32-1.2-.49h-.02Z"/>
  <path class="cls-1" d="M87.44,248.77l-3.15-1.63c-.62-.3-1.17-.73-1.59-1.28-.34-.45-.52-.99-.53-1.55,0-.59.14-1.16.43-1.67.28-.59.72-1.07,1.28-1.4.54-.31,1.18-.42,1.8-.31l-.11-4.91,1.35.69.08,4.62.23.1,2.01,1.04,1.86-3.6,1.14.59-4.79,9.3h0ZM86.72,242.52c-.53-.34-1.18-.46-1.81-.35-.52.17-.95.55-1.18,1.05-.29.49-.36,1.07-.2,1.6.25.59.73,1.05,1.33,1.3l1.95,1.01,1.86-3.6-1.96-1.02h0Z"/>
  <path class="cls-1" d="M77.46,230.99l1.04.66.44,9.92.08.05,4.36-6.89,1.1.69-5.59,8.85-1.06-.67-.43-9.92-.08-.06-4.37,6.9-1.08-.69,5.59-8.84h0Z"/>
  <path class="cls-1" d="M76.51,230.34l-9.39,5.98-1.09-.83,3.32-10.63,1.09.83-.96,2.98,3.34,2.56,2.63-1.71,1.07.82h0v-.02ZM69.11,229.82l-1.55,4.75.07.05,4.17-2.71-2.69-2.09h0Z"/>
  <path class="cls-1" d="M61.46,231.82l-.97-.87,6.21-6.93-3.61-3.25.77-.86,4.58,4.1-6.98,7.79h0Z"/>
  <path class="cls-1" d="M59.32,215.24l.89.95-7.6,7.19-.89-.95,7.61-7.18h0Z"/>
  <path class="cls-1" d="M52.51,207.33l.8.95-2.65,9.56.07.08,6.25-5.21.83,1.01-8.03,6.68-.8-.96,2.67-9.57-.07-.08-6.29,5.22-.81-1,8.05-6.68h0Z"/>
  <path class="cls-1" d="M41.09,206.23c-.08.32-.08.66,0,.98.22.78.71,1.46,1.38,1.9.28.2.62.31.96.32.32,0,.63-.08.89-.27.38-.24.6-.68.57-1.14-.03-.52-.13-1.04-.32-1.51l-.35-1.02c-.29-.73-.42-1.5-.4-2.28.04-.75.45-1.43,1.09-1.83.46-.32.99-.49,1.53-.51.58,0,1.15.15,1.64.46,1.14.76,1.95,1.92,2.27,3.26.11.55.08,1.12-.1,1.65-.18.53-.51,1-.95,1.34l-.76-1.09c.27-.22.48-.53.57-.88.09-.35.09-.7,0-1.04-.24-.81-.75-1.52-1.44-2.01-.32-.21-.67-.35-1.05-.36-.35-.02-.71.08-1,.29-.24.16-.43.4-.5.68-.07.29-.07.59,0,.88.07.39.17.76.3,1.14l.46,1.26c.26.71.35,1.46.26,2.21-.1.62-.46,1.18-1.01,1.53-.45.32-.98.49-1.52.49s-1.11-.17-1.59-.47c-.53-.33-1-.77-1.35-1.29-.36-.5-.61-1.07-.73-1.68-.1-.53-.07-1.09.1-1.6.17-.49.48-.9.89-1.21l.73,1.04c-.26.2-.46.46-.56.77h0Z"/>
  <path class="cls-1" d="M37.61,204.17l-3.97-6.83,1.01-.57,1.65,2.84,8.05-4.67.66,1.14-8.05,4.67,1.66,2.84-.99.57h0Z"/>
  <path class="cls-1" d="M41.43,189.51l.57,1.14-9.3,4.78-.57-1.14,9.3-4.78Z"/>
  <path class="cls-1" d="M37.12,180l.49,1.14-5.22,8.43.04.1,7.48-3.25.52,1.19-9.61,4.16-.5-1.14,5.24-8.43-.04-.09-7.5,3.25-.5-1.18,9.6-4.17h0Z"/>
  <path class="cls-1" d="M26.4,174.44c-.23.37-.37.79-.4,1.22-.04.45.02.9.16,1.32.18.59.53,1.1,1.01,1.49.49.39,1.08.63,1.71.7,1.56.1,3.1-.39,4.29-1.41.47-.42.81-.97.98-1.59.15-.59.12-1.21-.07-1.78-.14-.42-.36-.8-.65-1.14-.59-.68-1.47-1.03-2.36-.93l-.4-1.23c.66-.1,1.34-.05,1.98.17.61.21,1.15.57,1.59,1.04.46.5.8,1.09,1.01,1.73.28.8.32,1.65.11,2.47-.21.82-.65,1.57-1.28,2.14-1.47,1.32-3.43,1.96-5.4,1.77-.83-.1-1.62-.45-2.28-.97-.64-.54-1.12-1.26-1.36-2.07-.21-.63-.29-1.31-.21-1.98.07-.64.31-1.25.67-1.78.39-.55.9-1.01,1.5-1.32l.4,1.23c-.39.21-.73.53-.96.9h-.02Z"/>
  <path class="cls-1" d="M23.33,171.47l-1.81-7.67,1.14-.26.75,3.19,9.06-2.14.31,1.28-9.06,2.14.76,3.2-1.14.26h-.02Z"/>
  <polyline class="cls-1" points="83.88 103.88 83.88 79.47 105.94 87.99"/>
  <polyline class="cls-1" points="196.1 103.88 196.1 79.47 174.04 87.99"/>
  <path class="cls-1" d="M204.5,118.53v-3.74H75.39v3.74h6.87v6.61h-6.87v3.72h6.87v20.15c0,1.21.07,2.42.23,3.62,1.99,16.32,16.84,27.92,33.15,25.92,3.26-.4,6.46-1.34,9.41-2.78,1.18-.57,2.32-1.21,3.4-1.94l-2.7-2.55-.1-.09c-.31-.35-.44-.81-.35-1.28.09-.5.44-.91.9-1.1l4.71-1.92,6.75-2.76c.73-1.22,1.36-2.5,1.9-3.82.14-.31.25-.62.37-.92,5.75,15.4,22.88,23.24,38.29,17.49,11.63-4.34,19.35-15.44,19.37-27.85v-20.17h6.88v-3.74h-6.88v-6.6h6.92ZM124.8,165.36c-2.68,1.09-3.96,4.13-2.87,6.81.1.26.24.52.39.76-12.54,5.41-27.13.19-33.4-11.94h0c6.1,5.75,15.71,5.45,21.46-.65,2.65-2.82,4.12-6.53,4.12-10.39v-31.44h23.57v30.49c0,4.23-1.04,8.42-3.03,12.16l-10.24,4.17h0ZM193.88,149.02c0,14.38-11.65,26.04-26.04,26.03-9.74,0-18.67-5.44-23.13-14.1h0c6.1,5.75,15.71,5.45,21.46-.65,2.64-2.81,4.12-6.52,4.12-10.38v-31.4h23.57l.03,30.49h0Z"/>
  <path class="cls-1" d="M152.41,180.9c-1.58-1.14-3.48-1.74-5.43-1.74h-.06v3.74c.52,0,1.03.07,1.53.21-7.2,3.25-15.48,3.12-22.58-.34l-1.63,3.37c3.82,1.86,7.99,2.89,12.24,3.04h1.04c4.94,0,9.81-1.2,14.2-3.49.41.78.66,1.64.73,2.52l3.74-.19c-.15-2.81-1.52-5.41-3.75-7.11h-.03Z"/>
  <path class="cls-1" d="M256.81,147.13c.04-3.81-3.02-6.91-6.82-6.96-.17,0-.33,0-.49.02,3.81.03,6.91-3.02,6.95-6.83,0-.17,0-.33-.02-.49-.04,3.81,3.02,6.91,6.83,6.95.17,0,.33,0,.49-.02-3.81-.03-6.91,3.03-6.95,6.84,0,.17,0,.32.02.49h0Z"/>
  <path class="cls-1" d="M23.18,147.13c-.04-3.82,3.03-6.92,6.83-6.96.17,0,.33,0,.49.02-3.8.04-6.9-3-6.95-6.81,0-.17,0-.35.02-.52.04,3.81-3.02,6.91-6.83,6.95-.17,0-.33,0-.49-.02,3.81-.03,6.91,3.02,6.95,6.83,0,.17,0,.33-.02.49h0Z"/>
</svg>