<?xml version="1.0" encoding="UTF-8"?>
<svg id="Layer_1" data-name="Layer 1" xmlns="http://www.w3.org/2000/svg" viewBox="0 0 280 280">
  <defs>
    <style>
      .cls-1 {
        fill: #0f58ec;
      }

      .cls-2 {
        fill: #ddd;
      }
    </style>
  </defs>
  <circle class="cls-2" cx="140" cy="140" r="140"/>
  <path class="cls-1" d="M120.74,12.4l-.48,2.54-1.03.14,1.56-8.08,1.2-.16,3.7,7.35-1.06.15-1.16-2.31-2.74.38h0ZM123.15,11.28l-1.09-2.12c-.25-.48-.42-.92-.59-1.35h0c-.05.48-.11.96-.19,1.48l-.45,2.34,2.32-.35h0Z"/>
  <path class="cls-1" d="M125.94,10.08c-.05-.57-.11-1.05-.18-1.48l.9-.08.14.91h0c.31-.7.99-1.17,1.75-1.21.74-.07,2.01.29,2.17,2.22l.3,3.33-1.01.09-.28-3.21c-.08-.9-.48-1.62-1.43-1.53-.63.07-1.14.54-1.28,1.15-.02.16-.02.32,0,.48l.3,3.35-1.01.09-.36-4.12h0Z"/>
  <path class="cls-1" d="M137.2,10.59c.2,1.5-.86,2.86-2.35,3.06-.1.02-.21.02-.3.02-1.47.08-2.72-1.04-2.8-2.5v-.26c-.19-1.5.86-2.87,2.36-3.06.09,0,.19-.02.28-.02,1.46-.09,2.72,1.02,2.81,2.48v.28h0ZM132.76,10.84c.05,1.23.79,2.12,1.79,2.08s1.65-.99,1.61-2.22c-.04-.95-.57-2.13-1.77-2.08s-1.66,1.16-1.62,2.22h0Z"/>
  <path class="cls-1" d="M139.28,6.25v1.61h1.48v.77h-1.48l.04,3.01c0,.69.21,1.09.78,1.07.2,0,.4-.02.58-.08l.06.74c-.29.11-.59.16-.9.16-.41.03-.81-.12-1.1-.4-.32-.42-.48-.95-.42-1.48v-3h-.86v-.74h.86v-1.34l.94-.32h0Z"/>
  <path class="cls-1" d="M141.8,5.23h1.01l-.11,3.48h0c.18-.29.44-.53.74-.69.32-.17.68-.26,1.05-.26.74,0,1.93.52,1.88,2.44l-.1,3.33-1.02-.03.1-3.2c0-.91-.28-1.68-1.24-1.71-.62.02-1.15.44-1.34,1.02-.06.16-.09.32-.08.49l-.11,3.37h-1.02l.23-8.24h0Z"/>
  <path class="cls-1" d="M148.28,11.1c-.16.97.5,1.88,1.47,2.05.1.02.2.02.3.02.53.06,1.06,0,1.57-.17l.12.74c-.6.21-1.24.28-1.88.21-1.43-.02-2.58-1.19-2.57-2.62,0-.13.02-.26.03-.4.12-1.68,1.21-2.96,2.83-2.82,1.82.13,2.22,1.77,2.12,2.8,0,.16-.03.31-.07.47l-3.91-.29h0ZM151.3,10.59c.16-.8-.37-1.58-1.17-1.74-.04,0-.08-.02-.12-.02-.86,0-1.59.66-1.67,1.52l2.96.23Z"/>
  <path class="cls-1" d="M153.28,10.26c.07-.66.12-1.22.14-1.75l.89.1-.08,1.09h.04c.27-.67.95-1.1,1.67-1.05.1,0,.19.02.28.07l-.13.96c-.11-.04-.22-.07-.34-.07-.72-.04-1.35.45-1.48,1.15-.05.15-.08.3-.1.47l-.33,2.96-.99-.12.41-3.8h.02Z"/>
  <path class="cls-1" d="M158.31,13.68c.36.31.8.52,1.27.6.74.12,1.14-.2,1.2-.66s-.17-.78-.87-1.17c-.94-.51-1.32-1.14-1.22-1.79.18-.94,1.09-1.55,2.02-1.37.05,0,.09.02.14.03.48.07.93.26,1.31.55l-.37.69c-.3-.26-.68-.44-1.08-.49-.44-.13-.89.11-1.03.54,0,.02,0,.04-.02.07-.07.46.23.74.91,1.1.91.51,1.32,1.06,1.19,1.88-.15.98-1,1.55-2.32,1.34-.54-.07-1.05-.29-1.48-.62l.35-.72h0Z"/>
  <path class="cls-1" d="M164.87,8.53l-.29,1.58,1.42.26-.14.74-1.42-.26-.55,2.96c-.12.68,0,1.1.55,1.2.2.04.4.06.59.03l-.09.74c-.3.06-.61.06-.91,0-.41-.05-.77-.28-1-.62-.22-.46-.26-.99-.12-1.48l.55-3-.85-.16.14-.74.85.16.25-1.32,1.02-.11v.02Z"/>
  <path class="cls-1" d="M171.19,14.31c-.21,1.5-1.59,2.55-3.1,2.35-.09-.02-.18-.03-.27-.05-1.44-.3-2.35-1.72-2.05-3.16.02-.08.04-.16.07-.24.21-1.5,1.58-2.54,3.08-2.35.09.02.18.03.27.05,1.43.29,2.36,1.68,2.07,3.12-.02.09-.04.19-.07.28h0ZM166.84,13.41c-.26,1.2.22,2.22,1.19,2.46s1.86-.52,2.13-1.75c.2-.92,0-2.22-1.17-2.46s-1.93.71-2.16,1.75Z"/>
  <path class="cls-1" d="M172.37,13.6c.17-.63.3-1.19.4-1.7l.86.23-.25,1.06h.04c.36-.63,1.09-.95,1.8-.79.1.02.19.06.27.11l-.25.93c-.11-.06-.21-.1-.33-.12-.7-.16-1.41.24-1.65.91-.07.15-.12.3-.16.45l-.74,2.88-.97-.26.95-3.7h.02Z"/>
  <path class="cls-1" d="M176.89,13l.23,3.52v1.2h0c.19-.3.43-.67.67-1.02l2.01-2.82,1.03.31-2.54,3.39c-1.24,1.63-2.01,2.43-2.84,2.82-.43.21-.91.3-1.38.27v-.9c.35,0,.68-.09,1-.22.44-.19.83-.48,1.14-.84.06-.06.11-.13.14-.21.02-.09.02-.18,0-.27l-.51-5.53,1.05.32v-.02Z"/>
  <path class="cls-1" d="M185.23,13.99l-.54,1.48,1.37.48-.26.74-1.37-.42-.97,2.82c-.23.65-.18,1.09.35,1.28.19.07.39.12.58.12l-.21.74c-.3,0-.61-.07-.9-.17-.39-.11-.71-.38-.89-.74-.15-.49-.12-1.02.11-1.48l.95-2.93-.81-.29.26-.74.81.29.45-1.27,1.05.09h.02Z"/>
  <path class="cls-1" d="M187.91,13.87l.94.38-1.28,3.24h0c.27-.22.59-.36.94-.4.36-.06.73-.02,1.07.11.69.28,1.65,1.15.93,2.96l-1.22,3.1-.95-.38,1.19-2.96c.33-.84.3-1.67-.59-2.02-.58-.21-1.24-.04-1.65.44-.11.12-.19.27-.25.43l-1.24,3.14-.95-.37,3.05-7.66h0Z"/>
  <path class="cls-1" d="M193.22,25l.21-.67h0c-.58.32-1.29.35-1.9.06-.83-.27-1.28-1.17-1.01-2,.02-.07.05-.13.07-.19.55-1.23,1.94-1.42,3.91-.53l.05-.11c.33-.54.16-1.25-.4-1.58-.07-.05-.16-.08-.24-.11-.46-.21-.98-.28-1.48-.21l.06-.74c.64-.07,1.29.02,1.88.3,1.56.7,1.48,1.93,1,2.96l-.84,1.95c-.19.4-.35.82-.47,1.26l-.87-.38h.02ZM194.25,22.33c-1-.48-2.22-.81-2.67.18-.24.43-.09.98.34,1.22.04.02.09.04.13.06.55.26,1.2.14,1.62-.3.07-.08.13-.17.18-.26,0,0,.4-.89.4-.89Z"/>
  <path class="cls-1" d="M199.29,19.91l-.7,1.48,1.31.63-.34.69-1.29-.67-1.32,2.71c-.3.62-.3,1.06.21,1.31.18.09.37.16.56.2l-.3.74c-.3-.03-.59-.12-.86-.26-.38-.16-.67-.48-.8-.86-.1-.51,0-1.04.28-1.48l1.33-2.74-.74-.38.34-.69.77.38.59-1.2.95.16h0Z"/>
  <path class="cls-1" d="M200.31,27.33c.23.41.58.76.99,1,.65.35,1.14.2,1.35-.21s.11-.8-.42-1.41c-.74-.79-.86-1.48-.54-2.09.49-.81,1.56-1.08,2.38-.58.03.02.07.04.1.07.42.23.78.56,1.05.96l-.58.54c-.2-.35-.49-.64-.85-.84-.36-.27-.87-.2-1.14.16-.02.02-.03.04-.04.07-.22.4,0,.74.48,1.34.68.79.88,1.48.48,2.22-.47.86-1.48,1.11-2.63.48-.49-.27-.89-.66-1.18-1.13l.57-.56h0Z"/>
  <path class="cls-1" d="M208.26,24.72l-.81,1.39,1.26.74-.4.67-1.26-.74-1.52,2.6c-.35.6-.38,1.04.11,1.33.16.11.35.18.54.24l-.34.68c-.3-.06-.59-.17-.85-.33-.37-.18-.64-.52-.74-.92-.06-.53.08-1.05.4-1.48l1.54-2.63-.74-.44.39-.67.74.44.67-1.16,1,.29h0Z"/>
  <path class="cls-1" d="M209.14,33.7l.3-.63h0c-.63.24-1.33.16-1.88-.21-.77-.41-1.07-1.37-.67-2.15.02-.04.05-.08.07-.12.74-1.14,2.13-1.13,3.96,0l.06-.1c.4-.49.34-1.22-.15-1.62-.07-.06-.15-.11-.23-.15-.44-.27-.95-.42-1.48-.42l.16-.69c.65.02,1.28.21,1.82.56,1.48.91,1.18,2.12.58,3.07l-1.11,1.77c-.25.38-.46.77-.64,1.19l-.78-.48v-.02ZM210.53,31.21c-.92-.61-2.09-1.12-2.67-.2-.3.4-.22.96.17,1.27.03.02.07.05.12.07.5.34,1.17.3,1.65-.07.09-.07.16-.15.22-.25l.52-.82h0Z"/>
  <path class="cls-1" d="M213,31.63c.37-.55.67-1.02.94-1.48l.74.5-.58.92h.03c.55-.47,1.35-.54,1.97-.15.08.06.16.12.22.19l-.54.79c-.08-.08-.17-.16-.26-.22-.62-.38-1.41-.24-1.86.32-.11.12-.21.23-.3.36l-1.67,2.47-.84-.54,2.16-3.18h0Z"/>
  <path class="cls-1" d="M219.04,31.75l-.94,1.3,1.19.85-.45.63-1.19-.85-1.76,2.44c-.4.56-.48,1,0,1.33.16.12.34.21.52.29l-.4.64c-.3-.09-.57-.23-.81-.41-.35-.22-.58-.58-.64-.99,0-.52.18-1.02.54-1.41l1.79-2.48-.7-.5.45-.63.74.5.78-1.09.91.35h-.02Z"/>
  <path class="cls-1" d="M217.13,37.97c.16.44.44.84.81,1.14.59.44,1.09.36,1.37,0s.23-.74-.2-1.48c-.58-.9-.62-1.62-.21-2.16.62-.73,1.7-.83,2.44-.21.03.02.07.06.09.08.39.29.68.67.88,1.11l-.65.44c-.15-.38-.41-.72-.74-.95-.32-.32-.84-.33-1.16,0-.02.02-.03.03-.04.05-.28.37-.14.74.26,1.4.55.88.64,1.57.14,2.22-.6.78-1.62.86-2.68.06-.44-.32-.79-.76-1.01-1.26,0,0,.7-.42.7-.42Z"/>
  <path class="cls-1" d="M225.48,38.75l-1.33,2.63c-.29.58-.55,1.11-.86,1.61h0c.47-.35,1-.68,1.53-1l2.57-1.56.64.56-1.19,2.68c-.29.64-.55,1.19-.83,1.7h0c.48-.39.97-.75,1.48-1.09l2.57-1.54.74.67-5.03,3.03-.69-.61,1.11-2.58c.25-.58.53-1.15.84-1.71h0c-.51.39-1.05.74-1.6,1.06l-2.43,1.41-.69-.61,2.4-5.32.77.67h-.02Z"/>
  <path class="cls-1" d="M227.52,48.09l3.84-4.07.74.7-3.84,4.06-.74-.69ZM233.26,43.65c-.24.26-.64.26-.89.02s-.26-.64-.02-.89c.24-.25.63-.26.88-.02,0,0,.02.02.02.02.25.23.26.62.02.86h-.02Z"/>
  <path class="cls-1" d="M235.1,45.37l-1.13,1.14,1.04,1.03-.55.55-1.04-1.02-2.12,2.15c-.49.49-.62.91-.22,1.3.14.15.3.27.48.37l-.5.58c-.28-.13-.53-.31-.74-.54-.31-.27-.49-.66-.48-1.07.07-.51.34-.98.74-1.31l2.15-2.17-.62-.61.54-.55.62.61.95-.95.89.51h0Z"/>
  <path class="cls-1" d="M237.57,46.41l.69.74-2.54,2.42h0c.34-.08.69-.07,1.02.03.35.1.67.3.92.55.51.55,1,1.74-.4,3.06l-2.4,2.26-.74-.74,2.35-2.22c.65-.62.98-1.37.32-2.08-.44-.44-1.11-.56-1.67-.3-.15.07-.29.16-.4.28l-2.43,2.34-.69-.74,5.98-5.62v.02Z"/>
  <path class="cls-1" d="M243.31,54.25l-1.23,1.04.94,1.11-.59.5-.94-1.11-2.3,1.92c-.53.44-.7.85-.33,1.28.12.16.27.29.43.4l-.55.53c-.26-.16-.5-.35-.69-.6-.29-.3-.43-.7-.39-1.11.12-.51.43-.95.86-1.24l2.32-1.97-.55-.66.59-.5.55.66,1.02-.86.85.62h.02Z"/>
  <path class="cls-1" d="M245.67,55.49l.63.8-2.74,2.16h0c.35-.05.69,0,1.01.13.35.13.64.35.87.63.46.59.84,1.83-.68,3.02l-2.61,2.05-.63-.8,2.52-1.98c.74-.55,1.1-1.28.51-2.04-.4-.48-1.05-.66-1.65-.44-.16.05-.3.13-.42.25l-2.66,2.08-.63-.8,6.47-5.05h0Z"/>
  <path class="cls-1" d="M245.34,64.21c-.85.5-1.13,1.61-.63,2.45.05.08.11.16.16.23.3.44.68.81,1.14,1.09l-.49.56c-.55-.33-1.03-.77-1.39-1.31-.91-1.11-.74-2.75.37-3.65.1-.08.21-.16.32-.22,1.37-.99,3.03-.95,3.98.38,1.06,1.48.04,2.82-.79,3.41-.13.09-.26.17-.4.25l-2.26-3.19h0ZM247.67,66.21c.72-.4.97-1.3.58-2.01-.02-.03-.04-.07-.06-.1-.55-.65-1.51-.78-2.22-.3,0,0,1.7,2.41,1.7,2.41Z"/>
  <path class="cls-1" d="M250.32,69.34c.61-.39,1.09-.74,1.52-1.01l.49.74-.79.55h0c.81-.02,1.56.4,1.98,1.1.74,1.14.3,2.62-1.14,3.52-1.7,1.07-3.19.56-3.9-.55-.39-.57-.45-1.3-.17-1.93h0l-2.58,1.62-.54-.85,5.13-3.19v-.02ZM249.58,70.98c-.12.08-.22.16-.33.26-.5.52-.58,1.32-.2,1.93.58.91,1.65.97,2.74.29.95-.6,1.48-1.61.87-2.52-.4-.63-1.17-.9-1.87-.67-.13.03-.26.09-.39.16l-.83.54Z"/>
  <path class="cls-1" d="M257.44,72.44l.51.88-7.09,4.13-.51-.88,7.09-4.13Z"/>
  <path class="cls-1" d="M253.01,81.3l.58-.4h0c-.67-.1-1.24-.51-1.55-1.11-.48-.74-.26-1.72.47-2.2.04-.02.08-.05.12-.07,1.19-.64,2.41.06,3.43,1.96l.11-.05c.6-.22.9-.89.67-1.48-.03-.09-.08-.18-.14-.26-.25-.45-.61-.82-1.06-1.08l.48-.53c.56.33,1.01.81,1.32,1.37.82,1.48,0,2.43-.99,2.96l-1.86.97c-.4.21-.78.46-1.14.74l-.44-.81h0ZM255.44,79.82c-.51-.99-1.28-2-2.22-1.48-.45.2-.66.72-.46,1.18.02.04.04.08.07.12.27.54.88.85,1.48.74.11-.02.21-.05.31-.11l.82-.46h0Z"/>
  <path class="cls-1" d="M259.08,80.86l-2.42,2.56c-.27.28-.61.6-.86.83h0c.34-.05.74-.14,1.2-.2l3.43-.46.48.96-4.25.4c-2.04.2-3.14.19-3.98-.16-.44-.17-.84-.45-1.14-.82l.65-.62c.24.25.53.44.84.58.44.2.91.29,1.39.26.08.02.16.02.26,0,.08-.05.15-.11.21-.18l3.7-4.13.51.98h0Z"/>
  <path class="cls-1" d="M256.95,89.33c.36-.12.89-.33,1.35-.52l6.23-2.64.4.93-3.23,1.37h0c.77.1,1.42.63,1.69,1.35.54,1.28-.14,2.63-1.71,3.28-1.84.74-3.25,0-3.7-1.14-.34-.7-.25-1.53.25-2.13h0l-.87.32-.39-.82h0ZM259.43,89.43c-.12.05-.22.12-.33.18-.58.44-.78,1.21-.5,1.87.41.98,1.48,1.23,2.64.74,1.04-.44,1.7-1.35,1.28-2.35-.3-.67-1.02-1.06-1.75-.94-.14.02-.28.06-.4.11l-.92.38h0Z"/>
  <path class="cls-1" d="M262.38,98.9c-.54.2-1.01.39-1.42.57l-.31-.85.84-.37h0c-.75-.13-1.37-.66-1.62-1.37-.3-.82-.21-1.98,1.64-2.66l3.07-1.13.35.95-2.91,1.06c-1,.37-1.56.91-1.24,1.79.21.55.74.93,1.33.95.18,0,.35-.03.52-.1l3.23-1.19.35.95-3.83,1.38h0Z"/>
  <path class="cls-1" d="M268.54,99.54l-1.52.49.45,1.39-.74.24-.46-1.38-2.86.94c-.66.21-.97.53-.8,1.06.07.19.15.37.26.54l-.74.28c-.19-.25-.33-.52-.41-.81-.15-.39-.12-.81.07-1.18.3-.43.76-.72,1.27-.83l2.9-.95-.27-.82.74-.25.26.83,1.28-.41.6.86h0Z"/>
  <path class="cls-1" d="M269.63,102.98l-1.54.46.41,1.39-.74.22-.41-1.4-2.89.86c-.67.2-.99.49-.82,1.05.05.19.13.37.23.54l-.74.26c-.18-.25-.31-.53-.39-.82-.15-.39-.11-.81.1-1.18.31-.41.77-.7,1.28-.8l2.92-.86-.25-.84.74-.21.26.83,1.28-.39.57.89h0Z"/>
  <path class="cls-1" d="M267.35,111.24c-1.42.5-2.99-.25-3.49-1.67-.03-.09-.06-.19-.08-.28-.38-1.42.46-2.88,1.89-3.26.07-.02.16-.04.23-.05,1.42-.5,2.98.25,3.48,1.66.03.09.06.19.08.28.4,1.4-.41,2.86-1.81,3.25-.1.02-.2.05-.3.07h0ZM266.18,106.97c-1.19.3-1.9,1.22-1.65,2.18s1.31,1.42,2.53,1.1c.91-.25,1.96-1,1.66-2.16s-1.51-1.39-2.54-1.13h0Z"/>
  <path class="cls-1" d="M268.76,111.94c.56-.11,1.03-.22,1.48-.35l.18.88-.9.25h0c.73.23,1.27.85,1.41,1.6.16.74-.05,2.02-1.93,2.42l-3.26.68-.21-1,3.15-.66c.88-.18,1.56-.67,1.35-1.6-.13-.62-.66-1.08-1.29-1.13-.16-.02-.32-.02-.48,0l-3.29.69-.21-1,3.99-.78v-.02Z"/>
  <path class="cls-1" d="M268.93,121.59l-2.54-.46-.15-1.03,8.08,1.52.14,1.18-7.34,3.7-.15-1.06,2.3-1.17-.35-2.68h0ZM270.06,124.01l2.12-1.06c.48-.25.91-.42,1.35-.6h0c-.48-.05-.96-.11-1.48-.19l-2.34-.44.35,2.3h0Z"/>
  <path class="cls-1" d="M271.27,126.79c.58-.05,1.05-.11,1.48-.18l.08.91-.91.14h0c.7.31,1.17.98,1.21,1.75.07.74-.27,2.01-2.22,2.18l-3.33.31-.1-1.01,3.21-.3c.9-.08,1.61-.49,1.53-1.44-.07-.63-.54-1.14-1.16-1.27-.16-.02-.32-.02-.48,0l-3.34.31-.1-1.01,4.12-.38h0Z"/>
  <path class="cls-1" d="M270.76,138.04c-1.5.2-2.87-.86-3.07-2.35,0-.09-.02-.19-.02-.28-.09-1.47,1.03-2.72,2.49-2.81h.26c1.5-.2,2.86.85,3.07,2.35.02.1.02.2.02.29.1,1.46-1.01,2.72-2.47,2.82h-.28ZM270.51,133.6c-1.22.05-2.12.8-2.07,1.79s.99,1.65,2.22,1.6c.95-.04,2.12-.57,2.07-1.78s-1.14-1.65-2.19-1.6l-.03-.02h0Z"/>
  <path class="cls-1" d="M275.16,140.13h-1.61v1.48h-.74v-1.48l-3.02.05c-.69,0-1.08.21-1.07.78,0,.2.03.4.08.58l-.74.06c-.11-.29-.16-.59-.16-.91-.02-.41.12-.81.4-1.1.42-.32.95-.48,1.48-.41l3.05-.05v-.86h.77v.86h1.34l.2.99h0Z"/>
  <path class="cls-1" d="M276.19,142.62v1.01l-3.48-.09h0c.3.18.54.44.69.74.17.32.27.67.26,1.05,0,.74-.52,1.94-2.44,1.89l-3.33-.08v-1.02l3.21.08c.9,0,1.67-.29,1.7-1.25,0-.63-.4-1.19-.99-1.39-.16-.06-.31-.08-.48-.08l-3.37-.08v-1.02l8.22.25h0Z"/>
  <path class="cls-1" d="M270.37,149.15c-.98-.16-1.89.51-2.05,1.49-.02.1-.02.19-.02.29-.06.53,0,1.06.18,1.56l-.74.12c-.21-.6-.28-1.24-.21-1.88,0-1.43,1.17-2.58,2.6-2.58.13,0,.26,0,.4.03,1.69.11,2.96,1.2,2.82,2.82-.12,1.83-1.76,2.22-2.78,2.12-.16,0-.32-.03-.48-.07l.27-3.91h.02ZM270.88,152.17c.81.15,1.58-.38,1.73-1.18,0-.03.02-.07.02-.11,0-.87-.67-1.6-1.54-1.67l-.21,2.96Z"/>
  <path class="cls-1" d="M271.22,154.13c.65.07,1.22.11,1.74.13l-.09.89-1.09-.08v.04c.67.27,1.09.94,1.06,1.66,0,.1-.03.2-.07.29l-.95-.11c.04-.11.07-.22.07-.34.04-.72-.45-1.35-1.16-1.48-.15-.05-.3-.08-.47-.1l-2.96-.31.11-1,3.81.4h0Z"/>
  <path class="cls-1" d="M267.81,159.15c-.31.36-.52.8-.6,1.27-.11.74.2,1.13.66,1.2s.78-.18,1.17-.88c.5-.94,1.13-1.33,1.79-1.23.94.19,1.55,1.09,1.36,2.03,0,.04-.02.07-.02.12-.07.48-.26.93-.55,1.31l-.69-.36c.26-.31.43-.68.49-1.08.13-.44-.12-.9-.56-1.03-.02,0-.03,0-.06-.02-.46-.07-.74.24-1.09.91-.51.91-1.06,1.33-1.89,1.2-.98-.15-1.55-1-1.35-2.31.07-.54.29-1.05.61-1.48l.73.35h.02Z"/>
  <path class="cls-1" d="M272.99,165.71l-1.58-.29-.26,1.43-.74-.14.26-1.42-2.96-.54c-.69-.12-1.11,0-1.2.56-.04.2-.06.4-.03.59l-.74-.1c-.06-.3-.06-.61,0-.91.05-.41.28-.77.62-1,.46-.23.99-.28,1.48-.13l3,.55.16-.86.74.14-.16.85,1.33.24.11,1.03h-.02Z"/>
  <path class="cls-1" d="M267.23,172.06c-1.5-.19-2.55-1.56-2.36-3.05.02-.1.03-.2.06-.3.3-1.44,1.7-2.36,3.14-2.07.08.02.16.04.25.07,1.5.19,2.56,1.56,2.37,3.05-.02.1-.03.2-.06.3-.29,1.44-1.69,2.37-3.13,2.08-.09-.02-.17-.04-.26-.07h0ZM268.11,167.72c-1.19-.26-2.22.23-2.45,1.2s.53,1.86,1.76,2.12c.92.2,2.22,0,2.45-1.18s-.72-1.93-1.76-2.15h0Z"/>
  <path class="cls-1" d="M267.96,173.25c.63.16,1.19.29,1.7.39l-.21.86-1.07-.25v.04c.63.36.95,1.09.81,1.8-.02.1-.07.19-.11.27l-.92-.24c.05-.11.09-.22.12-.33.15-.7-.25-1.41-.92-1.65-.15-.07-.3-.12-.45-.16l-2.89-.74.26-.97,3.71.95v.02Z"/>
  <path class="cls-1" d="M268.54,177.74l-3.51.24h-1.2c.3.2.67.43,1.02.67l2.83,1.99-.3,1.04-3.4-2.59c-1.64-1.24-2.44-2-2.82-2.83-.21-.43-.31-.91-.28-1.38h.89c0,.35.09.67.23.99.18.44.48.83.84,1.14.06.06.13.11.21.15.09.02.19.02.28,0l5.52-.53-.33,1.12h.02Z"/>
  <path class="cls-1" d="M267.6,186.09l-1.51-.54-.48,1.37-.74-.26.48-1.37-2.84-.99c-.66-.23-1.09-.17-1.28.36-.07.19-.12.38-.12.58l-.74-.21c0-.3.06-.61.17-.9.11-.4.38-.72.74-.9.49-.15,1.02-.12,1.48.11l2.88,1,.29-.81.74.26-.29.82,1.27.44-.03,1.03h-.02Z"/>
  <path class="cls-1" d="M267.73,188.76l-.37.95-3.25-1.28h0c.21.27.35.59.4.93.06.36.02.73-.11,1.08-.27.69-1.14,1.65-2.96.94l-3.1-1.2.37-.95,2.96,1.17c.84.33,1.67.3,2.02-.6.21-.58.03-1.24-.45-1.65-.12-.11-.27-.19-.43-.24l-3.14-1.23.37-.95,7.7,3.02h0Z"/>
  <path class="cls-1" d="M256.64,194.16l.67.21v-.03c-.33-.58-.35-1.29-.07-1.9.3-.82,1.21-1.26,2.03-.96.04.02.08.03.12.05,1.23.55,1.42,1.94.54,3.91l.11.04c.54.33,1.25.16,1.59-.39.05-.08.09-.16.12-.26.2-.47.27-.98.21-1.48l.74.07c.07.64-.02,1.29-.3,1.88-.69,1.56-1.93,1.48-2.96,1.01l-1.91-.84c-.41-.18-.83-.34-1.27-.46l.37-.86v.02ZM259.3,195.18c.47-1,.8-2.22-.19-2.67-.44-.24-.99-.07-1.23.36-.02.04-.04.08-.06.12-.26.55-.14,1.21.31,1.62.08.07.17.13.27.18l.89.4v-.02Z"/>
  <path class="cls-1" d="M261.75,200.21l-1.48-.7-.63,1.32-.7-.34.63-1.31-2.72-1.31c-.63-.3-1.06-.3-1.31.21-.09.18-.16.37-.2.56l-.7-.3c.03-.3.12-.59.26-.86.16-.39.47-.68.86-.81.51-.1,1.04,0,1.48.28l2.74,1.33.4-.76.69.34-.37.77,1.2.58-.19.99h0Z"/>
  <path class="cls-1" d="M254.34,201.23c-.41.23-.76.58-.99.99-.35.65-.19,1.14.21,1.35s.8.11,1.4-.43c.79-.74,1.48-.86,2.09-.55.82.49,1.09,1.54.61,2.36-.02.04-.05.08-.07.12-.22.43-.56.78-.96,1.05l-.53-.58c.35-.21.63-.49.83-.85.27-.36.19-.88-.17-1.14-.02-.02-.03-.02-.05-.03-.4-.22-.74,0-1.34.48-.78.68-1.48.89-2.18.49-.86-.47-1.11-1.48-.48-2.64.26-.49.63-.9,1.08-1.2l.56.59h0Z"/>
  <path class="cls-1" d="M256.98,209.19l-1.39-.81-.74,1.26-.67-.39.74-1.26-2.6-1.51c-.61-.35-1.05-.37-1.33.12-.1.17-.18.35-.24.55l-.68-.35c.06-.3.16-.58.33-.84.19-.37.53-.63.92-.74.53-.07,1.05.07,1.48.4l2.64,1.52.43-.74.67.39-.44.74,1.16.67-.3,1h0Z"/>
  <path class="cls-1" d="M248.02,210.1l.63.3h0c-.24-.63-.16-1.33.2-1.88.41-.77,1.37-1.08,2.15-.67.04.02.07.04.12.07,1.14.74,1.14,2.12,0,3.95l.1.06c.5.4,1.23.33,1.63-.17.06-.07.11-.14.14-.22.27-.44.42-.95.41-1.48l.69.16c0,.64-.2,1.28-.55,1.82-.91,1.48-2.12,1.19-3.07.59l-1.77-1.11c-.38-.24-.77-.45-1.19-.63l.49-.79h.02ZM250.52,211.48c.61-.92,1.1-2.1.18-2.68-.4-.3-.96-.21-1.26.19-.02.03-.05.07-.07.11-.33.51-.3,1.17.07,1.65.07.08.16.16.25.22l.83.51h0Z"/>
  <path class="cls-1" d="M250.09,213.95c.55.36,1.02.67,1.48.93l-.49.74-.93-.58v.03c.47.55.54,1.35.15,1.97-.05.08-.12.16-.18.22l-.8-.5c.09-.08.16-.17.22-.27.38-.61.24-1.41-.33-1.86-.12-.12-.23-.21-.36-.3l-2.49-1.7.56-.84,3.18,2.16h0Z"/>
  <path class="cls-1" d="M249.99,220l-1.3-.93-.85,1.19-.63-.44.84-1.19-2.44-1.75c-.57-.4-1-.47-1.33,0-.12.16-.21.34-.28.52l-.65-.4c.09-.3.23-.57.41-.81.21-.35.58-.58.99-.64.52,0,1.02.18,1.42.53l2.49,1.78.5-.7.63.45-.5.7,1.09.77-.38.95h0Z"/>
  <path class="cls-1" d="M243.77,218.1c-.44.16-.84.45-1.14.82-.45.59-.36,1.09,0,1.37s.74.22,1.48-.21c.9-.58,1.62-.62,2.16-.22.73.61.83,1.7.22,2.44-.02.03-.06.07-.08.09-.29.39-.67.69-1.11.89l-.43-.65c.38-.16.71-.41.95-.74.32-.31.33-.83.02-1.15l-.06-.06c-.36-.27-.74-.13-1.39.27-.89.55-1.57.65-2.22.15-.78-.59-.87-1.62-.07-2.68.32-.44.76-.79,1.25-1.02l.42.69h0Z"/>
  <path class="cls-1" d="M243.05,226.44l-2.62-1.3c-.58-.28-1.11-.55-1.62-.84h0c.35.47.68,1,1.01,1.53l1.56,2.56-.55.64-2.72-1.17c-.64-.28-1.19-.55-1.7-.82h0c.39.48.75.97,1.09,1.48l1.61,2.44-.66.74-3.05-5.02.6-.69,2.58,1.09c.58.25,1.15.53,1.71.83h0c-.39-.51-.74-1.05-1.06-1.6l-1.42-2.42.61-.69,5.33,2.38-.69.86v-.02Z"/>
  <path class="cls-1" d="M233.77,228.54l4.08,3.83-.69.74-4.12-3.83.74-.74h0ZM238.22,234.27c-.26-.24-.27-.63-.03-.89.24-.26.63-.27.89-.03h0c.25.23.26.62.03.86l-.03.03c-.23.25-.62.26-.86.02h0Z"/>
  <path class="cls-1" d="M236.45,236.11l-1.14-1.13-1.01,1.05-.55-.54,1.01-1.05-2.16-2.11c-.49-.49-.91-.62-1.31-.21-.14.14-.26.3-.36.47l-.58-.49c.13-.28.31-.53.54-.74.27-.3.67-.49,1.07-.48.52.07.99.33,1.32.74l2.17,2.13.61-.62.55.55-.61.62.96.94-.51.89v-.02Z"/>
  <path class="cls-1" d="M235.44,238.57l-.74.69-2.41-2.53h0c.08.34.07.69-.03,1.02-.1.35-.29.67-.55.92-.54.52-1.73,1-3.06-.4l-2.26-2.39.74-.7,2.22,2.33c.62.66,1.39.98,2.08.32.44-.44.56-1.11.29-1.68-.07-.15-.16-.29-.28-.4l-2.33-2.44.74-.7,5.61,5.95h0Z"/>
  <path class="cls-1" d="M227.61,244.35l-1.05-1.22-1.11.95-.5-.59,1.11-.94-1.96-2.3c-.45-.53-.85-.7-1.28-.33-.16.12-.3.27-.4.44l-.54-.55c.16-.27.35-.5.6-.69.3-.28.7-.42,1.11-.39.51.12.95.42,1.24.85l1.98,2.34.66-.56.5.59-.66.56.87,1.02-.58.82h0Z"/>
  <path class="cls-1" d="M226.38,246.7l-.79.63-2.16-2.74h0c.06.35,0,.69-.12,1.01-.13.35-.35.64-.63.87-.58.47-1.81.85-3.01-.66l-2.07-2.61.8-.63,2,2.52c.55.74,1.29,1.09,2.04.5.48-.4.66-1.06.44-1.65-.05-.16-.13-.3-.25-.42l-2.09-2.64.79-.63,5.08,6.45h0Z"/>
  <path class="cls-1" d="M217.65,246.42c-.51-.85-1.61-1.12-2.45-.62-.08.05-.16.11-.24.17-.44.29-.81.67-1.09,1.12l-.56-.49c.33-.54.77-1.01,1.3-1.37,1.1-.91,2.73-.76,3.65.34.08.1.16.21.23.33.99,1.37.96,3.03-.35,3.98-1.48,1.07-2.82.06-3.42-.77-.09-.13-.17-.26-.25-.4l3.18-2.28v-.02ZM215.66,248.75c.4.72,1.3.97,2.02.57.03-.02.07-.04.09-.06.65-.56.77-1.51.3-2.22l-2.4,1.71h0Z"/>
  <path class="cls-1" d="M212.57,251.4c.39.61.74,1.08,1.02,1.51l-.74.49-.55-.78h0c.02.81-.4,1.57-1.1,1.98-1.14.74-2.61.3-3.52-1.14-1.08-1.7-.58-3.19.54-3.9.57-.4,1.3-.46,1.93-.18h0l-1.63-2.57.85-.54,3.21,5.11v.02ZM210.92,250.66c-.08-.12-.16-.22-.26-.33-.52-.5-1.32-.58-1.93-.18-.91.58-.96,1.65-.27,2.73.6.95,1.61,1.44,2.52.86.62-.41.87-1.19.63-1.89-.04-.14-.1-.27-.17-.4l-.51-.81h0Z"/>
  <path class="cls-1" d="M209.48,258.56l-.87.52-4.17-7.07.88-.52,4.17,7.07Z"/>
  <path class="cls-1" d="M200.61,254.15l.41.58h0c.09-.67.5-1.24,1.09-1.56.73-.48,1.72-.27,2.2.47.02.04.05.08.07.12.66,1.19-.03,2.41-1.93,3.45l.05.1c.24.59.91.89,1.51.65.08-.03.16-.07.23-.12.45-.25.82-.63,1.08-1.07l.53.48c-.33.56-.8,1.01-1.37,1.32-1.48.83-2.43,0-2.96-.98l-1.01-1.84c-.21-.4-.46-.77-.74-1.13l.84-.47h0ZM202.1,256.58c.99-.52,1.99-1.3,1.48-2.22-.21-.45-.75-.66-1.21-.44-.03.02-.07.03-.11.06-.54.28-.84.88-.74,1.48.02.12.05.22.11.32l.47.81h0Z"/>
  <path class="cls-1" d="M201.07,260.24l-2.58-2.4c-.27-.27-.6-.61-.83-.86h0c.06.35.15.78.2,1.2l.48,3.43-.96.48-.42-4.25c-.21-2.04-.2-3.14.15-3.98.17-.44.45-.84.82-1.14l.62.65c-.25.24-.44.52-.58.84-.19.44-.28.92-.26,1.4,0,.08,0,.16,0,.26.05.07.12.15.18.21l4.15,3.7-.98.49h0Z"/>
  <path class="cls-1" d="M192.59,258.15c.12.35.33.89.53,1.35l2.67,6.21-.92.4-1.38-3.23h0c-.1.77-.62,1.42-1.35,1.7-1.28.55-2.63-.13-3.29-1.7-.78-1.84,0-3.25,1.13-3.75.7-.35,1.53-.26,2.14.23h0l-.32-.87.81-.33h0ZM192.51,260.61c-.06-.12-.12-.22-.19-.32-.43-.58-1.21-.79-1.87-.49-.98.41-1.22,1.48-.74,2.64.44,1.04,1.35,1.69,2.35,1.26.67-.3,1.06-1.02.93-1.75-.02-.14-.06-.28-.11-.4l-.36-.92h0Z"/>
  <path class="cls-1" d="M183.05,263.6c-.2-.54-.39-1.01-.57-1.42l.84-.31.37.84h0c.13-.75.65-1.37,1.37-1.62.82-.31,1.98-.22,2.67,1.62l1.14,3.06-.95.35-1.08-2.9c-.38-1-.92-1.56-1.79-1.23-.55.22-.92.75-.93,1.34,0,.17.04.35.1.52l1.2,3.21-.95.36-1.41-3.83h0Z"/>
  <path class="cls-1" d="M182.41,269.79l-.5-1.52-1.38.46-.25-.74,1.38-.46-.95-2.86c-.22-.66-.54-.98-1.06-.79-.19.06-.37.14-.54.25l-.28-.7c.24-.19.51-.34.81-.42.38-.16.81-.13,1.18.07.43.3.72.75.84,1.26l.96,2.89.82-.26.25.74-.83.27.42,1.28-.86.56h0Z"/>
  <path class="cls-1" d="M179.03,270.88l-.46-1.54-1.4.42-.22-.74,1.39-.42-.87-2.89c-.2-.67-.5-.99-1.05-.82-.19.06-.37.14-.54.24l-.26-.74c.25-.18.53-.32.82-.4.37-.12.77-.07,1.11.12.42.31.7.77.8,1.28l.88,2.92.83-.26.22.74-.83.26.4,1.28-.81.55v.02Z"/>
  <path class="cls-1" d="M170.73,268.62c-.51-1.42.22-2.98,1.65-3.49.1-.03.2-.07.3-.09,1.42-.39,2.87.44,3.27,1.85.02.08.04.16.06.25.51,1.42-.23,2.98-1.65,3.49-.09.03-.18.06-.27.08-1.41.4-2.87-.41-3.28-1.82-.02-.09-.05-.18-.07-.27h0ZM175.01,267.45c-.31-1.19-1.23-1.9-2.22-1.65s-1.42,1.32-1.09,2.53c.24.91,1,1.96,2.16,1.65s1.42-1.51,1.14-2.54h0Z"/>
  <path class="cls-1" d="M170.03,270.02c.12.57.23,1.03.35,1.48l-.88.19-.25-.9h0c-.22.73-.83,1.28-1.58,1.42-.74.16-2.02-.03-2.44-1.92l-.69-3.26.99-.21.68,3.15c.18.88.67,1.55,1.61,1.35.61-.15,1.06-.67,1.12-1.3.02-.16.02-.32,0-.48l-.7-3.28.99-.21.8,3.98h0Z"/>
  <path class="cls-1" d="M160.38,270.26l.44-2.54,1.03-.15-1.48,8.09-1.2.17-3.76-7.33,1.06-.16,1.18,2.3,2.72-.4h0ZM157.96,271.41l1.08,2.11c.25.48.43.91.61,1.35h0c.05-.48.11-.96.18-1.48l.43-2.34-2.3.36h0Z"/>
  <path class="cls-1" d="M155.19,272.62c.05.58.11,1.05.19,1.48l-.9.09-.15-.91h0c-.31.7-.98,1.18-1.75,1.23-.74.07-2.01-.27-2.22-2.18l-.32-3.33,1-.1.31,3.2c.09.91.49,1.61,1.48,1.52.63-.08,1.13-.55,1.26-1.17.02-.16.02-.31,0-.48l-.33-3.35,1.01-.1.4,4.08h0Z"/>
  <path class="cls-1" d="M143.94,272.2c-.21-1.49.84-2.87,2.34-3.08.1-.02.2-.02.3-.02,1.46-.1,2.72,1.01,2.82,2.47v.26c.21,1.49-.83,2.86-2.32,3.07-.1.02-.2.02-.3.02-1.46.11-2.72-1-2.83-2.45,0-.09,0-.19,0-.28h0ZM148.38,271.92c-.06-1.23-.81-2.12-1.8-2.07s-1.65,1-1.58,2.26c.04.94.58,2.12,1.78,2.06s1.65-1.19,1.61-2.25h0Z"/>
  <path class="cls-1" d="M141.85,276.58v-1.61h-1.48v-.74h1.48l-.05-3.01c0-.69-.21-1.09-.78-1.07-.2,0-.4.02-.58.07l-.06-.74c.29-.11.59-.16.9-.16.41-.03.81.12,1.11.4.32.42.47.95.41,1.48l.05,3.05h.86v.77h-.86v1.34l-.99.2h0Z"/>
  <path class="cls-1" d="M139.36,277.6h-1.01l.07-3.49h0c-.18.3-.44.54-.74.7-.32.18-.67.27-1.05.26-.74,0-1.94-.5-1.9-2.44l.07-3.33h1.01l-.07,3.21c0,.9.3,1.66,1.26,1.69.63,0,1.18-.4,1.38-.99.06-.16.08-.32.08-.49l.07-3.37h1.02l-.21,8.22h0Z"/>
  <path class="cls-1" d="M132.84,271.82c.15-.98-.53-1.89-1.51-2.04-.09-.02-.19-.02-.28-.02-.53-.05-1.06,0-1.56.18l-.12-.74c.6-.21,1.24-.28,1.88-.22,1.43,0,2.59,1.17,2.59,2.6,0,.13,0,.26-.03.4-.11,1.68-1.19,2.96-2.82,2.83-1.82-.12-2.22-1.75-2.13-2.78,0-.21.05-.36.07-.47l3.92.26h0ZM129.81,272.34c-.15.81.38,1.58,1.18,1.73.04,0,.08.02.12.02.87,0,1.59-.67,1.66-1.55l-2.96-.2h0Z"/>
  <path class="cls-1" d="M127.85,272.68c-.07.66-.11,1.22-.12,1.75l-.89-.09.07-1.09h-.04c-.26.67-.93,1.11-1.65,1.06-.1,0-.2-.02-.29-.06l.1-.95c.12.03.22.06.34.07.72.03,1.34-.46,1.48-1.16.04-.16.07-.31.09-.48l.3-2.96,1,.1-.37,3.82h0Z"/>
  <path class="cls-1" d="M122.8,269.28c-.36-.3-.8-.51-1.27-.59-.74-.11-1.14.21-1.2.67s.18.79.88,1.17c.95.5,1.33,1.12,1.23,1.79-.17.94-1.08,1.56-2.01,1.37-.04,0-.09-.02-.13-.03-.48-.07-.92-.26-1.31-.54l.36-.69c.3.26.68.43,1.08.48.6.09.98-.21,1.04-.62s-.24-.74-.91-1.09c-.91-.5-1.33-1.06-1.2-1.88.14-.98.99-1.56,2.3-1.36.54.07,1.05.28,1.48.61l-.34.72h0Z"/>
  <path class="cls-1" d="M116.28,274.51l.28-1.57-1.43-.26.13-.74,1.43.26.52-2.96c.12-.68,0-1.1-.56-1.2-.2-.03-.4-.05-.59-.03l.09-.74c.3-.06.61-.06.91,0,.41.05.78.27,1,.62.23.46.28.99.14,1.48l-.54,3,.86.15-.13.74-.86-.15-.23,1.32-1.03.1v-.02Z"/>
  <path class="cls-1" d="M109.92,268.78c.19-1.5,1.56-2.56,3.05-2.37.1,0,.19.03.29.05,1.44.29,2.37,1.69,2.08,3.13-.02.08-.04.16-.07.25-.19,1.5-1.55,2.56-3.05,2.37-.1,0-.19-.02-.29-.05-1.44-.27-2.38-1.66-2.1-3.1.02-.09.04-.18.07-.27h0ZM114.27,269.64c.26-1.19-.24-2.22-1.21-2.44s-1.85.54-2.11,1.77c-.2.92,0,2.22,1.19,2.44s1.91-.72,2.13-1.77h0Z"/>
  <path class="cls-1" d="M108.75,269.5c-.16.64-.29,1.19-.38,1.71l-.86-.22.24-1.07h-.04c-.36.63-1.09.96-1.8.81-.1-.02-.19-.06-.27-.11l.24-.93c.1.06.21.1.33.12.71.15,1.41-.25,1.65-.93.07-.14.12-.29.16-.44l.74-2.89.98.25-.95,3.72h-.02Z"/>
  <path class="cls-1" d="M104.23,270.15l-.26-3.51v-1.2h0c-.19.3-.42.67-.67,1.02l-2.03,2.83-1.03-.3,2.58-3.4c1.23-1.65,1.98-2.44,2.82-2.82.43-.21.9-.31,1.37-.29v.9c-.35,0-.67.09-.99.23-.44.19-.83.48-1.14.84-.06.06-.11.13-.14.21-.02.09-.02.18,0,.27l.55,5.52-1.06-.31h0Z"/>
  <path class="cls-1" d="M95.89,269.22l.52-1.51-1.37-.48.26-.74,1.38.48.99-2.86c.23-.65.17-1.09-.37-1.28-.19-.07-.38-.12-.58-.12l.21-.74c.3,0,.61.06.9.16.4.11.72.38.91.74.15.49.11,1.01-.11,1.48l-.99,2.89.81.28-.26.74-.82-.28-.44,1.31-1.03-.07h0Z"/>
  <path class="cls-1" d="M93.21,269.36l-.95-.36,1.25-3.25h0c-.27.21-.59.35-.94.4-.36.07-.73.02-1.07-.11-.74-.26-1.65-1.14-.96-2.96l1.19-3.1.95.37-1.17,3.03c-.33.84-.29,1.67.61,2.01.58.21,1.24.02,1.64-.46.11-.12.19-.26.25-.42l1.21-3.15.95.36-2.96,7.65h0Z"/>
  <path class="cls-1" d="M87.79,258.29l-.21.67h0c.6-.33,1.33-.35,1.93-.03.83.29,1.27,1.2.97,2.02-.02.04-.03.08-.05.12-.54,1.24-1.93,1.43-3.91.56l-.04.11c-.33.54-.16,1.24.38,1.57.08.05.17.09.26.12.47.2.98.27,1.48.21l-.06.7c-.64.08-1.29-.02-1.88-.28-1.57-.68-1.48-1.93-1.04-2.96l.84-1.92c.19-.41.34-.83.46-1.27l.86.36h0ZM86.77,260.96c1,.47,2.22.79,2.68-.2.23-.44.07-1-.38-1.23-.03-.02-.07-.03-.12-.05-.55-.26-1.2-.12-1.61.32-.07.08-.13.17-.18.27l-.4.89h0Z"/>
  <path class="cls-1" d="M81.76,263.43l.69-1.48-1.31-.62.33-.7,1.31.63,1.3-2.72c.3-.63.29-1.06-.22-1.31-.18-.08-.37-.15-.56-.19l.28-.74c.3.02.6.12.87.26.38.16.67.47.81.86.09.51,0,1.04-.27,1.48l-1.31,2.75.74.37-.33.7-.74-.38-.58,1.21-1.01-.12h0Z"/>
  <path class="cls-1" d="M80.67,256.02c-.24-.41-.58-.76-1-.99-.65-.35-1.14-.18-1.35.22s-.1.8.43,1.4c.74.79.88,1.48.56,2.09-.49.82-1.54,1.09-2.36.61-.04-.02-.07-.05-.11-.07-.43-.22-.79-.55-1.05-.95l.57-.54c.21.35.5.63.86.82.36.27.88.19,1.14-.17.02-.02.02-.03.03-.05.21-.4,0-.74-.49-1.34-.69-.78-.9-1.44-.5-2.17.46-.87,1.48-1.13,2.63-.49.49.25.91.62,1.2,1.07l-.58.57h.02Z"/>
  <path class="cls-1" d="M72.75,258.7l.8-1.4-1.27-.74.39-.67,1.27.74,1.48-2.61c.34-.61.37-1.05-.12-1.33-.16-.1-.35-.18-.54-.23l.34-.69c.3.06.58.16.84.33.37.18.64.52.74.91.07.53-.07,1.05-.38,1.48l-1.48,2.65.74.43-.39.67-.74-.43-.67,1.16-1.01-.28h0Z"/>
  <path class="cls-1" d="M71.79,249.72l-.3.64h0c.63-.25,1.33-.17,1.89.19.78.4,1.08,1.37.67,2.15-.02.04-.04.08-.07.12-.74,1.14-2.12,1.14-3.95,0l-.06.1c-.4.49-.33,1.21.16,1.61.07.06.16.12.25.16.44.27.95.42,1.48.41l-.16.69c-.64,0-1.28-.19-1.82-.54-1.48-.91-1.19-2.11-.61-3.06l1.1-1.78c.25-.38.46-.77.64-1.18l.77.49h0ZM70.42,252.23c.93.61,2.11,1.1,2.68.18.3-.4.21-.96-.19-1.26-.03-.02-.07-.05-.11-.07-.51-.33-1.17-.3-1.65.09-.09.07-.16.15-.22.25l-.51.82v-.02Z"/>
  <path class="cls-1" d="M67.94,251.82c-.36.55-.67,1.03-.92,1.48l-.74-.49.58-.93h-.03c-.55.47-1.34.54-1.97.16-.08-.06-.16-.12-.22-.19l.54-.79c.08.08.17.15.26.21.62.38,1.42.23,1.86-.33.11-.12.21-.23.3-.36l1.65-2.49.84.56-2.14,3.17v-.02Z"/>
  <path class="cls-1" d="M61.91,251.76l.92-1.31-1.19-.84.44-.63,1.19.84,1.74-2.46c.4-.56.47-1,0-1.33-.16-.12-.34-.21-.53-.28l.4-.65c.3.08.57.22.81.4.35.21.58.58.65.99,0,.52-.18,1.02-.52,1.42l-1.76,2.49.74.5-.47.63-.74-.5-.74,1.09-.98-.36.02-.02Z"/>
  <path class="cls-1" d="M63.76,245.52c-.17-.44-.46-.83-.83-1.14-.59-.44-1.09-.35-1.37,0s-.22.77.21,1.48c.58.89.63,1.61.23,2.16-.6.73-1.69.85-2.43.24-.03-.03-.07-.06-.11-.09-.39-.29-.69-.67-.89-1.1l.65-.44c.16.38.41.71.74.95.32.32.84.32,1.16,0,.02-.02.03-.03.04-.05.27-.37.13-.74-.28-1.39-.55-.88-.66-1.57-.16-2.22.59-.78,1.62-.88,2.68-.08.44.32.8.75,1.03,1.25l-.69.44h.02Z"/>
  <path class="cls-1" d="M55.42,244.87l1.28-2.64c.29-.58.55-1.12.84-1.62h0c-.47.35-1,.68-1.53,1.02l-2.55,1.57-.64-.55,1.16-2.68c.27-.64.54-1.2.81-1.71h0c-.47.4-.96.76-1.48,1.09l-2.43,1.61-.74-.65,5-3.07.74.6-1.09,2.58c-.26.6-.49,1.13-.82,1.72h0c.48-.4.98-.78,1.5-1.14l2.41-1.42.74.6-2.41,5.34-.81-.63.02-.02Z"/>
  <path class="cls-1" d="M47.59,240.03c.21-.25.59-.27.85-.06.02.02.04.03.06.06.26.24.26.64.02.89-.24.26-.64.26-.89.02h0c-.26-.21-.3-.58-.09-.84.02-.02.04-.05.07-.07h0ZM53.3,235.54l-3.81,4.1-.74-.69,3.77-4.1.77.69h0Z"/>
  <path class="cls-1" d="M45.71,238.27l1.13-1.15-1.05-1.01.54-.55,1.02,1.01,2.1-2.16c.49-.49.62-.91.21-1.31-.14-.14-.3-.26-.48-.36l.5-.58c.28.12.53.3.74.53.31.27.49.66.49,1.07-.07.52-.34.99-.74,1.32l-2.12,2.22.62.6-.54.55-.62-.6-.91.93-.9-.5h.02Z"/>
  <path class="cls-1" d="M43.25,237.28l-.7-.74,2.52-2.41h0c-.34.09-.68.09-1.02,0-.35-.1-.67-.3-.92-.55-.52-.54-1.01-1.73.38-3.06l2.36-2.35.7.74-2.32,2.22c-.65.63-.97,1.4-.3,2.08.44.44,1.12.55,1.68.28.15-.07.28-.16.4-.28l2.44-2.34.74.74-5.94,5.66h0Z"/>
  <path class="cls-1" d="M37.44,229.47l1.21-1.05-.93-1.1.59-.5.95,1.1,2.29-1.97c.53-.45.69-.86.33-1.28-.13-.15-.28-.28-.44-.4l.55-.54c.26.16.49.35.69.59.29.3.43.7.4,1.11-.12.51-.41.95-.84,1.25l-2.3,1.99.56.66-.58.5-.57-.66-1.04.91-.84-.61h-.02Z"/>
  <path class="cls-1" d="M35.08,228.26l-.63-.8,2.72-2.17h0c-.35.05-.69,0-1.01-.12-.34-.13-.64-.35-.87-.63-.48-.58-.86-1.81.64-3.02l2.6-2.08.63.79-2.5,2.01c-.74.57-1.09,1.3-.49,2.05.4.48,1.05.65,1.65.44.16-.06.3-.14.43-.26l2.63-2.11.63.79-6.41,5.11h0Z"/>
  <path class="cls-1" d="M35.33,219.52c.85-.51,1.12-1.61.61-2.46-.05-.08-.11-.16-.17-.23-.3-.44-.69-.81-1.14-1.08l.49-.57c.54.33,1.01.77,1.37,1.3.91,1.1.77,2.73-.34,3.65-.1.08-.21.16-.32.23-1.36,1-3.03.98-3.98-.34-1.08-1.48-.07-2.82.74-3.42.13-.09.26-.17.4-.26l2.34,3.18h0ZM32.99,217.55c-.7.37-.98,1.23-.61,1.93.03.06.07.12.11.17.56.64,1.51.77,2.22.29l-1.72-2.4Z"/>
  <path class="cls-1" d="M30.33,214.44c-.61.39-1.08.74-1.48,1.02l-.49-.74.77-.55h0c-.84.05-1.64-.38-2.06-1.1-.74-1.14-.31-2.61,1.12-3.53,1.7-1.09,3.19-.59,3.9.52.4.56.47,1.29.19,1.93h0l2.56-1.65.54.85-5.06,3.25h0ZM31.07,212.79c.12-.08.22-.16.33-.26.49-.53.57-1.32.18-1.93-.58-.91-1.65-.95-2.74-.26-.94.61-1.42,1.62-.85,2.52.41.61,1.19.86,1.88.62.14-.03.27-.09.4-.16l.81-.52h0Z"/>
  <path class="cls-1" d="M23.15,211.4l-.52-.87,7.05-4.2.52.87s-7.05,4.2-7.05,4.2Z"/>
  <path class="cls-1" d="M27.52,202.5l-.58.41h0c.67.09,1.24.49,1.56,1.09.49.74.28,1.73-.46,2.21-.03.02-.07.05-.11.07-1.19.66-2.41-.03-3.46-1.93l-.1.06c-.59.24-.88.91-.65,1.5.03.08.07.16.13.24.26.45.63.82,1.07,1.07l-.48.53c-.56-.32-1.02-.8-1.33-1.37-.83-1.48,0-2.43.97-2.96l1.84-1.01c.4-.21.77-.46,1.13-.74l.47.84h0ZM25.1,203.98c.52.99,1.3,1.99,2.22,1.48.45-.21.65-.74.44-1.19-.02-.04-.04-.07-.07-.12-.27-.54-.88-.85-1.48-.74-.11.02-.21.05-.31.11l-.81.47h0Z"/>
  <path class="cls-1" d="M21.45,203l2.39-2.58c.27-.28.61-.6.86-.84h0c-.35.06-.74.15-1.2.21l-3.42.49-.48-.96,4.24-.44c2.04-.21,3.14-.21,3.98.13.45.16.85.44,1.15.81l-.65.62c-.24-.25-.53-.44-.84-.57-.44-.19-.91-.28-1.39-.26-.09,0-.17,0-.26.03-.07.05-.15.11-.2.18l-3.7,4.17-.48-1.01h0Z"/>
  <path class="cls-1" d="M23.5,194.52c-.36.12-.89.33-1.35.54l-6.2,2.68-.42-.95,3.23-1.4h0c-.77-.09-1.42-.61-1.7-1.34-.55-1.28.11-2.63,1.68-3.29,1.84-.8,3.25-.03,3.75,1.11.35.69.26,1.52-.22,2.13v.03l.86-.33.37.81h0ZM21.02,194.45c.12-.06.22-.12.33-.19.58-.44.77-1.21.48-1.87-.42-.98-1.48-1.21-2.64-.7-1.03.44-1.68,1.35-1.25,2.35.3.67,1.03,1.05,1.76.92.14-.02.27-.06.4-.11l.91-.4h0Z"/>
  <path class="cls-1" d="M18,185.01c.54-.21,1-.4,1.41-.58l.32.84-.83.38h0c.75.13,1.37.65,1.63,1.36.31.81.23,1.98-1.61,2.67l-3.05,1.2-.33-.97,2.9-1.09c.99-.38,1.55-.93,1.22-1.79-.22-.55-.75-.91-1.34-.92-.17,0-.35.03-.52.1l-3.21,1.22-.4-.97,3.8-1.42h0Z"/>
  <path class="cls-1" d="M11.84,184.39l1.52-.51-.47-1.37.74-.26.47,1.38,2.86-.96c.66-.22.97-.54.79-1.07-.07-.19-.15-.36-.26-.54l.7-.29c.19.24.33.52.42.81.15.38.13.81-.06,1.18-.3.43-.74.72-1.25.84l-2.89.97.27.82-.74.25-.27-.82-1.28.43-.57-.86h0Z"/>
  <path class="cls-1" d="M10.71,180.96l1.53-.48-.4-1.39.74-.22.42,1.39,2.89-.89c.66-.2.98-.5.81-1.05-.06-.19-.14-.38-.24-.55l.74-.26c.18.25.31.53.4.82.14.39.11.81-.09,1.18-.3.42-.77.7-1.28.8l-2.92.93.26.83-.74.23-.26-.86-1.28.4-.58-.87h0Z"/>
  <path class="cls-1" d="M12.91,172.69c1.42-.52,2.98.21,3.51,1.62.03.09.07.18.08.28.4,1.42-.43,2.89-1.85,3.28-.08.02-.16.04-.24.06-1.42.53-2.99-.2-3.51-1.61-.03-.08-.06-.16-.08-.25-.43-1.39.35-2.87,1.75-3.3.11-.03.22-.06.34-.08h0ZM14.12,176.96c1.19-.32,1.89-1.23,1.65-2.22s-1.33-1.41-2.54-1.08c-.91.25-1.96,1.01-1.65,2.17s1.52,1.4,2.54,1.13h0Z"/>
  <path class="cls-1" d="M11.49,172.02c-.56.12-1.02.23-1.48.36l-.19-.88.89-.26h0c-.73-.22-1.28-.83-1.42-1.58-.16-.74,0-2.02,1.91-2.44l3.26-.74.21,1-3.15.68c-.88.19-1.54.68-1.34,1.62.16.61.68,1.05,1.31,1.11.16.02.32.02.48,0l3.28-.74.21.99-3.98.86h0Z"/>
  <path class="cls-1" d="M11.24,162.38l2.54.44.16,1.03-8.09-1.48-.18-1.2,7.31-3.78.16,1.06-2.3,1.19.4,2.74h0ZM10.09,159.97l-2.1,1.09c-.48.26-.91.43-1.35.62h0c.48.04.96.11,1.48.18l2.34.42-.37-2.3Z"/>
  <path class="cls-1" d="M8.87,157.19c-.58.06-1.05.12-1.48.2l-.09-.9.91-.16h0c-.71-.29-1.2-.95-1.28-1.72-.07-.74.26-2.01,2.16-2.22l3.33-.33.11,1-3.2.33c-.9.09-1.61.5-1.48,1.48.09.6.54,1.09,1.14,1.22.16.02.32.02.48,0l3.34-.34.11,1.01-4.04.41h0Z"/>
  <path class="cls-1" d="M9.23,145.94c1.49-.21,2.87.82,3.09,2.31.02.1.02.2.02.3.09,1.47-1.02,2.73-2.49,2.83h-.25c-1.5.21-2.88-.82-3.1-2.32-.02-.1-.02-.19-.02-.29-.11-1.46.99-2.72,2.44-2.83.1,0,.19,0,.29,0h0ZM9.53,150.38c1.23-.07,2.11-.82,2.06-1.81s-1-1.65-2.26-1.57c-.95.05-2.12.59-2.05,1.79s1.2,1.65,2.26,1.58v.02Z"/>
  <path class="cls-1" d="M4.86,143.83h1.61v-1.48h.77v1.48l3.02-.06c.69,0,1.08-.21,1.07-.78,0-.2-.03-.4-.08-.58l.74-.06c.11.29.16.59.16.9.02.41-.12.81-.4,1.11-.42.32-.95.47-1.48.41l-3.05.06v.86h-.77v-.86h-1.34l-.24-.99h0Z"/>
  <path class="cls-1" d="M3.8,141.38v-1.01l3.48.06h0c-.31-.17-.57-.43-.74-.74-.18-.32-.27-.67-.26-1.05,0-.74.49-1.94,2.42-1.91l3.33.06v1.01l-3.15-.08c-.91,0-1.67.31-1.69,1.27,0,.61.38,1.16.95,1.38.16.06.32.08.48.07l3.37.07v1.01l-8.19-.15h0Z"/>
  <path class="cls-1" d="M9.56,134.83c.98.15,1.89-.53,2.03-1.51.02-.1.02-.2.02-.3.05-.53-.02-1.06-.19-1.57l.74-.12c.21.6.29,1.24.24,1.88,0,1.43-1.16,2.6-2.59,2.6-.12,0-.25,0-.36-.02-1.69-.11-2.96-1.18-2.86-2.81.11-1.82,1.75-2.22,2.77-2.15.16,0,.32.03.48.06l-.27,3.93v.02ZM9.02,131.8c-.81-.15-1.57.39-1.72,1.19,0,.04-.02.08-.02.12.02.87.68,1.59,1.56,1.65l.18-2.96h0Z"/>
  <path class="cls-1" d="M8.67,129.84c-.66-.07-1.22-.11-1.75-.12l.09-.89,1.09.07v-.04c-.67-.26-1.11-.93-1.07-1.65,0-.1.03-.19.07-.28l.95.09c-.03.11-.06.22-.07.34-.04.72.46,1.35,1.17,1.48.16.04.3.07.47.09l2.96.29-.09,1-3.83-.36h0Z"/>
  <path class="cls-1" d="M12.03,124.79c.3-.36.51-.81.59-1.28.11-.74-.21-1.13-.67-1.19s-.78.18-1.16.89c-.49.95-1.11,1.34-1.78,1.24-.93-.16-1.56-1.06-1.38-1.99,0-.05.02-.1.03-.15.07-.48.25-.92.54-1.31l.69.35c-.26.31-.42.68-.48,1.08-.08.6.21.98.63,1.04s.74-.24,1.09-.91c.49-.91,1.05-1.33,1.87-1.22.97.14,1.56.99,1.37,2.3-.07.54-.28,1.05-.6,1.48l-.73-.34h0Z"/>
  <path class="cls-1" d="M6.8,118.28l1.58.26.25-1.43.74.13-.26,1.43,2.96.51c.69.12,1.1,0,1.2-.57.03-.2.05-.4.03-.59l.74.08c.06.3.06.62,0,.91-.04.41-.26.77-.61,1-.46.23-.99.28-1.48.14l-3-.51-.15.85-.74-.13.15-.85-1.33-.23-.1-1.02h.02Z"/>
  <path class="cls-1" d="M12.5,111.88c1.5.18,2.57,1.55,2.39,3.05,0,.1-.03.2-.05.29-.29,1.44-1.69,2.38-3.13,2.09-.08-.02-.16-.03-.23-.06-1.5-.18-2.57-1.54-2.39-3.04,0-.1.02-.19.05-.29.27-1.44,1.65-2.39,3.09-2.12.09.02.18.04.27.07h0ZM11.65,116.24c1.2.26,2.22-.26,2.44-1.23s-.55-1.85-1.78-2.1c-.93-.2-2.22,0-2.44,1.2s.73,1.91,1.78,2.13h0Z"/>
  <path class="cls-1" d="M11.76,110.73c-.63-.16-1.19-.28-1.7-.37l.21-.86,1.07.23v-.04c-.63-.36-.95-1.09-.81-1.79.02-.1.06-.19.11-.27l.92.23c-.05.11-.09.21-.11.33-.15.71.26,1.41.94,1.64.15.07.3.12.45.16l2.89.74-.2.95-3.77-.92v-.02Z"/>
  <path class="cls-1" d="M11.09,106.2l3.51-.27h1.2c-.29-.19-.67-.42-1.02-.67l-2.85-1.96.29-1.04,3.42,2.56c1.65,1.22,2.44,1.97,2.84,2.8.22.43.32.91.29,1.38h-.89c-.02-.35-.1-.67-.24-.99-.19-.44-.49-.82-.85-1.14-.06-.06-.13-.11-.21-.14-.09-.02-.18-.02-.27,0l-5.52.58.3-1.12h0Z"/>
  <path class="cls-1" d="M12,97.87l1.52.52.47-1.37.74.25-.47,1.37,2.86.97c.65.22,1.09.16,1.28-.38.07-.19.11-.38.12-.58l.74.2c0,.3-.05.61-.16.9-.11.4-.38.72-.74.91-.49.16-1.01.12-1.48-.09l-2.89-.98-.28.81-.74-.25.28-.82-1.28-.43.02-1.03h0Z"/>
  <path class="cls-1" d="M11.84,95.19l.36-.95,3.26,1.23h0c-.22-.26-.36-.59-.4-.93-.07-.36-.03-.73.1-1.07.26-.7,1.13-1.66,2.96-.98l3.11,1.19-.36.95-3-1.14c-.84-.32-1.67-.28-2.01.62-.21.58-.02,1.24.46,1.64.13.11.27.18.43.24l3.16,1.2-.36.95-7.7-2.94h0Z"/>
  <path class="cls-1" d="M22.93,89.69l-.74-.17h0c.34.58.37,1.29.09,1.9-.3.83-1.2,1.27-2.04.98-.04-.02-.07-.03-.12-.05-1.24-.54-1.44-1.93-.58-3.91l-.11-.04c-.54-.33-1.26-.15-1.58.4-.05.08-.08.16-.12.26-.2.47-.26.98-.2,1.48l-.7-.05c-.09-.64,0-1.29.27-1.88.67-1.57,1.92-1.48,2.96-1.05l1.92.83c.41.18.84.34,1.28.45l-.34.86v-.02ZM20.26,88.69c-.47,1-.78,2.22.21,2.68.44.23.99.07,1.22-.38.02-.04.04-.08.05-.12.26-.55.12-1.2-.33-1.61-.08-.07-.17-.14-.27-.18l-.89-.39h0Z"/>
  <path class="cls-1" d="M17.75,83.68l1.48.69.62-1.32.69.33-.62,1.32,2.73,1.28c.63.3,1.06.28,1.31-.23.09-.18.15-.37.18-.56l.74.29c-.03.3-.12.6-.26.87-.15.38-.46.67-.85.81-.51.1-1.04,0-1.48-.26l-2.76-1.3-.37.78-.7-.33.37-.78-1.21-.58.12-1.01h0Z"/>
  <path class="cls-1" d="M25.15,82.59c.41-.24.75-.58.99-.99.35-.66.18-1.14-.23-1.35s-.8-.1-1.4.44c-.78.74-1.48.88-2.08.56-.82-.48-1.1-1.52-.63-2.35.02-.04.05-.08.08-.12.22-.43.54-.79.95-1.05l.54.57c-.35.21-.64.5-.84.86-.26.37-.18.88.18,1.14.02.02.03.02.06.03.41.21.74,0,1.34-.49.74-.69,1.48-.9,2.17-.51.86.46,1.13,1.48.5,2.63-.25.49-.62.91-1.07,1.21l-.55-.6h0Z"/>
  <path class="cls-1" d="M22.43,74.68l1.39.78.74-1.28.67.39-.74,1.27,2.63,1.48c.6.34,1.05.37,1.32-.12.1-.17.18-.35.23-.55l.69.34c-.05.3-.16.59-.33.85-.18.37-.51.64-.91.74-.53.07-1.05-.07-1.48-.38l-2.66-1.48-.43.74-.62-.37.43-.74-1.17-.67.24-1h0Z"/>
  <path class="cls-1" d="M31.38,73.7l-.64-.3h0c.25.63.18,1.33-.18,1.89-.41.78-1.37,1.09-2.16.67-.03-.02-.07-.04-.11-.06-1.15-.74-1.15-2.12,0-3.95l-.1-.06c-.49-.4-1.23-.32-1.62.17-.06.07-.11.15-.15.23-.27.44-.41.95-.4,1.48l-.69-.15c0-.65.19-1.28.54-1.83.9-1.48,2.11-1.2,3.06-.62l1.79,1.09c.38.24.77.44,1.19.62l-.53.8h0ZM28.85,72.34c-.6.93-1.09,2.11-.16,2.68.4.3.97.21,1.26-.2.02-.03.05-.07.07-.12.33-.51.29-1.18-.1-1.65-.07-.08-.15-.16-.25-.21l-.83-.51h0Z"/>
  <path class="cls-1" d="M29.28,69.84c-.55-.36-1.04-.67-1.48-.92l.49-.74.94.57v-.03c-.48-.55-.55-1.34-.17-1.97.06-.08.12-.16.18-.22l.81.54c-.09.07-.16.16-.22.26-.37.62-.22,1.42.34,1.86.12.12.24.21.37.3l2.49,1.64-.55.84-3.19-2.12h0Z"/>
  <path class="cls-1" d="M29.32,63.8l1.32.92.84-1.19.63.44-.84,1.19,2.47,1.73c.57.4,1,.46,1.33,0,.12-.16.21-.33.28-.52l.65.4c-.08.3-.21.57-.4.81-.21.35-.58.59-.99.66-.52,0-1.02-.18-1.42-.52l-2.5-1.75-.49.74-.63-.44.49-.74-1.1-.74.35-1h.02Z"/>
  <path class="cls-1" d="M35.55,65.65c.44-.17.83-.46,1.13-.84.44-.59.35-1.09,0-1.37s-.77-.22-1.48.22c-.89.59-1.61.63-2.16.24-.73-.61-.82-1.7-.21-2.43.02-.02.04-.05.07-.07.29-.4.68-.72,1.14-.92l.44.64c-.38.16-.71.41-.95.74-.32.31-.32.83,0,1.15.02.02.04.04.06.06.37.28.74.13,1.4-.28.87-.56,1.56-.67,2.22-.17.79.58.89,1.61.1,2.68-.32.44-.75.8-1.24,1.04l-.49-.68h-.02Z"/>
  <path class="cls-1" d="M36.25,57.28l2.65,1.28c.58.28,1.12.54,1.62.84h0c-.35-.47-.68-1-1.02-1.52l-1.58-2.54.55-.65,2.69,1.14c.64.28,1.2.54,1.71.81h0c-.4-.47-.77-.96-1.1-1.48l-1.63-2.43.65-.74,3.1,5-.59.74-2.6-1.2c-.59-.24-1.17-.51-1.72-.81h0c.39.51.75,1.04,1.08,1.58l1.48,2.4-.6.74-5.42-2.35.74-.79h0Z"/>
  <path class="cls-1" d="M40.99,49.44c.25.22.27.6.05.85l-.05.05c-.23.25-.62.26-.86.02l-.02-.02c-.25-.25-.25-.64,0-.89h0c.23-.25.62-.26.86-.02l.02.02h0ZM45.49,55.13l-4.12-3.79.69-.74,4.12,3.79-.69.74Z"/>
  <path class="cls-1" d="M42.72,47.56l1.15,1.12,1-1.05.56.54-1.01,1.05,2.17,2.08c.49.48.91.62,1.31.21.14-.14.26-.3.35-.48l.58.49c-.13.28-.3.53-.53.74-.27.31-.66.49-1.07.49-.52-.07-.99-.34-1.32-.74l-2.22-2.12-.6.63-.56-.54.61-.62-.97-.93.53-.89h0Z"/>
  <path class="cls-1" d="M43.72,45.08l.74-.7,2.43,2.51h0c-.09-.34-.09-.68,0-1.02.1-.35.29-.67.55-.93.54-.52,1.72-1.02,3.06.36l2.3,2.4-.74.74-2.22-2.3c-.62-.65-1.4-.96-2.08-.3-.44.44-.54,1.12-.27,1.68.07.15.16.28.29.4l2.37,2.4-.74.74-5.69-5.96v-.02Z"/>
  <path class="cls-1" d="M51.5,39.21l1.02,1.23,1.1-.95.51.59-1.1.95,1.98,2.27c.46.53.86.69,1.28.33.15-.13.29-.28.4-.44l.54.55c-.16.26-.35.5-.59.69-.3.29-.7.44-1.11.4-.51-.12-.95-.41-1.25-.84l-2.01-2.3-.65.56-.51-.58.66-.56-.88-1.01.61-.88h0Z"/>
  <path class="cls-1" d="M52.7,36.86l.79-.62,2.22,2.72h0c-.06-.34-.02-.69.11-1.01.13-.35.35-.65.63-.88.58-.48,1.81-.86,3.03.63l2.08,2.59-.79.63-2.02-2.54c-.57-.69-1.31-1.08-2.06-.48-.48.4-.64,1.06-.42,1.65.06.16.14.3.26.42l2.12,2.63-.79.63-5.15-6.39h0Z"/>
  <path class="cls-1" d="M61.41,37.1c.52.85,1.63,1.11,2.48.58.08-.05.16-.11.23-.16.44-.3.8-.69,1.07-1.14l.57.48c-.33.54-.77,1.02-1.29,1.38-1.1.92-2.74.77-3.65-.33-.08-.1-.16-.21-.22-.31-1-1.35-.99-3.01.33-3.98,1.48-1.08,2.82-.07,3.42.74.12.17.2.32.26.4l-3.17,2.34h-.02ZM63.38,34.77c-.37-.7-1.23-.97-1.94-.6-.06.03-.12.07-.17.11-.67.57-.78,1.55-.28,2.26l2.39-1.76h0Z"/>
  <path class="cls-1" d="M66.48,32.05c-.4-.6-.74-1.07-1.03-1.48l.74-.49.56.78h0c-.03-.82.4-1.61,1.12-2.01,1.14-.74,2.61-.33,3.54,1.09,1.09,1.69.6,3.19-.5,3.91-.56.4-1.29.47-1.93.2h0l1.65,2.55-.84.55-3.31-5.1h0ZM68.13,32.79c.07.12.16.22.26.33.53.49,1.33.56,1.93.17.91-.58.95-1.65.26-2.74-.61-.96-1.63-1.46-2.52-.88-.6.42-.86,1.2-.61,1.89.04.14.1.27.17.4l.51.84h0Z"/>
  <path class="cls-1" d="M69.54,24.88l.87-.53,4.22,7.03-.87.53-4.22-7.03Z"/>
  <path class="cls-1" d="M78.42,29.21l-.41-.58h0c-.09.67-.49,1.24-1.08,1.56-.73.49-1.72.29-2.21-.44-.02-.04-.05-.08-.07-.12-.67-1.18,0-2.41,1.91-3.46l-.05-.11c-.24-.59-.91-.87-1.51-.63-.08.03-.16.08-.25.13-.46.24-.85.61-1.12,1.06l-.53-.48c.32-.56.79-1.02,1.35-1.33,1.48-.84,2.43,0,2.96.95l1.02,1.83c.21.4.46.77.74,1.12l-.77.49h0ZM76.9,26.79c-.99.53-1.98,1.31-1.48,2.26.21.45.73.65,1.19.44.04-.02.08-.04.12-.07.55-.27.85-.88.74-1.48-.02-.11-.05-.21-.11-.3l-.47-.85h0Z"/>
  <path class="cls-1" d="M77.89,23.12l2.59,2.39c.28.26.61.6.84.85h0c-.06-.35-.16-.78-.21-1.2l-.48-3.43.95-.49.46,4.25c.22,2.03.23,3.14-.11,3.98-.16.45-.44.85-.81,1.15l-.62-.64c.24-.25.43-.54.56-.85.2-.44.28-.92.25-1.4.02-.08.02-.17,0-.26-.05-.07-.11-.15-.18-.21l-4.2-3.61.95-.55h0Z"/>
  <path class="cls-1" d="M86.39,25.16c-.13-.36-.34-.89-.54-1.34l-2.72-6.19.92-.4,1.41,3.21h0c.09-.77.6-1.43,1.33-1.71,1.28-.55,2.63.11,3.31,1.66.8,1.84.04,3.25-1.09,3.75-.69.35-1.53.26-2.14-.21h0l.33.86-.81.36h0ZM86.45,22.68c.06.12.12.22.19.33.44.57,1.21.76,1.87.48.98-.43,1.21-1.48.69-2.65-.45-1.03-1.36-1.67-2.36-1.23-.67.31-1.05,1.04-.91,1.76.02.14.07.27.12.4l.4.91h0Z"/>
  <path class="cls-1" d="M95.89,19.6c.21.54.4,1,.58,1.41l-.84.33-.39-.84h0c-.12.75-.64,1.37-1.35,1.64-.82.32-1.98.24-2.68-1.6l-1.17-3.05.95-.36,1.11,2.89c.38.99.94,1.55,1.8,1.21.72-.3,1.05-1.13.77-1.85l-1.23-3.2.95-.37s1.49,3.8,1.49,3.8Z"/>
  <path class="cls-1" d="M96.45,13.41l.52,1.51,1.38-.47.26.74-1.38.47.98,2.82c.22.66.54.97,1.07.78.19-.07.37-.15.54-.26l.29.74c-.24.19-.52.33-.81.42-.38.16-.81.14-1.18-.05-.43-.3-.72-.74-.84-1.25l-.99-2.89-.84.28-.26-.74.82-.28-.43-1.28.87-.57h0Z"/>
  <path class="cls-1" d="M99.87,12.3l.48,1.54,1.39-.44.23.74-1.39.43.91,2.89c.21.66.51.98,1.05.81.19-.06.37-.14.54-.25l.27.74c-.25.18-.53.31-.82.4-.39.15-.81.12-1.18-.08-.43-.32-.71-.79-.8-1.32l-.91-2.91-.83.26-.23-.74.83-.26-.4-1.28.86-.53h0Z"/>
  <path class="cls-1" d="M108.16,14.47c.52,1.42-.21,2.99-1.61,3.51-.1.03-.19.07-.29.09-1.41.4-2.87-.41-3.28-1.81-.02-.08-.04-.16-.06-.25-.53-1.42.2-2.99,1.61-3.51.09-.03.19-.07.28-.09,1.41-.41,2.87.4,3.28,1.79.02.09.05.18.07.27h0ZM103.9,15.7c.32,1.18,1.24,1.88,2.22,1.62.98-.26,1.4-1.33,1.07-2.54-.26-.91-1.02-1.94-2.22-1.64-1.2.3-1.35,1.52-1.07,2.55Z"/>
  <path class="cls-1" d="M108.84,13.04c-.12-.56-.24-1.02-.38-1.48l.88-.2.26.89h0c.22-.73.82-1.28,1.57-1.42.74-.17,2.02,0,2.44,1.89l.74,3.25-.99.22-.74-3.14c-.19-.88-.69-1.54-1.62-1.33-.62.15-1.06.67-1.1,1.31-.02.16-.02.32,0,.48l.74,3.28-.99.22-.82-3.97h0Z"/>
  <path class="cls-1" d="M213.43,120.31h-.03l-7.85-6.17h-.03l-7.4-5.8-.12-.09h0l-5.46-4.24-3.7-2.86-9.33-7.26-7.4-5.76-1.28-1-15.45-12.11-1.88-1.48v3.47l1.69,1.32v.09l2.7,2.1,6.91,5.38,3.96,3.07.08.07,1.57,1.21,7.4,5.77,9.33,7.25,3.7,2.87,5.45,4.24h0l.1.07,7.4,5.8h.04l7.78,6.17h0l.13.1c4.25,3.37,4.96,9.54,1.59,13.78-.42.53-.89,1.01-1.41,1.44,1.08-4.75-.67-9.7-4.5-12.72l-.03-.03-7.85-6.17h-.03l-7.4-5.8-.12-.09h0l-5.46-4.24-3.7-2.86-9.33-7.26-7.4-5.76-1.28-1-11.3-8.79v3.51l9.2,7.22.08.07,1.57,1.21,7.4,5.77,9.33,7.25,3.7,2.87,5.45,4.24h0l.1.07,7.4,5.8h.08l7.71,6.06h0l.13.11c3.76,2.98,4.82,8.24,2.49,12.44-.65.17-1.33.28-2,.32.12-3.98-1.66-7.77-4.78-10.23h-.03l-7.84-6.17h-.03l-7.4-5.8-.12-.1h0l-5.46-4.25-3.7-2.86-9.33-7.26-7.4-5.76-1.28-.99-5.26-4.09v3.56l3.17,2.48.08.06,1.56,1.21,7.4,5.77,9.33,7.26,3.7,2.86,5.46,4.24h0l.1.07,7.4,5.8h.08l7.71,6.06h0l.13.11c2.36,1.87,3.73,4.73,3.7,7.75h0c-1.33-.31-2.57-.91-3.65-1.73l-.09-.07-5.32-4.13-3.7-2.86-4.01-3.12-5.27-4.04-7.4-5.76-5.6-4.35-11.15-8.67-3.65-2.82v5.03h-13.01v13.02h-13.03v-13.02h-13.02v13.02h-13.01v13.02h-13.02v80.5c.02,6.21,5.05,11.23,11.26,11.21,2.47,0,4.87-.82,6.83-2.34l9.68-7.44,33.39,9.8-13.77-24.93,2.22-1.71,2.46-1.89,13.02-10.03,1.42-1.09,11.57-8.91,5.3-4.08,5.83-4.49,1.88-1.48h0l9.17-7.06,3.84-2.96,7.5-5.79h0c.41-.25.81-.52,1.19-.81.39-.29.75-.61,1.09-.94h0l3.23-2.49h.04l.78-.61c.31-.2.62-.41.91-.64.3-.23.59-.48.87-.74h0l5.18-3.98c5.53-4.24,6.59-12.17,2.34-17.71-.63-.83-1.37-1.58-2.19-2.22h-.05Z"/>
  <rect class="cls-1" x="88.37" y="81.12" width="13.01" height="13.02"/>
  <polygon class="cls-1" points="101.39 55.08 101.35 55.08 88.37 55.08 88.37 68.1 101.39 68.1 101.39 55.1 101.39 55.08"/>
  <rect class="cls-1" x="101.39" y="68.1" width="13.02" height="13.02"/>
  <polygon class="cls-1" points="101.39 94.13 101.39 107.15 88.37 107.15 88.37 120.17 101.39 120.17 101.39 107.15 114.4 107.15 114.4 94.13 101.39 94.13"/>
  <polygon class="cls-1" points="140.45 82.3 140.45 81.12 138.93 81.12 127.42 81.12 127.42 94.13 140.45 94.13 140.45 82.3"/>
</svg>